%TF.GenerationSoftware,KiCad,Pcbnew,(6.0.0)*%
%TF.CreationDate,2022-04-21T21:51:44+01:00*%
%TF.ProjectId,Tracer,54726163-6572-42e6-9b69-6361645f7063,C*%
%TF.SameCoordinates,Original*%
%TF.FileFunction,Copper,L1,Top*%
%TF.FilePolarity,Positive*%
%FSLAX46Y46*%
G04 Gerber Fmt 4.6, Leading zero omitted, Abs format (unit mm)*
G04 Created by KiCad (PCBNEW (6.0.0)) date 2022-04-21 21:51:44*
%MOMM*%
%LPD*%
G01*
G04 APERTURE LIST*
G04 Aperture macros list*
%AMRoundRect*
0 Rectangle with rounded corners*
0 $1 Rounding radius*
0 $2 $3 $4 $5 $6 $7 $8 $9 X,Y pos of 4 corners*
0 Add a 4 corners polygon primitive as box body*
4,1,4,$2,$3,$4,$5,$6,$7,$8,$9,$2,$3,0*
0 Add four circle primitives for the rounded corners*
1,1,$1+$1,$2,$3*
1,1,$1+$1,$4,$5*
1,1,$1+$1,$6,$7*
1,1,$1+$1,$8,$9*
0 Add four rect primitives between the rounded corners*
20,1,$1+$1,$2,$3,$4,$5,0*
20,1,$1+$1,$4,$5,$6,$7,0*
20,1,$1+$1,$6,$7,$8,$9,0*
20,1,$1+$1,$8,$9,$2,$3,0*%
G04 Aperture macros list end*
%TA.AperFunction,SMDPad,CuDef*%
%ADD10RoundRect,0.140000X-0.140000X-0.170000X0.140000X-0.170000X0.140000X0.170000X-0.140000X0.170000X0*%
%TD*%
%TA.AperFunction,SMDPad,CuDef*%
%ADD11RoundRect,0.135000X0.135000X0.185000X-0.135000X0.185000X-0.135000X-0.185000X0.135000X-0.185000X0*%
%TD*%
%TA.AperFunction,SMDPad,CuDef*%
%ADD12RoundRect,0.140000X0.170000X-0.140000X0.170000X0.140000X-0.170000X0.140000X-0.170000X-0.140000X0*%
%TD*%
%TA.AperFunction,SMDPad,CuDef*%
%ADD13RoundRect,0.250000X0.475000X-0.250000X0.475000X0.250000X-0.475000X0.250000X-0.475000X-0.250000X0*%
%TD*%
%TA.AperFunction,SMDPad,CuDef*%
%ADD14RoundRect,0.250000X0.250000X0.475000X-0.250000X0.475000X-0.250000X-0.475000X0.250000X-0.475000X0*%
%TD*%
%TA.AperFunction,SMDPad,CuDef*%
%ADD15R,0.600000X0.450000*%
%TD*%
%TA.AperFunction,SMDPad,CuDef*%
%ADD16R,0.400000X0.450000*%
%TD*%
%TA.AperFunction,SMDPad,CuDef*%
%ADD17R,0.500000X0.450000*%
%TD*%
%TA.AperFunction,SMDPad,CuDef*%
%ADD18RoundRect,0.135000X-0.135000X-0.185000X0.135000X-0.185000X0.135000X0.185000X-0.135000X0.185000X0*%
%TD*%
%TA.AperFunction,SMDPad,CuDef*%
%ADD19RoundRect,0.250000X-0.250000X-0.475000X0.250000X-0.475000X0.250000X0.475000X-0.250000X0.475000X0*%
%TD*%
%TA.AperFunction,SMDPad,CuDef*%
%ADD20RoundRect,0.225000X0.250000X-0.225000X0.250000X0.225000X-0.250000X0.225000X-0.250000X-0.225000X0*%
%TD*%
%TA.AperFunction,SMDPad,CuDef*%
%ADD21R,0.500000X0.500000*%
%TD*%
%TA.AperFunction,SMDPad,CuDef*%
%ADD22RoundRect,0.135000X-0.185000X0.135000X-0.185000X-0.135000X0.185000X-0.135000X0.185000X0.135000X0*%
%TD*%
%TA.AperFunction,SMDPad,CuDef*%
%ADD23R,0.350000X0.575000*%
%TD*%
%TA.AperFunction,SMDPad,CuDef*%
%ADD24R,0.575000X0.350000*%
%TD*%
%TA.AperFunction,SMDPad,CuDef*%
%ADD25R,1.350000X0.400000*%
%TD*%
%TA.AperFunction,ComponentPad*%
%ADD26C,1.950000*%
%TD*%
%TA.AperFunction,SMDPad,CuDef*%
%ADD27R,1.400000X1.600000*%
%TD*%
%TA.AperFunction,SMDPad,CuDef*%
%ADD28R,1.600000X1.900000*%
%TD*%
%TA.AperFunction,SMDPad,CuDef*%
%ADD29R,1.200000X0.600000*%
%TD*%
%TA.AperFunction,SMDPad,CuDef*%
%ADD30R,1.000000X1.000000*%
%TD*%
%TA.AperFunction,SMDPad,CuDef*%
%ADD31RoundRect,0.140000X0.140000X0.170000X-0.140000X0.170000X-0.140000X-0.170000X0.140000X-0.170000X0*%
%TD*%
%TA.AperFunction,SMDPad,CuDef*%
%ADD32RoundRect,0.218750X-0.218750X-0.256250X0.218750X-0.256250X0.218750X0.256250X-0.218750X0.256250X0*%
%TD*%
%TA.AperFunction,ComponentPad*%
%ADD33R,1.000000X1.000000*%
%TD*%
%TA.AperFunction,ComponentPad*%
%ADD34O,1.000000X1.000000*%
%TD*%
%TA.AperFunction,SMDPad,CuDef*%
%ADD35RoundRect,0.135000X0.185000X-0.135000X0.185000X0.135000X-0.185000X0.135000X-0.185000X-0.135000X0*%
%TD*%
%TA.AperFunction,SMDPad,CuDef*%
%ADD36RoundRect,0.140000X-0.170000X0.140000X-0.170000X-0.140000X0.170000X-0.140000X0.170000X0.140000X0*%
%TD*%
%TA.AperFunction,SMDPad,CuDef*%
%ADD37R,1.200000X1.000000*%
%TD*%
%TA.AperFunction,SMDPad,CuDef*%
%ADD38R,1.000000X0.300000*%
%TD*%
%TA.AperFunction,SMDPad,CuDef*%
%ADD39R,0.300000X1.000000*%
%TD*%
%TA.AperFunction,SMDPad,CuDef*%
%ADD40R,3.350000X3.350000*%
%TD*%
%TA.AperFunction,SMDPad,CuDef*%
%ADD41RoundRect,0.250000X-0.625000X0.400000X-0.625000X-0.400000X0.625000X-0.400000X0.625000X0.400000X0*%
%TD*%
%TA.AperFunction,SMDPad,CuDef*%
%ADD42R,0.650000X0.400000*%
%TD*%
%TA.AperFunction,SMDPad,CuDef*%
%ADD43R,0.550000X0.350000*%
%TD*%
%TA.AperFunction,SMDPad,CuDef*%
%ADD44R,0.350000X0.550000*%
%TD*%
%TA.AperFunction,SMDPad,CuDef*%
%ADD45R,5.500000X5.500000*%
%TD*%
%TA.AperFunction,SMDPad,CuDef*%
%ADD46RoundRect,0.225000X-0.250000X0.225000X-0.250000X-0.225000X0.250000X-0.225000X0.250000X0.225000X0*%
%TD*%
%TA.AperFunction,SMDPad,CuDef*%
%ADD47RoundRect,0.200000X-0.275000X0.200000X-0.275000X-0.200000X0.275000X-0.200000X0.275000X0.200000X0*%
%TD*%
%TA.AperFunction,SMDPad,CuDef*%
%ADD48R,0.900000X0.600000*%
%TD*%
%TA.AperFunction,SMDPad,CuDef*%
%ADD49R,1.650000X0.650000*%
%TD*%
%TA.AperFunction,ViaPad*%
%ADD50C,0.500000*%
%TD*%
%TA.AperFunction,ViaPad*%
%ADD51C,0.600000*%
%TD*%
%TA.AperFunction,Conductor*%
%ADD52C,0.250000*%
%TD*%
%TA.AperFunction,Conductor*%
%ADD53C,0.150000*%
%TD*%
%TA.AperFunction,Conductor*%
%ADD54C,0.200000*%
%TD*%
%TA.AperFunction,Conductor*%
%ADD55C,0.500000*%
%TD*%
%TA.AperFunction,Conductor*%
%ADD56C,0.293770*%
%TD*%
G04 APERTURE END LIST*
D10*
%TO.P,C15,1*%
%TO.N,+3V3*%
X142320000Y-95100000D03*
%TO.P,C15,2*%
%TO.N,GND*%
X143280000Y-95100000D03*
%TD*%
D11*
%TO.P,R10,1*%
%TO.N,RST*%
X135110000Y-99750000D03*
%TO.P,R10,2*%
%TO.N,+3V3*%
X134090000Y-99750000D03*
%TD*%
D12*
%TO.P,C1,1*%
%TO.N,+3V3*%
X149600000Y-97900000D03*
%TO.P,C1,2*%
%TO.N,GND*%
X149600000Y-96940000D03*
%TD*%
D13*
%TO.P,C16,1*%
%TO.N,+3V3*%
X138195000Y-86850000D03*
%TO.P,C16,2*%
%TO.N,GND*%
X138195000Y-84950000D03*
%TD*%
D14*
%TO.P,C5,1*%
%TO.N,+BATT*%
X153155000Y-89200000D03*
%TO.P,C5,2*%
%TO.N,GND*%
X151255000Y-89200000D03*
%TD*%
D15*
%TO.P,D1,1,K*%
%TO.N,VUSB*%
X154900000Y-93300000D03*
%TO.P,D1,2,A*%
%TO.N,Net-(D1-Pad2)*%
X157000000Y-93300000D03*
%TD*%
D16*
%TO.P,Q2,1,G*%
%TO.N,VUSB*%
X148600000Y-86125000D03*
%TO.P,Q2,2,S*%
%TO.N,VBUS*%
X147800000Y-86125000D03*
D17*
%TO.P,Q2,3,D*%
%TO.N,+BATT*%
X148200000Y-87275000D03*
%TD*%
D18*
%TO.P,R7,1*%
%TO.N,+3V3*%
X134090000Y-100750000D03*
%TO.P,R7,2*%
%TO.N,RST*%
X135110000Y-100750000D03*
%TD*%
D13*
%TO.P,C3,1*%
%TO.N,GND*%
X152650000Y-94350000D03*
%TO.P,C3,2*%
%TO.N,VUSB*%
X152650000Y-92450000D03*
%TD*%
D19*
%TO.P,C6,1*%
%TO.N,+3V3*%
X140345000Y-82900000D03*
%TO.P,C6,2*%
%TO.N,GND*%
X142245000Y-82900000D03*
%TD*%
D20*
%TO.P,C14,1*%
%TO.N,+3V3*%
X139000000Y-94875000D03*
%TO.P,C14,2*%
%TO.N,GND*%
X139000000Y-93325000D03*
%TD*%
D21*
%TO.P,IC4,1,AVDDVCSEL*%
%TO.N,+3V3*%
X139250000Y-90131885D03*
%TO.P,IC4,2,AVSSVCSEL*%
%TO.N,GND*%
X140050000Y-90131885D03*
%TO.P,IC4,3,GND*%
X140850000Y-90131885D03*
%TO.P,IC4,4,GND2*%
X141650000Y-90131885D03*
%TO.P,IC4,5,XSHUT*%
%TO.N,GPIO19*%
X142450000Y-90131885D03*
%TO.P,IC4,6,GND3*%
%TO.N,GND*%
X142450000Y-90931885D03*
%TO.P,IC4,7,GPIO1*%
%TO.N,unconnected-(IC4-Pad7)*%
X142450000Y-91731885D03*
%TO.P,IC4,8,DNC*%
%TO.N,unconnected-(IC4-Pad8)*%
X141650000Y-91731885D03*
%TO.P,IC4,9,SDA*%
%TO.N,GPIO18*%
X140850000Y-91731885D03*
%TO.P,IC4,10,SCL*%
%TO.N,GPIO23*%
X140050000Y-91731885D03*
%TO.P,IC4,11,AVDD*%
%TO.N,+3V3*%
X139250000Y-91731885D03*
%TO.P,IC4,12,GND4*%
%TO.N,GND*%
X139250000Y-90931885D03*
%TD*%
D22*
%TO.P,R12,1*%
%TO.N,+3V3*%
X153350000Y-97090000D03*
%TO.P,R12,2*%
%TO.N,Net-(IC8-Pad9)*%
X153350000Y-98110000D03*
%TD*%
D23*
%TO.P,IC1,1,SDO/SA0*%
%TO.N,unconnected-(IC1-Pad1)*%
X146750000Y-97463000D03*
%TO.P,IC1,2,SDX*%
%TO.N,unconnected-(IC1-Pad2)*%
X147250000Y-97463000D03*
%TO.P,IC1,3,SCX*%
%TO.N,unconnected-(IC1-Pad3)*%
X147750000Y-97463000D03*
%TO.P,IC1,4,INT1*%
%TO.N,GPIO37*%
X148250000Y-97463000D03*
D24*
%TO.P,IC1,5,VDDIO*%
%TO.N,+3V3*%
X148412000Y-96800000D03*
%TO.P,IC1,6,GND_1*%
%TO.N,GND*%
X148412000Y-96300000D03*
%TO.P,IC1,7,GND_2*%
X148412000Y-95800000D03*
D23*
%TO.P,IC1,8,VDD*%
%TO.N,+3V3*%
X148250000Y-95137000D03*
%TO.P,IC1,9,INT2*%
%TO.N,GPIO36*%
X147750000Y-95137000D03*
%TO.P,IC1,10,NC_1*%
%TO.N,unconnected-(IC1-Pad10)*%
X147250000Y-95137000D03*
%TO.P,IC1,11,NC_2*%
%TO.N,unconnected-(IC1-Pad11)*%
X146750000Y-95137000D03*
D24*
%TO.P,IC1,12,CS*%
%TO.N,unconnected-(IC1-Pad12)*%
X146588000Y-95800000D03*
%TO.P,IC1,13,SCL*%
%TO.N,GPIO23*%
X146588000Y-96300000D03*
%TO.P,IC1,14,SDA*%
%TO.N,GPIO18*%
X146588000Y-96800000D03*
%TD*%
D25*
%TO.P,J1,1,VBUS*%
%TO.N,Net-(D1-Pad2)*%
X160800000Y-97500000D03*
%TO.P,J1,2,D-*%
%TO.N,D-*%
X160800000Y-96850000D03*
%TO.P,J1,3,D+*%
%TO.N,D+*%
X160800000Y-96200000D03*
%TO.P,J1,4,NC*%
%TO.N,unconnected-(J1-Pad4)*%
X160800000Y-95550000D03*
%TO.P,J1,5,GND*%
%TO.N,GND*%
X160800000Y-94900000D03*
D26*
%TO.P,J1,MH1,MH1*%
%TO.N,unconnected-(J1-PadMH1)*%
X163475000Y-99500000D03*
%TO.P,J1,MH2,MH2*%
%TO.N,unconnected-(J1-PadMH2)*%
X163475000Y-92900000D03*
D27*
%TO.P,J1,MP1,MP1*%
%TO.N,unconnected-(J1-PadMP1)*%
X161025000Y-99400000D03*
D28*
%TO.P,J1,MP2,MP2*%
%TO.N,unconnected-(J1-PadMP2)*%
X163475000Y-97400000D03*
%TO.P,J1,MP3,MP3*%
%TO.N,unconnected-(J1-PadMP3)*%
X163475000Y-95000000D03*
D27*
%TO.P,J1,MP4,MP4*%
%TO.N,unconnected-(J1-PadMP4)*%
X161025000Y-93000000D03*
%TD*%
D29*
%TO.P,IC5,1,CHRG*%
%TO.N,Net-(D4-Pad1)*%
X153705000Y-85350000D03*
%TO.P,IC5,2,GND*%
%TO.N,GND*%
X153705000Y-86300000D03*
%TO.P,IC5,3,VBAT*%
%TO.N,+BATT*%
X153705000Y-87250000D03*
%TO.P,IC5,4,VCC*%
%TO.N,VUSB*%
X156205000Y-87250000D03*
%TO.P,IC5,5,PROG*%
%TO.N,Net-(IC5-Pad5)*%
X156205000Y-85350000D03*
%TD*%
D18*
%TO.P,R16,1*%
%TO.N,GPIO19*%
X143840000Y-90150000D03*
%TO.P,R16,2*%
%TO.N,+3V3*%
X144860000Y-90150000D03*
%TD*%
D11*
%TO.P,R2,1*%
%TO.N,Net-(D2-Pad2)*%
X160010000Y-86000000D03*
%TO.P,R2,2*%
%TO.N,VUSB*%
X158990000Y-86000000D03*
%TD*%
D12*
%TO.P,C10,1*%
%TO.N,+3V3*%
X137700000Y-95180000D03*
%TO.P,C10,2*%
%TO.N,GND*%
X137700000Y-94220000D03*
%TD*%
D30*
%TO.P,TP3,1,1*%
%TO.N,GPIO23*%
X146500000Y-92500000D03*
%TD*%
D13*
%TO.P,C18,1*%
%TO.N,VUSB*%
X155600000Y-97750000D03*
%TO.P,C18,2*%
%TO.N,GND*%
X155600000Y-95850000D03*
%TD*%
D12*
%TO.P,C13,1*%
%TO.N,+3V3*%
X136200000Y-95180000D03*
%TO.P,C13,2*%
%TO.N,GND*%
X136200000Y-94220000D03*
%TD*%
D31*
%TO.P,C20,1*%
%TO.N,+3V3*%
X137830000Y-91750000D03*
%TO.P,C20,2*%
%TO.N,GND*%
X136870000Y-91750000D03*
%TD*%
D32*
%TO.P,D2,1,K*%
%TO.N,GND*%
X159012500Y-84700000D03*
%TO.P,D2,2,A*%
%TO.N,Net-(D2-Pad2)*%
X160587500Y-84700000D03*
%TD*%
D33*
%TO.P,J2,1,Pin_1*%
%TO.N,DTR*%
X157400000Y-110900000D03*
D34*
%TO.P,J2,2,Pin_2*%
%TO.N,U0RXD*%
X156130000Y-110900000D03*
%TO.P,J2,3,Pin_3*%
%TO.N,U0TXD*%
X154860000Y-110900000D03*
%TO.P,J2,4,Pin_4*%
%TO.N,RTS*%
X153590000Y-110900000D03*
%TD*%
D22*
%TO.P,R4,1*%
%TO.N,+3V3*%
X145400000Y-94890000D03*
%TO.P,R4,2*%
%TO.N,GPIO23*%
X145400000Y-95910000D03*
%TD*%
D35*
%TO.P,R6,1*%
%TO.N,Net-(IC5-Pad5)*%
X157700000Y-86000000D03*
%TO.P,R6,2*%
%TO.N,GND*%
X157700000Y-84980000D03*
%TD*%
D30*
%TO.P,TP11,1,1*%
%TO.N,GND*%
X130100000Y-96200000D03*
%TD*%
%TO.P,TP6,1,1*%
%TO.N,+3V3*%
X130100000Y-100400000D03*
%TD*%
D35*
%TO.P,R3,1*%
%TO.N,VUSB*%
X155000000Y-91210000D03*
%TO.P,R3,2*%
%TO.N,Net-(D4-Pad2)*%
X155000000Y-90190000D03*
%TD*%
D36*
%TO.P,C2,1*%
%TO.N,+3V3*%
X149600000Y-95020000D03*
%TO.P,C2,2*%
%TO.N,GND*%
X149600000Y-95980000D03*
%TD*%
D37*
%TO.P,S1,1,1*%
%TO.N,RST*%
X138150000Y-109400000D03*
%TO.P,S1,2,2*%
%TO.N,GND*%
X130750000Y-109400000D03*
%TD*%
D32*
%TO.P,D4,1,K*%
%TO.N,Net-(D4-Pad1)*%
X154812500Y-88900000D03*
%TO.P,D4,2,A*%
%TO.N,Net-(D4-Pad2)*%
X156387500Y-88900000D03*
%TD*%
D15*
%TO.P,D3,1,K*%
%TO.N,VBUS*%
X147850000Y-84700000D03*
%TO.P,D3,2,A*%
%TO.N,VUSB*%
X149950000Y-84700000D03*
%TD*%
D35*
%TO.P,R1,1*%
%TO.N,GND*%
X149700000Y-87210000D03*
%TO.P,R1,2*%
%TO.N,VUSB*%
X149700000Y-86190000D03*
%TD*%
D31*
%TO.P,C19,1*%
%TO.N,+3V3*%
X137830000Y-90050000D03*
%TO.P,C19,2*%
%TO.N,GND*%
X136870000Y-90050000D03*
%TD*%
D38*
%TO.P,IC8,1,DCD*%
%TO.N,unconnected-(IC8-Pad1)*%
X154700000Y-103200000D03*
%TO.P,IC8,2,RI_/_CLK*%
%TO.N,unconnected-(IC8-Pad2)*%
X154700000Y-102700000D03*
%TO.P,IC8,3,GND_1*%
%TO.N,GND*%
X154700000Y-102200000D03*
%TO.P,IC8,4,D+*%
%TO.N,D+*%
X154700000Y-101700000D03*
%TO.P,IC8,5,D-*%
%TO.N,D-*%
X154700000Y-101200000D03*
%TO.P,IC8,6,VDD*%
%TO.N,Net-(C17-Pad1)*%
X154700000Y-100700000D03*
%TO.P,IC8,7,VREGIN*%
%TO.N,VUSB*%
X154700000Y-100200000D03*
D39*
%TO.P,IC8,8,VBUS*%
X153850000Y-99350000D03*
%TO.P,IC8,9,RSTB*%
%TO.N,Net-(IC8-Pad9)*%
X153350000Y-99350000D03*
%TO.P,IC8,10,NC*%
%TO.N,unconnected-(IC8-Pad10)*%
X152850000Y-99350000D03*
%TO.P,IC8,11,SUSPENDB*%
%TO.N,Net-(IC8-Pad11)*%
X152350000Y-99350000D03*
%TO.P,IC8,12,SUSPEND*%
%TO.N,unconnected-(IC8-Pad12)*%
X151850000Y-99350000D03*
%TO.P,IC8,13,CHREN*%
%TO.N,unconnected-(IC8-Pad13)*%
X151350000Y-99350000D03*
%TO.P,IC8,14,CHR1*%
%TO.N,unconnected-(IC8-Pad14)*%
X150850000Y-99350000D03*
D38*
%TO.P,IC8,15,CHR0*%
%TO.N,unconnected-(IC8-Pad15)*%
X150000000Y-100200000D03*
%TO.P,IC8,16,GPIO.3_/_WAKEUP*%
%TO.N,unconnected-(IC8-Pad16)*%
X150000000Y-100700000D03*
%TO.P,IC8,17,GPIO.2_/_RS485*%
%TO.N,unconnected-(IC8-Pad17)*%
X150000000Y-101200000D03*
%TO.P,IC8,18,GPIO.1_/_RXT*%
%TO.N,unconnected-(IC8-Pad18)*%
X150000000Y-101700000D03*
%TO.P,IC8,19,GPIO.0_/_TXT*%
%TO.N,unconnected-(IC8-Pad19)*%
X150000000Y-102200000D03*
%TO.P,IC8,20,GPIO.6*%
%TO.N,unconnected-(IC8-Pad20)*%
X150000000Y-102700000D03*
%TO.P,IC8,21,GPIO.5*%
%TO.N,unconnected-(IC8-Pad21)*%
X150000000Y-103200000D03*
D39*
%TO.P,IC8,22,GPIO.4*%
%TO.N,unconnected-(IC8-Pad22)*%
X150850000Y-104050000D03*
%TO.P,IC8,23,CTS*%
%TO.N,unconnected-(IC8-Pad23)*%
X151350000Y-104050000D03*
%TO.P,IC8,24,RTS*%
%TO.N,RTS*%
X151850000Y-104050000D03*
%TO.P,IC8,25,RXD*%
%TO.N,U0TXD*%
X152350000Y-104050000D03*
%TO.P,IC8,26,TXD*%
%TO.N,U0RXD*%
X152850000Y-104050000D03*
%TO.P,IC8,27,DSR*%
%TO.N,unconnected-(IC8-Pad27)*%
X153350000Y-104050000D03*
%TO.P,IC8,28,DTR*%
%TO.N,DTR*%
X153850000Y-104050000D03*
D40*
%TO.P,IC8,29,GND_2*%
%TO.N,GND*%
X152350000Y-101700000D03*
%TD*%
D31*
%TO.P,C12,1*%
%TO.N,+3V3*%
X133680000Y-96500000D03*
%TO.P,C12,2*%
%TO.N,GND*%
X132720000Y-96500000D03*
%TD*%
D41*
%TO.P,AE1,1,FEED*%
%TO.N,unconnected-(AE1-Pad1)*%
X130500000Y-88850000D03*
%TO.P,AE1,2,PCB_Trace*%
%TO.N,ANT*%
X130500000Y-91950000D03*
%TD*%
D11*
%TO.P,R9,1*%
%TO.N,GPIO35*%
X135110000Y-101800000D03*
%TO.P,R9,2*%
%TO.N,GND*%
X134090000Y-101800000D03*
%TD*%
D42*
%TO.P,Q1,1,E2*%
%TO.N,RTS*%
X139350000Y-105700000D03*
%TO.P,Q1,2,B2*%
%TO.N,DTR*%
X139350000Y-105050000D03*
%TO.P,Q1,3,C1*%
%TO.N,GPIO0*%
X139350000Y-104400000D03*
%TO.P,Q1,4,E1*%
%TO.N,DTR*%
X137450000Y-104400000D03*
%TO.P,Q1,5,B1*%
%TO.N,RTS*%
X137450000Y-105050000D03*
%TO.P,Q1,6,C2*%
%TO.N,RST*%
X137450000Y-105700000D03*
%TD*%
D43*
%TO.P,IC3,1,VDDA_1*%
%TO.N,+3V3*%
X136200000Y-96800000D03*
%TO.P,IC3,2,LNA_IN*%
%TO.N,ANT*%
X136200000Y-97300000D03*
%TO.P,IC3,3,VDDA3P3_1*%
%TO.N,+3V3*%
X136200000Y-97800000D03*
%TO.P,IC3,4,VDDA3P3_2*%
X136200000Y-98300000D03*
%TO.P,IC3,5,SENSOR_VP*%
%TO.N,GPIO36*%
X136200000Y-98800000D03*
%TO.P,IC3,6,SENSOR_CAPP*%
%TO.N,GPIO37*%
X136200000Y-99300000D03*
%TO.P,IC3,7,SENSOR_CAPN*%
%TO.N,GPIO38*%
X136200000Y-99800000D03*
%TO.P,IC3,8,SENSOR_VN*%
%TO.N,GPIO39*%
X136200000Y-100300000D03*
%TO.P,IC3,9,EN*%
%TO.N,RST*%
X136200000Y-100800000D03*
%TO.P,IC3,10,IO34*%
%TO.N,STAT*%
X136200000Y-101300000D03*
%TO.P,IC3,11,IO35*%
%TO.N,GPIO35*%
X136200000Y-101800000D03*
%TO.P,IC3,12,IO32*%
%TO.N,GPIO32*%
X136200000Y-102300000D03*
D44*
%TO.P,IC3,13,IO33*%
%TO.N,GPIO33*%
X136750000Y-102850000D03*
%TO.P,IC3,14,IO25*%
%TO.N,GPIO25*%
X137250000Y-102850000D03*
%TO.P,IC3,15,IO26*%
%TO.N,GPIO26*%
X137750000Y-102850000D03*
%TO.P,IC3,16,IO27*%
%TO.N,GPIO27*%
X138250000Y-102850000D03*
%TO.P,IC3,17,IO14*%
%TO.N,GPIO14*%
X138750000Y-102850000D03*
%TO.P,IC3,18,IO12*%
%TO.N,GPIO12*%
X139250000Y-102850000D03*
%TO.P,IC3,19,VDD3P3_RTC*%
%TO.N,+3V3*%
X139750000Y-102850000D03*
%TO.P,IC3,20,IO13*%
%TO.N,GPIO13*%
X140250000Y-102850000D03*
%TO.P,IC3,21,IO15*%
%TO.N,GPIO15*%
X140750000Y-102850000D03*
%TO.P,IC3,22,IO2*%
%TO.N,GPIO2*%
X141250000Y-102850000D03*
%TO.P,IC3,23,IO0*%
%TO.N,GPIO0*%
X141750000Y-102850000D03*
%TO.P,IC3,24,IO4*%
%TO.N,GPIO4*%
X142250000Y-102850000D03*
D43*
%TO.P,IC3,25,IO16*%
%TO.N,GPIO16*%
X142800000Y-102300000D03*
%TO.P,IC3,26,VDD_SDIO_NC*%
%TO.N,VDDSDIO*%
X142800000Y-101800000D03*
%TO.P,IC3,27,IO17*%
%TO.N,GPIO17*%
X142800000Y-101300000D03*
%TO.P,IC3,28,SD2*%
%TO.N,GPIO9*%
X142800000Y-100800000D03*
%TO.P,IC3,29,SD3*%
%TO.N,GPIO10*%
X142800000Y-100300000D03*
%TO.P,IC3,30,CMD*%
%TO.N,GPIO11*%
X142800000Y-99800000D03*
%TO.P,IC3,31,CLK*%
%TO.N,CLK*%
X142800000Y-99300000D03*
%TO.P,IC3,32,SD0*%
%TO.N,GPIO7*%
X142800000Y-98800000D03*
%TO.P,IC3,33,SD1*%
%TO.N,GPIO8*%
X142800000Y-98300000D03*
%TO.P,IC3,34,IO5*%
%TO.N,GPIO5*%
X142800000Y-97800000D03*
%TO.P,IC3,35,IO18*%
%TO.N,GPIO18*%
X142800000Y-97300000D03*
%TO.P,IC3,36,IO23*%
%TO.N,GPIO23*%
X142800000Y-96800000D03*
D44*
%TO.P,IC3,37,VDD3P3_CPU*%
%TO.N,+3V3*%
X142250000Y-96250000D03*
%TO.P,IC3,38,IO19*%
%TO.N,GPIO19*%
X141750000Y-96250000D03*
%TO.P,IC3,39,IO22*%
%TO.N,GPIO22*%
X141250000Y-96250000D03*
%TO.P,IC3,40,U0RXD*%
%TO.N,U0RXD*%
X140750000Y-96250000D03*
%TO.P,IC3,41,U0TXD*%
%TO.N,U0TXD*%
X140250000Y-96250000D03*
%TO.P,IC3,42,IO21*%
%TO.N,GPIO21*%
X139750000Y-96250000D03*
%TO.P,IC3,43,VDDA_2*%
%TO.N,+3V3*%
X139250000Y-96250000D03*
%TO.P,IC3,44,XTAL_N_NC*%
%TO.N,unconnected-(IC3-Pad44)*%
X138750000Y-96250000D03*
%TO.P,IC3,45,XTAL_P_NC*%
%TO.N,unconnected-(IC3-Pad45)*%
X138250000Y-96250000D03*
%TO.P,IC3,46,VDDA_3*%
%TO.N,+3V3*%
X137750000Y-96250000D03*
%TO.P,IC3,47,CAP2_NC*%
%TO.N,unconnected-(IC3-Pad47)*%
X137250000Y-96250000D03*
%TO.P,IC3,48,CAP1_NC*%
%TO.N,unconnected-(IC3-Pad48)*%
X136750000Y-96250000D03*
D45*
%TO.P,IC3,49,GND*%
%TO.N,GND*%
X139494000Y-99537000D03*
%TD*%
D10*
%TO.P,C17,1*%
%TO.N,Net-(C17-Pad1)*%
X156070000Y-99550000D03*
%TO.P,C17,2*%
%TO.N,GND*%
X157030000Y-99550000D03*
%TD*%
D30*
%TO.P,TP5,1,1*%
%TO.N,+BATT*%
X158950000Y-103800000D03*
%TD*%
D46*
%TO.P,C7,1*%
%TO.N,RST*%
X134600000Y-104025000D03*
%TO.P,C7,2*%
%TO.N,GND*%
X134600000Y-105575000D03*
%TD*%
D35*
%TO.P,R5,1*%
%TO.N,+3V3*%
X145400000Y-97920000D03*
%TO.P,R5,2*%
%TO.N,GPIO18*%
X145400000Y-96900000D03*
%TD*%
D12*
%TO.P,C8,1*%
%TO.N,VUSB*%
X157100000Y-98060000D03*
%TO.P,C8,2*%
%TO.N,GND*%
X157100000Y-97100000D03*
%TD*%
D30*
%TO.P,TP4,1,1*%
%TO.N,GPIO18*%
X148600000Y-92500000D03*
%TD*%
D14*
%TO.P,C4,1*%
%TO.N,VBUS*%
X146245000Y-85900000D03*
%TO.P,C4,2*%
%TO.N,GND*%
X144345000Y-85900000D03*
%TD*%
D47*
%TO.P,R8,1*%
%TO.N,+BATT*%
X160800000Y-102475000D03*
%TO.P,R8,2*%
%TO.N,GPIO35*%
X160800000Y-104125000D03*
%TD*%
D48*
%TO.P,IC6,1,VIN*%
%TO.N,VBUS*%
X142795000Y-86750000D03*
%TO.P,IC6,2,VSS*%
%TO.N,GND*%
X142795000Y-85800000D03*
%TO.P,IC6,3,CE*%
%TO.N,VBUS*%
X142795000Y-84850000D03*
%TO.P,IC6,4,NC*%
%TO.N,unconnected-(IC6-Pad4)*%
X139995000Y-84850000D03*
%TO.P,IC6,5,VOUT*%
%TO.N,+3V3*%
X139995000Y-86750000D03*
%TD*%
D35*
%TO.P,R13,1*%
%TO.N,Net-(IC8-Pad11)*%
X152350000Y-98120000D03*
%TO.P,R13,2*%
%TO.N,GND*%
X152350000Y-97100000D03*
%TD*%
D49*
%TO.P,IC2,1,~{CS}*%
%TO.N,GPIO10*%
X142200000Y-106495000D03*
%TO.P,IC2,2,DO(IO1)*%
%TO.N,GPIO17*%
X142200000Y-107765000D03*
%TO.P,IC2,3,IO2*%
%TO.N,GPIO7*%
X142200000Y-109035000D03*
%TO.P,IC2,4,GND*%
%TO.N,GND*%
X142200000Y-110305000D03*
%TO.P,IC2,5,DI(IO0)*%
%TO.N,GPIO8*%
X149400000Y-110305000D03*
%TO.P,IC2,6,CLK*%
%TO.N,CLK*%
X149400000Y-109035000D03*
%TO.P,IC2,7,IO3*%
%TO.N,GPIO11*%
X149400000Y-107765000D03*
%TO.P,IC2,8,VCC*%
%TO.N,VDDSDIO*%
X149400000Y-106495000D03*
%TD*%
D30*
%TO.P,TP2,1,1*%
%TO.N,VUSB*%
X156550000Y-91200000D03*
%TD*%
D36*
%TO.P,C11,1*%
%TO.N,VDDSDIO*%
X143900000Y-101870000D03*
%TO.P,C11,2*%
%TO.N,GND*%
X143900000Y-102830000D03*
%TD*%
D31*
%TO.P,C9,1*%
%TO.N,+3V3*%
X133680000Y-97500000D03*
%TO.P,C9,2*%
%TO.N,GND*%
X132720000Y-97500000D03*
%TD*%
D50*
%TO.N,+BATT*%
X148200000Y-88400000D03*
X160800000Y-101600000D03*
X152500000Y-87500000D03*
%TO.N,GND*%
X138000000Y-101100000D03*
X139500000Y-97600000D03*
X138000000Y-99550000D03*
X136135000Y-83080000D03*
X151200000Y-90600000D03*
X146295000Y-88160000D03*
X143755000Y-83080000D03*
X157950000Y-99600000D03*
X136900000Y-93500000D03*
X151060000Y-102950000D03*
X151060000Y-101680000D03*
X141000000Y-101100000D03*
X149679122Y-87879122D03*
X146295000Y-83080000D03*
X153600000Y-102950000D03*
X152330000Y-100410000D03*
X143900000Y-103600000D03*
X139500000Y-101100000D03*
X140850000Y-90950000D03*
X143755000Y-88160000D03*
X154000000Y-94400000D03*
X135950000Y-90950000D03*
X141000000Y-99550000D03*
X150400000Y-96400000D03*
X134100000Y-102600000D03*
X151060000Y-100410000D03*
X141000000Y-97600000D03*
X157600000Y-84000000D03*
X159600000Y-94900000D03*
X152330000Y-102950000D03*
X156600000Y-102250000D03*
X141215000Y-85620000D03*
X142200000Y-111200000D03*
X141215000Y-88160000D03*
X129500000Y-109400000D03*
X157100000Y-95850000D03*
X144100000Y-95100000D03*
X132100000Y-98500000D03*
X152330000Y-101680000D03*
X139500000Y-99550000D03*
X138000000Y-97600000D03*
X153600000Y-101680000D03*
X153600000Y-100410000D03*
X136135000Y-88160000D03*
D51*
%TO.N,+3V3*%
X140200000Y-94200000D03*
X140300000Y-103700000D03*
X142700000Y-94200000D03*
X140395000Y-81500000D03*
X135300000Y-95100000D03*
X154332671Y-97067329D03*
X138195000Y-88100000D03*
X145400000Y-94100000D03*
X134100000Y-98900000D03*
X150500000Y-97900000D03*
X144500000Y-97500000D03*
X130100000Y-101800000D03*
X145750000Y-90150000D03*
X149600000Y-94300000D03*
D50*
%TO.N,GPIO10*%
X145400000Y-102400000D03*
X144800000Y-100300000D03*
%TO.N,GPIO17*%
X144600000Y-101370500D03*
X144700000Y-102369500D03*
%TO.N,GPIO7*%
X144300000Y-98800000D03*
X146049503Y-102400000D03*
%TO.N,GPIO36*%
X146200000Y-94500000D03*
X134800000Y-98250497D03*
%TO.N,GPIO37*%
X134800000Y-98900000D03*
X148200000Y-98300000D03*
%TO.N,VUSB*%
X155600000Y-96800000D03*
X155900000Y-93300000D03*
%TO.N,GPIO18*%
X144025500Y-91600000D03*
X145200000Y-91550497D03*
X148600000Y-93800000D03*
X147634166Y-96656944D03*
%TO.N,GPIO23*%
X147300000Y-96100000D03*
X145200000Y-92200000D03*
X144025500Y-92249503D03*
X146500000Y-93800000D03*
%TO.N,GPIO19*%
X141600000Y-95549503D03*
X143400000Y-93900000D03*
%TO.N,U0RXD*%
X156100000Y-106200000D03*
X140900000Y-95500000D03*
%TO.N,Net-(D4-Pad1)*%
X154300000Y-89600000D03*
X152300000Y-85400000D03*
%TO.N,D+*%
X159352334Y-96150000D03*
X158183962Y-101699500D03*
%TO.N,D-*%
X158925500Y-101650000D03*
X159352334Y-96900000D03*
%TO.N,U0TXD*%
X141600000Y-94900000D03*
X154860000Y-106689022D03*
%TO.N,RTS*%
X152300000Y-105800000D03*
X140294609Y-105716172D03*
%TO.N,DTR*%
X157500000Y-109100000D03*
X140500000Y-105100000D03*
X155300000Y-105100000D03*
%TO.N,GPIO35*%
X135100000Y-102900000D03*
X151900000Y-109800000D03*
%TO.N,Net-(D1-Pad2)*%
X159400000Y-102200000D03*
%TD*%
D52*
%TO.N,+BATT*%
X152750000Y-87250000D02*
X152500000Y-87500000D01*
D53*
X160800000Y-102475000D02*
X160800000Y-101600000D01*
D52*
X153705000Y-87250000D02*
X153705000Y-88650000D01*
X153705000Y-87250000D02*
X152750000Y-87250000D01*
D53*
X160800000Y-102475000D02*
X160275000Y-102475000D01*
D52*
X148200000Y-88400000D02*
X148200000Y-87275000D01*
X153705000Y-88650000D02*
X153155000Y-89200000D01*
D53*
X160275000Y-102475000D02*
X158950000Y-103800000D01*
%TO.N,GND*%
X154700000Y-102200000D02*
X156550000Y-102200000D01*
X157900000Y-99550000D02*
X157950000Y-99600000D01*
X156550000Y-102200000D02*
X156600000Y-102250000D01*
X155600000Y-95850000D02*
X157100000Y-95850000D01*
X136750000Y-91750000D02*
X135950000Y-90950000D01*
X157700000Y-84100000D02*
X157600000Y-84000000D01*
X134090000Y-102590000D02*
X134100000Y-102600000D01*
X157100000Y-97100000D02*
X157100000Y-95850000D01*
X149600000Y-95980000D02*
X149980000Y-95980000D01*
X152350000Y-97100000D02*
X151100000Y-97100000D01*
X142450000Y-90931885D02*
X140868115Y-90931885D01*
X137620000Y-94220000D02*
X136900000Y-93500000D01*
X140850000Y-90950000D02*
X141650000Y-90150000D01*
X150060000Y-96940000D02*
X150400000Y-96600000D01*
X142200000Y-110305000D02*
X142200000Y-111200000D01*
D52*
X152900000Y-86300000D02*
X151255000Y-87945000D01*
X152650000Y-94350000D02*
X153950000Y-94350000D01*
X149700000Y-87900000D02*
X149679122Y-87879122D01*
D53*
X149980000Y-95980000D02*
X150400000Y-96400000D01*
D52*
X153950000Y-94350000D02*
X154000000Y-94400000D01*
D53*
X139250000Y-90931885D02*
X140831885Y-90931885D01*
X136850000Y-90050000D02*
X135950000Y-90950000D01*
X132000000Y-109400000D02*
X134600000Y-106800000D01*
D52*
X151255000Y-89200000D02*
X151255000Y-90545000D01*
D53*
X148412000Y-95800000D02*
X149420000Y-95800000D01*
X140050000Y-90150000D02*
X140850000Y-90950000D01*
D52*
X160800000Y-94900000D02*
X159600000Y-94900000D01*
D53*
X132100000Y-98500000D02*
X131300000Y-98500000D01*
D52*
X151255000Y-87945000D02*
X151255000Y-89200000D01*
D53*
X130750000Y-109400000D02*
X129500000Y-109400000D01*
X157980000Y-84700000D02*
X157700000Y-84980000D01*
X149600000Y-96940000D02*
X150060000Y-96940000D01*
X130100000Y-97300000D02*
X130100000Y-96200000D01*
X131300000Y-98500000D02*
X130100000Y-97300000D01*
X157030000Y-99550000D02*
X157900000Y-99550000D01*
X148960000Y-96300000D02*
X148412000Y-96300000D01*
D52*
X153705000Y-86300000D02*
X152900000Y-86300000D01*
D53*
X136200000Y-94200000D02*
X136900000Y-93500000D01*
D52*
X149700000Y-87210000D02*
X149700000Y-87900000D01*
D53*
X134090000Y-101800000D02*
X134090000Y-102590000D01*
X151100000Y-97100000D02*
X150400000Y-96400000D01*
X149600000Y-96940000D02*
X148960000Y-96300000D01*
X130750000Y-109400000D02*
X132000000Y-109400000D01*
D52*
X151255000Y-90545000D02*
X151200000Y-90600000D01*
D53*
X137075000Y-93325000D02*
X139000000Y-93325000D01*
X150400000Y-96600000D02*
X150400000Y-96400000D01*
X136900000Y-93500000D02*
X137075000Y-93325000D01*
X132720000Y-97880000D02*
X132100000Y-98500000D01*
X143900000Y-102830000D02*
X143900000Y-103600000D01*
X140850000Y-90131885D02*
X140850000Y-90950000D01*
X157980000Y-84700000D02*
X159012500Y-84700000D01*
X134600000Y-106800000D02*
X134600000Y-105575000D01*
X132720000Y-96500000D02*
X132720000Y-97880000D01*
X143280000Y-95100000D02*
X144100000Y-95100000D01*
X157700000Y-84980000D02*
X157700000Y-84100000D01*
D54*
%TO.N,+3V3*%
X134090000Y-99750000D02*
X134090000Y-100750000D01*
X137700000Y-95180000D02*
X137700000Y-96200000D01*
D55*
X140345000Y-81550000D02*
X140395000Y-81500000D01*
D54*
X137830000Y-88465000D02*
X138195000Y-88100000D01*
D55*
X138195000Y-86850000D02*
X138195000Y-88100000D01*
D54*
X139250000Y-90131885D02*
X137911885Y-90131885D01*
X136200000Y-95180000D02*
X137700000Y-95180000D01*
X149600000Y-97900000D02*
X150500000Y-97900000D01*
D55*
X138195000Y-86850000D02*
X137045000Y-86850000D01*
D54*
X137830000Y-90050000D02*
X137830000Y-91750000D01*
X134755919Y-97500000D02*
X133680000Y-97500000D01*
D55*
X136395000Y-86200000D02*
X136395000Y-83900000D01*
D54*
X139250000Y-96250000D02*
X139250000Y-95125000D01*
X142320000Y-95100000D02*
X142320000Y-94580000D01*
X136200000Y-95180000D02*
X135380000Y-95180000D01*
X142320000Y-94580000D02*
X142700000Y-94200000D01*
X135555919Y-98300000D02*
X134755919Y-97500000D01*
X144860000Y-90150000D02*
X145750000Y-90150000D01*
X139750000Y-102850000D02*
X139750000Y-103325000D01*
X135380000Y-95180000D02*
X135300000Y-95100000D01*
X144920000Y-97920000D02*
X144500000Y-97500000D01*
X134090000Y-99750000D02*
X134090000Y-98910000D01*
X136200000Y-97800000D02*
X135600000Y-97800000D01*
X145400000Y-94890000D02*
X145400000Y-94100000D01*
X139525000Y-94875000D02*
X140200000Y-94200000D01*
D55*
X137395000Y-82900000D02*
X140345000Y-82900000D01*
D54*
X145400000Y-97920000D02*
X144920000Y-97920000D01*
X137830000Y-90050000D02*
X137830000Y-88465000D01*
X136200000Y-98300000D02*
X135555919Y-98300000D01*
X148500000Y-96800000D02*
X149600000Y-97900000D01*
D55*
X137045000Y-86850000D02*
X136395000Y-86200000D01*
D54*
X137830000Y-91750000D02*
X139231885Y-91750000D01*
D55*
X140345000Y-82900000D02*
X140345000Y-81550000D01*
X139995000Y-86750000D02*
X138295000Y-86750000D01*
D54*
X140125000Y-103700000D02*
X140300000Y-103700000D01*
X137700000Y-95180000D02*
X138695000Y-95180000D01*
X149600000Y-95020000D02*
X149600000Y-94300000D01*
X135600000Y-97800000D02*
X134300000Y-96500000D01*
X133680000Y-96500000D02*
X133680000Y-98480000D01*
X142250000Y-96250000D02*
X142250000Y-95170000D01*
X153350000Y-97090000D02*
X154310000Y-97090000D01*
X130100000Y-100400000D02*
X130100000Y-101800000D01*
X134300000Y-96500000D02*
X133680000Y-96500000D01*
X139750000Y-103325000D02*
X140125000Y-103700000D01*
X139000000Y-94875000D02*
X139525000Y-94875000D01*
D55*
X136395000Y-83900000D02*
X137395000Y-82900000D01*
D54*
X154310000Y-97090000D02*
X154332671Y-97067329D01*
X136200000Y-96800000D02*
X136200000Y-95180000D01*
X148250000Y-95137000D02*
X149483000Y-95137000D01*
X134090000Y-98910000D02*
X134100000Y-98900000D01*
X133680000Y-98480000D02*
X134100000Y-98900000D01*
D56*
%TO.N,ANT*%
X136200000Y-97300000D02*
X135700000Y-97300000D01*
X135700000Y-97300000D02*
X130500000Y-92100000D01*
D53*
%TO.N,RST*%
X134600000Y-101260000D02*
X135110000Y-100750000D01*
X138150000Y-107950000D02*
X138150000Y-109400000D01*
X134600000Y-104025000D02*
X134600000Y-101260000D01*
X136700000Y-105700000D02*
X137450000Y-105700000D01*
X136200000Y-100800000D02*
X135160000Y-100800000D01*
X135025000Y-104025000D02*
X136700000Y-105700000D01*
X137450000Y-105700000D02*
X137450000Y-107250000D01*
X134600000Y-104025000D02*
X135025000Y-104025000D01*
X135110000Y-100750000D02*
X135110000Y-99750000D01*
X137450000Y-107250000D02*
X138150000Y-107950000D01*
D52*
%TO.N,VBUS*%
X145195000Y-84850000D02*
X142795000Y-84850000D01*
X142944520Y-86899520D02*
X145245480Y-86899520D01*
X146245000Y-85900000D02*
X145195000Y-84850000D01*
X147800000Y-86125000D02*
X146470000Y-86125000D01*
X147850000Y-84700000D02*
X147850000Y-86075000D01*
X145245480Y-86899520D02*
X146245000Y-85900000D01*
D53*
%TO.N,Net-(C17-Pad1)*%
X154700000Y-100700000D02*
X155940000Y-100700000D01*
X155940000Y-100700000D02*
X156040000Y-100600000D01*
X156070000Y-100570000D02*
X156040000Y-100600000D01*
X156070000Y-99550000D02*
X156070000Y-100570000D01*
D54*
%TO.N,VDDSDIO*%
X148295000Y-106495000D02*
X146850000Y-105050000D01*
X142800000Y-101800000D02*
X143830000Y-101800000D01*
X146225919Y-101870000D02*
X143900000Y-101870000D01*
X146850000Y-105050000D02*
X146850000Y-102494081D01*
X146850000Y-102494081D02*
X146225919Y-101870000D01*
X149400000Y-106495000D02*
X148295000Y-106495000D01*
D53*
%TO.N,GPIO10*%
X144800000Y-100300000D02*
X142800000Y-100300000D01*
X145400000Y-103523586D02*
X145400000Y-102400000D01*
X142428586Y-106495000D02*
X145400000Y-103523586D01*
%TO.N,GPIO17*%
X142100000Y-104600000D02*
X143900000Y-104600000D01*
X140800000Y-105900000D02*
X142100000Y-104600000D01*
X144600000Y-101370500D02*
X144529500Y-101300000D01*
X141465000Y-107765000D02*
X140800000Y-107100000D01*
X143900000Y-104600000D02*
X144700000Y-103800000D01*
X144700000Y-103800000D02*
X144700000Y-102369500D01*
X140800000Y-107100000D02*
X140800000Y-105900000D01*
X144529500Y-101300000D02*
X142800000Y-101300000D01*
%TO.N,GPIO7*%
X142200000Y-109035000D02*
X143965000Y-109035000D01*
X143965000Y-109035000D02*
X146049503Y-106950497D01*
X144300000Y-98800000D02*
X142800000Y-98800000D01*
X146049503Y-106950497D02*
X146049503Y-102400000D01*
%TO.N,GPIO8*%
X144800000Y-98300000D02*
X142800000Y-98300000D01*
X151150000Y-105487969D02*
X146150000Y-100487969D01*
X151150000Y-109950000D02*
X151150000Y-105487969D01*
X146150000Y-100487969D02*
X146150000Y-99650000D01*
X150795000Y-110305000D02*
X151150000Y-109950000D01*
X149400000Y-110305000D02*
X150795000Y-110305000D01*
X146150000Y-99650000D02*
X144800000Y-98300000D01*
%TO.N,CLK*%
X145844222Y-100605777D02*
X145844222Y-100249575D01*
X150849520Y-108650480D02*
X150849520Y-105611075D01*
X150849520Y-105611075D02*
X145844222Y-100605777D01*
X149400000Y-109035000D02*
X150465000Y-109035000D01*
X145844222Y-100249575D02*
X144894647Y-99300000D01*
X144894647Y-99300000D02*
X142800000Y-99300000D01*
X150465000Y-109035000D02*
X150849520Y-108650480D01*
%TO.N,GPIO11*%
X144971061Y-99800000D02*
X142800000Y-99800000D01*
X150550000Y-105735141D02*
X145500000Y-100685141D01*
X150350000Y-107750000D02*
X150550000Y-107550000D01*
X145500000Y-100328939D02*
X144971061Y-99800000D01*
X145500000Y-100685141D02*
X145500000Y-100328939D01*
X150550000Y-107550000D02*
X150550000Y-105735141D01*
X149415000Y-107750000D02*
X150350000Y-107750000D01*
%TO.N,GPIO36*%
X134874083Y-98250497D02*
X134800000Y-98250497D01*
X134874083Y-98250497D02*
X135423586Y-98800000D01*
X146200000Y-94500000D02*
X147600000Y-94500000D01*
X147600000Y-94500000D02*
X147750000Y-94650000D01*
X147750000Y-94650000D02*
X147750000Y-95137000D01*
X136200000Y-98800000D02*
X135423586Y-98800000D01*
%TO.N,GPIO37*%
X135100000Y-98900000D02*
X135500000Y-99300000D01*
X148200000Y-98300000D02*
X148200000Y-97513000D01*
X135100000Y-98900000D02*
X134800000Y-98900000D01*
X135500000Y-99300000D02*
X136200000Y-99300000D01*
%TO.N,VUSB*%
X155600000Y-97750000D02*
X156790000Y-97750000D01*
D52*
X151100000Y-85300000D02*
X150500000Y-84700000D01*
X149600000Y-91800000D02*
X149600000Y-88700000D01*
D53*
X157100000Y-98700000D02*
X157100000Y-98060000D01*
D52*
X148600000Y-86125000D02*
X149635000Y-86125000D01*
D53*
X156205000Y-87250000D02*
X157740000Y-87250000D01*
D52*
X150500000Y-84700000D02*
X149950000Y-84700000D01*
X150250000Y-92450000D02*
X149600000Y-91800000D01*
D53*
X156790000Y-97750000D02*
X157100000Y-98060000D01*
X155900000Y-93300000D02*
X156550000Y-92650000D01*
D52*
X158990000Y-89810000D02*
X157600000Y-91200000D01*
D53*
X153850000Y-99350000D02*
X154500000Y-99350000D01*
D52*
X152850000Y-93300000D02*
X154900000Y-93300000D01*
D53*
X154700000Y-99550000D02*
X155350000Y-98900000D01*
X155350000Y-98900000D02*
X156900000Y-98900000D01*
X156900000Y-98900000D02*
X157100000Y-98700000D01*
X157740000Y-87250000D02*
X158990000Y-86000000D01*
X155010000Y-91200000D02*
X156550000Y-91200000D01*
D52*
X152650000Y-92450000D02*
X150250000Y-92450000D01*
D53*
X155600000Y-97750000D02*
X155600000Y-96800000D01*
D52*
X152650000Y-92450000D02*
X152650000Y-93100000D01*
D53*
X154700000Y-100200000D02*
X154700000Y-99550000D01*
D52*
X152650000Y-93100000D02*
X152850000Y-93300000D01*
X151100000Y-87200000D02*
X151100000Y-85300000D01*
X149600000Y-88700000D02*
X151100000Y-87200000D01*
X157600000Y-91200000D02*
X156550000Y-91200000D01*
D53*
X156550000Y-92650000D02*
X156550000Y-91200000D01*
X154500000Y-99350000D02*
X155600000Y-98250000D01*
D52*
X158990000Y-86000000D02*
X158990000Y-89810000D01*
D53*
X155900000Y-93300000D02*
X154900000Y-93300000D01*
X155600000Y-98250000D02*
X155600000Y-97750000D01*
D52*
X149950000Y-85940000D02*
X149700000Y-86190000D01*
X149950000Y-84700000D02*
X149950000Y-85940000D01*
D53*
%TO.N,GPIO18*%
X140850000Y-91731885D02*
X140850000Y-92131885D01*
X146588000Y-96800000D02*
X145500000Y-96800000D01*
X146588000Y-96800000D02*
X147491110Y-96800000D01*
X148350497Y-91550497D02*
X148600000Y-91800000D01*
X143600000Y-91600000D02*
X144025500Y-91600000D01*
X148600000Y-91800000D02*
X148600000Y-92500000D01*
X140850000Y-92131885D02*
X140924511Y-92206396D01*
X147491110Y-96800000D02*
X147634166Y-96656944D01*
X143700000Y-97300000D02*
X144100000Y-96900000D01*
X144100000Y-96900000D02*
X145400000Y-96900000D01*
X142800000Y-97300000D02*
X143700000Y-97300000D01*
X148600000Y-93800000D02*
X148600000Y-92500000D01*
X140924511Y-92206396D02*
X142993604Y-92206396D01*
X145200000Y-91550497D02*
X148350497Y-91550497D01*
X142993604Y-92206396D02*
X143600000Y-91600000D01*
%TO.N,GPIO23*%
X144590000Y-95910000D02*
X145400000Y-95910000D01*
X144025500Y-92249503D02*
X143769087Y-92505916D01*
X145790000Y-96300000D02*
X146588000Y-96300000D01*
X145200000Y-92200000D02*
X146200000Y-92200000D01*
X143769087Y-92505916D02*
X140505916Y-92505916D01*
X146500000Y-93800000D02*
X146500000Y-92500000D01*
X142800000Y-96800000D02*
X143700000Y-96800000D01*
X147100000Y-96300000D02*
X147300000Y-96100000D01*
X146588000Y-96300000D02*
X147100000Y-96300000D01*
X140050000Y-92050000D02*
X140050000Y-91731885D01*
X143700000Y-96800000D02*
X144590000Y-95910000D01*
X145400000Y-95910000D02*
X145790000Y-96300000D01*
X140505916Y-92505916D02*
X140050000Y-92050000D01*
%TO.N,GPIO19*%
X141750000Y-96250000D02*
X141750000Y-95699503D01*
X144500000Y-90810000D02*
X143840000Y-90150000D01*
X143400000Y-93900000D02*
X144500000Y-92800000D01*
X141750000Y-95699503D02*
X141600000Y-95549503D01*
X143840000Y-90150000D02*
X142468115Y-90150000D01*
X144500000Y-92800000D02*
X144500000Y-90810000D01*
%TO.N,Net-(D2-Pad2)*%
X160400000Y-86000000D02*
X160587500Y-85812500D01*
X160587500Y-85812500D02*
X160587500Y-84700000D01*
X160010000Y-86000000D02*
X160400000Y-86000000D01*
%TO.N,U0RXD*%
X154350000Y-106200000D02*
X156100000Y-106200000D01*
X152850000Y-104700000D02*
X154350000Y-106200000D01*
X152850000Y-104050000D02*
X152850000Y-104700000D01*
X140750000Y-95650000D02*
X140900000Y-95500000D01*
X140750000Y-96250000D02*
X140750000Y-95650000D01*
D52*
%TO.N,Net-(D4-Pad1)*%
X152300000Y-85400000D02*
X153655000Y-85400000D01*
D53*
X154812500Y-89087500D02*
X154300000Y-89600000D01*
D54*
%TO.N,D+*%
X159787499Y-96200000D02*
X159687499Y-96300000D01*
X154700000Y-101700000D02*
X158183462Y-101700000D01*
X159687499Y-96300000D02*
X159502333Y-96299999D01*
X159502333Y-96299999D02*
X159352334Y-96150000D01*
X160800000Y-96200000D02*
X159787499Y-96200000D01*
X158183462Y-101700000D02*
X158183962Y-101699500D01*
%TO.N,D-*%
X159787499Y-96850000D02*
X159687499Y-96750000D01*
X158475500Y-101200000D02*
X158925500Y-101650000D01*
X159502333Y-96750001D02*
X159352334Y-96900000D01*
X154700000Y-101200000D02*
X158475500Y-101200000D01*
X159687499Y-96750000D02*
X159502333Y-96750001D01*
X160800000Y-96850000D02*
X159787499Y-96850000D01*
D53*
%TO.N,U0TXD*%
X140250000Y-96250000D02*
X140250000Y-95250000D01*
X152350000Y-104050000D02*
X152350000Y-104700000D01*
X140250000Y-95250000D02*
X140600000Y-94900000D01*
X140600000Y-94900000D02*
X141600000Y-94900000D01*
X154339022Y-106689022D02*
X154860000Y-106689022D01*
X152350000Y-104700000D02*
X154339022Y-106689022D01*
%TO.N,Net-(IC8-Pad9)*%
X153350000Y-98110000D02*
X153350000Y-99350000D01*
%TO.N,Net-(IC8-Pad11)*%
X152350000Y-99350000D02*
X152350000Y-98120000D01*
%TO.N,RTS*%
X137450000Y-105050000D02*
X137950000Y-105050000D01*
X138600000Y-105700000D02*
X139350000Y-105700000D01*
X140294609Y-105716172D02*
X139366172Y-105716172D01*
X137950000Y-105050000D02*
X138600000Y-105700000D01*
X151850000Y-105350000D02*
X151850000Y-104050000D01*
X152300000Y-105800000D02*
X151850000Y-105350000D01*
%TO.N,DTR*%
X138550000Y-105050000D02*
X139350000Y-105050000D01*
X153850000Y-104900000D02*
X153850000Y-104050000D01*
X154050000Y-105100000D02*
X153850000Y-104900000D01*
X140500000Y-105100000D02*
X139400000Y-105100000D01*
X137900000Y-104400000D02*
X138550000Y-105050000D01*
X155300000Y-105100000D02*
X156300000Y-105100000D01*
X156300000Y-105100000D02*
X157500000Y-106300000D01*
X137450000Y-104400000D02*
X137900000Y-104400000D01*
X157500000Y-106300000D02*
X157500000Y-109100000D01*
X155300000Y-105100000D02*
X154050000Y-105100000D01*
D52*
%TO.N,Net-(IC5-Pad5)*%
X157050000Y-85350000D02*
X157700000Y-86000000D01*
X156205000Y-85350000D02*
X157050000Y-85350000D01*
D53*
%TO.N,GPIO0*%
X141750000Y-103550000D02*
X141750000Y-102850000D01*
X139350000Y-104400000D02*
X140900000Y-104400000D01*
X140900000Y-104400000D02*
X141750000Y-103550000D01*
%TO.N,GPIO35*%
X160800000Y-104125000D02*
X160800000Y-107600000D01*
X160800000Y-107600000D02*
X158600000Y-109800000D01*
X136200000Y-101800000D02*
X135110000Y-101800000D01*
X135100000Y-102900000D02*
X135100000Y-101810000D01*
X158600000Y-109800000D02*
X151900000Y-109800000D01*
D52*
%TO.N,Net-(D1-Pad2)*%
X158600000Y-95300000D02*
X158600000Y-96889438D01*
D53*
X159400000Y-102200000D02*
X159400000Y-98900000D01*
D52*
X158600000Y-96889438D02*
X159210562Y-97500000D01*
X157000000Y-93300000D02*
X157000000Y-93700000D01*
X159210562Y-97500000D02*
X160800000Y-97500000D01*
D53*
X159400000Y-98900000D02*
X160800000Y-97500000D01*
D52*
X157000000Y-93700000D02*
X158600000Y-95300000D01*
D53*
%TO.N,Net-(D4-Pad2)*%
X155000000Y-90190000D02*
X155710000Y-90190000D01*
X155710000Y-90190000D02*
X156387500Y-89512500D01*
X156387500Y-89512500D02*
X156387500Y-88900000D01*
%TD*%
%TA.AperFunction,Conductor*%
%TO.N,GND*%
G36*
X140134747Y-81017313D02*
G01*
X140160057Y-81061150D01*
X140151267Y-81111000D01*
X140126669Y-81136584D01*
X140100019Y-81153399D01*
X140096531Y-81157348D01*
X140096529Y-81157350D01*
X140093288Y-81161020D01*
X140014596Y-81250122D01*
X140012357Y-81254891D01*
X140012355Y-81254894D01*
X139984156Y-81314957D01*
X139959754Y-81366932D01*
X139939901Y-81494440D01*
X139940584Y-81499663D01*
X139940584Y-81499666D01*
X139943875Y-81524830D01*
X139944500Y-81534425D01*
X139944500Y-82006845D01*
X139927187Y-82054411D01*
X139904096Y-82072779D01*
X139856658Y-82096950D01*
X139766950Y-82186658D01*
X139764306Y-82191848D01*
X139764304Y-82191850D01*
X139712000Y-82294502D01*
X139709354Y-82299696D01*
X139708443Y-82305448D01*
X139708442Y-82305451D01*
X139694955Y-82390608D01*
X139694500Y-82393481D01*
X139694500Y-82425500D01*
X139677187Y-82473066D01*
X139633350Y-82498376D01*
X139620500Y-82499500D01*
X137331567Y-82499500D01*
X137306749Y-82507564D01*
X137295466Y-82510273D01*
X137269696Y-82514354D01*
X137247745Y-82525539D01*
X137246453Y-82526197D01*
X137235724Y-82530641D01*
X137210911Y-82538703D01*
X137206201Y-82542125D01*
X137189801Y-82554040D01*
X137179904Y-82560106D01*
X137156658Y-82571950D01*
X137134095Y-82594513D01*
X137134091Y-82594516D01*
X136089516Y-83639091D01*
X136089513Y-83639095D01*
X136066950Y-83661658D01*
X136064306Y-83666846D01*
X136064306Y-83666847D01*
X136055106Y-83684902D01*
X136049039Y-83694802D01*
X136037128Y-83711196D01*
X136037126Y-83711201D01*
X136033704Y-83715910D01*
X136031905Y-83721448D01*
X136031904Y-83721449D01*
X136025642Y-83740722D01*
X136021198Y-83751450D01*
X136016048Y-83761558D01*
X136009354Y-83774696D01*
X136008443Y-83780449D01*
X136005273Y-83800463D01*
X136002562Y-83811754D01*
X135996300Y-83831026D01*
X135994500Y-83836567D01*
X135994500Y-86263433D01*
X135996300Y-86268971D01*
X135996300Y-86268974D01*
X136002562Y-86288246D01*
X136005273Y-86299537D01*
X136009354Y-86325304D01*
X136012000Y-86330497D01*
X136021198Y-86348550D01*
X136025642Y-86359278D01*
X136033704Y-86384090D01*
X136037126Y-86388799D01*
X136037128Y-86388804D01*
X136049039Y-86405198D01*
X136055106Y-86415098D01*
X136061592Y-86427826D01*
X136066950Y-86438342D01*
X136089513Y-86460905D01*
X136089516Y-86460909D01*
X136784091Y-87155484D01*
X136784095Y-87155487D01*
X136806658Y-87178050D01*
X136811844Y-87180692D01*
X136811849Y-87180696D01*
X136829907Y-87189897D01*
X136839802Y-87195959D01*
X136860911Y-87211296D01*
X136866448Y-87213095D01*
X136885720Y-87219357D01*
X136896448Y-87223801D01*
X136914191Y-87232841D01*
X136919696Y-87235646D01*
X136935456Y-87238142D01*
X136945463Y-87239727D01*
X136956754Y-87242438D01*
X136976026Y-87248700D01*
X136976029Y-87248700D01*
X136981567Y-87250500D01*
X137301845Y-87250500D01*
X137349411Y-87267813D01*
X137367779Y-87290904D01*
X137391950Y-87338342D01*
X137481658Y-87428050D01*
X137486848Y-87430694D01*
X137486850Y-87430696D01*
X137589502Y-87483000D01*
X137589505Y-87483001D01*
X137594696Y-87485646D01*
X137600448Y-87486557D01*
X137600451Y-87486558D01*
X137685602Y-87500044D01*
X137688481Y-87500500D01*
X137720500Y-87500500D01*
X137768066Y-87517813D01*
X137793376Y-87561650D01*
X137794500Y-87574500D01*
X137794500Y-87876418D01*
X137787485Y-87907866D01*
X137759754Y-87966932D01*
X137739901Y-88094440D01*
X137747479Y-88152390D01*
X137736480Y-88201798D01*
X137726430Y-88214310D01*
X137675473Y-88265267D01*
X137664258Y-88274470D01*
X137649399Y-88284399D01*
X137613943Y-88337464D01*
X137594034Y-88367259D01*
X137574592Y-88465000D01*
X137576014Y-88472149D01*
X137578078Y-88482525D01*
X137579500Y-88496962D01*
X137579500Y-89126000D01*
X137562187Y-89173566D01*
X137518350Y-89198876D01*
X137505500Y-89200000D01*
X137397636Y-89200000D01*
X137392357Y-89199811D01*
X137379284Y-89198876D01*
X137115653Y-89180021D01*
X137105203Y-89178519D01*
X136836703Y-89120110D01*
X136826573Y-89117135D01*
X136721122Y-89077804D01*
X136569124Y-89021112D01*
X136559529Y-89016730D01*
X136318362Y-88885043D01*
X136309489Y-88879341D01*
X136089515Y-88714670D01*
X136081536Y-88707756D01*
X135887244Y-88513464D01*
X135880330Y-88505485D01*
X135772316Y-88361196D01*
X135715659Y-88285511D01*
X135709954Y-88276633D01*
X135686224Y-88233173D01*
X135578270Y-88035471D01*
X135573886Y-88025871D01*
X135553847Y-87972142D01*
X135477865Y-87768427D01*
X135474890Y-87758297D01*
X135416481Y-87489797D01*
X135414979Y-87479346D01*
X135401502Y-87290904D01*
X135395189Y-87202642D01*
X135395000Y-87197364D01*
X135395000Y-83002636D01*
X135395189Y-82997357D01*
X135414979Y-82720654D01*
X135416481Y-82710203D01*
X135474890Y-82441703D01*
X135477865Y-82431573D01*
X135528989Y-82294504D01*
X135573888Y-82174124D01*
X135578272Y-82164525D01*
X135612922Y-82101069D01*
X135709957Y-81923362D01*
X135715659Y-81914489D01*
X135880330Y-81694515D01*
X135887244Y-81686536D01*
X136081536Y-81492244D01*
X136089515Y-81485330D01*
X136105574Y-81473309D01*
X136309489Y-81320659D01*
X136318362Y-81314957D01*
X136559529Y-81183270D01*
X136569124Y-81178888D01*
X136721122Y-81122196D01*
X136826573Y-81082865D01*
X136836703Y-81079890D01*
X137105203Y-81021481D01*
X137115653Y-81019979D01*
X137392358Y-81000189D01*
X137397636Y-81000000D01*
X140087181Y-81000000D01*
X140134747Y-81017313D01*
G37*
%TD.AperFunction*%
%TA.AperFunction,Conductor*%
G36*
X145097642Y-81000189D02*
G01*
X145374347Y-81019979D01*
X145384797Y-81021481D01*
X145653297Y-81079890D01*
X145663427Y-81082865D01*
X145768878Y-81122196D01*
X145920876Y-81178888D01*
X145930471Y-81183270D01*
X146171638Y-81314957D01*
X146180511Y-81320659D01*
X146384426Y-81473309D01*
X146400485Y-81485330D01*
X146408464Y-81492244D01*
X146602756Y-81686536D01*
X146609670Y-81694515D01*
X146774341Y-81914489D01*
X146780043Y-81923362D01*
X146877078Y-82101069D01*
X146911728Y-82164525D01*
X146916112Y-82174124D01*
X146961011Y-82294504D01*
X147012135Y-82431573D01*
X147015110Y-82441703D01*
X147073519Y-82710203D01*
X147075021Y-82720654D01*
X147094811Y-82997357D01*
X147095000Y-83002636D01*
X147095000Y-85775500D01*
X147077687Y-85823066D01*
X147033850Y-85848376D01*
X147021000Y-85849500D01*
X146969499Y-85849500D01*
X146921933Y-85832187D01*
X146896623Y-85788350D01*
X146895499Y-85775500D01*
X146895499Y-85393482D01*
X146880646Y-85299696D01*
X146837379Y-85214780D01*
X146825696Y-85191850D01*
X146825694Y-85191848D01*
X146823050Y-85186658D01*
X146733342Y-85096950D01*
X146728152Y-85094306D01*
X146728150Y-85094304D01*
X146625498Y-85042000D01*
X146625495Y-85041999D01*
X146620304Y-85039354D01*
X146614552Y-85038443D01*
X146614549Y-85038442D01*
X146529392Y-85024955D01*
X146526519Y-85024500D01*
X146523610Y-85024500D01*
X146245001Y-85024501D01*
X145963482Y-85024501D01*
X145960610Y-85024956D01*
X145960608Y-85024956D01*
X145910193Y-85032940D01*
X145869696Y-85039354D01*
X145864506Y-85041998D01*
X145864504Y-85041999D01*
X145854184Y-85047257D01*
X145803943Y-85053425D01*
X145768264Y-85033648D01*
X145414145Y-84679529D01*
X145404942Y-84668315D01*
X145397673Y-84657436D01*
X145393624Y-84651376D01*
X145370623Y-84636007D01*
X145370622Y-84636006D01*
X145344465Y-84618529D01*
X145302495Y-84590485D01*
X145257629Y-84581561D01*
X145222135Y-84574500D01*
X145222132Y-84574500D01*
X145195000Y-84569103D01*
X145187851Y-84570525D01*
X145175017Y-84573078D01*
X145160580Y-84574500D01*
X143464051Y-84574500D01*
X143416485Y-84557187D01*
X143391473Y-84514936D01*
X143388189Y-84498425D01*
X143388188Y-84498424D01*
X143386767Y-84491278D01*
X143353504Y-84441496D01*
X143303722Y-84408233D01*
X143296576Y-84406812D01*
X143296575Y-84406811D01*
X143263390Y-84400210D01*
X143263389Y-84400210D01*
X143259820Y-84399500D01*
X142330180Y-84399500D01*
X142326611Y-84400210D01*
X142326610Y-84400210D01*
X142293425Y-84406811D01*
X142293424Y-84406812D01*
X142286278Y-84408233D01*
X142236496Y-84441496D01*
X142203233Y-84491278D01*
X142194500Y-84535180D01*
X142194500Y-85164820D01*
X142195210Y-85168389D01*
X142195210Y-85168390D01*
X142198025Y-85182539D01*
X142203233Y-85208722D01*
X142236496Y-85258504D01*
X142286278Y-85291767D01*
X142293424Y-85293188D01*
X142293425Y-85293189D01*
X142326610Y-85299790D01*
X142326611Y-85299790D01*
X142330180Y-85300500D01*
X143259820Y-85300500D01*
X143263389Y-85299790D01*
X143263390Y-85299790D01*
X143296575Y-85293189D01*
X143296576Y-85293188D01*
X143303722Y-85291767D01*
X143353504Y-85258504D01*
X143386767Y-85208722D01*
X143391473Y-85185064D01*
X143417733Y-85141789D01*
X143464051Y-85125500D01*
X145050232Y-85125500D01*
X145097798Y-85142813D01*
X145102558Y-85147174D01*
X145572826Y-85617442D01*
X145594218Y-85663318D01*
X145594500Y-85669768D01*
X145594501Y-86130231D01*
X145577188Y-86177797D01*
X145572827Y-86182557D01*
X145153038Y-86602346D01*
X145107162Y-86623738D01*
X145100712Y-86624020D01*
X143469500Y-86624020D01*
X143421934Y-86606707D01*
X143396624Y-86562870D01*
X143395500Y-86550020D01*
X143395500Y-86435180D01*
X143392212Y-86418652D01*
X143388189Y-86398425D01*
X143388188Y-86398424D01*
X143386767Y-86391278D01*
X143353504Y-86341496D01*
X143303722Y-86308233D01*
X143296576Y-86306812D01*
X143296575Y-86306811D01*
X143263390Y-86300210D01*
X143263389Y-86300210D01*
X143259820Y-86299500D01*
X142330180Y-86299500D01*
X142326611Y-86300210D01*
X142326610Y-86300210D01*
X142293425Y-86306811D01*
X142293424Y-86306812D01*
X142286278Y-86308233D01*
X142236496Y-86341496D01*
X142203233Y-86391278D01*
X142201812Y-86398424D01*
X142201811Y-86398425D01*
X142197788Y-86418652D01*
X142194500Y-86435180D01*
X142194500Y-87064820D01*
X142195210Y-87068389D01*
X142195210Y-87068390D01*
X142195529Y-87069991D01*
X142203233Y-87108722D01*
X142236496Y-87158504D01*
X142286278Y-87191767D01*
X142293424Y-87193188D01*
X142293425Y-87193189D01*
X142326610Y-87199790D01*
X142326611Y-87199790D01*
X142330180Y-87200500D01*
X143259820Y-87200500D01*
X143263389Y-87199790D01*
X143263390Y-87199790D01*
X143296575Y-87193189D01*
X143296576Y-87193188D01*
X143303722Y-87191767D01*
X143309780Y-87187719D01*
X143309783Y-87187718D01*
X143310124Y-87187490D01*
X143310905Y-87187253D01*
X143316516Y-87184929D01*
X143316745Y-87185482D01*
X143351234Y-87175020D01*
X145211060Y-87175020D01*
X145225497Y-87176442D01*
X145233581Y-87178050D01*
X145245480Y-87180417D01*
X145272612Y-87175020D01*
X145272615Y-87175020D01*
X145308109Y-87167959D01*
X145352975Y-87159035D01*
X145365749Y-87150500D01*
X145394945Y-87130991D01*
X145394946Y-87130990D01*
X145421102Y-87113514D01*
X145421103Y-87113513D01*
X145444104Y-87098144D01*
X145455424Y-87081202D01*
X145464625Y-87069991D01*
X145768264Y-86766352D01*
X145814140Y-86744960D01*
X145854184Y-86752743D01*
X145864503Y-86758001D01*
X145864508Y-86758003D01*
X145869696Y-86760646D01*
X145963481Y-86775500D01*
X146245000Y-86775500D01*
X146526518Y-86775499D01*
X146529390Y-86775044D01*
X146529392Y-86775044D01*
X146561090Y-86770024D01*
X146620304Y-86760646D01*
X146683718Y-86728335D01*
X146728150Y-86705696D01*
X146728152Y-86705694D01*
X146733342Y-86703050D01*
X146823050Y-86613342D01*
X146825694Y-86608152D01*
X146825696Y-86608150D01*
X146878000Y-86505498D01*
X146878001Y-86505495D01*
X146880646Y-86500304D01*
X146886566Y-86462924D01*
X146911106Y-86418652D01*
X146959655Y-86400500D01*
X147021000Y-86400500D01*
X147068566Y-86417813D01*
X147093876Y-86461650D01*
X147095000Y-86474500D01*
X147095000Y-87197364D01*
X147094811Y-87202642D01*
X147088499Y-87290904D01*
X147075021Y-87479346D01*
X147073519Y-87489797D01*
X147015110Y-87758297D01*
X147012135Y-87768427D01*
X146936154Y-87972142D01*
X146916114Y-88025871D01*
X146911730Y-88035471D01*
X146803777Y-88233173D01*
X146780046Y-88276633D01*
X146774341Y-88285511D01*
X146717684Y-88361196D01*
X146609670Y-88505485D01*
X146602756Y-88513464D01*
X146408464Y-88707756D01*
X146400485Y-88714670D01*
X146180511Y-88879341D01*
X146171638Y-88885043D01*
X145930471Y-89016730D01*
X145920876Y-89021112D01*
X145768878Y-89077804D01*
X145663427Y-89117135D01*
X145653297Y-89120110D01*
X145384797Y-89178519D01*
X145374347Y-89180021D01*
X145110716Y-89198876D01*
X145097643Y-89199811D01*
X145092364Y-89200000D01*
X138154500Y-89200000D01*
X138106934Y-89182687D01*
X138081624Y-89138850D01*
X138080500Y-89126000D01*
X138080500Y-88623882D01*
X138097813Y-88576316D01*
X138141650Y-88551006D01*
X138155853Y-88549894D01*
X138251255Y-88551643D01*
X138256338Y-88550257D01*
X138256340Y-88550257D01*
X138370671Y-88519086D01*
X138375755Y-88517700D01*
X138485724Y-88450179D01*
X138572322Y-88354507D01*
X138628588Y-88238375D01*
X138649997Y-88111120D01*
X138650133Y-88100000D01*
X138631839Y-87972259D01*
X138602136Y-87906931D01*
X138595500Y-87876302D01*
X138595500Y-87574499D01*
X138612813Y-87526933D01*
X138656650Y-87501623D01*
X138669500Y-87500499D01*
X138701518Y-87500499D01*
X138704390Y-87500044D01*
X138704392Y-87500044D01*
X138736090Y-87495024D01*
X138795304Y-87485646D01*
X138851823Y-87456848D01*
X138903150Y-87430696D01*
X138903152Y-87430694D01*
X138908342Y-87428050D01*
X138998050Y-87338342D01*
X139000694Y-87333152D01*
X139000696Y-87333150D01*
X139053000Y-87230498D01*
X139053001Y-87230495D01*
X139055646Y-87225304D01*
X139057607Y-87212923D01*
X139082149Y-87168651D01*
X139130696Y-87150500D01*
X139402069Y-87150500D01*
X139443181Y-87162971D01*
X139480219Y-87187719D01*
X139480221Y-87187720D01*
X139486278Y-87191767D01*
X139493424Y-87193188D01*
X139493425Y-87193189D01*
X139526610Y-87199790D01*
X139526611Y-87199790D01*
X139530180Y-87200500D01*
X140459820Y-87200500D01*
X140463389Y-87199790D01*
X140463390Y-87199790D01*
X140496575Y-87193189D01*
X140496576Y-87193188D01*
X140503722Y-87191767D01*
X140553504Y-87158504D01*
X140586767Y-87108722D01*
X140594472Y-87069991D01*
X140594790Y-87068390D01*
X140594790Y-87068389D01*
X140595500Y-87064820D01*
X140595500Y-86435180D01*
X140592212Y-86418652D01*
X140588189Y-86398425D01*
X140588188Y-86398424D01*
X140586767Y-86391278D01*
X140553504Y-86341496D01*
X140503722Y-86308233D01*
X140496576Y-86306812D01*
X140496575Y-86306811D01*
X140463390Y-86300210D01*
X140463389Y-86300210D01*
X140459820Y-86299500D01*
X139530180Y-86299500D01*
X139526611Y-86300210D01*
X139526610Y-86300210D01*
X139493425Y-86306811D01*
X139493424Y-86306812D01*
X139486278Y-86308233D01*
X139480221Y-86312280D01*
X139480219Y-86312281D01*
X139443181Y-86337029D01*
X139402069Y-86349500D01*
X139016544Y-86349500D01*
X138968978Y-86332187D01*
X138964218Y-86327826D01*
X138908342Y-86271950D01*
X138903152Y-86269306D01*
X138903150Y-86269304D01*
X138800498Y-86217000D01*
X138800495Y-86216999D01*
X138795304Y-86214354D01*
X138789552Y-86213443D01*
X138789549Y-86213442D01*
X138704392Y-86199955D01*
X138701519Y-86199500D01*
X138698610Y-86199500D01*
X138195001Y-86199501D01*
X137688482Y-86199501D01*
X137685610Y-86199956D01*
X137685608Y-86199956D01*
X137653910Y-86204976D01*
X137594696Y-86214354D01*
X137538177Y-86243152D01*
X137486850Y-86269304D01*
X137486848Y-86269306D01*
X137481658Y-86271950D01*
X137391950Y-86361658D01*
X137376858Y-86391278D01*
X137367779Y-86409096D01*
X137330758Y-86443618D01*
X137301845Y-86449500D01*
X137241545Y-86449500D01*
X137193979Y-86432187D01*
X137189219Y-86427826D01*
X136817174Y-86055781D01*
X136795782Y-86009905D01*
X136795500Y-86003455D01*
X136795500Y-85164820D01*
X139394500Y-85164820D01*
X139395210Y-85168389D01*
X139395210Y-85168390D01*
X139398025Y-85182539D01*
X139403233Y-85208722D01*
X139436496Y-85258504D01*
X139486278Y-85291767D01*
X139493424Y-85293188D01*
X139493425Y-85293189D01*
X139526610Y-85299790D01*
X139526611Y-85299790D01*
X139530180Y-85300500D01*
X140459820Y-85300500D01*
X140463389Y-85299790D01*
X140463390Y-85299790D01*
X140496575Y-85293189D01*
X140496576Y-85293188D01*
X140503722Y-85291767D01*
X140553504Y-85258504D01*
X140586767Y-85208722D01*
X140591976Y-85182539D01*
X140594790Y-85168390D01*
X140594790Y-85168389D01*
X140595500Y-85164820D01*
X140595500Y-84535180D01*
X140586767Y-84491278D01*
X140553504Y-84441496D01*
X140503722Y-84408233D01*
X140496576Y-84406812D01*
X140496575Y-84406811D01*
X140463390Y-84400210D01*
X140463389Y-84400210D01*
X140459820Y-84399500D01*
X139530180Y-84399500D01*
X139526611Y-84400210D01*
X139526610Y-84400210D01*
X139493425Y-84406811D01*
X139493424Y-84406812D01*
X139486278Y-84408233D01*
X139436496Y-84441496D01*
X139403233Y-84491278D01*
X139394500Y-84535180D01*
X139394500Y-85164820D01*
X136795500Y-85164820D01*
X136795500Y-84096545D01*
X136812813Y-84048979D01*
X136817174Y-84044219D01*
X137539219Y-83322174D01*
X137585095Y-83300782D01*
X137591545Y-83300500D01*
X139620501Y-83300500D01*
X139668067Y-83317813D01*
X139693377Y-83361650D01*
X139694501Y-83374500D01*
X139694501Y-83406518D01*
X139709354Y-83500304D01*
X139738152Y-83556823D01*
X139764304Y-83608150D01*
X139764306Y-83608152D01*
X139766950Y-83613342D01*
X139856658Y-83703050D01*
X139861848Y-83705694D01*
X139861850Y-83705696D01*
X139964502Y-83758000D01*
X139964505Y-83758001D01*
X139969696Y-83760646D01*
X139975448Y-83761557D01*
X139975451Y-83761558D01*
X140060602Y-83775044D01*
X140063481Y-83775500D01*
X140345000Y-83775500D01*
X140626518Y-83775499D01*
X140629390Y-83775044D01*
X140629392Y-83775044D01*
X140664378Y-83769503D01*
X140720304Y-83760646D01*
X140776823Y-83731848D01*
X140828150Y-83705696D01*
X140828152Y-83705694D01*
X140833342Y-83703050D01*
X140923050Y-83613342D01*
X140925694Y-83608152D01*
X140925696Y-83608150D01*
X140978000Y-83505498D01*
X140978001Y-83505495D01*
X140980646Y-83500304D01*
X140981557Y-83494552D01*
X140981558Y-83494549D01*
X140995045Y-83409392D01*
X140995500Y-83406519D01*
X140995499Y-82393482D01*
X140980646Y-82299696D01*
X140951848Y-82243177D01*
X140925696Y-82191850D01*
X140925694Y-82191848D01*
X140923050Y-82186658D01*
X140833342Y-82096950D01*
X140785904Y-82072779D01*
X140751382Y-82035758D01*
X140745500Y-82006845D01*
X140745500Y-81812657D01*
X140764638Y-81762997D01*
X140768780Y-81758422D01*
X140768785Y-81758414D01*
X140772322Y-81754507D01*
X140828588Y-81638375D01*
X140846886Y-81529610D01*
X140849522Y-81513944D01*
X140849522Y-81513943D01*
X140849997Y-81511120D01*
X140850133Y-81500000D01*
X140831839Y-81372259D01*
X140808378Y-81320659D01*
X140780610Y-81259586D01*
X140780608Y-81259583D01*
X140778428Y-81254788D01*
X140771003Y-81246170D01*
X140697633Y-81161020D01*
X140697632Y-81161019D01*
X140694193Y-81157028D01*
X140689774Y-81154164D01*
X140689772Y-81154162D01*
X140661900Y-81136097D01*
X140631401Y-81095698D01*
X140634006Y-81045146D01*
X140668496Y-81008095D01*
X140702149Y-81000000D01*
X145092364Y-81000000D01*
X145097642Y-81000189D01*
G37*
%TD.AperFunction*%
%TD*%
M02*
