%TF.GenerationSoftware,KiCad,Pcbnew,(6.0.0)*%
%TF.CreationDate,2022-04-21T21:51:44+01:00*%
%TF.ProjectId,Tracer,54726163-6572-42e6-9b69-6361645f7063,C*%
%TF.SameCoordinates,Original*%
%TF.FileFunction,Soldermask,Top*%
%TF.FilePolarity,Negative*%
%FSLAX46Y46*%
G04 Gerber Fmt 4.6, Leading zero omitted, Abs format (unit mm)*
G04 Created by KiCad (PCBNEW (6.0.0)) date 2022-04-21 21:51:44*
%MOMM*%
%LPD*%
G01*
G04 APERTURE LIST*
G04 Aperture macros list*
%AMRoundRect*
0 Rectangle with rounded corners*
0 $1 Rounding radius*
0 $2 $3 $4 $5 $6 $7 $8 $9 X,Y pos of 4 corners*
0 Add a 4 corners polygon primitive as box body*
4,1,4,$2,$3,$4,$5,$6,$7,$8,$9,$2,$3,0*
0 Add four circle primitives for the rounded corners*
1,1,$1+$1,$2,$3*
1,1,$1+$1,$4,$5*
1,1,$1+$1,$6,$7*
1,1,$1+$1,$8,$9*
0 Add four rect primitives between the rounded corners*
20,1,$1+$1,$2,$3,$4,$5,0*
20,1,$1+$1,$4,$5,$6,$7,0*
20,1,$1+$1,$6,$7,$8,$9,0*
20,1,$1+$1,$8,$9,$2,$3,0*%
G04 Aperture macros list end*
%ADD10RoundRect,0.140000X-0.140000X-0.170000X0.140000X-0.170000X0.140000X0.170000X-0.140000X0.170000X0*%
%ADD11RoundRect,0.135000X0.135000X0.185000X-0.135000X0.185000X-0.135000X-0.185000X0.135000X-0.185000X0*%
%ADD12RoundRect,0.140000X0.170000X-0.140000X0.170000X0.140000X-0.170000X0.140000X-0.170000X-0.140000X0*%
%ADD13RoundRect,0.250000X0.475000X-0.250000X0.475000X0.250000X-0.475000X0.250000X-0.475000X-0.250000X0*%
%ADD14RoundRect,0.250000X0.250000X0.475000X-0.250000X0.475000X-0.250000X-0.475000X0.250000X-0.475000X0*%
%ADD15R,0.600000X0.450000*%
%ADD16R,0.400000X0.450000*%
%ADD17R,0.500000X0.450000*%
%ADD18RoundRect,0.135000X-0.135000X-0.185000X0.135000X-0.185000X0.135000X0.185000X-0.135000X0.185000X0*%
%ADD19C,2.200000*%
%ADD20RoundRect,0.250000X-0.250000X-0.475000X0.250000X-0.475000X0.250000X0.475000X-0.250000X0.475000X0*%
%ADD21RoundRect,0.225000X0.250000X-0.225000X0.250000X0.225000X-0.250000X0.225000X-0.250000X-0.225000X0*%
%ADD22R,0.500000X0.500000*%
%ADD23RoundRect,0.135000X-0.185000X0.135000X-0.185000X-0.135000X0.185000X-0.135000X0.185000X0.135000X0*%
%ADD24R,0.350000X0.575000*%
%ADD25R,0.575000X0.350000*%
%ADD26R,1.350000X0.400000*%
%ADD27C,1.950000*%
%ADD28R,1.400000X1.600000*%
%ADD29R,1.600000X1.900000*%
%ADD30R,1.200000X0.600000*%
%ADD31R,1.000000X1.000000*%
%ADD32RoundRect,0.140000X0.140000X0.170000X-0.140000X0.170000X-0.140000X-0.170000X0.140000X-0.170000X0*%
%ADD33RoundRect,0.218750X-0.218750X-0.256250X0.218750X-0.256250X0.218750X0.256250X-0.218750X0.256250X0*%
%ADD34O,1.000000X1.000000*%
%ADD35RoundRect,0.135000X0.185000X-0.135000X0.185000X0.135000X-0.185000X0.135000X-0.185000X-0.135000X0*%
%ADD36RoundRect,0.140000X-0.170000X0.140000X-0.170000X-0.140000X0.170000X-0.140000X0.170000X0.140000X0*%
%ADD37R,1.200000X1.000000*%
%ADD38R,1.000000X0.300000*%
%ADD39R,0.300000X1.000000*%
%ADD40R,3.350000X3.350000*%
%ADD41RoundRect,0.250000X-0.625000X0.400000X-0.625000X-0.400000X0.625000X-0.400000X0.625000X0.400000X0*%
%ADD42R,0.650000X0.400000*%
%ADD43R,0.550000X0.350000*%
%ADD44R,0.350000X0.550000*%
%ADD45R,5.500000X5.500000*%
%ADD46RoundRect,0.225000X-0.250000X0.225000X-0.250000X-0.225000X0.250000X-0.225000X0.250000X0.225000X0*%
%ADD47RoundRect,0.200000X-0.275000X0.200000X-0.275000X-0.200000X0.275000X-0.200000X0.275000X0.200000X0*%
%ADD48R,0.900000X0.600000*%
%ADD49R,1.650000X0.650000*%
G04 APERTURE END LIST*
D10*
%TO.C,C15*%
X142320000Y-95100000D03*
X143280000Y-95100000D03*
%TD*%
D11*
%TO.C,R10*%
X135110000Y-99750000D03*
X134090000Y-99750000D03*
%TD*%
D12*
%TO.C,C1*%
X149600000Y-97900000D03*
X149600000Y-96940000D03*
%TD*%
D13*
%TO.C,C16*%
X138195000Y-86850000D03*
X138195000Y-84950000D03*
%TD*%
D14*
%TO.C,C5*%
X153155000Y-89200000D03*
X151255000Y-89200000D03*
%TD*%
D15*
%TO.C,D1*%
X154900000Y-93300000D03*
X157000000Y-93300000D03*
%TD*%
D16*
%TO.C,Q2*%
X148600000Y-86125000D03*
X147800000Y-86125000D03*
D17*
X148200000Y-87275000D03*
%TD*%
D18*
%TO.C,R7*%
X134090000Y-100750000D03*
X135110000Y-100750000D03*
%TD*%
D13*
%TO.C,C3*%
X152650000Y-94350000D03*
X152650000Y-92450000D03*
%TD*%
D19*
%TO.C,H3*%
X131000000Y-104500000D03*
%TD*%
D20*
%TO.C,C6*%
X140345000Y-82900000D03*
X142245000Y-82900000D03*
%TD*%
D21*
%TO.C,C14*%
X139000000Y-94875000D03*
X139000000Y-93325000D03*
%TD*%
D22*
%TO.C,IC4*%
X139250000Y-90131885D03*
X140050000Y-90131885D03*
X140850000Y-90131885D03*
X141650000Y-90131885D03*
X142450000Y-90131885D03*
X142450000Y-90931885D03*
X142450000Y-91731885D03*
X141650000Y-91731885D03*
X140850000Y-91731885D03*
X140050000Y-91731885D03*
X139250000Y-91731885D03*
X139250000Y-90931885D03*
%TD*%
D23*
%TO.C,R12*%
X153350000Y-97090000D03*
X153350000Y-98110000D03*
%TD*%
D24*
%TO.C,IC1*%
X146750000Y-97463000D03*
X147250000Y-97463000D03*
X147750000Y-97463000D03*
X148250000Y-97463000D03*
D25*
X148412000Y-96800000D03*
X148412000Y-96300000D03*
X148412000Y-95800000D03*
D24*
X148250000Y-95137000D03*
X147750000Y-95137000D03*
X147250000Y-95137000D03*
X146750000Y-95137000D03*
D25*
X146588000Y-95800000D03*
X146588000Y-96300000D03*
X146588000Y-96800000D03*
%TD*%
D26*
%TO.C,J1*%
X160800000Y-97500000D03*
X160800000Y-96850000D03*
X160800000Y-96200000D03*
X160800000Y-95550000D03*
X160800000Y-94900000D03*
D27*
X163475000Y-99500000D03*
X163475000Y-92900000D03*
D28*
X161025000Y-99400000D03*
D29*
X163475000Y-97400000D03*
X163475000Y-95000000D03*
D28*
X161025000Y-93000000D03*
%TD*%
D30*
%TO.C,IC5*%
X153705000Y-85350000D03*
X153705000Y-86300000D03*
X153705000Y-87250000D03*
X156205000Y-87250000D03*
X156205000Y-85350000D03*
%TD*%
D18*
%TO.C,R16*%
X143840000Y-90150000D03*
X144860000Y-90150000D03*
%TD*%
D11*
%TO.C,R2*%
X160010000Y-86000000D03*
X158990000Y-86000000D03*
%TD*%
D12*
%TO.C,C10*%
X137700000Y-95180000D03*
X137700000Y-94220000D03*
%TD*%
D31*
%TO.C,TP3*%
X146500000Y-92500000D03*
%TD*%
D13*
%TO.C,C18*%
X155600000Y-97750000D03*
X155600000Y-95850000D03*
%TD*%
D12*
%TO.C,C13*%
X136200000Y-95180000D03*
X136200000Y-94220000D03*
%TD*%
D32*
%TO.C,C20*%
X137830000Y-91750000D03*
X136870000Y-91750000D03*
%TD*%
D33*
%TO.C,D2*%
X159012500Y-84700000D03*
X160587500Y-84700000D03*
%TD*%
D31*
%TO.C,J2*%
X157400000Y-110900000D03*
D34*
X156130000Y-110900000D03*
X154860000Y-110900000D03*
X153590000Y-110900000D03*
%TD*%
D23*
%TO.C,R4*%
X145400000Y-94890000D03*
X145400000Y-95910000D03*
%TD*%
D35*
%TO.C,R6*%
X157700000Y-86000000D03*
X157700000Y-84980000D03*
%TD*%
D31*
%TO.C,TP11*%
X130100000Y-96200000D03*
%TD*%
%TO.C,TP6*%
X130100000Y-100400000D03*
%TD*%
D19*
%TO.C,H2*%
X163900000Y-85000000D03*
%TD*%
D35*
%TO.C,R3*%
X155000000Y-91210000D03*
X155000000Y-90190000D03*
%TD*%
D36*
%TO.C,C2*%
X149600000Y-95020000D03*
X149600000Y-95980000D03*
%TD*%
D37*
%TO.C,S1*%
X138150000Y-109400000D03*
X130750000Y-109400000D03*
%TD*%
D33*
%TO.C,D4*%
X154812500Y-88900000D03*
X156387500Y-88900000D03*
%TD*%
D15*
%TO.C,D3*%
X147850000Y-84700000D03*
X149950000Y-84700000D03*
%TD*%
D35*
%TO.C,R1*%
X149700000Y-87210000D03*
X149700000Y-86190000D03*
%TD*%
D32*
%TO.C,C19*%
X137830000Y-90050000D03*
X136870000Y-90050000D03*
%TD*%
D38*
%TO.C,IC8*%
X154700000Y-103200000D03*
X154700000Y-102700000D03*
X154700000Y-102200000D03*
X154700000Y-101700000D03*
X154700000Y-101200000D03*
X154700000Y-100700000D03*
X154700000Y-100200000D03*
D39*
X153850000Y-99350000D03*
X153350000Y-99350000D03*
X152850000Y-99350000D03*
X152350000Y-99350000D03*
X151850000Y-99350000D03*
X151350000Y-99350000D03*
X150850000Y-99350000D03*
D38*
X150000000Y-100200000D03*
X150000000Y-100700000D03*
X150000000Y-101200000D03*
X150000000Y-101700000D03*
X150000000Y-102200000D03*
X150000000Y-102700000D03*
X150000000Y-103200000D03*
D39*
X150850000Y-104050000D03*
X151350000Y-104050000D03*
X151850000Y-104050000D03*
X152350000Y-104050000D03*
X152850000Y-104050000D03*
X153350000Y-104050000D03*
X153850000Y-104050000D03*
D40*
X152350000Y-101700000D03*
%TD*%
D32*
%TO.C,C12*%
X133680000Y-96500000D03*
X132720000Y-96500000D03*
%TD*%
D19*
%TO.C,H1*%
X131800000Y-83400000D03*
%TD*%
D41*
%TO.C,AE1*%
X130500000Y-88850000D03*
X130500000Y-91950000D03*
%TD*%
D11*
%TO.C,R9*%
X135110000Y-101800000D03*
X134090000Y-101800000D03*
%TD*%
D42*
%TO.C,Q1*%
X139350000Y-105700000D03*
X139350000Y-105050000D03*
X139350000Y-104400000D03*
X137450000Y-104400000D03*
X137450000Y-105050000D03*
X137450000Y-105700000D03*
%TD*%
D43*
%TO.C,IC3*%
X136200000Y-96800000D03*
X136200000Y-97300000D03*
X136200000Y-97800000D03*
X136200000Y-98300000D03*
X136200000Y-98800000D03*
X136200000Y-99300000D03*
X136200000Y-99800000D03*
X136200000Y-100300000D03*
X136200000Y-100800000D03*
X136200000Y-101300000D03*
X136200000Y-101800000D03*
X136200000Y-102300000D03*
D44*
X136750000Y-102850000D03*
X137250000Y-102850000D03*
X137750000Y-102850000D03*
X138250000Y-102850000D03*
X138750000Y-102850000D03*
X139250000Y-102850000D03*
X139750000Y-102850000D03*
X140250000Y-102850000D03*
X140750000Y-102850000D03*
X141250000Y-102850000D03*
X141750000Y-102850000D03*
X142250000Y-102850000D03*
D43*
X142800000Y-102300000D03*
X142800000Y-101800000D03*
X142800000Y-101300000D03*
X142800000Y-100800000D03*
X142800000Y-100300000D03*
X142800000Y-99800000D03*
X142800000Y-99300000D03*
X142800000Y-98800000D03*
X142800000Y-98300000D03*
X142800000Y-97800000D03*
X142800000Y-97300000D03*
X142800000Y-96800000D03*
D44*
X142250000Y-96250000D03*
X141750000Y-96250000D03*
X141250000Y-96250000D03*
X140750000Y-96250000D03*
X140250000Y-96250000D03*
X139750000Y-96250000D03*
X139250000Y-96250000D03*
X138750000Y-96250000D03*
X138250000Y-96250000D03*
X137750000Y-96250000D03*
X137250000Y-96250000D03*
X136750000Y-96250000D03*
D45*
X139494000Y-99537000D03*
%TD*%
D10*
%TO.C,C17*%
X156070000Y-99550000D03*
X157030000Y-99550000D03*
%TD*%
D31*
%TO.C,TP5*%
X158950000Y-103800000D03*
%TD*%
D46*
%TO.C,C7*%
X134600000Y-104025000D03*
X134600000Y-105575000D03*
%TD*%
D35*
%TO.C,R5*%
X145400000Y-97920000D03*
X145400000Y-96900000D03*
%TD*%
D12*
%TO.C,C8*%
X157100000Y-98060000D03*
X157100000Y-97100000D03*
%TD*%
D31*
%TO.C,TP4*%
X148600000Y-92500000D03*
%TD*%
D14*
%TO.C,C4*%
X146245000Y-85900000D03*
X144345000Y-85900000D03*
%TD*%
D47*
%TO.C,R8*%
X160800000Y-102475000D03*
X160800000Y-104125000D03*
%TD*%
D48*
%TO.C,IC6*%
X142795000Y-86750000D03*
X142795000Y-85800000D03*
X142795000Y-84850000D03*
X139995000Y-84850000D03*
X139995000Y-86750000D03*
%TD*%
D35*
%TO.C,R13*%
X152350000Y-98120000D03*
X152350000Y-97100000D03*
%TD*%
D49*
%TO.C,IC2*%
X142200000Y-106495000D03*
X142200000Y-107765000D03*
X142200000Y-109035000D03*
X142200000Y-110305000D03*
X149400000Y-110305000D03*
X149400000Y-109035000D03*
X149400000Y-107765000D03*
X149400000Y-106495000D03*
%TD*%
D31*
%TO.C,TP2*%
X156550000Y-91200000D03*
%TD*%
D36*
%TO.C,C11*%
X143900000Y-101870000D03*
X143900000Y-102830000D03*
%TD*%
D32*
%TO.C,C9*%
X133680000Y-97500000D03*
X132720000Y-97500000D03*
%TD*%
M02*
