%TF.GenerationSoftware,KiCad,Pcbnew,(6.0.0)*%
%TF.CreationDate,2022-02-22T11:37:22+00:00*%
%TF.ProjectId,Tracer,54726163-6572-42e6-9b69-6361645f7063,A*%
%TF.SameCoordinates,Original*%
%TF.FileFunction,Paste,Top*%
%TF.FilePolarity,Positive*%
%FSLAX46Y46*%
G04 Gerber Fmt 4.6, Leading zero omitted, Abs format (unit mm)*
G04 Created by KiCad (PCBNEW (6.0.0)) date 2022-02-22 11:37:22*
%MOMM*%
%LPD*%
G01*
G04 APERTURE LIST*
G04 Aperture macros list*
%AMRoundRect*
0 Rectangle with rounded corners*
0 $1 Rounding radius*
0 $2 $3 $4 $5 $6 $7 $8 $9 X,Y pos of 4 corners*
0 Add a 4 corners polygon primitive as box body*
4,1,4,$2,$3,$4,$5,$6,$7,$8,$9,$2,$3,0*
0 Add four circle primitives for the rounded corners*
1,1,$1+$1,$2,$3*
1,1,$1+$1,$4,$5*
1,1,$1+$1,$6,$7*
1,1,$1+$1,$8,$9*
0 Add four rect primitives between the rounded corners*
20,1,$1+$1,$2,$3,$4,$5,0*
20,1,$1+$1,$4,$5,$6,$7,0*
20,1,$1+$1,$6,$7,$8,$9,0*
20,1,$1+$1,$8,$9,$2,$3,0*%
G04 Aperture macros list end*
%ADD10RoundRect,0.135000X-0.135000X-0.185000X0.135000X-0.185000X0.135000X0.185000X-0.135000X0.185000X0*%
%ADD11RoundRect,0.140000X0.140000X0.170000X-0.140000X0.170000X-0.140000X-0.170000X0.140000X-0.170000X0*%
%ADD12R,3.400000X3.600000*%
%ADD13RoundRect,0.250000X0.475000X-0.250000X0.475000X0.250000X-0.475000X0.250000X-0.475000X-0.250000X0*%
%ADD14R,0.600000X0.450000*%
%ADD15R,0.400000X0.450000*%
%ADD16R,0.500000X0.450000*%
%ADD17RoundRect,0.135000X0.135000X0.185000X-0.135000X0.185000X-0.135000X-0.185000X0.135000X-0.185000X0*%
%ADD18RoundRect,0.250000X-0.475000X0.250000X-0.475000X-0.250000X0.475000X-0.250000X0.475000X0.250000X0*%
%ADD19R,0.575000X0.350000*%
%ADD20R,0.350000X0.575000*%
%ADD21R,0.400000X1.350000*%
%ADD22R,1.600000X1.400000*%
%ADD23R,1.900000X1.600000*%
%ADD24R,0.600000X1.200000*%
%ADD25RoundRect,0.135000X0.185000X-0.135000X0.185000X0.135000X-0.185000X0.135000X-0.185000X-0.135000X0*%
%ADD26RoundRect,0.140000X-0.170000X0.140000X-0.170000X-0.140000X0.170000X-0.140000X0.170000X0.140000X0*%
%ADD27R,0.900000X0.600000*%
%ADD28RoundRect,0.135000X-0.185000X0.135000X-0.185000X-0.135000X0.185000X-0.135000X0.185000X0.135000X0*%
%ADD29RoundRect,0.140000X-0.140000X-0.170000X0.140000X-0.170000X0.140000X0.170000X-0.140000X0.170000X0*%
%ADD30R,1.200000X1.000000*%
%ADD31R,0.450000X0.600000*%
%ADD32RoundRect,0.225000X0.225000X0.250000X-0.225000X0.250000X-0.225000X-0.250000X0.225000X-0.250000X0*%
%ADD33R,0.800000X0.300000*%
%ADD34R,0.300000X0.800000*%
%ADD35R,2.800000X2.800000*%
%ADD36RoundRect,0.250000X-0.625000X0.400000X-0.625000X-0.400000X0.625000X-0.400000X0.625000X0.400000X0*%
%ADD37R,0.650000X0.400000*%
%ADD38R,0.550000X0.350000*%
%ADD39R,0.350000X0.550000*%
%ADD40R,5.500000X5.500000*%
%ADD41RoundRect,0.225000X0.250000X-0.225000X0.250000X0.225000X-0.250000X0.225000X-0.250000X-0.225000X0*%
%ADD42RoundRect,0.225000X-0.225000X-0.250000X0.225000X-0.250000X0.225000X0.250000X-0.225000X0.250000X0*%
%ADD43R,0.650000X1.650000*%
%ADD44RoundRect,0.200000X0.200000X0.275000X-0.200000X0.275000X-0.200000X-0.275000X0.200000X-0.275000X0*%
%ADD45RoundRect,0.147500X-0.172500X0.147500X-0.172500X-0.147500X0.172500X-0.147500X0.172500X0.147500X0*%
%ADD46RoundRect,0.147500X-0.147500X-0.172500X0.147500X-0.172500X0.147500X0.172500X-0.147500X0.172500X0*%
%ADD47RoundRect,0.140000X0.170000X-0.140000X0.170000X0.140000X-0.170000X0.140000X-0.170000X-0.140000X0*%
G04 APERTURE END LIST*
D10*
%TO.C,R10*%
X173890000Y-88500000D03*
X174910000Y-88500000D03*
%TD*%
D11*
%TO.C,C1*%
X177280000Y-98400000D03*
X176320000Y-98400000D03*
%TD*%
D12*
%TO.C,BT1*%
X163000000Y-96300000D03*
X131900000Y-96300000D03*
%TD*%
D13*
%TO.C,C5*%
X174700000Y-99550000D03*
X174700000Y-97650000D03*
%TD*%
D14*
%TO.C,D1*%
X169050000Y-108200000D03*
X166950000Y-108200000D03*
%TD*%
D15*
%TO.C,Q2*%
X172400000Y-102595000D03*
X173200000Y-102595000D03*
D16*
X172800000Y-101445000D03*
%TD*%
D17*
%TO.C,R7*%
X174910000Y-87500000D03*
X173890000Y-87500000D03*
%TD*%
D18*
%TO.C,C3*%
X174200000Y-104250000D03*
X174200000Y-106150000D03*
%TD*%
D19*
%TO.C,IC1*%
X176837000Y-95550000D03*
X176837000Y-96050000D03*
X176837000Y-96550000D03*
X176837000Y-97050000D03*
D20*
X177500000Y-97212000D03*
X178000000Y-97212000D03*
X178500000Y-97212000D03*
D19*
X179163000Y-97050000D03*
X179163000Y-96550000D03*
X179163000Y-96050000D03*
X179163000Y-95550000D03*
D20*
X178500000Y-95388000D03*
X178000000Y-95388000D03*
X177500000Y-95388000D03*
%TD*%
D21*
%TO.C,J1*%
X167000000Y-112462500D03*
X167650000Y-112462500D03*
X168300000Y-112462500D03*
X168950000Y-112462500D03*
X169600000Y-112462500D03*
D22*
X165100000Y-112687500D03*
D23*
X167100000Y-115137500D03*
X169500000Y-115137500D03*
D22*
X171500000Y-112687500D03*
%TD*%
D24*
%TO.C,IC5*%
X178550000Y-100100000D03*
X177600000Y-100100000D03*
X176650000Y-100100000D03*
X176650000Y-102600000D03*
X178550000Y-102600000D03*
%TD*%
D25*
%TO.C,R2*%
X177900000Y-106405000D03*
X177900000Y-105385000D03*
%TD*%
D26*
%TO.C,C10*%
X172750000Y-94050000D03*
X172750000Y-95010000D03*
%TD*%
D27*
%TO.C,IC6*%
X170000000Y-98050000D03*
X170000000Y-99950000D03*
X172800000Y-99000000D03*
%TD*%
D28*
%TO.C,R4*%
X178200000Y-93190000D03*
X178200000Y-94210000D03*
%TD*%
D17*
%TO.C,R6*%
X178920000Y-104095000D03*
X177900000Y-104095000D03*
%TD*%
D10*
%TO.C,R3*%
X174290000Y-102495000D03*
X175310000Y-102495000D03*
%TD*%
D29*
%TO.C,C2*%
X178240000Y-98400000D03*
X179200000Y-98400000D03*
%TD*%
D30*
%TO.C,S1*%
X177850000Y-79300000D03*
X170450000Y-79300000D03*
%TD*%
D31*
%TO.C,D3*%
X172000000Y-104150000D03*
X172000000Y-106250000D03*
%TD*%
D32*
%TO.C,C4*%
X172775000Y-96400000D03*
X171225000Y-96400000D03*
%TD*%
D28*
%TO.C,R1*%
X171300000Y-101580000D03*
X171300000Y-102600000D03*
%TD*%
D33*
%TO.C,IC4*%
X166000000Y-102250000D03*
X166000000Y-102750000D03*
X166000000Y-103250000D03*
X166000000Y-103750000D03*
X166000000Y-104250000D03*
X166000000Y-104750000D03*
D34*
X166750000Y-105500000D03*
X167250000Y-105500000D03*
X167750000Y-105500000D03*
X168250000Y-105500000D03*
X168750000Y-105500000D03*
X169250000Y-105500000D03*
D33*
X170000000Y-104750000D03*
X170000000Y-104250000D03*
X170000000Y-103750000D03*
X170000000Y-103250000D03*
X170000000Y-102750000D03*
X170000000Y-102250000D03*
D34*
X169250000Y-101500000D03*
X168750000Y-101500000D03*
X168250000Y-101500000D03*
X167750000Y-101500000D03*
X167250000Y-101500000D03*
X166750000Y-101500000D03*
D35*
X168000000Y-103500000D03*
%TD*%
D36*
%TO.C,AE1*%
X178900000Y-86950000D03*
X178900000Y-90050000D03*
%TD*%
D10*
%TO.C,R9*%
X173890000Y-86450000D03*
X174910000Y-86450000D03*
%TD*%
D37*
%TO.C,Q1*%
X169650000Y-83550000D03*
X169650000Y-84200000D03*
X169650000Y-84850000D03*
X171550000Y-84850000D03*
X171550000Y-84200000D03*
X171550000Y-83550000D03*
%TD*%
D38*
%TO.C,IC3*%
X172800000Y-92450000D03*
X172800000Y-91950000D03*
X172800000Y-91450000D03*
X172800000Y-90950000D03*
X172800000Y-90450000D03*
X172800000Y-89950000D03*
X172800000Y-89450000D03*
X172800000Y-88950000D03*
X172800000Y-88450000D03*
X172800000Y-87950000D03*
X172800000Y-87450000D03*
X172800000Y-86950000D03*
D39*
X172250000Y-86400000D03*
X171750000Y-86400000D03*
X171250000Y-86400000D03*
X170750000Y-86400000D03*
X170250000Y-86400000D03*
X169750000Y-86400000D03*
X169250000Y-86400000D03*
X168750000Y-86400000D03*
X168250000Y-86400000D03*
X167750000Y-86400000D03*
X167250000Y-86400000D03*
X166750000Y-86400000D03*
D38*
X166200000Y-86950000D03*
X166200000Y-87450000D03*
X166200000Y-87950000D03*
X166200000Y-88450000D03*
X166200000Y-88950000D03*
X166200000Y-89450000D03*
X166200000Y-89950000D03*
X166200000Y-90450000D03*
X166200000Y-90950000D03*
X166200000Y-91450000D03*
X166200000Y-91950000D03*
X166200000Y-92450000D03*
D39*
X166750000Y-93000000D03*
X167250000Y-93000000D03*
X167750000Y-93000000D03*
X168250000Y-93000000D03*
X168750000Y-93000000D03*
X169250000Y-93000000D03*
X169750000Y-93000000D03*
X170250000Y-93000000D03*
X170750000Y-93000000D03*
X171250000Y-93000000D03*
X171750000Y-93000000D03*
X172250000Y-93000000D03*
D40*
X169506000Y-89713000D03*
%TD*%
D41*
%TO.C,C6*%
X168130000Y-99850000D03*
X168130000Y-98300000D03*
%TD*%
D42*
%TO.C,C7*%
X173025000Y-82950000D03*
X174575000Y-82950000D03*
%TD*%
D43*
%TO.C,IC2*%
X167505000Y-76800000D03*
X166235000Y-76800000D03*
X164965000Y-76800000D03*
X163695000Y-76800000D03*
X163695000Y-84000000D03*
X164965000Y-84000000D03*
X166235000Y-84000000D03*
X167505000Y-84000000D03*
%TD*%
D28*
%TO.C,R5*%
X177200000Y-93190000D03*
X177200000Y-94210000D03*
%TD*%
D11*
%TO.C,C8*%
X167080000Y-106700000D03*
X166120000Y-106700000D03*
%TD*%
D44*
%TO.C,R8*%
X177775000Y-82950000D03*
X176125000Y-82950000D03*
%TD*%
D45*
%TO.C,D2*%
X178900000Y-105415000D03*
X178900000Y-106385000D03*
%TD*%
D46*
%TO.C,D4*%
X174325000Y-101495000D03*
X175295000Y-101495000D03*
%TD*%
D47*
%TO.C,C11*%
X165100000Y-87380000D03*
X165100000Y-86420000D03*
%TD*%
D29*
%TO.C,C9*%
X170840000Y-94100000D03*
X171800000Y-94100000D03*
%TD*%
M02*
