M48
; DRILL file {KiCad (6.0.0)} date Tue Feb 22 11:37:30 2022
; FORMAT={-:-/ absolute / metric / decimal}
; #@! TF.CreationDate,2022-02-22T11:37:30+00:00
; #@! TF.GenerationSoftware,Kicad,Pcbnew,(6.0.0)
; #@! TF.FileFunction,Plated,1,4,PTH
FMAT,2
METRIC
; #@! TA.AperFunction,Plated,PTH,ViaDrill
T1C0.250
; #@! TA.AperFunction,Plated,PTH,ViaDrill
T2C0.300
; #@! TA.AperFunction,Plated,PTH,ComponentDrill
T3C1.300
%
G90
G05
T1
X135.1Y-96.35
X163.0Y-99.05
X163.5Y-78.15
X164.326Y-92.335
X164.4Y-86.4
X164.758Y-108.742
X164.8Y-105.3
X164.9Y-91.85
X165.0Y-78.1
X165.0Y-102.75
X165.3Y-106.7
X165.365Y-88.785
X165.401Y-88.137
X165.45Y-90.45
X165.904Y-81.95
X166.25Y-79.0
X166.3Y-95.95
X166.326Y-97.45
X166.949Y-100.451
X167.25Y-103.5
X167.274Y-95.9
X167.274Y-97.45
X168.0Y-102.75
X168.0Y-103.5
X168.0Y-104.25
X168.25Y-113.7
X168.3Y-110.8
X168.75Y-97.35
X168.75Y-100.7
X168.75Y-103.5
X168.8Y-95.7
X168.99Y-84.376
X169.5Y-89.75
X169.7Y-101.5
X170.45Y-80.55
X170.5Y-110.1
X170.75Y-84.25
X171.3Y-100.9
X171.55Y-97.95
X171.8Y-95.0
X172.05Y-101.9
X172.4Y-83.7
X173.5Y-101.95
X173.629Y-99.041
X173.7Y-96.4
X173.9Y-89.3
X174.0Y-90.45
X174.0Y-103.2
X174.475Y-89.925
X174.661Y-100.661
X174.7Y-81.75
X174.7Y-96.751
X174.7Y-98.55
X174.9Y-85.8
X175.6Y-94.35
X176.5Y-94.25
X176.6Y-84.75
X177.3Y-99.15
X178.484Y-96.303
X178.6Y-101.25
X178.75Y-82.9
X178.9Y-94.2
X179.2Y-99.1
X179.35Y-103.35
T2
X164.05Y-87.4
X165.7Y-108.2
X165.85Y-110.05
X166.15Y-93.2
X167.325Y-99.2
X168.4Y-84.0
X169.25Y-85.7
X170.85Y-95.0
X173.5Y-90.95
X173.5Y-94.1
X174.9Y-89.25
X175.55Y-113.0
X178.194Y-99.054
X179.158Y-93.194
X179.25Y-97.64
T3
X165.0Y-115.137
X171.6Y-115.137
T0
M30
