%TF.GenerationSoftware,KiCad,Pcbnew,(6.0.0)*%
%TF.CreationDate,2022-02-22T11:37:22+00:00*%
%TF.ProjectId,Tracer,54726163-6572-42e6-9b69-6361645f7063,A*%
%TF.SameCoordinates,Original*%
%TF.FileFunction,Legend,Bot*%
%TF.FilePolarity,Positive*%
%FSLAX46Y46*%
G04 Gerber Fmt 4.6, Leading zero omitted, Abs format (unit mm)*
G04 Created by KiCad (PCBNEW (6.0.0)) date 2022-02-22 11:37:22*
%MOMM*%
%LPD*%
G01*
G04 APERTURE LIST*
%ADD10C,0.300000*%
%ADD11C,0.075000*%
%ADD12C,0.120000*%
G04 APERTURE END LIST*
D10*
X151615357Y-100976428D02*
X151543928Y-101119285D01*
X151543928Y-101405000D01*
X151615357Y-101547857D01*
X151758214Y-101619285D01*
X152329642Y-101619285D01*
X152472500Y-101547857D01*
X152543928Y-101405000D01*
X152543928Y-101119285D01*
X152472500Y-100976428D01*
X152329642Y-100905000D01*
X152186785Y-100905000D01*
X152043928Y-101619285D01*
X151543928Y-100047857D02*
X151615357Y-100190714D01*
X151758214Y-100262142D01*
X153043928Y-100262142D01*
X151615357Y-98905000D02*
X151543928Y-99047857D01*
X151543928Y-99333571D01*
X151615357Y-99476428D01*
X151758214Y-99547857D01*
X152329642Y-99547857D01*
X152472500Y-99476428D01*
X152543928Y-99333571D01*
X152543928Y-99047857D01*
X152472500Y-98905000D01*
X152329642Y-98833571D01*
X152186785Y-98833571D01*
X152043928Y-99547857D01*
X151543928Y-98190714D02*
X153043928Y-98190714D01*
X152115357Y-98047857D02*
X151543928Y-97619285D01*
X152543928Y-97619285D02*
X151972500Y-98190714D01*
X152543928Y-97190714D02*
X152543928Y-96619285D01*
X153043928Y-96976428D02*
X151758214Y-96976428D01*
X151615357Y-96905000D01*
X151543928Y-96762142D01*
X151543928Y-96619285D01*
X151543928Y-96119285D02*
X152543928Y-96119285D01*
X152258214Y-96119285D02*
X152401071Y-96047857D01*
X152472500Y-95976428D01*
X152543928Y-95833571D01*
X152543928Y-95690714D01*
X151543928Y-94976428D02*
X151615357Y-95119285D01*
X151686785Y-95190714D01*
X151829642Y-95262142D01*
X152258214Y-95262142D01*
X152401071Y-95190714D01*
X152472500Y-95119285D01*
X152543928Y-94976428D01*
X152543928Y-94762142D01*
X152472500Y-94619285D01*
X152401071Y-94547857D01*
X152258214Y-94476428D01*
X151829642Y-94476428D01*
X151686785Y-94547857D01*
X151615357Y-94619285D01*
X151543928Y-94762142D01*
X151543928Y-94976428D01*
X153043928Y-94047857D02*
X153043928Y-93190714D01*
X151543928Y-93619285D02*
X153043928Y-93619285D01*
X151543928Y-92690714D02*
X153043928Y-92690714D01*
X151543928Y-92047857D02*
X152329642Y-92047857D01*
X152472500Y-92119285D01*
X152543928Y-92262142D01*
X152543928Y-92476428D01*
X152472500Y-92619285D01*
X152401071Y-92690714D01*
X151543928Y-91333571D02*
X152543928Y-91333571D01*
X153043928Y-91333571D02*
X152972500Y-91405000D01*
X152901071Y-91333571D01*
X152972500Y-91262142D01*
X153043928Y-91333571D01*
X152901071Y-91333571D01*
X152543928Y-90619285D02*
X151543928Y-90619285D01*
X152401071Y-90619285D02*
X152472500Y-90547857D01*
X152543928Y-90405000D01*
X152543928Y-90190714D01*
X152472500Y-90047857D01*
X152329642Y-89976428D01*
X151543928Y-89976428D01*
X152543928Y-88619285D02*
X151329642Y-88619285D01*
X151186785Y-88690714D01*
X151115357Y-88762142D01*
X151043928Y-88905000D01*
X151043928Y-89119285D01*
X151115357Y-89262142D01*
X151615357Y-88619285D02*
X151543928Y-88762142D01*
X151543928Y-89047857D01*
X151615357Y-89190714D01*
X151686785Y-89262142D01*
X151829642Y-89333571D01*
X152258214Y-89333571D01*
X152401071Y-89262142D01*
X152472500Y-89190714D01*
X152543928Y-89047857D01*
X152543928Y-88762142D01*
X152472500Y-88619285D01*
X150628928Y-101762142D02*
X150628928Y-100905000D01*
X149128928Y-101333571D02*
X150628928Y-101333571D01*
X149128928Y-100405000D02*
X150128928Y-100405000D01*
X149843214Y-100405000D02*
X149986071Y-100333571D01*
X150057500Y-100262142D01*
X150128928Y-100119285D01*
X150128928Y-99976428D01*
X149128928Y-98833571D02*
X149914642Y-98833571D01*
X150057500Y-98905000D01*
X150128928Y-99047857D01*
X150128928Y-99333571D01*
X150057500Y-99476428D01*
X149200357Y-98833571D02*
X149128928Y-98976428D01*
X149128928Y-99333571D01*
X149200357Y-99476428D01*
X149343214Y-99547857D01*
X149486071Y-99547857D01*
X149628928Y-99476428D01*
X149700357Y-99333571D01*
X149700357Y-98976428D01*
X149771785Y-98833571D01*
X149200357Y-97476428D02*
X149128928Y-97619285D01*
X149128928Y-97905000D01*
X149200357Y-98047857D01*
X149271785Y-98119285D01*
X149414642Y-98190714D01*
X149843214Y-98190714D01*
X149986071Y-98119285D01*
X150057500Y-98047857D01*
X150128928Y-97905000D01*
X150128928Y-97619285D01*
X150057500Y-97476428D01*
X149200357Y-96262142D02*
X149128928Y-96405000D01*
X149128928Y-96690714D01*
X149200357Y-96833571D01*
X149343214Y-96905000D01*
X149914642Y-96905000D01*
X150057500Y-96833571D01*
X150128928Y-96690714D01*
X150128928Y-96405000D01*
X150057500Y-96262142D01*
X149914642Y-96190714D01*
X149771785Y-96190714D01*
X149628928Y-96905000D01*
X149128928Y-95547857D02*
X150128928Y-95547857D01*
X149843214Y-95547857D02*
X149986071Y-95476428D01*
X150057500Y-95405000D01*
X150128928Y-95262142D01*
X150128928Y-95119285D01*
X146713928Y-100690714D02*
X147428214Y-101190714D01*
X146713928Y-101547857D02*
X148213928Y-101547857D01*
X148213928Y-100976428D01*
X148142500Y-100833571D01*
X148071071Y-100762142D01*
X147928214Y-100690714D01*
X147713928Y-100690714D01*
X147571071Y-100762142D01*
X147499642Y-100833571D01*
X147428214Y-100976428D01*
X147428214Y-101547857D01*
X146785357Y-99476428D02*
X146713928Y-99619285D01*
X146713928Y-99905000D01*
X146785357Y-100047857D01*
X146928214Y-100119285D01*
X147499642Y-100119285D01*
X147642500Y-100047857D01*
X147713928Y-99905000D01*
X147713928Y-99619285D01*
X147642500Y-99476428D01*
X147499642Y-99405000D01*
X147356785Y-99405000D01*
X147213928Y-100119285D01*
X147713928Y-98905000D02*
X146713928Y-98547857D01*
X147713928Y-98190714D01*
X147142500Y-96547857D02*
X147142500Y-95833571D01*
X146713928Y-96690714D02*
X148213928Y-96190714D01*
X146713928Y-95690714D01*
X145656071Y-101619285D02*
X145727500Y-101547857D01*
X145798928Y-101405000D01*
X145798928Y-101047857D01*
X145727500Y-100905000D01*
X145656071Y-100833571D01*
X145513214Y-100762142D01*
X145370357Y-100762142D01*
X145156071Y-100833571D01*
X144298928Y-101690714D01*
X144298928Y-100762142D01*
X144298928Y-99333571D02*
X144298928Y-100190714D01*
X144298928Y-99762142D02*
X145798928Y-99762142D01*
X145584642Y-99905000D01*
X145441785Y-100047857D01*
X145370357Y-100190714D01*
X145870357Y-97619285D02*
X143941785Y-98905000D01*
X145656071Y-97190714D02*
X145727500Y-97119285D01*
X145798928Y-96976428D01*
X145798928Y-96619285D01*
X145727500Y-96476428D01*
X145656071Y-96405000D01*
X145513214Y-96333571D01*
X145370357Y-96333571D01*
X145156071Y-96405000D01*
X144298928Y-97262142D01*
X144298928Y-96333571D01*
X145870357Y-94619285D02*
X143941785Y-95905000D01*
X145656071Y-94190714D02*
X145727500Y-94119285D01*
X145798928Y-93976428D01*
X145798928Y-93619285D01*
X145727500Y-93476428D01*
X145656071Y-93405000D01*
X145513214Y-93333571D01*
X145370357Y-93333571D01*
X145156071Y-93405000D01*
X144298928Y-94262142D01*
X144298928Y-93333571D01*
X145656071Y-92762142D02*
X145727500Y-92690714D01*
X145798928Y-92547857D01*
X145798928Y-92190714D01*
X145727500Y-92047857D01*
X145656071Y-91976428D01*
X145513214Y-91905000D01*
X145370357Y-91905000D01*
X145156071Y-91976428D01*
X144298928Y-92833571D01*
X144298928Y-91905000D01*
D11*
%TO.C,TP1*%
X161426190Y-111919047D02*
X161426190Y-112204761D01*
X161926190Y-112061904D02*
X161426190Y-112061904D01*
X161926190Y-112371428D02*
X161426190Y-112371428D01*
X161426190Y-112561904D01*
X161450000Y-112609523D01*
X161473809Y-112633333D01*
X161521428Y-112657142D01*
X161592857Y-112657142D01*
X161640476Y-112633333D01*
X161664285Y-112609523D01*
X161688095Y-112561904D01*
X161688095Y-112371428D01*
X161926190Y-113133333D02*
X161926190Y-112847619D01*
X161926190Y-112990476D02*
X161426190Y-112990476D01*
X161497619Y-112942857D01*
X161545238Y-112895238D01*
X161569047Y-112847619D01*
D12*
X162500000Y-110650000D02*
X162500000Y-112250000D01*
X162500000Y-110650000D02*
X164100000Y-110650000D01*
%TD*%
M02*
