%TF.GenerationSoftware,KiCad,Pcbnew,(6.0.0)*%
%TF.CreationDate,2022-02-22T11:37:22+00:00*%
%TF.ProjectId,Tracer,54726163-6572-42e6-9b69-6361645f7063,A*%
%TF.SameCoordinates,Original*%
%TF.FileFunction,Copper,L2,Inr*%
%TF.FilePolarity,Positive*%
%FSLAX46Y46*%
G04 Gerber Fmt 4.6, Leading zero omitted, Abs format (unit mm)*
G04 Created by KiCad (PCBNEW (6.0.0)) date 2022-02-22 11:37:22*
%MOMM*%
%LPD*%
G01*
G04 APERTURE LIST*
%TA.AperFunction,ComponentPad*%
%ADD10C,1.950000*%
%TD*%
%TA.AperFunction,ViaPad*%
%ADD11C,0.500000*%
%TD*%
%TA.AperFunction,ViaPad*%
%ADD12C,0.600000*%
%TD*%
G04 APERTURE END LIST*
D10*
%TO.N,unconnected-(J1-PadMH1)*%
%TO.C,J1*%
X165000000Y-115137500D03*
%TO.N,unconnected-(J1-PadMH2)*%
X171600000Y-115137500D03*
%TD*%
D11*
%TO.N,+BATT*%
X163000000Y-99050000D03*
X172050000Y-101900000D03*
X178750000Y-82900000D03*
%TO.N,GND*%
X171300000Y-100900000D03*
X165000000Y-102750000D03*
X177300000Y-99150000D03*
X170450000Y-80550000D03*
X170500000Y-110100000D03*
X168000000Y-104250000D03*
X165300000Y-106700000D03*
X168000000Y-103500000D03*
X168000000Y-102750000D03*
X174700000Y-98550000D03*
X167250000Y-103500000D03*
X179200000Y-99100000D03*
X169500000Y-89750000D03*
X171800000Y-95000000D03*
X163500000Y-78150000D03*
X135100000Y-96350000D03*
X174700000Y-81750000D03*
X171550000Y-97950000D03*
X164400000Y-86400000D03*
X174900000Y-85800000D03*
X168750000Y-103500000D03*
X179350000Y-103350000D03*
X174000000Y-103200000D03*
D12*
%TO.N,+3V3*%
X170850000Y-95000000D03*
X166150000Y-93200000D03*
X178194246Y-99053969D03*
X169250000Y-85700000D03*
X179250000Y-97640500D03*
X173500000Y-94100000D03*
X174900000Y-89250000D03*
X167324500Y-99200000D03*
X179157960Y-93193909D03*
X175550000Y-113000000D03*
X173500000Y-90950000D03*
D11*
%TO.N,RST*%
X173900000Y-89300000D03*
X172400000Y-83700000D03*
%TO.N,VBUS*%
X173629362Y-99041027D03*
X173500000Y-101950000D03*
X173700000Y-96400000D03*
D12*
%TO.N,VDDSDIO*%
X168400000Y-84000000D03*
X164050000Y-87400000D03*
D11*
%TO.N,Net-(D4-Pad1)*%
X178600000Y-101250000D03*
X174660523Y-100660523D03*
%TO.N,GPIO10*%
X165904439Y-81950000D03*
X165364637Y-88785363D03*
%TO.N,GPIO17*%
X165400731Y-88136864D03*
X166250000Y-79000000D03*
%TO.N,GPIO7*%
X165000000Y-78100000D03*
X165450000Y-90450000D03*
%TO.N,GPIO36*%
X178483736Y-96303248D03*
X174000000Y-90450000D03*
%TO.N,GPIO37*%
X175600000Y-94350000D03*
X174474511Y-89924511D03*
%TO.N,GPIO18*%
X164900000Y-91850000D03*
X176500000Y-94250000D03*
%TO.N,GPIO23*%
X178900000Y-94200000D03*
X164325500Y-92335444D03*
X174700000Y-96750500D03*
%TO.N,D+*%
X168300000Y-110800000D03*
%TO.N,D-*%
X164758236Y-108741764D03*
X168250000Y-113700000D03*
X164800000Y-105300000D03*
%TO.N,RTS*%
X176600000Y-84750000D03*
X170750000Y-84250000D03*
X167274500Y-95900000D03*
X169700000Y-101500000D03*
X167274500Y-97450000D03*
%TO.N,TXD*%
X168750000Y-97350000D03*
X168800000Y-95700000D03*
X168750000Y-100700000D03*
%TO.N,DTR*%
X168990170Y-84375500D03*
X166300000Y-95950000D03*
X166325500Y-97450000D03*
X166949119Y-100450881D03*
D12*
%TO.N,Net-(D1-Pad2)*%
X165700000Y-108200000D03*
X165850000Y-110050000D03*
%TD*%
%TA.AperFunction,Conductor*%
%TO.N,+3V3*%
G36*
X179390751Y-73369412D02*
G01*
X179470863Y-73413155D01*
X179485986Y-73422873D01*
X179699993Y-73583069D01*
X179713579Y-73594841D01*
X179902610Y-73783860D01*
X179914383Y-73797446D01*
X180074591Y-74011446D01*
X180084310Y-74026568D01*
X180130585Y-74111306D01*
X180146000Y-74171696D01*
X180146000Y-84574000D01*
X180125998Y-84642121D01*
X180072342Y-84688614D01*
X180020000Y-84700000D01*
X177209517Y-84700000D01*
X177141396Y-84679998D01*
X177094903Y-84626342D01*
X177090150Y-84613577D01*
X177089201Y-84606948D01*
X177029388Y-84475395D01*
X177023530Y-84468596D01*
X177023527Y-84468592D01*
X176940916Y-84372718D01*
X176940913Y-84372716D01*
X176935056Y-84365918D01*
X176813790Y-84287317D01*
X176788127Y-84279642D01*
X176683938Y-84248482D01*
X176683936Y-84248482D01*
X176675337Y-84245910D01*
X176666363Y-84245855D01*
X176666361Y-84245855D01*
X176603082Y-84245469D01*
X176530827Y-84245028D01*
X176522196Y-84247495D01*
X176522194Y-84247495D01*
X176400509Y-84282272D01*
X176400505Y-84282274D01*
X176391879Y-84284739D01*
X176269661Y-84361853D01*
X176263718Y-84368582D01*
X176263717Y-84368583D01*
X176224452Y-84413043D01*
X176173999Y-84470170D01*
X176170185Y-84478293D01*
X176170184Y-84478295D01*
X176141898Y-84538543D01*
X176112583Y-84600982D01*
X176111203Y-84609846D01*
X176111202Y-84609849D01*
X176095603Y-84710037D01*
X176090350Y-84743773D01*
X176091514Y-84752675D01*
X176091514Y-84752678D01*
X176107635Y-84875955D01*
X176109088Y-84887065D01*
X176167289Y-85019339D01*
X176260276Y-85129960D01*
X176267747Y-85134933D01*
X176267748Y-85134934D01*
X176373101Y-85205063D01*
X176373103Y-85205064D01*
X176380574Y-85210037D01*
X176389138Y-85212713D01*
X176389141Y-85212714D01*
X176449542Y-85231584D01*
X176518510Y-85253132D01*
X176662998Y-85255780D01*
X176682530Y-85250455D01*
X176793763Y-85220130D01*
X176793765Y-85220129D01*
X176802422Y-85217769D01*
X176858071Y-85183600D01*
X176926588Y-85165002D01*
X176994284Y-85186399D01*
X177039665Y-85240998D01*
X177050000Y-85290975D01*
X177050000Y-85974000D01*
X177029998Y-86042121D01*
X176976342Y-86088614D01*
X176924000Y-86100000D01*
X176000000Y-86100000D01*
X176000000Y-92300000D01*
X180020000Y-92300000D01*
X180088121Y-92320002D01*
X180134614Y-92373658D01*
X180146000Y-92426000D01*
X180146000Y-118332636D01*
X180130590Y-118393018D01*
X180086748Y-118473315D01*
X180077030Y-118488437D01*
X179916816Y-118702472D01*
X179905058Y-118716041D01*
X179810522Y-118810583D01*
X179716018Y-118905092D01*
X179702431Y-118916865D01*
X179488410Y-119077087D01*
X179473295Y-119086802D01*
X179393111Y-119130588D01*
X179332727Y-119146000D01*
X163176000Y-119146000D01*
X163107879Y-119125998D01*
X163061386Y-119072342D01*
X163050000Y-119020000D01*
X163050000Y-115137500D01*
X163765804Y-115137500D01*
X163784554Y-115351816D01*
X163840235Y-115559620D01*
X163842557Y-115564601D01*
X163842558Y-115564602D01*
X163928829Y-115749611D01*
X163928832Y-115749616D01*
X163931155Y-115754598D01*
X164054551Y-115930826D01*
X164206674Y-116082949D01*
X164211182Y-116086106D01*
X164211185Y-116086108D01*
X164378393Y-116203188D01*
X164382902Y-116206345D01*
X164387884Y-116208668D01*
X164387889Y-116208671D01*
X164572898Y-116294942D01*
X164577880Y-116297265D01*
X164583188Y-116298687D01*
X164583190Y-116298688D01*
X164647932Y-116316035D01*
X164785684Y-116352946D01*
X165000000Y-116371696D01*
X165214316Y-116352946D01*
X165352068Y-116316035D01*
X165416810Y-116298688D01*
X165416812Y-116298687D01*
X165422120Y-116297265D01*
X165427102Y-116294942D01*
X165612111Y-116208671D01*
X165612116Y-116208668D01*
X165617098Y-116206345D01*
X165621607Y-116203188D01*
X165788815Y-116086108D01*
X165788818Y-116086106D01*
X165793326Y-116082949D01*
X165945449Y-115930826D01*
X166068845Y-115754598D01*
X166071168Y-115749616D01*
X166071171Y-115749611D01*
X166157442Y-115564602D01*
X166157443Y-115564601D01*
X166159765Y-115559620D01*
X166215446Y-115351816D01*
X166234196Y-115137500D01*
X170365804Y-115137500D01*
X170384554Y-115351816D01*
X170440235Y-115559620D01*
X170442557Y-115564601D01*
X170442558Y-115564602D01*
X170528829Y-115749611D01*
X170528832Y-115749616D01*
X170531155Y-115754598D01*
X170654551Y-115930826D01*
X170806674Y-116082949D01*
X170811182Y-116086106D01*
X170811185Y-116086108D01*
X170978393Y-116203188D01*
X170982902Y-116206345D01*
X170987884Y-116208668D01*
X170987889Y-116208671D01*
X171172898Y-116294942D01*
X171177880Y-116297265D01*
X171183188Y-116298687D01*
X171183190Y-116298688D01*
X171247932Y-116316035D01*
X171385684Y-116352946D01*
X171600000Y-116371696D01*
X171814316Y-116352946D01*
X171952068Y-116316035D01*
X172016810Y-116298688D01*
X172016812Y-116298687D01*
X172022120Y-116297265D01*
X172027102Y-116294942D01*
X172212111Y-116208671D01*
X172212116Y-116208668D01*
X172217098Y-116206345D01*
X172221607Y-116203188D01*
X172388815Y-116086108D01*
X172388818Y-116086106D01*
X172393326Y-116082949D01*
X172545449Y-115930826D01*
X172668845Y-115754598D01*
X172671168Y-115749616D01*
X172671171Y-115749611D01*
X172757442Y-115564602D01*
X172757443Y-115564601D01*
X172759765Y-115559620D01*
X172815446Y-115351816D01*
X172834196Y-115137500D01*
X172815446Y-114923184D01*
X172759765Y-114715380D01*
X172757442Y-114710398D01*
X172671171Y-114525389D01*
X172671168Y-114525384D01*
X172668845Y-114520402D01*
X172562213Y-114368115D01*
X172548608Y-114348685D01*
X172548606Y-114348682D01*
X172545449Y-114344174D01*
X172393326Y-114192051D01*
X172388818Y-114188894D01*
X172388815Y-114188892D01*
X172221607Y-114071812D01*
X172221605Y-114071811D01*
X172217098Y-114068655D01*
X172212116Y-114066332D01*
X172212111Y-114066329D01*
X172027102Y-113980058D01*
X172027101Y-113980057D01*
X172022120Y-113977735D01*
X172016812Y-113976313D01*
X172016810Y-113976312D01*
X171952068Y-113958965D01*
X171814316Y-113922054D01*
X171600000Y-113903304D01*
X171385684Y-113922054D01*
X171247932Y-113958965D01*
X171183190Y-113976312D01*
X171183188Y-113976313D01*
X171177880Y-113977735D01*
X171172899Y-113980057D01*
X171172898Y-113980058D01*
X170987889Y-114066329D01*
X170987884Y-114066332D01*
X170982902Y-114068655D01*
X170978395Y-114071811D01*
X170978393Y-114071812D01*
X170811185Y-114188892D01*
X170811182Y-114188894D01*
X170806674Y-114192051D01*
X170654551Y-114344174D01*
X170651394Y-114348682D01*
X170651392Y-114348685D01*
X170637787Y-114368115D01*
X170531155Y-114520402D01*
X170528832Y-114525384D01*
X170528829Y-114525389D01*
X170442558Y-114710398D01*
X170440235Y-114715380D01*
X170384554Y-114923184D01*
X170365804Y-115137500D01*
X166234196Y-115137500D01*
X166215446Y-114923184D01*
X166159765Y-114715380D01*
X166157442Y-114710398D01*
X166071171Y-114525389D01*
X166071168Y-114525384D01*
X166068845Y-114520402D01*
X165962213Y-114368115D01*
X165948608Y-114348685D01*
X165948606Y-114348682D01*
X165945449Y-114344174D01*
X165793326Y-114192051D01*
X165788818Y-114188894D01*
X165788815Y-114188892D01*
X165621607Y-114071812D01*
X165621605Y-114071811D01*
X165617098Y-114068655D01*
X165612116Y-114066332D01*
X165612111Y-114066329D01*
X165427102Y-113980058D01*
X165427101Y-113980057D01*
X165422120Y-113977735D01*
X165416812Y-113976313D01*
X165416810Y-113976312D01*
X165352068Y-113958965D01*
X165214316Y-113922054D01*
X165000000Y-113903304D01*
X164785684Y-113922054D01*
X164647932Y-113958965D01*
X164583190Y-113976312D01*
X164583188Y-113976313D01*
X164577880Y-113977735D01*
X164572899Y-113980057D01*
X164572898Y-113980058D01*
X164387889Y-114066329D01*
X164387884Y-114066332D01*
X164382902Y-114068655D01*
X164378395Y-114071811D01*
X164378393Y-114071812D01*
X164211185Y-114188892D01*
X164211182Y-114188894D01*
X164206674Y-114192051D01*
X164054551Y-114344174D01*
X164051394Y-114348682D01*
X164051392Y-114348685D01*
X164037787Y-114368115D01*
X163931155Y-114520402D01*
X163928832Y-114525384D01*
X163928829Y-114525389D01*
X163842558Y-114710398D01*
X163840235Y-114715380D01*
X163784554Y-114923184D01*
X163765804Y-115137500D01*
X163050000Y-115137500D01*
X163050000Y-114350000D01*
X160514365Y-114350000D01*
X160446244Y-114329998D01*
X160430054Y-114317636D01*
X160400539Y-114291060D01*
X160400538Y-114291059D01*
X160395631Y-114286641D01*
X160258369Y-114207393D01*
X160246136Y-114203418D01*
X160201429Y-114188892D01*
X160107629Y-114158414D01*
X159958773Y-114142769D01*
X159950000Y-114141024D01*
X159937153Y-114143579D01*
X159912575Y-114146000D01*
X134987425Y-114146000D01*
X134962847Y-114143579D01*
X134950000Y-114141024D01*
X134941227Y-114142769D01*
X134792371Y-114158414D01*
X134698571Y-114188892D01*
X134653865Y-114203418D01*
X134641631Y-114207393D01*
X134504369Y-114286641D01*
X134499462Y-114291059D01*
X134499461Y-114291060D01*
X134469946Y-114317636D01*
X134405939Y-114348353D01*
X134385635Y-114350000D01*
X128380000Y-114350000D01*
X128311879Y-114329998D01*
X128265386Y-114276342D01*
X128254000Y-114224000D01*
X128254000Y-113693773D01*
X167740350Y-113693773D01*
X167741514Y-113702675D01*
X167741514Y-113702678D01*
X167757924Y-113828164D01*
X167759088Y-113837065D01*
X167817289Y-113969339D01*
X167910276Y-114079960D01*
X167917747Y-114084933D01*
X167917748Y-114084934D01*
X168023101Y-114155063D01*
X168023103Y-114155064D01*
X168030574Y-114160037D01*
X168039138Y-114162713D01*
X168039141Y-114162714D01*
X168099542Y-114181584D01*
X168168510Y-114203132D01*
X168312998Y-114205780D01*
X168363356Y-114192051D01*
X168443763Y-114170130D01*
X168443765Y-114170129D01*
X168452422Y-114167769D01*
X168575572Y-114092154D01*
X168672551Y-113985014D01*
X168735560Y-113854962D01*
X168759536Y-113712453D01*
X168759688Y-113700000D01*
X168739201Y-113556948D01*
X168679388Y-113425395D01*
X168673530Y-113418596D01*
X168673527Y-113418592D01*
X168590916Y-113322718D01*
X168590913Y-113322716D01*
X168585056Y-113315918D01*
X168463790Y-113237317D01*
X168446921Y-113232272D01*
X168333938Y-113198482D01*
X168333936Y-113198482D01*
X168325337Y-113195910D01*
X168316363Y-113195855D01*
X168316361Y-113195855D01*
X168253082Y-113195469D01*
X168180827Y-113195028D01*
X168172196Y-113197495D01*
X168172194Y-113197495D01*
X168050509Y-113232272D01*
X168050505Y-113232274D01*
X168041879Y-113234739D01*
X167919661Y-113311853D01*
X167823999Y-113420170D01*
X167762583Y-113550982D01*
X167740350Y-113693773D01*
X128254000Y-113693773D01*
X128254000Y-110793773D01*
X167790350Y-110793773D01*
X167791514Y-110802675D01*
X167791514Y-110802678D01*
X167807924Y-110928164D01*
X167809088Y-110937065D01*
X167867289Y-111069339D01*
X167960276Y-111179960D01*
X167967747Y-111184933D01*
X167967748Y-111184934D01*
X168073101Y-111255063D01*
X168073103Y-111255064D01*
X168080574Y-111260037D01*
X168089138Y-111262713D01*
X168089141Y-111262714D01*
X168149542Y-111281585D01*
X168218510Y-111303132D01*
X168362998Y-111305780D01*
X168382530Y-111300455D01*
X168493763Y-111270130D01*
X168493765Y-111270129D01*
X168502422Y-111267769D01*
X168625572Y-111192154D01*
X168722551Y-111085014D01*
X168785560Y-110954962D01*
X168809536Y-110812453D01*
X168809688Y-110800000D01*
X168789201Y-110656948D01*
X168729388Y-110525395D01*
X168723530Y-110518596D01*
X168723527Y-110518592D01*
X168640916Y-110422718D01*
X168640913Y-110422716D01*
X168635056Y-110415918D01*
X168513790Y-110337317D01*
X168488127Y-110329642D01*
X168383938Y-110298482D01*
X168383936Y-110298482D01*
X168375337Y-110295910D01*
X168366363Y-110295855D01*
X168366361Y-110295855D01*
X168303082Y-110295469D01*
X168230827Y-110295028D01*
X168222196Y-110297495D01*
X168222194Y-110297495D01*
X168100509Y-110332272D01*
X168100505Y-110332274D01*
X168091879Y-110334739D01*
X168084292Y-110339526D01*
X168084290Y-110339527D01*
X168012198Y-110385014D01*
X167969661Y-110411853D01*
X167963718Y-110418582D01*
X167963717Y-110418583D01*
X167909511Y-110479960D01*
X167873999Y-110520170D01*
X167870185Y-110528293D01*
X167870184Y-110528295D01*
X167841107Y-110590228D01*
X167812583Y-110650982D01*
X167790350Y-110793773D01*
X128254000Y-110793773D01*
X128254000Y-110050000D01*
X165290715Y-110050000D01*
X165291793Y-110058188D01*
X165297298Y-110100000D01*
X165309772Y-110194754D01*
X165312931Y-110202380D01*
X165351673Y-110295910D01*
X165365645Y-110329642D01*
X165454526Y-110445474D01*
X165461076Y-110450500D01*
X165461079Y-110450503D01*
X165563804Y-110529327D01*
X165570357Y-110534355D01*
X165705246Y-110590228D01*
X165850000Y-110609285D01*
X165858188Y-110608207D01*
X165895492Y-110603296D01*
X165994754Y-110590228D01*
X166129643Y-110534355D01*
X166136196Y-110529327D01*
X166238921Y-110450503D01*
X166238924Y-110450500D01*
X166245474Y-110445474D01*
X166334355Y-110329642D01*
X166348328Y-110295910D01*
X166387069Y-110202380D01*
X166390228Y-110194754D01*
X166402703Y-110100000D01*
X166403523Y-110093773D01*
X169990350Y-110093773D01*
X169991514Y-110102675D01*
X169991514Y-110102678D01*
X170003555Y-110194754D01*
X170009088Y-110237065D01*
X170067289Y-110369339D01*
X170160276Y-110479960D01*
X170167747Y-110484933D01*
X170167748Y-110484934D01*
X170273101Y-110555063D01*
X170273103Y-110555064D01*
X170280574Y-110560037D01*
X170289138Y-110562713D01*
X170289141Y-110562714D01*
X170349542Y-110581584D01*
X170418510Y-110603132D01*
X170562998Y-110605780D01*
X170582530Y-110600455D01*
X170693763Y-110570130D01*
X170693765Y-110570129D01*
X170702422Y-110567769D01*
X170825572Y-110492154D01*
X170922551Y-110385014D01*
X170985560Y-110254962D01*
X171009536Y-110112453D01*
X171009688Y-110100000D01*
X170989201Y-109956948D01*
X170929388Y-109825395D01*
X170923530Y-109818596D01*
X170923527Y-109818592D01*
X170840916Y-109722718D01*
X170840913Y-109722716D01*
X170835056Y-109715918D01*
X170750447Y-109661077D01*
X170721324Y-109642200D01*
X170721322Y-109642199D01*
X170713790Y-109637317D01*
X170696921Y-109632272D01*
X170583938Y-109598482D01*
X170583936Y-109598482D01*
X170575337Y-109595910D01*
X170566363Y-109595855D01*
X170566361Y-109595855D01*
X170503082Y-109595469D01*
X170430827Y-109595028D01*
X170422196Y-109597495D01*
X170422194Y-109597495D01*
X170300509Y-109632272D01*
X170300505Y-109632274D01*
X170291879Y-109634739D01*
X170284292Y-109639526D01*
X170284290Y-109639527D01*
X170177254Y-109707062D01*
X170169661Y-109711853D01*
X170163718Y-109718582D01*
X170163717Y-109718583D01*
X170092914Y-109798752D01*
X170073999Y-109820170D01*
X170012583Y-109950982D01*
X170011203Y-109959846D01*
X170011202Y-109959849D01*
X169995891Y-110058188D01*
X169990350Y-110093773D01*
X166403523Y-110093773D01*
X166408207Y-110058188D01*
X166409285Y-110050000D01*
X166390228Y-109905246D01*
X166354988Y-109820170D01*
X166337515Y-109777986D01*
X166337514Y-109777984D01*
X166334355Y-109770358D01*
X166245474Y-109654526D01*
X166238924Y-109649500D01*
X166238921Y-109649497D01*
X166136196Y-109570673D01*
X166136194Y-109570672D01*
X166129643Y-109565645D01*
X165994754Y-109509772D01*
X165850000Y-109490715D01*
X165841812Y-109491793D01*
X165713432Y-109508694D01*
X165713430Y-109508695D01*
X165705246Y-109509772D01*
X165657430Y-109529578D01*
X165577986Y-109562485D01*
X165577984Y-109562486D01*
X165570358Y-109565645D01*
X165531994Y-109595083D01*
X165470590Y-109642200D01*
X165454526Y-109654526D01*
X165365645Y-109770358D01*
X165362486Y-109777984D01*
X165362485Y-109777986D01*
X165345012Y-109820170D01*
X165309772Y-109905246D01*
X165290715Y-110050000D01*
X128254000Y-110050000D01*
X128254000Y-108735537D01*
X164248586Y-108735537D01*
X164249750Y-108744439D01*
X164249750Y-108744442D01*
X164266160Y-108869928D01*
X164267324Y-108878829D01*
X164325525Y-109011103D01*
X164418512Y-109121724D01*
X164425983Y-109126697D01*
X164425984Y-109126698D01*
X164531337Y-109196827D01*
X164531339Y-109196828D01*
X164538810Y-109201801D01*
X164547374Y-109204477D01*
X164547377Y-109204478D01*
X164607778Y-109223349D01*
X164676746Y-109244896D01*
X164821234Y-109247544D01*
X164840766Y-109242219D01*
X164951999Y-109211894D01*
X164952001Y-109211893D01*
X164960658Y-109209533D01*
X165083808Y-109133918D01*
X165180787Y-109026778D01*
X165243796Y-108896726D01*
X165245285Y-108887877D01*
X165245286Y-108887873D01*
X165262443Y-108785890D01*
X165293470Y-108722032D01*
X165354095Y-108685085D01*
X165425072Y-108686780D01*
X165434912Y-108690384D01*
X165555246Y-108740228D01*
X165700000Y-108759285D01*
X165708188Y-108758207D01*
X165836566Y-108741306D01*
X165844754Y-108740228D01*
X165979643Y-108684355D01*
X166087474Y-108601613D01*
X166088921Y-108600503D01*
X166088924Y-108600500D01*
X166095474Y-108595474D01*
X166184355Y-108479642D01*
X166188325Y-108470059D01*
X166237069Y-108352380D01*
X166240228Y-108344754D01*
X166248278Y-108283612D01*
X166258207Y-108208188D01*
X166259285Y-108200000D01*
X166240228Y-108055246D01*
X166184355Y-107920358D01*
X166095474Y-107804526D01*
X166088924Y-107799500D01*
X166088921Y-107799497D01*
X165986196Y-107720673D01*
X165986194Y-107720672D01*
X165979643Y-107715645D01*
X165844754Y-107659772D01*
X165700000Y-107640715D01*
X165691812Y-107641793D01*
X165563432Y-107658694D01*
X165563430Y-107658695D01*
X165555246Y-107659772D01*
X165507430Y-107679578D01*
X165427986Y-107712485D01*
X165427984Y-107712486D01*
X165420358Y-107715645D01*
X165304526Y-107804526D01*
X165215645Y-107920358D01*
X165159772Y-108055246D01*
X165158695Y-108063430D01*
X165158694Y-108063432D01*
X165143402Y-108179593D01*
X165114680Y-108244520D01*
X165055415Y-108283612D01*
X164984423Y-108284457D01*
X164974905Y-108280947D01*
X164972026Y-108279081D01*
X164933421Y-108267535D01*
X164842174Y-108240246D01*
X164842172Y-108240246D01*
X164833573Y-108237674D01*
X164824599Y-108237619D01*
X164824597Y-108237619D01*
X164761318Y-108237233D01*
X164689063Y-108236792D01*
X164680432Y-108239259D01*
X164680430Y-108239259D01*
X164558745Y-108274036D01*
X164558741Y-108274038D01*
X164550115Y-108276503D01*
X164542528Y-108281290D01*
X164542526Y-108281291D01*
X164454918Y-108336568D01*
X164427897Y-108353617D01*
X164332235Y-108461934D01*
X164270819Y-108592746D01*
X164269439Y-108601610D01*
X164269438Y-108601613D01*
X164250689Y-108722032D01*
X164248586Y-108735537D01*
X128254000Y-108735537D01*
X128254000Y-106693773D01*
X164790350Y-106693773D01*
X164791514Y-106702675D01*
X164791514Y-106702678D01*
X164807924Y-106828164D01*
X164809088Y-106837065D01*
X164867289Y-106969339D01*
X164960276Y-107079960D01*
X164967747Y-107084933D01*
X164967748Y-107084934D01*
X165073101Y-107155063D01*
X165073103Y-107155064D01*
X165080574Y-107160037D01*
X165089138Y-107162713D01*
X165089141Y-107162714D01*
X165149542Y-107181584D01*
X165218510Y-107203132D01*
X165362998Y-107205780D01*
X165382530Y-107200455D01*
X165493763Y-107170130D01*
X165493765Y-107170129D01*
X165502422Y-107167769D01*
X165625572Y-107092154D01*
X165722551Y-106985014D01*
X165785560Y-106854962D01*
X165809536Y-106712453D01*
X165809688Y-106700000D01*
X165789201Y-106556948D01*
X165729388Y-106425395D01*
X165723530Y-106418596D01*
X165723527Y-106418592D01*
X165640916Y-106322718D01*
X165640913Y-106322716D01*
X165635056Y-106315918D01*
X165513790Y-106237317D01*
X165496921Y-106232272D01*
X165383938Y-106198482D01*
X165383936Y-106198482D01*
X165375337Y-106195910D01*
X165366363Y-106195855D01*
X165366361Y-106195855D01*
X165303082Y-106195469D01*
X165230827Y-106195028D01*
X165222196Y-106197495D01*
X165222194Y-106197495D01*
X165100509Y-106232272D01*
X165100505Y-106232274D01*
X165091879Y-106234739D01*
X164969661Y-106311853D01*
X164873999Y-106420170D01*
X164812583Y-106550982D01*
X164790350Y-106693773D01*
X128254000Y-106693773D01*
X128254000Y-105293773D01*
X164290350Y-105293773D01*
X164291514Y-105302675D01*
X164291514Y-105302678D01*
X164307924Y-105428164D01*
X164309088Y-105437065D01*
X164367289Y-105569339D01*
X164460276Y-105679960D01*
X164467747Y-105684933D01*
X164467748Y-105684934D01*
X164573101Y-105755063D01*
X164573103Y-105755064D01*
X164580574Y-105760037D01*
X164589138Y-105762713D01*
X164589141Y-105762714D01*
X164649542Y-105781584D01*
X164718510Y-105803132D01*
X164862998Y-105805780D01*
X164882530Y-105800455D01*
X164993763Y-105770130D01*
X164993765Y-105770129D01*
X165002422Y-105767769D01*
X165125572Y-105692154D01*
X165222551Y-105585014D01*
X165285560Y-105454962D01*
X165309536Y-105312453D01*
X165309688Y-105300000D01*
X165289201Y-105156948D01*
X165229388Y-105025395D01*
X165223530Y-105018596D01*
X165223527Y-105018592D01*
X165140916Y-104922718D01*
X165140913Y-104922716D01*
X165135056Y-104915918D01*
X165013790Y-104837317D01*
X164996921Y-104832272D01*
X164883938Y-104798482D01*
X164883936Y-104798482D01*
X164875337Y-104795910D01*
X164866363Y-104795855D01*
X164866361Y-104795855D01*
X164803082Y-104795469D01*
X164730827Y-104795028D01*
X164722196Y-104797495D01*
X164722194Y-104797495D01*
X164600509Y-104832272D01*
X164600505Y-104832274D01*
X164591879Y-104834739D01*
X164469661Y-104911853D01*
X164373999Y-105020170D01*
X164312583Y-105150982D01*
X164290350Y-105293773D01*
X128254000Y-105293773D01*
X128254000Y-103493773D01*
X166740350Y-103493773D01*
X166741514Y-103502675D01*
X166741514Y-103502678D01*
X166750722Y-103573090D01*
X166759088Y-103637065D01*
X166817289Y-103769339D01*
X166823063Y-103776208D01*
X166889951Y-103855780D01*
X166910276Y-103879960D01*
X166917747Y-103884933D01*
X166917748Y-103884934D01*
X167023101Y-103955063D01*
X167023103Y-103955064D01*
X167030574Y-103960037D01*
X167039138Y-103962713D01*
X167039141Y-103962714D01*
X167079731Y-103975395D01*
X167168510Y-104003132D01*
X167312998Y-104005780D01*
X167349362Y-103995866D01*
X167420345Y-103997246D01*
X167479314Y-104036783D01*
X167507546Y-104101925D01*
X167507004Y-104136813D01*
X167490350Y-104243773D01*
X167491514Y-104252675D01*
X167491514Y-104252678D01*
X167507924Y-104378164D01*
X167509088Y-104387065D01*
X167567289Y-104519339D01*
X167660276Y-104629960D01*
X167667747Y-104634933D01*
X167667748Y-104634934D01*
X167773101Y-104705063D01*
X167773103Y-104705064D01*
X167780574Y-104710037D01*
X167789138Y-104712713D01*
X167789141Y-104712714D01*
X167849542Y-104731584D01*
X167918510Y-104753132D01*
X168062998Y-104755780D01*
X168082530Y-104750455D01*
X168193763Y-104720130D01*
X168193765Y-104720129D01*
X168202422Y-104717769D01*
X168325572Y-104642154D01*
X168422551Y-104535014D01*
X168485560Y-104404962D01*
X168509536Y-104262453D01*
X168509688Y-104250000D01*
X168493549Y-104137306D01*
X168503691Y-104067038D01*
X168550214Y-104013408D01*
X168618346Y-103993444D01*
X168655851Y-103999177D01*
X168668510Y-104003132D01*
X168812998Y-104005780D01*
X168844301Y-103997246D01*
X168943763Y-103970130D01*
X168943765Y-103970129D01*
X168952422Y-103967769D01*
X169075572Y-103892154D01*
X169172551Y-103785014D01*
X169235560Y-103654962D01*
X169259536Y-103512453D01*
X169259612Y-103506226D01*
X169259629Y-103504860D01*
X169259629Y-103504856D01*
X169259688Y-103500000D01*
X169239201Y-103356948D01*
X169179388Y-103225395D01*
X169173530Y-103218596D01*
X169173527Y-103218592D01*
X169152141Y-103193773D01*
X173490350Y-103193773D01*
X173491514Y-103202675D01*
X173491514Y-103202678D01*
X173507924Y-103328164D01*
X173509088Y-103337065D01*
X173567289Y-103469339D01*
X173660276Y-103579960D01*
X173667747Y-103584933D01*
X173667748Y-103584934D01*
X173773101Y-103655063D01*
X173773103Y-103655064D01*
X173780574Y-103660037D01*
X173789138Y-103662713D01*
X173789141Y-103662714D01*
X173849542Y-103681584D01*
X173918510Y-103703132D01*
X174062998Y-103705780D01*
X174082530Y-103700455D01*
X174193763Y-103670130D01*
X174193765Y-103670129D01*
X174202422Y-103667769D01*
X174325572Y-103592154D01*
X174422551Y-103485014D01*
X174485560Y-103354962D01*
X174487442Y-103343773D01*
X178840350Y-103343773D01*
X178841514Y-103352675D01*
X178841514Y-103352678D01*
X178855696Y-103461125D01*
X178859088Y-103487065D01*
X178917289Y-103619339D01*
X178923063Y-103626208D01*
X178989951Y-103705780D01*
X179010276Y-103729960D01*
X179017747Y-103734933D01*
X179017748Y-103734934D01*
X179123101Y-103805063D01*
X179123103Y-103805064D01*
X179130574Y-103810037D01*
X179139138Y-103812713D01*
X179139141Y-103812714D01*
X179199542Y-103831585D01*
X179268510Y-103853132D01*
X179412998Y-103855780D01*
X179479088Y-103837762D01*
X179543763Y-103820130D01*
X179543765Y-103820129D01*
X179552422Y-103817769D01*
X179675572Y-103742154D01*
X179772551Y-103635014D01*
X179835560Y-103504962D01*
X179859536Y-103362453D01*
X179859612Y-103356226D01*
X179859629Y-103354860D01*
X179859629Y-103354856D01*
X179859688Y-103350000D01*
X179849347Y-103277796D01*
X179840474Y-103215835D01*
X179840473Y-103215833D01*
X179839201Y-103206948D01*
X179779388Y-103075395D01*
X179773530Y-103068596D01*
X179773527Y-103068592D01*
X179690916Y-102972718D01*
X179690913Y-102972716D01*
X179685056Y-102965918D01*
X179577356Y-102896110D01*
X179571324Y-102892200D01*
X179571322Y-102892199D01*
X179563790Y-102887317D01*
X179488423Y-102864777D01*
X179433938Y-102848482D01*
X179433936Y-102848482D01*
X179425337Y-102845910D01*
X179416363Y-102845855D01*
X179416361Y-102845855D01*
X179353082Y-102845469D01*
X179280827Y-102845028D01*
X179272196Y-102847495D01*
X179272194Y-102847495D01*
X179150509Y-102882272D01*
X179150505Y-102882274D01*
X179141879Y-102884739D01*
X179134292Y-102889526D01*
X179134290Y-102889527D01*
X179088225Y-102918592D01*
X179019661Y-102961853D01*
X179013718Y-102968582D01*
X179013717Y-102968583D01*
X178968891Y-103019339D01*
X178923999Y-103070170D01*
X178862583Y-103200982D01*
X178861203Y-103209846D01*
X178861202Y-103209849D01*
X178854051Y-103255780D01*
X178840350Y-103343773D01*
X174487442Y-103343773D01*
X174509536Y-103212453D01*
X174509688Y-103200000D01*
X174496378Y-103107062D01*
X174490474Y-103065835D01*
X174490473Y-103065833D01*
X174489201Y-103056948D01*
X174429388Y-102925395D01*
X174423530Y-102918596D01*
X174423527Y-102918592D01*
X174340916Y-102822718D01*
X174340913Y-102822716D01*
X174335056Y-102815918D01*
X174245072Y-102757593D01*
X174221324Y-102742200D01*
X174221322Y-102742199D01*
X174213790Y-102737317D01*
X174196921Y-102732272D01*
X174083938Y-102698482D01*
X174083936Y-102698482D01*
X174075337Y-102695910D01*
X174066363Y-102695855D01*
X174066361Y-102695855D01*
X174003082Y-102695469D01*
X173930827Y-102695028D01*
X173922196Y-102697495D01*
X173922194Y-102697495D01*
X173800509Y-102732272D01*
X173800505Y-102732274D01*
X173791879Y-102734739D01*
X173784292Y-102739526D01*
X173784290Y-102739527D01*
X173747955Y-102762453D01*
X173669661Y-102811853D01*
X173663718Y-102818582D01*
X173663717Y-102818583D01*
X173639583Y-102845910D01*
X173573999Y-102920170D01*
X173570185Y-102928293D01*
X173570184Y-102928295D01*
X173556678Y-102957062D01*
X173512583Y-103050982D01*
X173511203Y-103059846D01*
X173511202Y-103059849D01*
X173495243Y-103162349D01*
X173490350Y-103193773D01*
X169152141Y-103193773D01*
X169090916Y-103122718D01*
X169090913Y-103122716D01*
X169085056Y-103115918D01*
X169004096Y-103063442D01*
X168971324Y-103042200D01*
X168971322Y-103042199D01*
X168963790Y-103037317D01*
X168876212Y-103011125D01*
X168833938Y-102998482D01*
X168833936Y-102998482D01*
X168825337Y-102995910D01*
X168816363Y-102995855D01*
X168816361Y-102995855D01*
X168753082Y-102995469D01*
X168680827Y-102995028D01*
X168651786Y-103003328D01*
X168580792Y-103002814D01*
X168521345Y-102964000D01*
X168492320Y-102899207D01*
X168492910Y-102861273D01*
X168499397Y-102822718D01*
X168509536Y-102762453D01*
X168509688Y-102750000D01*
X168489201Y-102606948D01*
X168429388Y-102475395D01*
X168423530Y-102468596D01*
X168423527Y-102468592D01*
X168340916Y-102372718D01*
X168340913Y-102372716D01*
X168335056Y-102365918D01*
X168213790Y-102287317D01*
X168166219Y-102273090D01*
X168083938Y-102248482D01*
X168083936Y-102248482D01*
X168075337Y-102245910D01*
X168066363Y-102245855D01*
X168066361Y-102245855D01*
X168003082Y-102245469D01*
X167930827Y-102245028D01*
X167922196Y-102247495D01*
X167922194Y-102247495D01*
X167800509Y-102282272D01*
X167800505Y-102282274D01*
X167791879Y-102284739D01*
X167784292Y-102289526D01*
X167784290Y-102289527D01*
X167780054Y-102292200D01*
X167669661Y-102361853D01*
X167573999Y-102470170D01*
X167512583Y-102600982D01*
X167511203Y-102609846D01*
X167511202Y-102609849D01*
X167491756Y-102734745D01*
X167490350Y-102743773D01*
X167491514Y-102752675D01*
X167491514Y-102752679D01*
X167506173Y-102864777D01*
X167495173Y-102934916D01*
X167447998Y-102987973D01*
X167379628Y-103007104D01*
X167345132Y-103001830D01*
X167333939Y-102998482D01*
X167333935Y-102998481D01*
X167325337Y-102995910D01*
X167316363Y-102995855D01*
X167316361Y-102995855D01*
X167253082Y-102995469D01*
X167180827Y-102995028D01*
X167172196Y-102997495D01*
X167172194Y-102997495D01*
X167050509Y-103032272D01*
X167050505Y-103032274D01*
X167041879Y-103034739D01*
X167034292Y-103039526D01*
X167034290Y-103039527D01*
X166992595Y-103065835D01*
X166919661Y-103111853D01*
X166913718Y-103118582D01*
X166913717Y-103118583D01*
X166855147Y-103184901D01*
X166823999Y-103220170D01*
X166820185Y-103228293D01*
X166820184Y-103228295D01*
X166807280Y-103255780D01*
X166762583Y-103350982D01*
X166740350Y-103493773D01*
X128254000Y-103493773D01*
X128254000Y-102743773D01*
X164490350Y-102743773D01*
X164491514Y-102752675D01*
X164491514Y-102752678D01*
X164505715Y-102861273D01*
X164509088Y-102887065D01*
X164567289Y-103019339D01*
X164573063Y-103026208D01*
X164650713Y-103118583D01*
X164660276Y-103129960D01*
X164667747Y-103134933D01*
X164667748Y-103134934D01*
X164773101Y-103205063D01*
X164773103Y-103205064D01*
X164780574Y-103210037D01*
X164789138Y-103212713D01*
X164789141Y-103212714D01*
X164829731Y-103225395D01*
X164918510Y-103253132D01*
X165062998Y-103255780D01*
X165144468Y-103233569D01*
X165193763Y-103220130D01*
X165193765Y-103220129D01*
X165202422Y-103217769D01*
X165325572Y-103142154D01*
X165422551Y-103035014D01*
X165471700Y-102933569D01*
X165481645Y-102913043D01*
X165481645Y-102913042D01*
X165485560Y-102904962D01*
X165509536Y-102762453D01*
X165509688Y-102750000D01*
X165489201Y-102606948D01*
X165429388Y-102475395D01*
X165423530Y-102468596D01*
X165423527Y-102468592D01*
X165340916Y-102372718D01*
X165340913Y-102372716D01*
X165335056Y-102365918D01*
X165213790Y-102287317D01*
X165166219Y-102273090D01*
X165083938Y-102248482D01*
X165083936Y-102248482D01*
X165075337Y-102245910D01*
X165066363Y-102245855D01*
X165066361Y-102245855D01*
X165003082Y-102245469D01*
X164930827Y-102245028D01*
X164922196Y-102247495D01*
X164922194Y-102247495D01*
X164800509Y-102282272D01*
X164800505Y-102282274D01*
X164791879Y-102284739D01*
X164784292Y-102289526D01*
X164784290Y-102289527D01*
X164780054Y-102292200D01*
X164669661Y-102361853D01*
X164573999Y-102470170D01*
X164512583Y-102600982D01*
X164511203Y-102609846D01*
X164511202Y-102609849D01*
X164491756Y-102734745D01*
X164490350Y-102743773D01*
X128254000Y-102743773D01*
X128254000Y-100444654D01*
X166439469Y-100444654D01*
X166440633Y-100453556D01*
X166440633Y-100453559D01*
X166449370Y-100520372D01*
X166458207Y-100587946D01*
X166516408Y-100720220D01*
X166522182Y-100727089D01*
X166554752Y-100765835D01*
X166609395Y-100830841D01*
X166616866Y-100835814D01*
X166616867Y-100835815D01*
X166722220Y-100905944D01*
X166722222Y-100905945D01*
X166729693Y-100910918D01*
X166738257Y-100913594D01*
X166738260Y-100913595D01*
X166790328Y-100929862D01*
X166867629Y-100954013D01*
X167012117Y-100956661D01*
X167082561Y-100937456D01*
X167142882Y-100921011D01*
X167142884Y-100921010D01*
X167151541Y-100918650D01*
X167274691Y-100843035D01*
X167371670Y-100735895D01*
X167392078Y-100693773D01*
X168240350Y-100693773D01*
X168241514Y-100702675D01*
X168241514Y-100702678D01*
X168253221Y-100792200D01*
X168259088Y-100837065D01*
X168317289Y-100969339D01*
X168323063Y-100976208D01*
X168402232Y-101070390D01*
X168410276Y-101079960D01*
X168417747Y-101084933D01*
X168417748Y-101084934D01*
X168523101Y-101155063D01*
X168523103Y-101155064D01*
X168530574Y-101160037D01*
X168539138Y-101162713D01*
X168539141Y-101162714D01*
X168599542Y-101181584D01*
X168668510Y-101203132D01*
X168812998Y-101205780D01*
X168832530Y-101200455D01*
X168943763Y-101170130D01*
X168943765Y-101170129D01*
X168952422Y-101167769D01*
X169075572Y-101092154D01*
X169076638Y-101093891D01*
X169131100Y-101070390D01*
X169201146Y-101081969D01*
X169253812Y-101129580D01*
X169272377Y-101198106D01*
X169260460Y-101249005D01*
X169216398Y-101342856D01*
X169212583Y-101350982D01*
X169211203Y-101359846D01*
X169211202Y-101359849D01*
X169191756Y-101484745D01*
X169190350Y-101493773D01*
X169191514Y-101502675D01*
X169191514Y-101502678D01*
X169207562Y-101625395D01*
X169209088Y-101637065D01*
X169267289Y-101769339D01*
X169360276Y-101879960D01*
X169367747Y-101884933D01*
X169367748Y-101884934D01*
X169473101Y-101955063D01*
X169473103Y-101955064D01*
X169480574Y-101960037D01*
X169489138Y-101962713D01*
X169489141Y-101962714D01*
X169549542Y-101981584D01*
X169618510Y-102003132D01*
X169762998Y-102005780D01*
X169782530Y-102000455D01*
X169893763Y-101970130D01*
X169893765Y-101970129D01*
X169902422Y-101967769D01*
X170022935Y-101893773D01*
X171540350Y-101893773D01*
X171541514Y-101902675D01*
X171541514Y-101902678D01*
X171554651Y-102003132D01*
X171559088Y-102037065D01*
X171617289Y-102169339D01*
X171623063Y-102176208D01*
X171665093Y-102226208D01*
X171710276Y-102279960D01*
X171717747Y-102284933D01*
X171717748Y-102284934D01*
X171823101Y-102355063D01*
X171823103Y-102355064D01*
X171830574Y-102360037D01*
X171839138Y-102362713D01*
X171839141Y-102362714D01*
X171899542Y-102381584D01*
X171968510Y-102403132D01*
X172112998Y-102405780D01*
X172132530Y-102400455D01*
X172243763Y-102370130D01*
X172243765Y-102370129D01*
X172252422Y-102367769D01*
X172375572Y-102292154D01*
X172472551Y-102185014D01*
X172507420Y-102113043D01*
X172531645Y-102063043D01*
X172531645Y-102063042D01*
X172535560Y-102054962D01*
X172554267Y-101943773D01*
X172990350Y-101943773D01*
X172991514Y-101952675D01*
X172991514Y-101952678D01*
X173003624Y-102045280D01*
X173009088Y-102087065D01*
X173067289Y-102219339D01*
X173073063Y-102226208D01*
X173122428Y-102284934D01*
X173160276Y-102329960D01*
X173167747Y-102334933D01*
X173167748Y-102334934D01*
X173273101Y-102405063D01*
X173273103Y-102405064D01*
X173280574Y-102410037D01*
X173289138Y-102412713D01*
X173289141Y-102412714D01*
X173349542Y-102431584D01*
X173418510Y-102453132D01*
X173562998Y-102455780D01*
X173582530Y-102450455D01*
X173693763Y-102420130D01*
X173693765Y-102420129D01*
X173702422Y-102417769D01*
X173825572Y-102342154D01*
X173922551Y-102235014D01*
X173985560Y-102104962D01*
X174009536Y-101962453D01*
X174009688Y-101950000D01*
X173989201Y-101806948D01*
X173929388Y-101675395D01*
X173923530Y-101668596D01*
X173923527Y-101668592D01*
X173840916Y-101572718D01*
X173840913Y-101572716D01*
X173835056Y-101565918D01*
X173745072Y-101507593D01*
X173721324Y-101492200D01*
X173721322Y-101492199D01*
X173713790Y-101487317D01*
X173660645Y-101471423D01*
X173583938Y-101448482D01*
X173583936Y-101448482D01*
X173575337Y-101445910D01*
X173566363Y-101445855D01*
X173566361Y-101445855D01*
X173503082Y-101445469D01*
X173430827Y-101445028D01*
X173422196Y-101447495D01*
X173422194Y-101447495D01*
X173300509Y-101482272D01*
X173300505Y-101482274D01*
X173291879Y-101484739D01*
X173284292Y-101489526D01*
X173284290Y-101489527D01*
X173212198Y-101535014D01*
X173169661Y-101561853D01*
X173163718Y-101568582D01*
X173163717Y-101568583D01*
X173113543Y-101625395D01*
X173073999Y-101670170D01*
X173070185Y-101678293D01*
X173070184Y-101678295D01*
X173054025Y-101712714D01*
X173012583Y-101800982D01*
X173011203Y-101809846D01*
X173011202Y-101809849D01*
X172995227Y-101912453D01*
X172990350Y-101943773D01*
X172554267Y-101943773D01*
X172559536Y-101912453D01*
X172559688Y-101900000D01*
X172545507Y-101800982D01*
X172540474Y-101765835D01*
X172540473Y-101765833D01*
X172539201Y-101756948D01*
X172479388Y-101625395D01*
X172473530Y-101618596D01*
X172473527Y-101618592D01*
X172390916Y-101522718D01*
X172390913Y-101522716D01*
X172385056Y-101515918D01*
X172286426Y-101451989D01*
X172271324Y-101442200D01*
X172271322Y-101442199D01*
X172263790Y-101437317D01*
X172182625Y-101413043D01*
X172133938Y-101398482D01*
X172133936Y-101398482D01*
X172125337Y-101395910D01*
X172116363Y-101395855D01*
X172116361Y-101395855D01*
X172053082Y-101395469D01*
X171980827Y-101395028D01*
X171972196Y-101397495D01*
X171972194Y-101397495D01*
X171850509Y-101432272D01*
X171850505Y-101432274D01*
X171841879Y-101434739D01*
X171834288Y-101439528D01*
X171834287Y-101439529D01*
X171814538Y-101451989D01*
X171746253Y-101471423D01*
X171725646Y-101465185D01*
X171726812Y-101474673D01*
X171696930Y-101537591D01*
X171623999Y-101620170D01*
X171620185Y-101628293D01*
X171620184Y-101628295D01*
X171612210Y-101645280D01*
X171562583Y-101750982D01*
X171561203Y-101759846D01*
X171561202Y-101759849D01*
X171542501Y-101879960D01*
X171540350Y-101893773D01*
X170022935Y-101893773D01*
X170025572Y-101892154D01*
X170122551Y-101785014D01*
X170171700Y-101683569D01*
X170181645Y-101663043D01*
X170181645Y-101663042D01*
X170185560Y-101654962D01*
X170209536Y-101512453D01*
X170209688Y-101500000D01*
X170197235Y-101413043D01*
X170190474Y-101365835D01*
X170190473Y-101365833D01*
X170189201Y-101356948D01*
X170129388Y-101225395D01*
X170123530Y-101218596D01*
X170123527Y-101218592D01*
X170040916Y-101122718D01*
X170040913Y-101122716D01*
X170035056Y-101115918D01*
X169953480Y-101063043D01*
X169921324Y-101042200D01*
X169921322Y-101042199D01*
X169913790Y-101037317D01*
X169883185Y-101028164D01*
X169783938Y-100998482D01*
X169783936Y-100998482D01*
X169775337Y-100995910D01*
X169766363Y-100995855D01*
X169766361Y-100995855D01*
X169703082Y-100995469D01*
X169630827Y-100995028D01*
X169622196Y-100997495D01*
X169622194Y-100997495D01*
X169500509Y-101032272D01*
X169500505Y-101032274D01*
X169491879Y-101034739D01*
X169484288Y-101039528D01*
X169484287Y-101039529D01*
X169370108Y-101111570D01*
X169301823Y-101131004D01*
X169233872Y-101110435D01*
X169187827Y-101056394D01*
X169178309Y-100986038D01*
X169189481Y-100950070D01*
X169216757Y-100893773D01*
X170790350Y-100893773D01*
X170791514Y-100902675D01*
X170791514Y-100902678D01*
X170807924Y-101028164D01*
X170809088Y-101037065D01*
X170867289Y-101169339D01*
X170873063Y-101176208D01*
X170949590Y-101267247D01*
X170960276Y-101279960D01*
X170967747Y-101284933D01*
X170967748Y-101284934D01*
X171073101Y-101355063D01*
X171073103Y-101355064D01*
X171080574Y-101360037D01*
X171089138Y-101362713D01*
X171089141Y-101362714D01*
X171138594Y-101378164D01*
X171218510Y-101403132D01*
X171362998Y-101405780D01*
X171389767Y-101398482D01*
X171493763Y-101370130D01*
X171493765Y-101370129D01*
X171502422Y-101367769D01*
X171536560Y-101346808D01*
X171605077Y-101328210D01*
X171623776Y-101334120D01*
X171622739Y-101326456D01*
X171653888Y-101260871D01*
X171668087Y-101245184D01*
X171669364Y-101243773D01*
X178090350Y-101243773D01*
X178091514Y-101252675D01*
X178091514Y-101252678D01*
X178104903Y-101355063D01*
X178109088Y-101387065D01*
X178167289Y-101519339D01*
X178173063Y-101526208D01*
X178252047Y-101620170D01*
X178260276Y-101629960D01*
X178267747Y-101634933D01*
X178267748Y-101634934D01*
X178373101Y-101705063D01*
X178373103Y-101705064D01*
X178380574Y-101710037D01*
X178389138Y-101712713D01*
X178389141Y-101712714D01*
X178449542Y-101731584D01*
X178518510Y-101753132D01*
X178662998Y-101755780D01*
X178688685Y-101748777D01*
X178793763Y-101720130D01*
X178793765Y-101720129D01*
X178802422Y-101717769D01*
X178925572Y-101642154D01*
X179022551Y-101535014D01*
X179069884Y-101437317D01*
X179081645Y-101413043D01*
X179081645Y-101413042D01*
X179085560Y-101404962D01*
X179109536Y-101262453D01*
X179109688Y-101250000D01*
X179097239Y-101163073D01*
X179090474Y-101115835D01*
X179090473Y-101115833D01*
X179089201Y-101106948D01*
X179029388Y-100975395D01*
X179023530Y-100968596D01*
X179023527Y-100968592D01*
X178940916Y-100872718D01*
X178940913Y-100872716D01*
X178935056Y-100865918D01*
X178843591Y-100806633D01*
X178821324Y-100792200D01*
X178821322Y-100792199D01*
X178813790Y-100787317D01*
X178796921Y-100782272D01*
X178683938Y-100748482D01*
X178683936Y-100748482D01*
X178675337Y-100745910D01*
X178666363Y-100745855D01*
X178666361Y-100745855D01*
X178603082Y-100745469D01*
X178530827Y-100745028D01*
X178522196Y-100747495D01*
X178522194Y-100747495D01*
X178400509Y-100782272D01*
X178400505Y-100782274D01*
X178391879Y-100784739D01*
X178384292Y-100789526D01*
X178384290Y-100789527D01*
X178277254Y-100857062D01*
X178269661Y-100861853D01*
X178263718Y-100868582D01*
X178263717Y-100868583D01*
X178230721Y-100905944D01*
X178173999Y-100970170D01*
X178170185Y-100978293D01*
X178170184Y-100978295D01*
X178146771Y-101028164D01*
X178112583Y-101100982D01*
X178111203Y-101109846D01*
X178111202Y-101109849D01*
X178091939Y-101233569D01*
X178090350Y-101243773D01*
X171669364Y-101243773D01*
X171722551Y-101185014D01*
X171785560Y-101054962D01*
X171809536Y-100912453D01*
X171809612Y-100906226D01*
X171809629Y-100904860D01*
X171809629Y-100904856D01*
X171809688Y-100900000D01*
X171793867Y-100789527D01*
X171790474Y-100765835D01*
X171790473Y-100765833D01*
X171789201Y-100756948D01*
X171742528Y-100654296D01*
X174150873Y-100654296D01*
X174152037Y-100663198D01*
X174152037Y-100663201D01*
X174168268Y-100787317D01*
X174169611Y-100797588D01*
X174227812Y-100929862D01*
X174233586Y-100936731D01*
X174261695Y-100970170D01*
X174320799Y-101040483D01*
X174328270Y-101045456D01*
X174328271Y-101045457D01*
X174433624Y-101115586D01*
X174433626Y-101115587D01*
X174441097Y-101120560D01*
X174449661Y-101123236D01*
X174449664Y-101123237D01*
X174510065Y-101142108D01*
X174579033Y-101163655D01*
X174723521Y-101166303D01*
X174735369Y-101163073D01*
X174854286Y-101130653D01*
X174854288Y-101130652D01*
X174862945Y-101128292D01*
X174986095Y-101052677D01*
X174992791Y-101045280D01*
X175061529Y-100969339D01*
X175083074Y-100945537D01*
X175123618Y-100861853D01*
X175142168Y-100823566D01*
X175142168Y-100823565D01*
X175146083Y-100815485D01*
X175170059Y-100672976D01*
X175170211Y-100660523D01*
X175154523Y-100550982D01*
X175150997Y-100526358D01*
X175150996Y-100526356D01*
X175149724Y-100517471D01*
X175089911Y-100385918D01*
X175084053Y-100379119D01*
X175084050Y-100379115D01*
X175001439Y-100283241D01*
X175001436Y-100283239D01*
X174995579Y-100276441D01*
X174874313Y-100197840D01*
X174865094Y-100195083D01*
X174744461Y-100159005D01*
X174744459Y-100159005D01*
X174735860Y-100156433D01*
X174726886Y-100156378D01*
X174726884Y-100156378D01*
X174663605Y-100155992D01*
X174591350Y-100155551D01*
X174582719Y-100158018D01*
X174582717Y-100158018D01*
X174461032Y-100192795D01*
X174461028Y-100192797D01*
X174452402Y-100195262D01*
X174444815Y-100200049D01*
X174444813Y-100200050D01*
X174389835Y-100234739D01*
X174330184Y-100272376D01*
X174324241Y-100279105D01*
X174324240Y-100279106D01*
X174253437Y-100359275D01*
X174234522Y-100380693D01*
X174230708Y-100388816D01*
X174230707Y-100388818D01*
X174205645Y-100442200D01*
X174173106Y-100511505D01*
X174171726Y-100520369D01*
X174171725Y-100520372D01*
X174156187Y-100620170D01*
X174150873Y-100654296D01*
X171742528Y-100654296D01*
X171729388Y-100625395D01*
X171723530Y-100618596D01*
X171723527Y-100618592D01*
X171640916Y-100522718D01*
X171640913Y-100522716D01*
X171635056Y-100515918D01*
X171542215Y-100455741D01*
X171521324Y-100442200D01*
X171521322Y-100442199D01*
X171513790Y-100437317D01*
X171483623Y-100428295D01*
X171383938Y-100398482D01*
X171383936Y-100398482D01*
X171375337Y-100395910D01*
X171366363Y-100395855D01*
X171366361Y-100395855D01*
X171303082Y-100395469D01*
X171230827Y-100395028D01*
X171222196Y-100397495D01*
X171222194Y-100397495D01*
X171100509Y-100432272D01*
X171100505Y-100432274D01*
X171091879Y-100434739D01*
X171084292Y-100439526D01*
X171084290Y-100439527D01*
X170977254Y-100507062D01*
X170969661Y-100511853D01*
X170963718Y-100518582D01*
X170963717Y-100518583D01*
X170921986Y-100565835D01*
X170873999Y-100620170D01*
X170870185Y-100628293D01*
X170870184Y-100628295D01*
X170851488Y-100668116D01*
X170812583Y-100750982D01*
X170811203Y-100759846D01*
X170811202Y-100759849D01*
X170795135Y-100863043D01*
X170790350Y-100893773D01*
X169216757Y-100893773D01*
X169231645Y-100863043D01*
X169231645Y-100863042D01*
X169235560Y-100854962D01*
X169259536Y-100712453D01*
X169259688Y-100700000D01*
X169247292Y-100613442D01*
X169240474Y-100565835D01*
X169240473Y-100565833D01*
X169239201Y-100556948D01*
X169179388Y-100425395D01*
X169173530Y-100418596D01*
X169173527Y-100418592D01*
X169090916Y-100322718D01*
X169090913Y-100322716D01*
X169085056Y-100315918D01*
X168963790Y-100237317D01*
X168946921Y-100232272D01*
X168833938Y-100198482D01*
X168833936Y-100198482D01*
X168825337Y-100195910D01*
X168816363Y-100195855D01*
X168816361Y-100195855D01*
X168753082Y-100195469D01*
X168680827Y-100195028D01*
X168672196Y-100197495D01*
X168672194Y-100197495D01*
X168550509Y-100232272D01*
X168550505Y-100232274D01*
X168541879Y-100234739D01*
X168534292Y-100239526D01*
X168534290Y-100239527D01*
X168465008Y-100283241D01*
X168419661Y-100311853D01*
X168323999Y-100420170D01*
X168320185Y-100428293D01*
X168320184Y-100428295D01*
X168301483Y-100468128D01*
X168262583Y-100550982D01*
X168261203Y-100559846D01*
X168261202Y-100559849D01*
X168242842Y-100677770D01*
X168240350Y-100693773D01*
X167392078Y-100693773D01*
X167434679Y-100605843D01*
X167458655Y-100463334D01*
X167458807Y-100450881D01*
X167447792Y-100373965D01*
X167439593Y-100316716D01*
X167439592Y-100316714D01*
X167438320Y-100307829D01*
X167378507Y-100176276D01*
X167372649Y-100169477D01*
X167372646Y-100169473D01*
X167290035Y-100073599D01*
X167290032Y-100073597D01*
X167284175Y-100066799D01*
X167162909Y-99988198D01*
X167146040Y-99983153D01*
X167033057Y-99949363D01*
X167033055Y-99949363D01*
X167024456Y-99946791D01*
X167015482Y-99946736D01*
X167015480Y-99946736D01*
X166952201Y-99946350D01*
X166879946Y-99945909D01*
X166871315Y-99948376D01*
X166871313Y-99948376D01*
X166749628Y-99983153D01*
X166749624Y-99983155D01*
X166740998Y-99985620D01*
X166618780Y-100062734D01*
X166523118Y-100171051D01*
X166519304Y-100179174D01*
X166519303Y-100179176D01*
X166510239Y-100198482D01*
X166461702Y-100301863D01*
X166460322Y-100310727D01*
X166460321Y-100310730D01*
X166441012Y-100434745D01*
X166439469Y-100444654D01*
X128254000Y-100444654D01*
X128254000Y-99043773D01*
X162490350Y-99043773D01*
X162491514Y-99052675D01*
X162491514Y-99052678D01*
X162506496Y-99167247D01*
X162509088Y-99187065D01*
X162567289Y-99319339D01*
X162573063Y-99326208D01*
X162646959Y-99414117D01*
X162660276Y-99429960D01*
X162667747Y-99434933D01*
X162667748Y-99434934D01*
X162773101Y-99505063D01*
X162773103Y-99505064D01*
X162780574Y-99510037D01*
X162789138Y-99512713D01*
X162789141Y-99512714D01*
X162822353Y-99523090D01*
X162918510Y-99553132D01*
X163062998Y-99555780D01*
X163082530Y-99550455D01*
X163193763Y-99520130D01*
X163193765Y-99520129D01*
X163202422Y-99517769D01*
X163325572Y-99442154D01*
X163422551Y-99335014D01*
X163457420Y-99263043D01*
X163481645Y-99213043D01*
X163481645Y-99213042D01*
X163485560Y-99204962D01*
X163509536Y-99062453D01*
X163509612Y-99056226D01*
X163509629Y-99054860D01*
X163509629Y-99054856D01*
X163509688Y-99050000D01*
X163507511Y-99034800D01*
X173119712Y-99034800D01*
X173120876Y-99043702D01*
X173120876Y-99043705D01*
X173130493Y-99117247D01*
X173138450Y-99178092D01*
X173196651Y-99310366D01*
X173202425Y-99317235D01*
X173239319Y-99361125D01*
X173289638Y-99420987D01*
X173297109Y-99425960D01*
X173297110Y-99425961D01*
X173402463Y-99496090D01*
X173402465Y-99496091D01*
X173409936Y-99501064D01*
X173418500Y-99503740D01*
X173418503Y-99503741D01*
X173463404Y-99517769D01*
X173547872Y-99544159D01*
X173692360Y-99546807D01*
X173733834Y-99535500D01*
X173823125Y-99511157D01*
X173823127Y-99511156D01*
X173831784Y-99508796D01*
X173954934Y-99433181D01*
X174051913Y-99326041D01*
X174099334Y-99228164D01*
X174111007Y-99204070D01*
X174111007Y-99204069D01*
X174114922Y-99195989D01*
X174123707Y-99143773D01*
X176790350Y-99143773D01*
X176791514Y-99152675D01*
X176791514Y-99152678D01*
X176803624Y-99245280D01*
X176809088Y-99287065D01*
X176867289Y-99419339D01*
X176873063Y-99426208D01*
X176938237Y-99503741D01*
X176960276Y-99529960D01*
X176967747Y-99534933D01*
X176967748Y-99534934D01*
X177073101Y-99605063D01*
X177073103Y-99605064D01*
X177080574Y-99610037D01*
X177089138Y-99612713D01*
X177089141Y-99612714D01*
X177149542Y-99631584D01*
X177218510Y-99653132D01*
X177362998Y-99655780D01*
X177382530Y-99650455D01*
X177493763Y-99620130D01*
X177493765Y-99620129D01*
X177502422Y-99617769D01*
X177625572Y-99542154D01*
X177722551Y-99435014D01*
X177775267Y-99326208D01*
X177781645Y-99313043D01*
X177781645Y-99313042D01*
X177785560Y-99304962D01*
X177809536Y-99162453D01*
X177809688Y-99150000D01*
X177801635Y-99093773D01*
X178690350Y-99093773D01*
X178691514Y-99102675D01*
X178691514Y-99102678D01*
X178703732Y-99196110D01*
X178709088Y-99237065D01*
X178767289Y-99369339D01*
X178773063Y-99376208D01*
X178822428Y-99434934D01*
X178860276Y-99479960D01*
X178867747Y-99484933D01*
X178867748Y-99484934D01*
X178973101Y-99555063D01*
X178973103Y-99555064D01*
X178980574Y-99560037D01*
X178989138Y-99562713D01*
X178989141Y-99562714D01*
X179049542Y-99581585D01*
X179118510Y-99603132D01*
X179262998Y-99605780D01*
X179282530Y-99600455D01*
X179393763Y-99570130D01*
X179393765Y-99570129D01*
X179402422Y-99567769D01*
X179525572Y-99492154D01*
X179622551Y-99385014D01*
X179658717Y-99310366D01*
X179681645Y-99263043D01*
X179681645Y-99263042D01*
X179685560Y-99254962D01*
X179709536Y-99112453D01*
X179709688Y-99100000D01*
X179697239Y-99013073D01*
X179690474Y-98965835D01*
X179690473Y-98965833D01*
X179689201Y-98956948D01*
X179629388Y-98825395D01*
X179623530Y-98818596D01*
X179623527Y-98818592D01*
X179540916Y-98722718D01*
X179540913Y-98722716D01*
X179535056Y-98715918D01*
X179436539Y-98652062D01*
X179421324Y-98642200D01*
X179421322Y-98642199D01*
X179413790Y-98637317D01*
X179396921Y-98632272D01*
X179283938Y-98598482D01*
X179283936Y-98598482D01*
X179275337Y-98595910D01*
X179266363Y-98595855D01*
X179266361Y-98595855D01*
X179203082Y-98595469D01*
X179130827Y-98595028D01*
X179122196Y-98597495D01*
X179122194Y-98597495D01*
X179000509Y-98632272D01*
X179000505Y-98632274D01*
X178991879Y-98634739D01*
X178984292Y-98639526D01*
X178984290Y-98639527D01*
X178877254Y-98707062D01*
X178869661Y-98711853D01*
X178863718Y-98718582D01*
X178863717Y-98718583D01*
X178821467Y-98766422D01*
X178773999Y-98820170D01*
X178770185Y-98828293D01*
X178770184Y-98828295D01*
X178763905Y-98841670D01*
X178712583Y-98950982D01*
X178711203Y-98959846D01*
X178711202Y-98959849D01*
X178695227Y-99062453D01*
X178690350Y-99093773D01*
X177801635Y-99093773D01*
X177796454Y-99057593D01*
X177790474Y-99015835D01*
X177790473Y-99015833D01*
X177789201Y-99006948D01*
X177729388Y-98875395D01*
X177723530Y-98868596D01*
X177723527Y-98868592D01*
X177640916Y-98772718D01*
X177640913Y-98772716D01*
X177635056Y-98765918D01*
X177513790Y-98687317D01*
X177496921Y-98682272D01*
X177383938Y-98648482D01*
X177383936Y-98648482D01*
X177375337Y-98645910D01*
X177366363Y-98645855D01*
X177366361Y-98645855D01*
X177303082Y-98645469D01*
X177230827Y-98645028D01*
X177222196Y-98647495D01*
X177222194Y-98647495D01*
X177100509Y-98682272D01*
X177100505Y-98682274D01*
X177091879Y-98684739D01*
X177084292Y-98689526D01*
X177084290Y-98689527D01*
X177031686Y-98722718D01*
X176969661Y-98761853D01*
X176963718Y-98768582D01*
X176963717Y-98768583D01*
X176960065Y-98772718D01*
X176873999Y-98870170D01*
X176870185Y-98878293D01*
X176870184Y-98878295D01*
X176856732Y-98906948D01*
X176812583Y-99000982D01*
X176811203Y-99009846D01*
X176811202Y-99009849D01*
X176795227Y-99112453D01*
X176790350Y-99143773D01*
X174123707Y-99143773D01*
X174138898Y-99053480D01*
X174139050Y-99041027D01*
X174136946Y-99026336D01*
X174147091Y-98956068D01*
X174193615Y-98902440D01*
X174261747Y-98882477D01*
X174329856Y-98902518D01*
X174347199Y-98917785D01*
X174347807Y-98917105D01*
X174354502Y-98923091D01*
X174360276Y-98929960D01*
X174367747Y-98934933D01*
X174367748Y-98934934D01*
X174473101Y-99005063D01*
X174473103Y-99005064D01*
X174480574Y-99010037D01*
X174489138Y-99012713D01*
X174489141Y-99012714D01*
X174531437Y-99025928D01*
X174618510Y-99053132D01*
X174762998Y-99055780D01*
X174789261Y-99048620D01*
X174893763Y-99020130D01*
X174893765Y-99020129D01*
X174902422Y-99017769D01*
X175025572Y-98942154D01*
X175122551Y-98835014D01*
X175161574Y-98754469D01*
X175181645Y-98713043D01*
X175181645Y-98713042D01*
X175185560Y-98704962D01*
X175209536Y-98562453D01*
X175209688Y-98550000D01*
X175199347Y-98477796D01*
X175190474Y-98415835D01*
X175190473Y-98415833D01*
X175189201Y-98406948D01*
X175129388Y-98275395D01*
X175123530Y-98268596D01*
X175123527Y-98268592D01*
X175040916Y-98172718D01*
X175040913Y-98172716D01*
X175035056Y-98165918D01*
X174927356Y-98096110D01*
X174921324Y-98092200D01*
X174921322Y-98092199D01*
X174913790Y-98087317D01*
X174883185Y-98078164D01*
X174783938Y-98048482D01*
X174783936Y-98048482D01*
X174775337Y-98045910D01*
X174766363Y-98045855D01*
X174766361Y-98045855D01*
X174703082Y-98045469D01*
X174630827Y-98045028D01*
X174622196Y-98047495D01*
X174622194Y-98047495D01*
X174500509Y-98082272D01*
X174500505Y-98082274D01*
X174491879Y-98084739D01*
X174484292Y-98089526D01*
X174484290Y-98089527D01*
X174447020Y-98113043D01*
X174369661Y-98161853D01*
X174363718Y-98168582D01*
X174363717Y-98168583D01*
X174318891Y-98219339D01*
X174273999Y-98270170D01*
X174212583Y-98400982D01*
X174211203Y-98409846D01*
X174211202Y-98409849D01*
X174204051Y-98455780D01*
X174190350Y-98543773D01*
X174192793Y-98562453D01*
X174193591Y-98568555D01*
X174182589Y-98638694D01*
X174135414Y-98691751D01*
X174067043Y-98710881D01*
X173999184Y-98690009D01*
X173973198Y-98667135D01*
X173972150Y-98665918D01*
X173964418Y-98656945D01*
X173874221Y-98598482D01*
X173850686Y-98583227D01*
X173850684Y-98583226D01*
X173843152Y-98578344D01*
X173826283Y-98573299D01*
X173713300Y-98539509D01*
X173713298Y-98539509D01*
X173704699Y-98536937D01*
X173695725Y-98536882D01*
X173695723Y-98536882D01*
X173632444Y-98536496D01*
X173560189Y-98536055D01*
X173551558Y-98538522D01*
X173551556Y-98538522D01*
X173429871Y-98573299D01*
X173429867Y-98573301D01*
X173421241Y-98575766D01*
X173413654Y-98580553D01*
X173413652Y-98580554D01*
X173306616Y-98648089D01*
X173299023Y-98652880D01*
X173293080Y-98659609D01*
X173293079Y-98659610D01*
X173266232Y-98690009D01*
X173203361Y-98761197D01*
X173199547Y-98769320D01*
X173199546Y-98769322D01*
X173192857Y-98783569D01*
X173141945Y-98892009D01*
X173140565Y-98900873D01*
X173140564Y-98900876D01*
X173122364Y-99017769D01*
X173119712Y-99034800D01*
X163507511Y-99034800D01*
X163495507Y-98950982D01*
X163490474Y-98915835D01*
X163490473Y-98915833D01*
X163489201Y-98906948D01*
X163429388Y-98775395D01*
X163423530Y-98768596D01*
X163423527Y-98768592D01*
X163340916Y-98672718D01*
X163340913Y-98672716D01*
X163335056Y-98665918D01*
X163274423Y-98626617D01*
X163221324Y-98592200D01*
X163221322Y-98592199D01*
X163213790Y-98587317D01*
X163196921Y-98582272D01*
X163083938Y-98548482D01*
X163083936Y-98548482D01*
X163075337Y-98545910D01*
X163066363Y-98545855D01*
X163066361Y-98545855D01*
X163003082Y-98545469D01*
X162930827Y-98545028D01*
X162922196Y-98547495D01*
X162922194Y-98547495D01*
X162800509Y-98582272D01*
X162800505Y-98582274D01*
X162791879Y-98584739D01*
X162784292Y-98589526D01*
X162784290Y-98589527D01*
X162677254Y-98657062D01*
X162669661Y-98661853D01*
X162663718Y-98668582D01*
X162663717Y-98668583D01*
X162619559Y-98718583D01*
X162573999Y-98770170D01*
X162512583Y-98900982D01*
X162511203Y-98909846D01*
X162511202Y-98909849D01*
X162493065Y-99026337D01*
X162490350Y-99043773D01*
X128254000Y-99043773D01*
X128254000Y-97443773D01*
X165815850Y-97443773D01*
X165817014Y-97452675D01*
X165817014Y-97452678D01*
X165831184Y-97561035D01*
X165834588Y-97587065D01*
X165892789Y-97719339D01*
X165985776Y-97829960D01*
X165993247Y-97834933D01*
X165993248Y-97834934D01*
X166098601Y-97905063D01*
X166098603Y-97905064D01*
X166106074Y-97910037D01*
X166114638Y-97912713D01*
X166114641Y-97912714D01*
X166175042Y-97931585D01*
X166244010Y-97953132D01*
X166388498Y-97955780D01*
X166432540Y-97943773D01*
X166519263Y-97920130D01*
X166519265Y-97920129D01*
X166527922Y-97917769D01*
X166651072Y-97842154D01*
X166671007Y-97820130D01*
X166706558Y-97780855D01*
X166767102Y-97743774D01*
X166838082Y-97745312D01*
X166896424Y-97784335D01*
X166934776Y-97829960D01*
X166942247Y-97834933D01*
X166942248Y-97834934D01*
X167047601Y-97905063D01*
X167047603Y-97905064D01*
X167055074Y-97910037D01*
X167063638Y-97912713D01*
X167063641Y-97912714D01*
X167124042Y-97931585D01*
X167193010Y-97953132D01*
X167337498Y-97955780D01*
X167381540Y-97943773D01*
X171040350Y-97943773D01*
X171041514Y-97952675D01*
X171041514Y-97952678D01*
X171057924Y-98078164D01*
X171059088Y-98087065D01*
X171117289Y-98219339D01*
X171210276Y-98329960D01*
X171217747Y-98334933D01*
X171217748Y-98334934D01*
X171323101Y-98405063D01*
X171323103Y-98405064D01*
X171330574Y-98410037D01*
X171339138Y-98412713D01*
X171339141Y-98412714D01*
X171399542Y-98431584D01*
X171468510Y-98453132D01*
X171612998Y-98455780D01*
X171632530Y-98450455D01*
X171743763Y-98420130D01*
X171743765Y-98420129D01*
X171752422Y-98417769D01*
X171875572Y-98342154D01*
X171972551Y-98235014D01*
X172035560Y-98104962D01*
X172059536Y-97962453D01*
X172059612Y-97956226D01*
X172059629Y-97954860D01*
X172059629Y-97954856D01*
X172059688Y-97950000D01*
X172049347Y-97877796D01*
X172040474Y-97815835D01*
X172040473Y-97815833D01*
X172039201Y-97806948D01*
X171979388Y-97675395D01*
X171973530Y-97668596D01*
X171973527Y-97668592D01*
X171890916Y-97572718D01*
X171890913Y-97572716D01*
X171885056Y-97565918D01*
X171777356Y-97496110D01*
X171771324Y-97492200D01*
X171771322Y-97492199D01*
X171763790Y-97487317D01*
X171696682Y-97467247D01*
X171633938Y-97448482D01*
X171633936Y-97448482D01*
X171625337Y-97445910D01*
X171616363Y-97445855D01*
X171616361Y-97445855D01*
X171553082Y-97445469D01*
X171480827Y-97445028D01*
X171472196Y-97447495D01*
X171472194Y-97447495D01*
X171350509Y-97482272D01*
X171350505Y-97482274D01*
X171341879Y-97484739D01*
X171334292Y-97489526D01*
X171334290Y-97489527D01*
X171297020Y-97513043D01*
X171219661Y-97561853D01*
X171213718Y-97568582D01*
X171213717Y-97568583D01*
X171174452Y-97613043D01*
X171123999Y-97670170D01*
X171062583Y-97800982D01*
X171061203Y-97809846D01*
X171061202Y-97809849D01*
X171045603Y-97910037D01*
X171040350Y-97943773D01*
X167381540Y-97943773D01*
X167468263Y-97920130D01*
X167468265Y-97920129D01*
X167476922Y-97917769D01*
X167600072Y-97842154D01*
X167697051Y-97735014D01*
X167749790Y-97626160D01*
X167756145Y-97613043D01*
X167756145Y-97613042D01*
X167760060Y-97604962D01*
X167784036Y-97462453D01*
X167784188Y-97450000D01*
X167768975Y-97343773D01*
X168240350Y-97343773D01*
X168241514Y-97352675D01*
X168241514Y-97352678D01*
X168256496Y-97467247D01*
X168259088Y-97487065D01*
X168317289Y-97619339D01*
X168410276Y-97729960D01*
X168417747Y-97734933D01*
X168417748Y-97734934D01*
X168523101Y-97805063D01*
X168523103Y-97805064D01*
X168530574Y-97810037D01*
X168539138Y-97812713D01*
X168539141Y-97812714D01*
X168572353Y-97823090D01*
X168668510Y-97853132D01*
X168812998Y-97855780D01*
X168832530Y-97850455D01*
X168943763Y-97820130D01*
X168943765Y-97820129D01*
X168952422Y-97817769D01*
X169075572Y-97742154D01*
X169172551Y-97635014D01*
X169235560Y-97504962D01*
X169259536Y-97362453D01*
X169259688Y-97350000D01*
X169249347Y-97277796D01*
X169240474Y-97215835D01*
X169240473Y-97215833D01*
X169239201Y-97206948D01*
X169179388Y-97075395D01*
X169173530Y-97068596D01*
X169173527Y-97068592D01*
X169090916Y-96972718D01*
X169090913Y-96972716D01*
X169085056Y-96965918D01*
X168992275Y-96905780D01*
X168971324Y-96892200D01*
X168971322Y-96892199D01*
X168963790Y-96887317D01*
X168906322Y-96870130D01*
X168833938Y-96848482D01*
X168833936Y-96848482D01*
X168825337Y-96845910D01*
X168816363Y-96845855D01*
X168816361Y-96845855D01*
X168753082Y-96845469D01*
X168680827Y-96845028D01*
X168672196Y-96847495D01*
X168672194Y-96847495D01*
X168550509Y-96882272D01*
X168550505Y-96882274D01*
X168541879Y-96884739D01*
X168534292Y-96889526D01*
X168534290Y-96889527D01*
X168427254Y-96957062D01*
X168419661Y-96961853D01*
X168413718Y-96968582D01*
X168413717Y-96968583D01*
X168375704Y-97011625D01*
X168323999Y-97070170D01*
X168262583Y-97200982D01*
X168261203Y-97209846D01*
X168261202Y-97209849D01*
X168246084Y-97306948D01*
X168240350Y-97343773D01*
X167768975Y-97343773D01*
X167763701Y-97306948D01*
X167703888Y-97175395D01*
X167698030Y-97168596D01*
X167698027Y-97168592D01*
X167615416Y-97072718D01*
X167615413Y-97072716D01*
X167609556Y-97065918D01*
X167538465Y-97019839D01*
X167495824Y-96992200D01*
X167495822Y-96992199D01*
X167488290Y-96987317D01*
X167471421Y-96982272D01*
X167358438Y-96948482D01*
X167358436Y-96948482D01*
X167349837Y-96945910D01*
X167340863Y-96945855D01*
X167340861Y-96945855D01*
X167277582Y-96945469D01*
X167205327Y-96945028D01*
X167196696Y-96947495D01*
X167196694Y-96947495D01*
X167075009Y-96982272D01*
X167075005Y-96982274D01*
X167066379Y-96984739D01*
X167058792Y-96989526D01*
X167058790Y-96989527D01*
X166951754Y-97057062D01*
X166944161Y-97061853D01*
X166938218Y-97068582D01*
X166938217Y-97068583D01*
X166894449Y-97118141D01*
X166834363Y-97155959D01*
X166763370Y-97155289D01*
X166704555Y-97116981D01*
X166666416Y-97072718D01*
X166666413Y-97072716D01*
X166660556Y-97065918D01*
X166589465Y-97019839D01*
X166546824Y-96992200D01*
X166546822Y-96992199D01*
X166539290Y-96987317D01*
X166522421Y-96982272D01*
X166409438Y-96948482D01*
X166409436Y-96948482D01*
X166400837Y-96945910D01*
X166391863Y-96945855D01*
X166391861Y-96945855D01*
X166328582Y-96945469D01*
X166256327Y-96945028D01*
X166247696Y-96947495D01*
X166247694Y-96947495D01*
X166126009Y-96982272D01*
X166126005Y-96982274D01*
X166117379Y-96984739D01*
X166109792Y-96989526D01*
X166109790Y-96989527D01*
X166002754Y-97057062D01*
X165995161Y-97061853D01*
X165989218Y-97068582D01*
X165989217Y-97068583D01*
X165930177Y-97135434D01*
X165899499Y-97170170D01*
X165895685Y-97178293D01*
X165895684Y-97178295D01*
X165875808Y-97220630D01*
X165838083Y-97300982D01*
X165836703Y-97309846D01*
X165836702Y-97309849D01*
X165828512Y-97362453D01*
X165815850Y-97443773D01*
X128254000Y-97443773D01*
X128254000Y-96343773D01*
X134590350Y-96343773D01*
X134591514Y-96352675D01*
X134591514Y-96352678D01*
X134604651Y-96453132D01*
X134609088Y-96487065D01*
X134667289Y-96619339D01*
X134673063Y-96626208D01*
X134725634Y-96688748D01*
X134760276Y-96729960D01*
X134767747Y-96734933D01*
X134767748Y-96734934D01*
X134873101Y-96805063D01*
X134873103Y-96805064D01*
X134880574Y-96810037D01*
X134889138Y-96812713D01*
X134889141Y-96812714D01*
X134949542Y-96831584D01*
X135018510Y-96853132D01*
X135162998Y-96855780D01*
X135189767Y-96848482D01*
X135293763Y-96820130D01*
X135293765Y-96820129D01*
X135302422Y-96817769D01*
X135425572Y-96742154D01*
X135522551Y-96635014D01*
X135556776Y-96564373D01*
X135581645Y-96513043D01*
X135581645Y-96513042D01*
X135585560Y-96504962D01*
X135609536Y-96362453D01*
X135609688Y-96350000D01*
X135595221Y-96248982D01*
X135590474Y-96215835D01*
X135590473Y-96215833D01*
X135589201Y-96206948D01*
X135529388Y-96075395D01*
X135523530Y-96068596D01*
X135523527Y-96068592D01*
X135440916Y-95972718D01*
X135440913Y-95972716D01*
X135435056Y-95965918D01*
X135400891Y-95943773D01*
X165790350Y-95943773D01*
X165791514Y-95952675D01*
X165791514Y-95952678D01*
X165807562Y-96075395D01*
X165809088Y-96087065D01*
X165867289Y-96219339D01*
X165873063Y-96226208D01*
X165928956Y-96292700D01*
X165960276Y-96329960D01*
X165967747Y-96334933D01*
X165967748Y-96334934D01*
X166073101Y-96405063D01*
X166073103Y-96405064D01*
X166080574Y-96410037D01*
X166089138Y-96412713D01*
X166089141Y-96412714D01*
X166148990Y-96431412D01*
X166218510Y-96453132D01*
X166362998Y-96455780D01*
X166386554Y-96449358D01*
X166493763Y-96420130D01*
X166493765Y-96420129D01*
X166502422Y-96417769D01*
X166625572Y-96342154D01*
X166631593Y-96335502D01*
X166631598Y-96335498D01*
X166716071Y-96242173D01*
X166776614Y-96205092D01*
X166847594Y-96206629D01*
X166905937Y-96245652D01*
X166907907Y-96247995D01*
X166934776Y-96279960D01*
X166942247Y-96284933D01*
X166942248Y-96284934D01*
X167047601Y-96355063D01*
X167047603Y-96355064D01*
X167055074Y-96360037D01*
X167063638Y-96362713D01*
X167063641Y-96362714D01*
X167124042Y-96381584D01*
X167193010Y-96403132D01*
X167337498Y-96405780D01*
X167381540Y-96393773D01*
X173190350Y-96393773D01*
X173191514Y-96402675D01*
X173191514Y-96402678D01*
X173203624Y-96495280D01*
X173209088Y-96537065D01*
X173267289Y-96669339D01*
X173273063Y-96676208D01*
X173352759Y-96771017D01*
X173360276Y-96779960D01*
X173367747Y-96784933D01*
X173367748Y-96784934D01*
X173473101Y-96855063D01*
X173473103Y-96855064D01*
X173480574Y-96860037D01*
X173489138Y-96862713D01*
X173489141Y-96862714D01*
X173549542Y-96881585D01*
X173618510Y-96903132D01*
X173762998Y-96905780D01*
X173782530Y-96900455D01*
X173893763Y-96870130D01*
X173893765Y-96870129D01*
X173902422Y-96867769D01*
X174018256Y-96796646D01*
X174086773Y-96778048D01*
X174154469Y-96799445D01*
X174199850Y-96854044D01*
X174205544Y-96870139D01*
X174207924Y-96878663D01*
X174209088Y-96887565D01*
X174267289Y-97019839D01*
X174273063Y-97026708D01*
X174316427Y-97078295D01*
X174360276Y-97130460D01*
X174367747Y-97135433D01*
X174367748Y-97135434D01*
X174473101Y-97205563D01*
X174473103Y-97205564D01*
X174480574Y-97210537D01*
X174489138Y-97213213D01*
X174489141Y-97213214D01*
X174549542Y-97232085D01*
X174618510Y-97253632D01*
X174762998Y-97256280D01*
X174782530Y-97250955D01*
X174893763Y-97220630D01*
X174893765Y-97220629D01*
X174902422Y-97218269D01*
X175025572Y-97142654D01*
X175122551Y-97035514D01*
X175185560Y-96905462D01*
X175209536Y-96762953D01*
X175209688Y-96750500D01*
X175189201Y-96607448D01*
X175129388Y-96475895D01*
X175123530Y-96469096D01*
X175123527Y-96469092D01*
X175040916Y-96373218D01*
X175040913Y-96373216D01*
X175035056Y-96366418D01*
X174927990Y-96297021D01*
X177974086Y-96297021D01*
X177975250Y-96305923D01*
X177975250Y-96305926D01*
X177988308Y-96405780D01*
X177992824Y-96440313D01*
X178051025Y-96572587D01*
X178056799Y-96579456D01*
X178109096Y-96641670D01*
X178144012Y-96683208D01*
X178151483Y-96688181D01*
X178151484Y-96688182D01*
X178256837Y-96758311D01*
X178256839Y-96758312D01*
X178264310Y-96763285D01*
X178272874Y-96765961D01*
X178272877Y-96765962D01*
X178317682Y-96779960D01*
X178402246Y-96806380D01*
X178546734Y-96809028D01*
X178566266Y-96803703D01*
X178677499Y-96773378D01*
X178677501Y-96773377D01*
X178686158Y-96771017D01*
X178809308Y-96695402D01*
X178906287Y-96588262D01*
X178956768Y-96484069D01*
X178965381Y-96466291D01*
X178965381Y-96466290D01*
X178969296Y-96458210D01*
X178993272Y-96315701D01*
X178993424Y-96303248D01*
X178974360Y-96170130D01*
X178974210Y-96169083D01*
X178974209Y-96169081D01*
X178972937Y-96160196D01*
X178913124Y-96028643D01*
X178907266Y-96021844D01*
X178907263Y-96021840D01*
X178824652Y-95925966D01*
X178824649Y-95925964D01*
X178818792Y-95919166D01*
X178719738Y-95854962D01*
X178705060Y-95845448D01*
X178705058Y-95845447D01*
X178697526Y-95840565D01*
X178594821Y-95809849D01*
X178567674Y-95801730D01*
X178567672Y-95801730D01*
X178559073Y-95799158D01*
X178550099Y-95799103D01*
X178550097Y-95799103D01*
X178486818Y-95798717D01*
X178414563Y-95798276D01*
X178405932Y-95800743D01*
X178405930Y-95800743D01*
X178284245Y-95835520D01*
X178284241Y-95835522D01*
X178275615Y-95837987D01*
X178268028Y-95842774D01*
X178268026Y-95842775D01*
X178169628Y-95904860D01*
X178153397Y-95915101D01*
X178147454Y-95921830D01*
X178147453Y-95921831D01*
X178099429Y-95976208D01*
X178057735Y-96023418D01*
X177996319Y-96154230D01*
X177994939Y-96163094D01*
X177994938Y-96163097D01*
X177975880Y-96285500D01*
X177974086Y-96297021D01*
X174927990Y-96297021D01*
X174921324Y-96292700D01*
X174921322Y-96292699D01*
X174913790Y-96287817D01*
X174896921Y-96282772D01*
X174783938Y-96248982D01*
X174783936Y-96248982D01*
X174775337Y-96246410D01*
X174766363Y-96246355D01*
X174766361Y-96246355D01*
X174703082Y-96245969D01*
X174630827Y-96245528D01*
X174622196Y-96247995D01*
X174622194Y-96247995D01*
X174500509Y-96282772D01*
X174500505Y-96282774D01*
X174491879Y-96285239D01*
X174484288Y-96290028D01*
X174484287Y-96290029D01*
X174382404Y-96354312D01*
X174314119Y-96373746D01*
X174246168Y-96353177D01*
X174200123Y-96299136D01*
X174192993Y-96274447D01*
X174192992Y-96274447D01*
X174190474Y-96265834D01*
X174189201Y-96256948D01*
X174129388Y-96125395D01*
X174123530Y-96118596D01*
X174123527Y-96118592D01*
X174040916Y-96022718D01*
X174040913Y-96022716D01*
X174035056Y-96015918D01*
X173937489Y-95952678D01*
X173921324Y-95942200D01*
X173921322Y-95942199D01*
X173913790Y-95937317D01*
X173875836Y-95925966D01*
X173783938Y-95898482D01*
X173783936Y-95898482D01*
X173775337Y-95895910D01*
X173766363Y-95895855D01*
X173766361Y-95895855D01*
X173703082Y-95895469D01*
X173630827Y-95895028D01*
X173622196Y-95897495D01*
X173622194Y-95897495D01*
X173500509Y-95932272D01*
X173500505Y-95932274D01*
X173491879Y-95934739D01*
X173484292Y-95939526D01*
X173484290Y-95939527D01*
X173412198Y-95985014D01*
X173369661Y-96011853D01*
X173363718Y-96018582D01*
X173363717Y-96018583D01*
X173313543Y-96075395D01*
X173273999Y-96120170D01*
X173270185Y-96128293D01*
X173270184Y-96128295D01*
X173255207Y-96160196D01*
X173212583Y-96250982D01*
X173211203Y-96259846D01*
X173211202Y-96259849D01*
X173195227Y-96362453D01*
X173190350Y-96393773D01*
X167381540Y-96393773D01*
X167468263Y-96370130D01*
X167468265Y-96370129D01*
X167476922Y-96367769D01*
X167600072Y-96292154D01*
X167697051Y-96185014D01*
X167731727Y-96113442D01*
X167756145Y-96063043D01*
X167756145Y-96063042D01*
X167760060Y-96054962D01*
X167784036Y-95912453D01*
X167784188Y-95900000D01*
X167771277Y-95809849D01*
X167764974Y-95765835D01*
X167764973Y-95765833D01*
X167763701Y-95756948D01*
X167734977Y-95693773D01*
X168290350Y-95693773D01*
X168291514Y-95702675D01*
X168291514Y-95702678D01*
X168304467Y-95801730D01*
X168309088Y-95837065D01*
X168367289Y-95969339D01*
X168373063Y-95976208D01*
X168452047Y-96070170D01*
X168460276Y-96079960D01*
X168467747Y-96084933D01*
X168467748Y-96084934D01*
X168573101Y-96155063D01*
X168573103Y-96155064D01*
X168580574Y-96160037D01*
X168589138Y-96162713D01*
X168589141Y-96162714D01*
X168649542Y-96181585D01*
X168718510Y-96203132D01*
X168862998Y-96205780D01*
X168888685Y-96198777D01*
X168993763Y-96170130D01*
X168993765Y-96170129D01*
X169002422Y-96167769D01*
X169125572Y-96092154D01*
X169222551Y-95985014D01*
X169269884Y-95887317D01*
X169281645Y-95863043D01*
X169281645Y-95863042D01*
X169285560Y-95854962D01*
X169309536Y-95712453D01*
X169309688Y-95700000D01*
X169296267Y-95606288D01*
X169290474Y-95565835D01*
X169290473Y-95565833D01*
X169289201Y-95556948D01*
X169229388Y-95425395D01*
X169223530Y-95418596D01*
X169223527Y-95418592D01*
X169140916Y-95322718D01*
X169140913Y-95322716D01*
X169135056Y-95315918D01*
X169013790Y-95237317D01*
X168996921Y-95232272D01*
X168883938Y-95198482D01*
X168883936Y-95198482D01*
X168875337Y-95195910D01*
X168866363Y-95195855D01*
X168866361Y-95195855D01*
X168803082Y-95195469D01*
X168730827Y-95195028D01*
X168722196Y-95197495D01*
X168722194Y-95197495D01*
X168600509Y-95232272D01*
X168600505Y-95232274D01*
X168591879Y-95234739D01*
X168584292Y-95239526D01*
X168584290Y-95239527D01*
X168512198Y-95285014D01*
X168469661Y-95311853D01*
X168463718Y-95318582D01*
X168463717Y-95318583D01*
X168409511Y-95379960D01*
X168373999Y-95420170D01*
X168370185Y-95428293D01*
X168370184Y-95428295D01*
X168354025Y-95462714D01*
X168312583Y-95550982D01*
X168311203Y-95559846D01*
X168311202Y-95559849D01*
X168293212Y-95675395D01*
X168290350Y-95693773D01*
X167734977Y-95693773D01*
X167703888Y-95625395D01*
X167698030Y-95618596D01*
X167698027Y-95618592D01*
X167615416Y-95522718D01*
X167615413Y-95522716D01*
X167609556Y-95515918D01*
X167538914Y-95470130D01*
X167495824Y-95442200D01*
X167495822Y-95442199D01*
X167488290Y-95437317D01*
X167458123Y-95428295D01*
X167358438Y-95398482D01*
X167358436Y-95398482D01*
X167349837Y-95395910D01*
X167340863Y-95395855D01*
X167340861Y-95395855D01*
X167277582Y-95395469D01*
X167205327Y-95395028D01*
X167196696Y-95397495D01*
X167196694Y-95397495D01*
X167075009Y-95432272D01*
X167075005Y-95432274D01*
X167066379Y-95434739D01*
X167058792Y-95439526D01*
X167058790Y-95439527D01*
X166953786Y-95505780D01*
X166944161Y-95511853D01*
X166859736Y-95607447D01*
X166799650Y-95645266D01*
X166728656Y-95644596D01*
X166669841Y-95606288D01*
X166640915Y-95572718D01*
X166635056Y-95565918D01*
X166542275Y-95505780D01*
X166521324Y-95492200D01*
X166521322Y-95492199D01*
X166513790Y-95487317D01*
X166456322Y-95470130D01*
X166383938Y-95448482D01*
X166383936Y-95448482D01*
X166375337Y-95445910D01*
X166366363Y-95445855D01*
X166366361Y-95445855D01*
X166303082Y-95445469D01*
X166230827Y-95445028D01*
X166222196Y-95447495D01*
X166222194Y-95447495D01*
X166100509Y-95482272D01*
X166100505Y-95482274D01*
X166091879Y-95484739D01*
X166084292Y-95489526D01*
X166084290Y-95489527D01*
X165990385Y-95548777D01*
X165969661Y-95561853D01*
X165873999Y-95670170D01*
X165870185Y-95678293D01*
X165870184Y-95678295D01*
X165857712Y-95704860D01*
X165812583Y-95800982D01*
X165811203Y-95809846D01*
X165811202Y-95809849D01*
X165791756Y-95934745D01*
X165790350Y-95943773D01*
X135400891Y-95943773D01*
X135345072Y-95907593D01*
X135321324Y-95892200D01*
X135321322Y-95892199D01*
X135313790Y-95887317D01*
X135232625Y-95863043D01*
X135183938Y-95848482D01*
X135183936Y-95848482D01*
X135175337Y-95845910D01*
X135166363Y-95845855D01*
X135166361Y-95845855D01*
X135103082Y-95845469D01*
X135030827Y-95845028D01*
X135022196Y-95847495D01*
X135022194Y-95847495D01*
X134900509Y-95882272D01*
X134900505Y-95882274D01*
X134891879Y-95884739D01*
X134884292Y-95889526D01*
X134884290Y-95889527D01*
X134826538Y-95925966D01*
X134769661Y-95961853D01*
X134763718Y-95968582D01*
X134763717Y-95968583D01*
X134721231Y-96016690D01*
X134673999Y-96070170D01*
X134670185Y-96078293D01*
X134670184Y-96078295D01*
X134662210Y-96095280D01*
X134612583Y-96200982D01*
X134611203Y-96209846D01*
X134611202Y-96209849D01*
X134592501Y-96329960D01*
X134590350Y-96343773D01*
X128254000Y-96343773D01*
X128254000Y-94993773D01*
X171290350Y-94993773D01*
X171291514Y-95002675D01*
X171291514Y-95002678D01*
X171307924Y-95128164D01*
X171309088Y-95137065D01*
X171367289Y-95269339D01*
X171460276Y-95379960D01*
X171467747Y-95384933D01*
X171467748Y-95384934D01*
X171573101Y-95455063D01*
X171573103Y-95455064D01*
X171580574Y-95460037D01*
X171589138Y-95462713D01*
X171589141Y-95462714D01*
X171649542Y-95481585D01*
X171718510Y-95503132D01*
X171862998Y-95505780D01*
X171882530Y-95500455D01*
X171993763Y-95470130D01*
X171993765Y-95470129D01*
X172002422Y-95467769D01*
X172125572Y-95392154D01*
X172222551Y-95285014D01*
X172285560Y-95154962D01*
X172309536Y-95012453D01*
X172309688Y-95000000D01*
X172289201Y-94856948D01*
X172229388Y-94725395D01*
X172223530Y-94718596D01*
X172223527Y-94718592D01*
X172140916Y-94622718D01*
X172140913Y-94622716D01*
X172135056Y-94615918D01*
X172013790Y-94537317D01*
X171996921Y-94532272D01*
X171883938Y-94498482D01*
X171883936Y-94498482D01*
X171875337Y-94495910D01*
X171866363Y-94495855D01*
X171866361Y-94495855D01*
X171803082Y-94495469D01*
X171730827Y-94495028D01*
X171722196Y-94497495D01*
X171722194Y-94497495D01*
X171600509Y-94532272D01*
X171600505Y-94532274D01*
X171591879Y-94534739D01*
X171469661Y-94611853D01*
X171463718Y-94618582D01*
X171463717Y-94618583D01*
X171462819Y-94619600D01*
X171373999Y-94720170D01*
X171370185Y-94728293D01*
X171370184Y-94728295D01*
X171357280Y-94755780D01*
X171312583Y-94850982D01*
X171290350Y-94993773D01*
X128254000Y-94993773D01*
X128254000Y-94343773D01*
X175090350Y-94343773D01*
X175091514Y-94352675D01*
X175091514Y-94352678D01*
X175099408Y-94413043D01*
X175109088Y-94487065D01*
X175167289Y-94619339D01*
X175173063Y-94626208D01*
X175252047Y-94720170D01*
X175260276Y-94729960D01*
X175267747Y-94734933D01*
X175267748Y-94734934D01*
X175373101Y-94805063D01*
X175373103Y-94805064D01*
X175380574Y-94810037D01*
X175389138Y-94812713D01*
X175389141Y-94812714D01*
X175449542Y-94831584D01*
X175518510Y-94853132D01*
X175662998Y-94855780D01*
X175688685Y-94848777D01*
X175793763Y-94820130D01*
X175793765Y-94820129D01*
X175802422Y-94817769D01*
X175925572Y-94742154D01*
X176004331Y-94655143D01*
X176064875Y-94618062D01*
X176135855Y-94619600D01*
X176167565Y-94634812D01*
X176273101Y-94705063D01*
X176273103Y-94705064D01*
X176280574Y-94710037D01*
X176289138Y-94712713D01*
X176289141Y-94712714D01*
X176322353Y-94723090D01*
X176418510Y-94753132D01*
X176562998Y-94755780D01*
X176582530Y-94750455D01*
X176693763Y-94720130D01*
X176693765Y-94720129D01*
X176702422Y-94717769D01*
X176825572Y-94642154D01*
X176922551Y-94535014D01*
X176985560Y-94404962D01*
X177009536Y-94262453D01*
X177009688Y-94250000D01*
X177001636Y-94193773D01*
X178390350Y-94193773D01*
X178391514Y-94202675D01*
X178391514Y-94202678D01*
X178399331Y-94262453D01*
X178409088Y-94337065D01*
X178467289Y-94469339D01*
X178560276Y-94579960D01*
X178567747Y-94584933D01*
X178567748Y-94584934D01*
X178673101Y-94655063D01*
X178673103Y-94655064D01*
X178680574Y-94660037D01*
X178689138Y-94662713D01*
X178689141Y-94662714D01*
X178749542Y-94681584D01*
X178818510Y-94703132D01*
X178962998Y-94705780D01*
X178982530Y-94700455D01*
X179093763Y-94670130D01*
X179093765Y-94670129D01*
X179102422Y-94667769D01*
X179225572Y-94592154D01*
X179322551Y-94485014D01*
X179357420Y-94413043D01*
X179381645Y-94363043D01*
X179381645Y-94363042D01*
X179385560Y-94354962D01*
X179409536Y-94212453D01*
X179409688Y-94200000D01*
X179396362Y-94106948D01*
X179390474Y-94065835D01*
X179390473Y-94065833D01*
X179389201Y-94056948D01*
X179329388Y-93925395D01*
X179323530Y-93918596D01*
X179323527Y-93918592D01*
X179240916Y-93822718D01*
X179240913Y-93822716D01*
X179235056Y-93815918D01*
X179174423Y-93776618D01*
X179121324Y-93742200D01*
X179121322Y-93742199D01*
X179113790Y-93737317D01*
X179096921Y-93732272D01*
X178983938Y-93698482D01*
X178983936Y-93698482D01*
X178975337Y-93695910D01*
X178966363Y-93695855D01*
X178966361Y-93695855D01*
X178903082Y-93695469D01*
X178830827Y-93695028D01*
X178822196Y-93697495D01*
X178822194Y-93697495D01*
X178700509Y-93732272D01*
X178700505Y-93732274D01*
X178691879Y-93734739D01*
X178684292Y-93739526D01*
X178684290Y-93739527D01*
X178616544Y-93782272D01*
X178569661Y-93811853D01*
X178563718Y-93818582D01*
X178563717Y-93818583D01*
X178519559Y-93868583D01*
X178473999Y-93920170D01*
X178470185Y-93928293D01*
X178470184Y-93928295D01*
X178445354Y-93981182D01*
X178412583Y-94050982D01*
X178390350Y-94193773D01*
X177001636Y-94193773D01*
X176989201Y-94106948D01*
X176929388Y-93975395D01*
X176923530Y-93968596D01*
X176923527Y-93968592D01*
X176840916Y-93872718D01*
X176840913Y-93872716D01*
X176835056Y-93865918D01*
X176713790Y-93787317D01*
X176696921Y-93782272D01*
X176583938Y-93748482D01*
X176583936Y-93748482D01*
X176575337Y-93745910D01*
X176566363Y-93745855D01*
X176566361Y-93745855D01*
X176503082Y-93745469D01*
X176430827Y-93745028D01*
X176422196Y-93747495D01*
X176422194Y-93747495D01*
X176300509Y-93782272D01*
X176300505Y-93782274D01*
X176291879Y-93784739D01*
X176284292Y-93789526D01*
X176284290Y-93789527D01*
X176177254Y-93857062D01*
X176169661Y-93861853D01*
X176097673Y-93943364D01*
X176037589Y-93981182D01*
X175966596Y-93980512D01*
X175934704Y-93965690D01*
X175813790Y-93887317D01*
X175796921Y-93882272D01*
X175683938Y-93848482D01*
X175683936Y-93848482D01*
X175675337Y-93845910D01*
X175666363Y-93845855D01*
X175666361Y-93845855D01*
X175603082Y-93845469D01*
X175530827Y-93845028D01*
X175522196Y-93847495D01*
X175522194Y-93847495D01*
X175400509Y-93882272D01*
X175400505Y-93882274D01*
X175391879Y-93884739D01*
X175384292Y-93889526D01*
X175384290Y-93889527D01*
X175338225Y-93918592D01*
X175269661Y-93961853D01*
X175263718Y-93968582D01*
X175263717Y-93968583D01*
X175257701Y-93975395D01*
X175173999Y-94070170D01*
X175112583Y-94200982D01*
X175111203Y-94209846D01*
X175111202Y-94209849D01*
X175103012Y-94262453D01*
X175090350Y-94343773D01*
X128254000Y-94343773D01*
X128254000Y-92329217D01*
X163815850Y-92329217D01*
X163817014Y-92338119D01*
X163817014Y-92338122D01*
X163819833Y-92359676D01*
X163834588Y-92472509D01*
X163892789Y-92604783D01*
X163985776Y-92715404D01*
X163993247Y-92720377D01*
X163993248Y-92720378D01*
X164098601Y-92790507D01*
X164098603Y-92790508D01*
X164106074Y-92795481D01*
X164114638Y-92798157D01*
X164114641Y-92798158D01*
X164175042Y-92817029D01*
X164244010Y-92838576D01*
X164388498Y-92841224D01*
X164408030Y-92835899D01*
X164519263Y-92805574D01*
X164519265Y-92805573D01*
X164527922Y-92803213D01*
X164651072Y-92727598D01*
X164748051Y-92620458D01*
X164811060Y-92490406D01*
X164816095Y-92460480D01*
X164847123Y-92396622D01*
X164907749Y-92359676D01*
X164942657Y-92355407D01*
X164962998Y-92355780D01*
X164971662Y-92353418D01*
X165093763Y-92320130D01*
X165093765Y-92320129D01*
X165102422Y-92317769D01*
X165225572Y-92242154D01*
X165322551Y-92135014D01*
X165385560Y-92004962D01*
X165409536Y-91862453D01*
X165409688Y-91850000D01*
X165389201Y-91706948D01*
X165329388Y-91575395D01*
X165323530Y-91568596D01*
X165323527Y-91568592D01*
X165240916Y-91472718D01*
X165240913Y-91472716D01*
X165235056Y-91465918D01*
X165113790Y-91387317D01*
X165096921Y-91382272D01*
X164983938Y-91348482D01*
X164983936Y-91348482D01*
X164975337Y-91345910D01*
X164966363Y-91345855D01*
X164966361Y-91345855D01*
X164903082Y-91345469D01*
X164830827Y-91345028D01*
X164822196Y-91347495D01*
X164822194Y-91347495D01*
X164700509Y-91382272D01*
X164700505Y-91382274D01*
X164691879Y-91384739D01*
X164569661Y-91461853D01*
X164473999Y-91570170D01*
X164412583Y-91700982D01*
X164411203Y-91709844D01*
X164411202Y-91709848D01*
X164408995Y-91724026D01*
X164378751Y-91788258D01*
X164318581Y-91825943D01*
X164283727Y-91830639D01*
X164273247Y-91830575D01*
X164256327Y-91830472D01*
X164247696Y-91832939D01*
X164247694Y-91832939D01*
X164126009Y-91867716D01*
X164126005Y-91867718D01*
X164117379Y-91870183D01*
X163995161Y-91947297D01*
X163899499Y-92055614D01*
X163838083Y-92186426D01*
X163836703Y-92195290D01*
X163836702Y-92195293D01*
X163817265Y-92320130D01*
X163815850Y-92329217D01*
X128254000Y-92329217D01*
X128254000Y-90443773D01*
X164940350Y-90443773D01*
X164941514Y-90452675D01*
X164941514Y-90452678D01*
X164949821Y-90516202D01*
X164959088Y-90587065D01*
X165017289Y-90719339D01*
X165110276Y-90829960D01*
X165117747Y-90834933D01*
X165117748Y-90834934D01*
X165223101Y-90905063D01*
X165223103Y-90905064D01*
X165230574Y-90910037D01*
X165239138Y-90912713D01*
X165239141Y-90912714D01*
X165299542Y-90931585D01*
X165368510Y-90953132D01*
X165512998Y-90955780D01*
X165532530Y-90950455D01*
X165643763Y-90920130D01*
X165643765Y-90920129D01*
X165652422Y-90917769D01*
X165775572Y-90842154D01*
X165872551Y-90735014D01*
X165935560Y-90604962D01*
X165959536Y-90462453D01*
X165959688Y-90450000D01*
X165939201Y-90306948D01*
X165879388Y-90175395D01*
X165873530Y-90168596D01*
X165873527Y-90168592D01*
X165790916Y-90072718D01*
X165790913Y-90072716D01*
X165785056Y-90065918D01*
X165700521Y-90011125D01*
X165671324Y-89992200D01*
X165671322Y-89992199D01*
X165663790Y-89987317D01*
X165646921Y-89982272D01*
X165533938Y-89948482D01*
X165533936Y-89948482D01*
X165525337Y-89945910D01*
X165516363Y-89945855D01*
X165516361Y-89945855D01*
X165453082Y-89945469D01*
X165380827Y-89945028D01*
X165372196Y-89947495D01*
X165372194Y-89947495D01*
X165250509Y-89982272D01*
X165250505Y-89982274D01*
X165241879Y-89984739D01*
X165234292Y-89989526D01*
X165234290Y-89989527D01*
X165162198Y-90035014D01*
X165119661Y-90061853D01*
X165113718Y-90068582D01*
X165113717Y-90068583D01*
X165059511Y-90129960D01*
X165023999Y-90170170D01*
X165020185Y-90178293D01*
X165020184Y-90178295D01*
X165004025Y-90212714D01*
X164962583Y-90300982D01*
X164961203Y-90309846D01*
X164961202Y-90309849D01*
X164942537Y-90429728D01*
X164940350Y-90443773D01*
X128254000Y-90443773D01*
X128254000Y-89743773D01*
X168990350Y-89743773D01*
X168991514Y-89752675D01*
X168991514Y-89752678D01*
X168999769Y-89815800D01*
X169009088Y-89887065D01*
X169067289Y-90019339D01*
X169160276Y-90129960D01*
X169167747Y-90134933D01*
X169167748Y-90134934D01*
X169273101Y-90205063D01*
X169273103Y-90205064D01*
X169280574Y-90210037D01*
X169289138Y-90212713D01*
X169289141Y-90212714D01*
X169349542Y-90231585D01*
X169418510Y-90253132D01*
X169562998Y-90255780D01*
X169582530Y-90250455D01*
X169693763Y-90220130D01*
X169693765Y-90220129D01*
X169702422Y-90217769D01*
X169825572Y-90142154D01*
X169922551Y-90035014D01*
X169965748Y-89945855D01*
X169981645Y-89913043D01*
X169981645Y-89913042D01*
X169985560Y-89904962D01*
X170009536Y-89762453D01*
X170009688Y-89750000D01*
X169989201Y-89606948D01*
X169929388Y-89475395D01*
X169923530Y-89468596D01*
X169923527Y-89468592D01*
X169840916Y-89372718D01*
X169840913Y-89372716D01*
X169835056Y-89365918D01*
X169737241Y-89302517D01*
X169723751Y-89293773D01*
X173390350Y-89293773D01*
X173391514Y-89302675D01*
X173391514Y-89302678D01*
X173400673Y-89372718D01*
X173409088Y-89437065D01*
X173467289Y-89569339D01*
X173560276Y-89679960D01*
X173567747Y-89684933D01*
X173567748Y-89684934D01*
X173673101Y-89755063D01*
X173673103Y-89755064D01*
X173680574Y-89760037D01*
X173689141Y-89762714D01*
X173689142Y-89762714D01*
X173732925Y-89776393D01*
X173791981Y-89815800D01*
X173820358Y-89880879D01*
X173809045Y-89950968D01*
X173762585Y-90003222D01*
X173677256Y-90057060D01*
X173677254Y-90057062D01*
X173669661Y-90061853D01*
X173663718Y-90068582D01*
X173663717Y-90068583D01*
X173609511Y-90129960D01*
X173573999Y-90170170D01*
X173570185Y-90178293D01*
X173570184Y-90178295D01*
X173554025Y-90212714D01*
X173512583Y-90300982D01*
X173511203Y-90309846D01*
X173511202Y-90309849D01*
X173492537Y-90429728D01*
X173490350Y-90443773D01*
X173491514Y-90452675D01*
X173491514Y-90452678D01*
X173499821Y-90516202D01*
X173509088Y-90587065D01*
X173567289Y-90719339D01*
X173660276Y-90829960D01*
X173667747Y-90834933D01*
X173667748Y-90834934D01*
X173773101Y-90905063D01*
X173773103Y-90905064D01*
X173780574Y-90910037D01*
X173789138Y-90912713D01*
X173789141Y-90912714D01*
X173849542Y-90931585D01*
X173918510Y-90953132D01*
X174062998Y-90955780D01*
X174082530Y-90950455D01*
X174193763Y-90920130D01*
X174193765Y-90920129D01*
X174202422Y-90917769D01*
X174325572Y-90842154D01*
X174422551Y-90735014D01*
X174485560Y-90604962D01*
X174487049Y-90596113D01*
X174487050Y-90596109D01*
X174500493Y-90516202D01*
X174531520Y-90452344D01*
X174591605Y-90415543D01*
X174668274Y-90394641D01*
X174668276Y-90394640D01*
X174676933Y-90392280D01*
X174800083Y-90316665D01*
X174897062Y-90209525D01*
X174960071Y-90079473D01*
X174984047Y-89936964D01*
X174984199Y-89924511D01*
X174963712Y-89781459D01*
X174903899Y-89649906D01*
X174898041Y-89643107D01*
X174898038Y-89643103D01*
X174815427Y-89547229D01*
X174815424Y-89547227D01*
X174809567Y-89540429D01*
X174721843Y-89483569D01*
X174695835Y-89466711D01*
X174695833Y-89466710D01*
X174688301Y-89461828D01*
X174679701Y-89459256D01*
X174558449Y-89422993D01*
X174558447Y-89422993D01*
X174549848Y-89420421D01*
X174540874Y-89420366D01*
X174540872Y-89420366D01*
X174535465Y-89420333D01*
X174534440Y-89420327D01*
X174466443Y-89399909D01*
X174420278Y-89345971D01*
X174409649Y-89303216D01*
X174409688Y-89300000D01*
X174408797Y-89293773D01*
X174390474Y-89165835D01*
X174390473Y-89165833D01*
X174389201Y-89156948D01*
X174329388Y-89025395D01*
X174323530Y-89018596D01*
X174323527Y-89018592D01*
X174240916Y-88922718D01*
X174240913Y-88922716D01*
X174235056Y-88915918D01*
X174113790Y-88837317D01*
X174096921Y-88832272D01*
X173983938Y-88798482D01*
X173983936Y-88798482D01*
X173975337Y-88795910D01*
X173966363Y-88795855D01*
X173966361Y-88795855D01*
X173903082Y-88795469D01*
X173830827Y-88795028D01*
X173822196Y-88797495D01*
X173822194Y-88797495D01*
X173700509Y-88832272D01*
X173700505Y-88832274D01*
X173691879Y-88834739D01*
X173569661Y-88911853D01*
X173563718Y-88918582D01*
X173563717Y-88918583D01*
X173492914Y-88998752D01*
X173473999Y-89020170D01*
X173412583Y-89150982D01*
X173411203Y-89159846D01*
X173411202Y-89159849D01*
X173391756Y-89284745D01*
X173390350Y-89293773D01*
X169723751Y-89293773D01*
X169721324Y-89292200D01*
X169721322Y-89292199D01*
X169713790Y-89287317D01*
X169696921Y-89282272D01*
X169583938Y-89248482D01*
X169583936Y-89248482D01*
X169575337Y-89245910D01*
X169566363Y-89245855D01*
X169566361Y-89245855D01*
X169503082Y-89245469D01*
X169430827Y-89245028D01*
X169422196Y-89247495D01*
X169422194Y-89247495D01*
X169300509Y-89282272D01*
X169300505Y-89282274D01*
X169291879Y-89284739D01*
X169284292Y-89289526D01*
X169284290Y-89289527D01*
X169263447Y-89302678D01*
X169169661Y-89361853D01*
X169073999Y-89470170D01*
X169012583Y-89600982D01*
X169011203Y-89609846D01*
X169011202Y-89609849D01*
X169000286Y-89679960D01*
X168990350Y-89743773D01*
X128254000Y-89743773D01*
X128254000Y-88779136D01*
X164854987Y-88779136D01*
X164856151Y-88788038D01*
X164856151Y-88788041D01*
X164871716Y-88907062D01*
X164873725Y-88922428D01*
X164931926Y-89054702D01*
X164937700Y-89061571D01*
X165011005Y-89148777D01*
X165024913Y-89165323D01*
X165032384Y-89170296D01*
X165032385Y-89170297D01*
X165137738Y-89240426D01*
X165137740Y-89240427D01*
X165145211Y-89245400D01*
X165153775Y-89248076D01*
X165153778Y-89248077D01*
X165214179Y-89266948D01*
X165283147Y-89288495D01*
X165427635Y-89291143D01*
X165460174Y-89282272D01*
X165558400Y-89255493D01*
X165558402Y-89255492D01*
X165567059Y-89253132D01*
X165690209Y-89177517D01*
X165787188Y-89070377D01*
X165850197Y-88940325D01*
X165874173Y-88797816D01*
X165874325Y-88785363D01*
X165853838Y-88642311D01*
X165810224Y-88546386D01*
X165800238Y-88476095D01*
X165819649Y-88425892D01*
X165823282Y-88421878D01*
X165830877Y-88406203D01*
X165882376Y-88299907D01*
X165882376Y-88299906D01*
X165886291Y-88291826D01*
X165910267Y-88149317D01*
X165910419Y-88136864D01*
X165889932Y-87993812D01*
X165830119Y-87862259D01*
X165824261Y-87855460D01*
X165824258Y-87855456D01*
X165741647Y-87759582D01*
X165741644Y-87759580D01*
X165735787Y-87752782D01*
X165675154Y-87713482D01*
X165622055Y-87679064D01*
X165622053Y-87679063D01*
X165614521Y-87674181D01*
X165597652Y-87669136D01*
X165484669Y-87635346D01*
X165484667Y-87635346D01*
X165476068Y-87632774D01*
X165467094Y-87632719D01*
X165467092Y-87632719D01*
X165403813Y-87632333D01*
X165331558Y-87631892D01*
X165322927Y-87634359D01*
X165322925Y-87634359D01*
X165201240Y-87669136D01*
X165201236Y-87669138D01*
X165192610Y-87671603D01*
X165070392Y-87748717D01*
X164974730Y-87857034D01*
X164913314Y-87987846D01*
X164891081Y-88130637D01*
X164892245Y-88139539D01*
X164892245Y-88139542D01*
X164908655Y-88265028D01*
X164909819Y-88273929D01*
X164935249Y-88331724D01*
X164955436Y-88377604D01*
X164964562Y-88448011D01*
X164945418Y-88497525D01*
X164944575Y-88498808D01*
X164938636Y-88505533D01*
X164877220Y-88636345D01*
X164854987Y-88779136D01*
X128254000Y-88779136D01*
X128254000Y-87400000D01*
X163490715Y-87400000D01*
X163509772Y-87544754D01*
X163512931Y-87552380D01*
X163562318Y-87671609D01*
X163565645Y-87679642D01*
X163654526Y-87795474D01*
X163661076Y-87800500D01*
X163661079Y-87800503D01*
X163763804Y-87879327D01*
X163770357Y-87884355D01*
X163905246Y-87940228D01*
X164050000Y-87959285D01*
X164058188Y-87958207D01*
X164186566Y-87941306D01*
X164194754Y-87940228D01*
X164329643Y-87884355D01*
X164336196Y-87879327D01*
X164438921Y-87800503D01*
X164438924Y-87800500D01*
X164445474Y-87795474D01*
X164534355Y-87679642D01*
X164537683Y-87671609D01*
X164587069Y-87552380D01*
X164590228Y-87544754D01*
X164609285Y-87400000D01*
X164590228Y-87255246D01*
X164534355Y-87120358D01*
X164529327Y-87113805D01*
X164529325Y-87113802D01*
X164500100Y-87075715D01*
X164474499Y-87009495D01*
X164488764Y-86939946D01*
X164538365Y-86889150D01*
X164566920Y-86877448D01*
X164593763Y-86870130D01*
X164593765Y-86870129D01*
X164602422Y-86867769D01*
X164725572Y-86792154D01*
X164822551Y-86685014D01*
X164885560Y-86554962D01*
X164909536Y-86412453D01*
X164909688Y-86400000D01*
X164899347Y-86327796D01*
X164890474Y-86265835D01*
X164890473Y-86265833D01*
X164889201Y-86256948D01*
X164829388Y-86125395D01*
X164823530Y-86118596D01*
X164823527Y-86118592D01*
X164740916Y-86022718D01*
X164740913Y-86022716D01*
X164735056Y-86015918D01*
X164627356Y-85946110D01*
X164621324Y-85942200D01*
X164621322Y-85942199D01*
X164613790Y-85937317D01*
X164583185Y-85928164D01*
X164483938Y-85898482D01*
X164483936Y-85898482D01*
X164475337Y-85895910D01*
X164466363Y-85895855D01*
X164466361Y-85895855D01*
X164403082Y-85895469D01*
X164330827Y-85895028D01*
X164322196Y-85897495D01*
X164322194Y-85897495D01*
X164200509Y-85932272D01*
X164200505Y-85932274D01*
X164191879Y-85934739D01*
X164184292Y-85939526D01*
X164184290Y-85939527D01*
X164147020Y-85963043D01*
X164069661Y-86011853D01*
X164063718Y-86018582D01*
X164063717Y-86018583D01*
X164018891Y-86069339D01*
X163973999Y-86120170D01*
X163912583Y-86250982D01*
X163911203Y-86259846D01*
X163911202Y-86259849D01*
X163904051Y-86305780D01*
X163890350Y-86393773D01*
X163891514Y-86402675D01*
X163891514Y-86402678D01*
X163907924Y-86528164D01*
X163909088Y-86537065D01*
X163967289Y-86669339D01*
X163972244Y-86675233D01*
X163991089Y-86743018D01*
X163970106Y-86810843D01*
X163915784Y-86856556D01*
X163907462Y-86859480D01*
X163905246Y-86859772D01*
X163897625Y-86862929D01*
X163897624Y-86862929D01*
X163777986Y-86912485D01*
X163777984Y-86912486D01*
X163770358Y-86915645D01*
X163654526Y-87004526D01*
X163565645Y-87120358D01*
X163509772Y-87255246D01*
X163490715Y-87400000D01*
X128254000Y-87400000D01*
X128254000Y-85793773D01*
X174390350Y-85793773D01*
X174391514Y-85802675D01*
X174391514Y-85802678D01*
X174407924Y-85928164D01*
X174409088Y-85937065D01*
X174467289Y-86069339D01*
X174560276Y-86179960D01*
X174567747Y-86184933D01*
X174567748Y-86184934D01*
X174673101Y-86255063D01*
X174673103Y-86255064D01*
X174680574Y-86260037D01*
X174689138Y-86262713D01*
X174689141Y-86262714D01*
X174749542Y-86281585D01*
X174818510Y-86303132D01*
X174962998Y-86305780D01*
X174982530Y-86300455D01*
X175093763Y-86270130D01*
X175093765Y-86270129D01*
X175102422Y-86267769D01*
X175225572Y-86192154D01*
X175322551Y-86085014D01*
X175385560Y-85954962D01*
X175409536Y-85812453D01*
X175409688Y-85800000D01*
X175389201Y-85656948D01*
X175329388Y-85525395D01*
X175323530Y-85518596D01*
X175323527Y-85518592D01*
X175240916Y-85422718D01*
X175240913Y-85422716D01*
X175235056Y-85415918D01*
X175113790Y-85337317D01*
X175096921Y-85332272D01*
X174983938Y-85298482D01*
X174983936Y-85298482D01*
X174975337Y-85295910D01*
X174966363Y-85295855D01*
X174966361Y-85295855D01*
X174903082Y-85295469D01*
X174830827Y-85295028D01*
X174822196Y-85297495D01*
X174822194Y-85297495D01*
X174700509Y-85332272D01*
X174700505Y-85332274D01*
X174691879Y-85334739D01*
X174569661Y-85411853D01*
X174473999Y-85520170D01*
X174412583Y-85650982D01*
X174390350Y-85793773D01*
X128254000Y-85793773D01*
X128254000Y-84000000D01*
X167840715Y-84000000D01*
X167841793Y-84008188D01*
X167855177Y-84109849D01*
X167859772Y-84144754D01*
X167867211Y-84162714D01*
X167910511Y-84267247D01*
X167915645Y-84279642D01*
X167920672Y-84286193D01*
X167998074Y-84387065D01*
X168004526Y-84395474D01*
X168011076Y-84400500D01*
X168011079Y-84400503D01*
X168113804Y-84479327D01*
X168120357Y-84484355D01*
X168255246Y-84540228D01*
X168400000Y-84559285D01*
X168408188Y-84558207D01*
X168408190Y-84558207D01*
X168419546Y-84556712D01*
X168489694Y-84567652D01*
X168542793Y-84614780D01*
X168551319Y-84630885D01*
X168553350Y-84635500D01*
X168557459Y-84644839D01*
X168650446Y-84755460D01*
X168657917Y-84760433D01*
X168657918Y-84760434D01*
X168763271Y-84830563D01*
X168763273Y-84830564D01*
X168770744Y-84835537D01*
X168779308Y-84838213D01*
X168779311Y-84838214D01*
X168839712Y-84857085D01*
X168908680Y-84878632D01*
X169053168Y-84881280D01*
X169062881Y-84878632D01*
X169183933Y-84845630D01*
X169183935Y-84845629D01*
X169192592Y-84843269D01*
X169315742Y-84767654D01*
X169412721Y-84660514D01*
X169470476Y-84541306D01*
X169471815Y-84538543D01*
X169471815Y-84538542D01*
X169475730Y-84530462D01*
X169499706Y-84387953D01*
X169499858Y-84375500D01*
X169487928Y-84292200D01*
X169480993Y-84243773D01*
X170240350Y-84243773D01*
X170241514Y-84252675D01*
X170241514Y-84252678D01*
X170255684Y-84361035D01*
X170259088Y-84387065D01*
X170317289Y-84519339D01*
X170323063Y-84526208D01*
X170392962Y-84609362D01*
X170410276Y-84629960D01*
X170417747Y-84634933D01*
X170417748Y-84634934D01*
X170523101Y-84705063D01*
X170523103Y-84705064D01*
X170530574Y-84710037D01*
X170539138Y-84712713D01*
X170539141Y-84712714D01*
X170599542Y-84731585D01*
X170668510Y-84753132D01*
X170812998Y-84755780D01*
X170857040Y-84743773D01*
X170943763Y-84720130D01*
X170943765Y-84720129D01*
X170952422Y-84717769D01*
X171075572Y-84642154D01*
X171172551Y-84535014D01*
X171235560Y-84404962D01*
X171259536Y-84262453D01*
X171259688Y-84250000D01*
X171247239Y-84163073D01*
X171240474Y-84115835D01*
X171240473Y-84115833D01*
X171239201Y-84106948D01*
X171179388Y-83975395D01*
X171173530Y-83968596D01*
X171173527Y-83968592D01*
X171090916Y-83872718D01*
X171090913Y-83872716D01*
X171085056Y-83865918D01*
X170963790Y-83787317D01*
X170946921Y-83782272D01*
X170833938Y-83748482D01*
X170833936Y-83748482D01*
X170825337Y-83745910D01*
X170816363Y-83745855D01*
X170816361Y-83745855D01*
X170753082Y-83745469D01*
X170680827Y-83745028D01*
X170672196Y-83747495D01*
X170672194Y-83747495D01*
X170550509Y-83782272D01*
X170550505Y-83782274D01*
X170541879Y-83784739D01*
X170534292Y-83789526D01*
X170534290Y-83789527D01*
X170430132Y-83855246D01*
X170419661Y-83861853D01*
X170413718Y-83868582D01*
X170413717Y-83868583D01*
X170410065Y-83872718D01*
X170323999Y-83970170D01*
X170320185Y-83978293D01*
X170320184Y-83978295D01*
X170290524Y-84041469D01*
X170262583Y-84100982D01*
X170261203Y-84109846D01*
X170261202Y-84109849D01*
X170243386Y-84224277D01*
X170240350Y-84243773D01*
X169480993Y-84243773D01*
X169480644Y-84241335D01*
X169480643Y-84241333D01*
X169479371Y-84232448D01*
X169419558Y-84100895D01*
X169413700Y-84094096D01*
X169413697Y-84094092D01*
X169331086Y-83998218D01*
X169331083Y-83998216D01*
X169325226Y-83991418D01*
X169203960Y-83912817D01*
X169195360Y-83910245D01*
X169074108Y-83873982D01*
X169074106Y-83873982D01*
X169065507Y-83871410D01*
X169056533Y-83871355D01*
X169056531Y-83871355D01*
X169036244Y-83871231D01*
X169030258Y-83871195D01*
X168962260Y-83850777D01*
X168914617Y-83793416D01*
X168887515Y-83727986D01*
X168887514Y-83727984D01*
X168884355Y-83720358D01*
X168863956Y-83693773D01*
X171890350Y-83693773D01*
X171891514Y-83702675D01*
X171891514Y-83702678D01*
X171903221Y-83792200D01*
X171909088Y-83837065D01*
X171967289Y-83969339D01*
X172060276Y-84079960D01*
X172067747Y-84084933D01*
X172067748Y-84084934D01*
X172173101Y-84155063D01*
X172173103Y-84155064D01*
X172180574Y-84160037D01*
X172189138Y-84162713D01*
X172189141Y-84162714D01*
X172249542Y-84181584D01*
X172318510Y-84203132D01*
X172462998Y-84205780D01*
X172482530Y-84200455D01*
X172593763Y-84170130D01*
X172593765Y-84170129D01*
X172602422Y-84167769D01*
X172725572Y-84092154D01*
X172822551Y-83985014D01*
X172876345Y-83873982D01*
X172881645Y-83863043D01*
X172881645Y-83863042D01*
X172885560Y-83854962D01*
X172909536Y-83712453D01*
X172909688Y-83700000D01*
X172896015Y-83604526D01*
X172890474Y-83565835D01*
X172890473Y-83565833D01*
X172889201Y-83556948D01*
X172829388Y-83425395D01*
X172823530Y-83418596D01*
X172823527Y-83418592D01*
X172740916Y-83322718D01*
X172740913Y-83322716D01*
X172735056Y-83315918D01*
X172613790Y-83237317D01*
X172596921Y-83232272D01*
X172483938Y-83198482D01*
X172483936Y-83198482D01*
X172475337Y-83195910D01*
X172466363Y-83195855D01*
X172466361Y-83195855D01*
X172403082Y-83195469D01*
X172330827Y-83195028D01*
X172322196Y-83197495D01*
X172322194Y-83197495D01*
X172200509Y-83232272D01*
X172200505Y-83232274D01*
X172191879Y-83234739D01*
X172069661Y-83311853D01*
X171973999Y-83420170D01*
X171912583Y-83550982D01*
X171911203Y-83559846D01*
X171911202Y-83559849D01*
X171903227Y-83611072D01*
X171890350Y-83693773D01*
X168863956Y-83693773D01*
X168795474Y-83604526D01*
X168788924Y-83599500D01*
X168788921Y-83599497D01*
X168686196Y-83520673D01*
X168686194Y-83520672D01*
X168679643Y-83515645D01*
X168544754Y-83459772D01*
X168400000Y-83440715D01*
X168391812Y-83441793D01*
X168263432Y-83458694D01*
X168263430Y-83458695D01*
X168255246Y-83459772D01*
X168207430Y-83479578D01*
X168127986Y-83512485D01*
X168127984Y-83512486D01*
X168120358Y-83515645D01*
X168004526Y-83604526D01*
X167915645Y-83720358D01*
X167912486Y-83727984D01*
X167912485Y-83727986D01*
X167889999Y-83782272D01*
X167859772Y-83855246D01*
X167840715Y-84000000D01*
X128254000Y-84000000D01*
X128254000Y-82893773D01*
X178240350Y-82893773D01*
X178241514Y-82902675D01*
X178241514Y-82902678D01*
X178257924Y-83028164D01*
X178259088Y-83037065D01*
X178317289Y-83169339D01*
X178410276Y-83279960D01*
X178417747Y-83284933D01*
X178417748Y-83284934D01*
X178523101Y-83355063D01*
X178523103Y-83355064D01*
X178530574Y-83360037D01*
X178539138Y-83362713D01*
X178539141Y-83362714D01*
X178599542Y-83381584D01*
X178668510Y-83403132D01*
X178812998Y-83405780D01*
X178832530Y-83400455D01*
X178943763Y-83370130D01*
X178943765Y-83370129D01*
X178952422Y-83367769D01*
X179075572Y-83292154D01*
X179172551Y-83185014D01*
X179235560Y-83054962D01*
X179259536Y-82912453D01*
X179259688Y-82900000D01*
X179239201Y-82756948D01*
X179179388Y-82625395D01*
X179173530Y-82618596D01*
X179173527Y-82618592D01*
X179090916Y-82522718D01*
X179090913Y-82522716D01*
X179085056Y-82515918D01*
X178992275Y-82455780D01*
X178971324Y-82442200D01*
X178971322Y-82442199D01*
X178963790Y-82437317D01*
X178906322Y-82420130D01*
X178833938Y-82398482D01*
X178833936Y-82398482D01*
X178825337Y-82395910D01*
X178816363Y-82395855D01*
X178816361Y-82395855D01*
X178753082Y-82395469D01*
X178680827Y-82395028D01*
X178672196Y-82397495D01*
X178672194Y-82397495D01*
X178550509Y-82432272D01*
X178550505Y-82432274D01*
X178541879Y-82434739D01*
X178534292Y-82439526D01*
X178534290Y-82439527D01*
X178508531Y-82455780D01*
X178419661Y-82511853D01*
X178323999Y-82620170D01*
X178262583Y-82750982D01*
X178240350Y-82893773D01*
X128254000Y-82893773D01*
X128254000Y-81943773D01*
X165394789Y-81943773D01*
X165395953Y-81952675D01*
X165395953Y-81952678D01*
X165406720Y-82035014D01*
X165413527Y-82087065D01*
X165471728Y-82219339D01*
X165564715Y-82329960D01*
X165572186Y-82334933D01*
X165572187Y-82334934D01*
X165677540Y-82405063D01*
X165677542Y-82405064D01*
X165685013Y-82410037D01*
X165693577Y-82412713D01*
X165693580Y-82412714D01*
X165753981Y-82431584D01*
X165822949Y-82453132D01*
X165967437Y-82455780D01*
X165986969Y-82450455D01*
X166098202Y-82420130D01*
X166098204Y-82420129D01*
X166106861Y-82417769D01*
X166230011Y-82342154D01*
X166326990Y-82235014D01*
X166389999Y-82104962D01*
X166413975Y-81962453D01*
X166414127Y-81950000D01*
X166393640Y-81806948D01*
X166364916Y-81743773D01*
X174190350Y-81743773D01*
X174191514Y-81752675D01*
X174191514Y-81752678D01*
X174199773Y-81815835D01*
X174209088Y-81887065D01*
X174267289Y-82019339D01*
X174360276Y-82129960D01*
X174367747Y-82134933D01*
X174367748Y-82134934D01*
X174473101Y-82205063D01*
X174473103Y-82205064D01*
X174480574Y-82210037D01*
X174489138Y-82212713D01*
X174489141Y-82212714D01*
X174549542Y-82231584D01*
X174618510Y-82253132D01*
X174762998Y-82255780D01*
X174782530Y-82250455D01*
X174893763Y-82220130D01*
X174893765Y-82220129D01*
X174902422Y-82217769D01*
X175025572Y-82142154D01*
X175122551Y-82035014D01*
X175166073Y-81945184D01*
X175181645Y-81913043D01*
X175181645Y-81913042D01*
X175185560Y-81904962D01*
X175209536Y-81762453D01*
X175209688Y-81750000D01*
X175189201Y-81606948D01*
X175129388Y-81475395D01*
X175123530Y-81468596D01*
X175123527Y-81468592D01*
X175040916Y-81372718D01*
X175040913Y-81372716D01*
X175035056Y-81365918D01*
X174913790Y-81287317D01*
X174896921Y-81282272D01*
X174783938Y-81248482D01*
X174783936Y-81248482D01*
X174775337Y-81245910D01*
X174766363Y-81245855D01*
X174766361Y-81245855D01*
X174703082Y-81245469D01*
X174630827Y-81245028D01*
X174622196Y-81247495D01*
X174622194Y-81247495D01*
X174500509Y-81282272D01*
X174500505Y-81282274D01*
X174491879Y-81284739D01*
X174369661Y-81361853D01*
X174273999Y-81470170D01*
X174270185Y-81478293D01*
X174270184Y-81478295D01*
X174264911Y-81489527D01*
X174212583Y-81600982D01*
X174211203Y-81609846D01*
X174211202Y-81609849D01*
X174200997Y-81675395D01*
X174190350Y-81743773D01*
X166364916Y-81743773D01*
X166333827Y-81675395D01*
X166327969Y-81668596D01*
X166327966Y-81668592D01*
X166245355Y-81572718D01*
X166245352Y-81572716D01*
X166239495Y-81565918D01*
X166118229Y-81487317D01*
X166088062Y-81478295D01*
X165988377Y-81448482D01*
X165988375Y-81448482D01*
X165979776Y-81445910D01*
X165970802Y-81445855D01*
X165970800Y-81445855D01*
X165907521Y-81445469D01*
X165835266Y-81445028D01*
X165826635Y-81447495D01*
X165826633Y-81447495D01*
X165704948Y-81482272D01*
X165704944Y-81482274D01*
X165696318Y-81484739D01*
X165574100Y-81561853D01*
X165568157Y-81568582D01*
X165568156Y-81568583D01*
X165526425Y-81615835D01*
X165478438Y-81670170D01*
X165417022Y-81800982D01*
X165415642Y-81809846D01*
X165415641Y-81809849D01*
X165399574Y-81913043D01*
X165394789Y-81943773D01*
X128254000Y-81943773D01*
X128254000Y-80543773D01*
X169940350Y-80543773D01*
X169941514Y-80552675D01*
X169941514Y-80552678D01*
X169957924Y-80678164D01*
X169959088Y-80687065D01*
X170017289Y-80819339D01*
X170110276Y-80929960D01*
X170117747Y-80934933D01*
X170117748Y-80934934D01*
X170223101Y-81005063D01*
X170223103Y-81005064D01*
X170230574Y-81010037D01*
X170239138Y-81012713D01*
X170239141Y-81012714D01*
X170299542Y-81031584D01*
X170368510Y-81053132D01*
X170512998Y-81055780D01*
X170532530Y-81050455D01*
X170643763Y-81020130D01*
X170643765Y-81020129D01*
X170652422Y-81017769D01*
X170775572Y-80942154D01*
X170872551Y-80835014D01*
X170935560Y-80704962D01*
X170959536Y-80562453D01*
X170959688Y-80550000D01*
X170939201Y-80406948D01*
X170879388Y-80275395D01*
X170873530Y-80268596D01*
X170873527Y-80268592D01*
X170790916Y-80172718D01*
X170790913Y-80172716D01*
X170785056Y-80165918D01*
X170663790Y-80087317D01*
X170646921Y-80082272D01*
X170533938Y-80048482D01*
X170533936Y-80048482D01*
X170525337Y-80045910D01*
X170516363Y-80045855D01*
X170516361Y-80045855D01*
X170453082Y-80045469D01*
X170380827Y-80045028D01*
X170372196Y-80047495D01*
X170372194Y-80047495D01*
X170250509Y-80082272D01*
X170250505Y-80082274D01*
X170241879Y-80084739D01*
X170119661Y-80161853D01*
X170023999Y-80270170D01*
X169962583Y-80400982D01*
X169940350Y-80543773D01*
X128254000Y-80543773D01*
X128254000Y-78993773D01*
X165740350Y-78993773D01*
X165741514Y-79002675D01*
X165741514Y-79002678D01*
X165757924Y-79128164D01*
X165759088Y-79137065D01*
X165817289Y-79269339D01*
X165910276Y-79379960D01*
X165917747Y-79384933D01*
X165917748Y-79384934D01*
X166023101Y-79455063D01*
X166023103Y-79455064D01*
X166030574Y-79460037D01*
X166039138Y-79462713D01*
X166039141Y-79462714D01*
X166099542Y-79481585D01*
X166168510Y-79503132D01*
X166312998Y-79505780D01*
X166332530Y-79500455D01*
X166443763Y-79470130D01*
X166443765Y-79470129D01*
X166452422Y-79467769D01*
X166575572Y-79392154D01*
X166672551Y-79285014D01*
X166735560Y-79154962D01*
X166759536Y-79012453D01*
X166759688Y-79000000D01*
X166739201Y-78856948D01*
X166679388Y-78725395D01*
X166673530Y-78718596D01*
X166673527Y-78718592D01*
X166590916Y-78622718D01*
X166590913Y-78622716D01*
X166585056Y-78615918D01*
X166514414Y-78570130D01*
X166471324Y-78542200D01*
X166471322Y-78542199D01*
X166463790Y-78537317D01*
X166416219Y-78523090D01*
X166333938Y-78498482D01*
X166333936Y-78498482D01*
X166325337Y-78495910D01*
X166316363Y-78495855D01*
X166316361Y-78495855D01*
X166253082Y-78495469D01*
X166180827Y-78495028D01*
X166172196Y-78497495D01*
X166172194Y-78497495D01*
X166050509Y-78532272D01*
X166050505Y-78532274D01*
X166041879Y-78534739D01*
X166034292Y-78539526D01*
X166034290Y-78539527D01*
X165929286Y-78605780D01*
X165919661Y-78611853D01*
X165823999Y-78720170D01*
X165762583Y-78850982D01*
X165740350Y-78993773D01*
X128254000Y-78993773D01*
X128254000Y-78276000D01*
X128274002Y-78207879D01*
X128327658Y-78161386D01*
X128380000Y-78150000D01*
X134380105Y-78150000D01*
X134448226Y-78170002D01*
X134464415Y-78182363D01*
X134554369Y-78263359D01*
X134691631Y-78342607D01*
X134842371Y-78391586D01*
X134991227Y-78407231D01*
X135000000Y-78408976D01*
X135012847Y-78406421D01*
X135037425Y-78404000D01*
X159962575Y-78404000D01*
X159987153Y-78406421D01*
X160000000Y-78408976D01*
X160008773Y-78407231D01*
X160157629Y-78391586D01*
X160308369Y-78342607D01*
X160445631Y-78263359D01*
X160535584Y-78182364D01*
X160599591Y-78151647D01*
X160619895Y-78150000D01*
X162880569Y-78150000D01*
X162948690Y-78170002D01*
X162995183Y-78223658D01*
X163005504Y-78259656D01*
X163009088Y-78287065D01*
X163067289Y-78419339D01*
X163073063Y-78426208D01*
X163122428Y-78484934D01*
X163160276Y-78529960D01*
X163167747Y-78534933D01*
X163167748Y-78534934D01*
X163273101Y-78605063D01*
X163273103Y-78605064D01*
X163280574Y-78610037D01*
X163289138Y-78612713D01*
X163289141Y-78612714D01*
X163349542Y-78631585D01*
X163418510Y-78653132D01*
X163562998Y-78655780D01*
X163582530Y-78650455D01*
X163693763Y-78620130D01*
X163693765Y-78620129D01*
X163702422Y-78617769D01*
X163825572Y-78542154D01*
X163922551Y-78435014D01*
X163958350Y-78361125D01*
X163981645Y-78313043D01*
X163981645Y-78313042D01*
X163985560Y-78304962D01*
X164009536Y-78162453D01*
X164009688Y-78150000D01*
X164001636Y-78093773D01*
X164490350Y-78093773D01*
X164491514Y-78102675D01*
X164491514Y-78102678D01*
X164499331Y-78162453D01*
X164509088Y-78237065D01*
X164567289Y-78369339D01*
X164573063Y-78376208D01*
X164615093Y-78426208D01*
X164660276Y-78479960D01*
X164667747Y-78484933D01*
X164667748Y-78484934D01*
X164773101Y-78555063D01*
X164773103Y-78555064D01*
X164780574Y-78560037D01*
X164789138Y-78562713D01*
X164789141Y-78562714D01*
X164849542Y-78581584D01*
X164918510Y-78603132D01*
X165062998Y-78605780D01*
X165082530Y-78600455D01*
X165193763Y-78570130D01*
X165193765Y-78570129D01*
X165202422Y-78567769D01*
X165325572Y-78492154D01*
X165422551Y-78385014D01*
X165457420Y-78313043D01*
X165481645Y-78263043D01*
X165481645Y-78263042D01*
X165485560Y-78254962D01*
X165509536Y-78112453D01*
X165509688Y-78100000D01*
X165496362Y-78006948D01*
X165490474Y-77965835D01*
X165490473Y-77965833D01*
X165489201Y-77956948D01*
X165429388Y-77825395D01*
X165423530Y-77818596D01*
X165423527Y-77818592D01*
X165340916Y-77722718D01*
X165340913Y-77722716D01*
X165335056Y-77715918D01*
X165274423Y-77676617D01*
X165221324Y-77642200D01*
X165221322Y-77642199D01*
X165213790Y-77637317D01*
X165196921Y-77632272D01*
X165083938Y-77598482D01*
X165083936Y-77598482D01*
X165075337Y-77595910D01*
X165066363Y-77595855D01*
X165066361Y-77595855D01*
X165003082Y-77595469D01*
X164930827Y-77595028D01*
X164922196Y-77597495D01*
X164922194Y-77597495D01*
X164800509Y-77632272D01*
X164800505Y-77632274D01*
X164791879Y-77634739D01*
X164784292Y-77639526D01*
X164784290Y-77639527D01*
X164751437Y-77660256D01*
X164669661Y-77711853D01*
X164663718Y-77718582D01*
X164663717Y-77718583D01*
X164615907Y-77772718D01*
X164573999Y-77820170D01*
X164512583Y-77950982D01*
X164490350Y-78093773D01*
X164001636Y-78093773D01*
X163989201Y-78006948D01*
X163929388Y-77875395D01*
X163923530Y-77868596D01*
X163923527Y-77868592D01*
X163840916Y-77772718D01*
X163840913Y-77772716D01*
X163835056Y-77765918D01*
X163757163Y-77715430D01*
X163721324Y-77692200D01*
X163721322Y-77692199D01*
X163713790Y-77687317D01*
X163696921Y-77682272D01*
X163583938Y-77648482D01*
X163583936Y-77648482D01*
X163575337Y-77645910D01*
X163566363Y-77645855D01*
X163566361Y-77645855D01*
X163503082Y-77645469D01*
X163430827Y-77645028D01*
X163422196Y-77647495D01*
X163422194Y-77647495D01*
X163300509Y-77682272D01*
X163300505Y-77682274D01*
X163291879Y-77684739D01*
X163284293Y-77689525D01*
X163284285Y-77689529D01*
X163243236Y-77715430D01*
X163174951Y-77734865D01*
X163107000Y-77714296D01*
X163060955Y-77660256D01*
X163050000Y-77608869D01*
X163050000Y-73480000D01*
X163070002Y-73411879D01*
X163123658Y-73365386D01*
X163176000Y-73354000D01*
X179330367Y-73354000D01*
X179390751Y-73369412D01*
G37*
%TD.AperFunction*%
%TD*%
M02*
