%TF.GenerationSoftware,KiCad,Pcbnew,(6.0.0)*%
%TF.CreationDate,2022-02-22T11:37:22+00:00*%
%TF.ProjectId,Tracer,54726163-6572-42e6-9b69-6361645f7063,A*%
%TF.SameCoordinates,Original*%
%TF.FileFunction,Copper,L4,Bot*%
%TF.FilePolarity,Positive*%
%FSLAX46Y46*%
G04 Gerber Fmt 4.6, Leading zero omitted, Abs format (unit mm)*
G04 Created by KiCad (PCBNEW (6.0.0)) date 2022-02-22 11:37:22*
%MOMM*%
%LPD*%
G01*
G04 APERTURE LIST*
%TA.AperFunction,ComponentPad*%
%ADD10C,1.950000*%
%TD*%
%TA.AperFunction,SMDPad,CuDef*%
%ADD11R,1.524000X2.540000*%
%TD*%
%TA.AperFunction,ViaPad*%
%ADD12C,0.500000*%
%TD*%
%TA.AperFunction,ViaPad*%
%ADD13C,0.600000*%
%TD*%
%TA.AperFunction,Conductor*%
%ADD14C,0.150000*%
%TD*%
%TA.AperFunction,Conductor*%
%ADD15C,0.200000*%
%TD*%
G04 APERTURE END LIST*
D10*
%TO.P,J1,MH1,MH1*%
%TO.N,unconnected-(J1-PadMH1)*%
X165000000Y-115137500D03*
%TO.P,J1,MH2,MH2*%
%TO.N,unconnected-(J1-PadMH2)*%
X171600000Y-115137500D03*
%TD*%
D11*
%TO.P,TP1,1,VBUS*%
%TO.N,Net-(D1-Pad2)*%
X163900000Y-112550000D03*
%TO.P,TP1,2,D-*%
%TO.N,D-*%
X166900000Y-112550000D03*
%TO.P,TP1,3,D+*%
%TO.N,D+*%
X169900000Y-112550000D03*
%TO.P,TP1,4,GND*%
%TO.N,GND*%
X172900000Y-112550000D03*
%TD*%
D12*
%TO.N,+BATT*%
X163000000Y-99050000D03*
X172050000Y-101900000D03*
X178750000Y-82900000D03*
%TO.N,GND*%
X171300000Y-100900000D03*
X165000000Y-102750000D03*
X177300000Y-99150000D03*
X170450000Y-80550000D03*
X170500000Y-110100000D03*
X168000000Y-104250000D03*
X165300000Y-106700000D03*
X168000000Y-103500000D03*
X168000000Y-102750000D03*
X174700000Y-98550000D03*
X167250000Y-103500000D03*
X179200000Y-99100000D03*
X169500000Y-89750000D03*
X171800000Y-95000000D03*
X163500000Y-78150000D03*
X135100000Y-96350000D03*
X174700000Y-81750000D03*
X171550000Y-97950000D03*
X164400000Y-86400000D03*
X174900000Y-85800000D03*
X168750000Y-103500000D03*
X179350000Y-103350000D03*
X174000000Y-103200000D03*
D13*
%TO.N,+3V3*%
X170850000Y-95000000D03*
X166150000Y-93200000D03*
X178194246Y-99053969D03*
X169250000Y-85700000D03*
X179250000Y-97640500D03*
X173500000Y-94100000D03*
X174900000Y-89250000D03*
X167324500Y-99200000D03*
X179157960Y-93193909D03*
X175550000Y-113000000D03*
X173500000Y-90950000D03*
D12*
%TO.N,RST*%
X173900000Y-89300000D03*
X172400000Y-83700000D03*
%TO.N,VBUS*%
X173629362Y-99041027D03*
X173500000Y-101950000D03*
X173700000Y-96400000D03*
D13*
%TO.N,VDDSDIO*%
X168400000Y-84000000D03*
X164050000Y-87400000D03*
D12*
%TO.N,Net-(D4-Pad1)*%
X178600000Y-101250000D03*
X174660523Y-100660523D03*
%TO.N,GPIO10*%
X165904439Y-81950000D03*
X165364637Y-88785363D03*
%TO.N,GPIO17*%
X165400731Y-88136864D03*
X166250000Y-79000000D03*
%TO.N,GPIO7*%
X165000000Y-78100000D03*
X165450000Y-90450000D03*
%TO.N,GPIO36*%
X178483736Y-96303248D03*
X174000000Y-90450000D03*
%TO.N,GPIO37*%
X175600000Y-94350000D03*
X174474511Y-89924511D03*
%TO.N,GPIO18*%
X164900000Y-91850000D03*
X176500000Y-94250000D03*
%TO.N,GPIO23*%
X178900000Y-94200000D03*
X164325500Y-92335444D03*
X174700000Y-96750500D03*
%TO.N,D+*%
X168300000Y-110800000D03*
%TO.N,D-*%
X164758236Y-108741764D03*
X168250000Y-113700000D03*
X164800000Y-105300000D03*
%TO.N,RTS*%
X176600000Y-84750000D03*
X170750000Y-84250000D03*
X167274500Y-95900000D03*
X169700000Y-101500000D03*
X167274500Y-97450000D03*
%TO.N,TXD*%
X168750000Y-97350000D03*
X168800000Y-95700000D03*
X168750000Y-100700000D03*
%TO.N,DTR*%
X168990170Y-84375500D03*
X166300000Y-95950000D03*
X166325500Y-97450000D03*
X166949119Y-100450881D03*
D13*
%TO.N,Net-(D1-Pad2)*%
X165700000Y-108200000D03*
X165850000Y-110050000D03*
%TD*%
D14*
%TO.N,+BATT*%
X162050000Y-80378939D02*
X165078939Y-77350000D01*
X173200000Y-77350000D02*
X178750000Y-82900000D01*
X162050000Y-98100000D02*
X162050000Y-80378939D01*
X165924511Y-101974511D02*
X163000000Y-99050000D01*
X165078939Y-77350000D02*
X173200000Y-77350000D01*
X172050000Y-101900000D02*
X171975489Y-101974511D01*
X163000000Y-99050000D02*
X162050000Y-98100000D01*
X171975489Y-101974511D02*
X168024511Y-101974511D01*
X168024511Y-101974511D02*
X165924511Y-101974511D01*
%TO.N,GND*%
X172900000Y-112500000D02*
X170500000Y-110100000D01*
X172900000Y-112550000D02*
X172900000Y-112500000D01*
%TO.N,RST*%
X173900000Y-85200000D02*
X172400000Y-83700000D01*
X173900000Y-89300000D02*
X173900000Y-85200000D01*
%TO.N,VBUS*%
X173500000Y-99170389D02*
X173629362Y-99041027D01*
X173629362Y-99041027D02*
X173629362Y-96470638D01*
X173629362Y-96470638D02*
X173700000Y-96400000D01*
X173500000Y-101950000D02*
X173500000Y-99170389D01*
D15*
%TO.N,VDDSDIO*%
X165000000Y-87400000D02*
X164050000Y-87400000D01*
X168400000Y-84000000D02*
X165000000Y-87400000D01*
D14*
%TO.N,Net-(D4-Pad1)*%
X178600000Y-101250000D02*
X175250000Y-101250000D01*
X175250000Y-101250000D02*
X174660523Y-100660523D01*
%TO.N,GPIO10*%
X165904439Y-83800914D02*
X165904439Y-81950000D01*
X165364637Y-88785363D02*
X164270006Y-88785363D01*
X163200000Y-86505353D02*
X165827677Y-83877676D01*
X165827677Y-83877676D02*
X165904439Y-83800914D01*
X164270006Y-88785363D02*
X163200000Y-87715357D01*
X163200000Y-87715357D02*
X163200000Y-86505353D01*
%TO.N,GPIO17*%
X166378939Y-83750000D02*
X166378939Y-79128939D01*
X164045092Y-88136864D02*
X163525489Y-87617261D01*
X165400731Y-88136864D02*
X164045092Y-88136864D01*
X163525489Y-87617261D02*
X163525489Y-86603450D01*
X163525489Y-86603450D02*
X166378939Y-83750000D01*
X166378939Y-79128939D02*
X166250000Y-79000000D01*
%TO.N,GPIO7*%
X165000000Y-78100000D02*
X162900480Y-80199520D01*
X162900480Y-80199520D02*
X162900480Y-87900480D01*
X162900480Y-87900480D02*
X165450000Y-90450000D01*
%TO.N,GPIO36*%
X178483736Y-96303248D02*
X179374511Y-95412473D01*
X179374511Y-95412473D02*
X179374511Y-94003450D01*
X173975489Y-90425489D02*
X174000000Y-90450000D01*
X179084268Y-93713207D02*
X175413207Y-93713207D01*
X173023586Y-93100000D02*
X171799520Y-91875934D01*
X179374511Y-94003450D02*
X179084268Y-93713207D01*
X172274511Y-90425489D02*
X173975489Y-90425489D01*
X171799520Y-91875934D02*
X171799520Y-90900480D01*
X175413207Y-93713207D02*
X174800000Y-93100000D01*
X174800000Y-93100000D02*
X173023586Y-93100000D01*
X171799520Y-90900480D02*
X172274511Y-90425489D01*
%TO.N,GPIO37*%
X175600000Y-94350000D02*
X174650000Y-93400000D01*
X172900000Y-93400000D02*
X171500000Y-92000000D01*
X174650000Y-93400000D02*
X172900000Y-93400000D01*
X172426414Y-89850000D02*
X174400000Y-89850000D01*
X171500000Y-92000000D02*
X171500000Y-90776414D01*
X174474511Y-89924511D02*
X174400000Y-89850000D01*
X171500000Y-90776414D02*
X172426414Y-89850000D01*
%TO.N,GPIO18*%
X164800000Y-91950000D02*
X164900000Y-91850000D01*
X176500000Y-94250000D02*
X175149520Y-95600480D01*
X175149520Y-95600480D02*
X171999520Y-95600480D01*
X165350000Y-96575969D02*
X165249555Y-96575969D01*
X171999520Y-95600480D02*
X171024031Y-96575969D01*
X171024031Y-96575969D02*
X165350000Y-96575969D01*
X165249555Y-96575969D02*
X164800000Y-96126414D01*
X164800000Y-96126414D02*
X164800000Y-91950000D01*
%TO.N,GPIO23*%
X164490056Y-92500000D02*
X164325500Y-92335444D01*
X164500000Y-92500000D02*
X164490056Y-92500000D01*
X177200000Y-95900000D02*
X178900000Y-94200000D01*
X172150000Y-95900000D02*
X171174511Y-96875489D01*
X165125489Y-96875489D02*
X164500000Y-96250000D01*
X175900000Y-95900000D02*
X177200000Y-95900000D01*
X174700000Y-95900000D02*
X174700000Y-96750500D01*
X174700000Y-95900000D02*
X172150000Y-95900000D01*
X164500000Y-96250000D02*
X164500000Y-92500000D01*
X171174511Y-96875489D02*
X165125489Y-96875489D01*
X175900000Y-95900000D02*
X174700000Y-95900000D01*
D15*
%TO.N,D+*%
X168300000Y-110800000D02*
X168300000Y-110950000D01*
X168300000Y-110950000D02*
X169900000Y-112550000D01*
%TO.N,D-*%
X168050000Y-113700000D02*
X166900000Y-112550000D01*
X168250000Y-113700000D02*
X168050000Y-113700000D01*
X164758236Y-105341764D02*
X164800000Y-105300000D01*
X164758236Y-108741764D02*
X164758236Y-105341764D01*
D14*
%TO.N,RTS*%
X168878939Y-101500000D02*
X167849011Y-100470072D01*
X167849011Y-100470072D02*
X167849011Y-98899502D01*
X167499509Y-98550000D02*
X167274500Y-98324991D01*
X169786731Y-84250000D02*
X170750000Y-84250000D01*
X170750000Y-84250000D02*
X171774511Y-83225489D01*
X169700000Y-101500000D02*
X168878939Y-101500000D01*
X167849011Y-98899502D02*
X167499509Y-98550000D01*
X167274500Y-86625500D02*
X167411231Y-86625500D01*
X171774511Y-83225489D02*
X175075489Y-83225489D01*
X167411231Y-86625500D02*
X169786731Y-84250000D01*
X167274500Y-95900000D02*
X167274500Y-86625500D01*
X175075489Y-83225489D02*
X176600000Y-84750000D01*
X167274500Y-98324991D02*
X167274500Y-97450000D01*
%TO.N,TXD*%
X168750000Y-95750000D02*
X168800000Y-95700000D01*
X168750000Y-100700000D02*
X168750000Y-97350000D01*
%TO.N,DTR*%
X166949119Y-100450881D02*
X166325500Y-99827262D01*
X166674511Y-86691159D02*
X168990170Y-84375500D01*
X166325500Y-99827262D02*
X166325500Y-97450000D01*
X166799989Y-100301751D02*
X166949119Y-100450881D01*
X166674511Y-95575489D02*
X166674511Y-86691159D01*
X166300000Y-95950000D02*
X166674511Y-95575489D01*
D15*
%TO.N,Net-(D1-Pad2)*%
X164600000Y-110050000D02*
X165850000Y-110050000D01*
X163900000Y-112550000D02*
X163900000Y-110750000D01*
X163900000Y-110750000D02*
X164600000Y-110050000D01*
X165850000Y-108350000D02*
X165700000Y-108200000D01*
X165850000Y-110050000D02*
X165850000Y-108350000D01*
%TD*%
M02*
