M48
; DRILL file {KiCad (6.0.0)} date Sun Nov 27 20:07:01 2022
; FORMAT={-:-/ absolute / metric / decimal}
; #@! TF.CreationDate,2022-11-27T20:07:01+00:00
; #@! TF.GenerationSoftware,Kicad,Pcbnew,(6.0.0)
; #@! TF.FileFunction,Plated,1,4,PTH
FMAT,2
METRIC
; #@! TA.AperFunction,Plated,PTH,ViaDrill
T1C0.250
; #@! TA.AperFunction,Plated,PTH,ViaDrill
T2C0.300
; #@! TA.AperFunction,Plated,PTH,ComponentDrill
T3C0.600
%
G90
G05
T1
X129.5Y-109.4
X132.75Y-89.9
X132.75Y-91.2
X133.25Y-89.95
X133.25Y-91.2
X133.75Y-91.4
X133.8Y-90.0
X134.1Y-91.8
X134.3Y-90.2
X134.7Y-90.5
X135.0Y-82.0
X135.0Y-84.0
X135.0Y-86.0
X135.0Y-88.0
X135.05Y-90.9
X135.3Y-91.35
X135.35Y-99.5
X135.45Y-100.45
X136.35Y-101.2
X136.684Y-101.757
X138.0Y-98.6
X138.0Y-99.6
X138.75Y-103.1
X139.0Y-84.0
X139.0Y-97.4
X139.0Y-98.6
X139.0Y-99.6
X140.0Y-88.0
X140.0Y-97.4
X140.0Y-98.6
X140.0Y-99.6
X140.295Y-105.716
X140.5Y-105.1
X142.0Y-84.0
X142.0Y-88.0
X142.2Y-98.9
X142.703Y-98.397
X144.0Y-82.0
X144.0Y-88.0
X144.0Y-95.475
X144.722Y-95.475
X145.3Y-85.9
X146.0Y-82.0
X146.0Y-84.0
X146.0Y-88.0
X147.025Y-103.7
X147.5Y-104.4
X147.5Y-106.15
X147.75Y-94.35
X148.2Y-87.9
X148.25Y-98.2
X149.2Y-110.8
X149.679Y-87.879
X150.124Y-89.25
X150.5Y-96.7
X150.8Y-98.174
X151.06Y-100.41
X151.06Y-101.68
X151.06Y-102.95
X152.3Y-105.8
X152.33Y-100.41
X152.33Y-101.68
X152.33Y-102.95
X153.2Y-90.5
X153.6Y-100.41
X153.6Y-101.68
X153.6Y-102.95
X154.0Y-94.4
X155.3Y-105.1
X155.6Y-96.8
X155.7Y-103.35
X155.9Y-93.3
X156.124Y-102.843
X156.4Y-85.6
X156.6Y-102.25
X157.0Y-85.05
X157.1Y-95.85
X160.2Y-105.6
X165.0Y-109.0
T2
X134.2Y-95.95
X134.2Y-99.05
X134.2Y-102.35
X134.2Y-105.7
X138.195Y-88.1
X138.3Y-94.4
X140.395Y-81.5
X142.4Y-101.6
X144.5Y-97.5
X145.4Y-94.1
X154.333Y-97.067
T3
X160.245Y-91.13G85X159.145Y-91.13
G05
X160.245Y-99.77G85X159.145Y-99.77
G05
X164.265Y-91.13G85X163.465Y-91.13
G05
X164.265Y-99.77G85X163.465Y-99.77
G05
T0
M30
