%TF.GenerationSoftware,KiCad,Pcbnew,(6.0.0)*%
%TF.CreationDate,2022-11-27T20:06:58+00:00*%
%TF.ProjectId,Tracer,54726163-6572-42e6-9b69-6361645f7063,F*%
%TF.SameCoordinates,Original*%
%TF.FileFunction,Copper,L4,Bot*%
%TF.FilePolarity,Positive*%
%FSLAX46Y46*%
G04 Gerber Fmt 4.6, Leading zero omitted, Abs format (unit mm)*
G04 Created by KiCad (PCBNEW (6.0.0)) date 2022-11-27 20:06:58*
%MOMM*%
%LPD*%
G01*
G04 APERTURE LIST*
%TA.AperFunction,ComponentPad*%
%ADD10O,2.000000X0.900000*%
%TD*%
%TA.AperFunction,ComponentPad*%
%ADD11O,1.700000X0.900000*%
%TD*%
%TA.AperFunction,SMDPad,CuDef*%
%ADD12R,3.400000X3.600000*%
%TD*%
%TA.AperFunction,ViaPad*%
%ADD13C,0.500000*%
%TD*%
%TA.AperFunction,ViaPad*%
%ADD14C,0.600000*%
%TD*%
%TA.AperFunction,Conductor*%
%ADD15C,0.150000*%
%TD*%
%TA.AperFunction,Conductor*%
%ADD16C,0.200000*%
%TD*%
%TA.AperFunction,Conductor*%
%ADD17C,0.250000*%
%TD*%
G04 APERTURE END LIST*
D10*
%TO.P,J1,S1,SHIELD*%
%TO.N,GND*%
X159695000Y-99770000D03*
D11*
X163865000Y-99770000D03*
X163865000Y-91130000D03*
D10*
X159695000Y-91130000D03*
%TD*%
D12*
%TO.P,BT1,1,+*%
%TO.N,Net-(BT1-Pad1)*%
X162400000Y-96300000D03*
%TO.P,BT1,2,-*%
%TO.N,Net-(BT1-Pad2)*%
X131300000Y-96300000D03*
%TD*%
D13*
%TO.N,+BATT*%
X165000000Y-109000000D03*
X148200000Y-87900000D03*
%TO.N,GND*%
X139000000Y-98600000D03*
X135000000Y-84000000D03*
X144000000Y-82000000D03*
X133250000Y-89950000D03*
X144000000Y-88000000D03*
X133250000Y-91200000D03*
X142000000Y-84000000D03*
X150500000Y-96700000D03*
X151060000Y-102950000D03*
X151060000Y-101680000D03*
X139000000Y-97400000D03*
X135300000Y-91350000D03*
X138000000Y-98600000D03*
X140000000Y-88000000D03*
X135000000Y-88000000D03*
X146000000Y-84000000D03*
X146000000Y-88000000D03*
X135000000Y-82000000D03*
X149679122Y-87879122D03*
X153600000Y-102950000D03*
X152330000Y-100410000D03*
X132750000Y-91200000D03*
X140000000Y-98600000D03*
X140000000Y-97400000D03*
X133800000Y-90000000D03*
X138000000Y-99600000D03*
X154000000Y-94400000D03*
X151060000Y-100410000D03*
X138750000Y-103100000D03*
X135000000Y-86000000D03*
X139000000Y-99600000D03*
X133750000Y-91400000D03*
X152330000Y-102950000D03*
X156600000Y-102250000D03*
X134300000Y-90200000D03*
X140000000Y-99600000D03*
X134100000Y-91800000D03*
X129500000Y-109400000D03*
X157100000Y-95850000D03*
X146000000Y-82000000D03*
X139000000Y-84000000D03*
X152330000Y-101680000D03*
X134700000Y-90500000D03*
X135050000Y-90900000D03*
X142000000Y-88000000D03*
X132750000Y-89900000D03*
X145300000Y-85900000D03*
X153600000Y-101680000D03*
X153600000Y-100410000D03*
D14*
%TO.N,+3V3*%
X140395000Y-81500000D03*
X138300000Y-94400000D03*
X154332671Y-97067329D03*
X134200000Y-95950000D03*
X134200000Y-102350000D03*
X138195000Y-88100000D03*
X134200000Y-105700000D03*
X145400000Y-94100000D03*
X134200000Y-99050000D03*
X142400000Y-101600000D03*
X144500000Y-97500000D03*
D13*
%TO.N,Net-(BT1-Pad2)*%
X150124500Y-89250000D03*
%TO.N,6D_PWR*%
X150800000Y-98174500D03*
X136684166Y-101756944D03*
%TO.N,6D_INT1*%
X148250000Y-98200000D03*
X135450000Y-100450000D03*
%TO.N,6D_INT2*%
X135350000Y-99500000D03*
X147750000Y-94350000D03*
%TO.N,SPICS0*%
X147500000Y-106150000D03*
X149200000Y-110800000D03*
X142702684Y-98397316D03*
X147500000Y-104400000D03*
%TO.N,VUSB*%
X155600000Y-96800000D03*
X155900000Y-93300000D03*
%TO.N,SPIWP*%
X142200000Y-98900000D03*
X147025500Y-103700000D03*
%TO.N,~CE*%
X136350000Y-101200000D03*
X157000000Y-85050000D03*
%TO.N,U0RXD*%
X144000000Y-95475500D03*
X155700000Y-103350000D03*
%TO.N,U0TXD*%
X156124500Y-102842824D03*
X144722497Y-95475500D03*
%TO.N,RTS*%
X152300000Y-105800000D03*
X140294609Y-105716172D03*
%TO.N,DTR*%
X140500000Y-105100000D03*
X155300000Y-105100000D03*
%TO.N,Net-(BT1-Pad1)*%
X160200000Y-105600000D03*
X153200000Y-90500000D03*
X156400000Y-85600000D03*
%TD*%
D15*
%TO.N,+BATT*%
X148200000Y-85850978D02*
X148200000Y-87900000D01*
X150525489Y-83525489D02*
X148200000Y-85850978D01*
X158625489Y-83525489D02*
X165000000Y-89900000D01*
X158625489Y-83525489D02*
X150525489Y-83525489D01*
X165000000Y-109000000D02*
X165000000Y-89900000D01*
%TO.N,+3V3*%
X134200000Y-105700000D02*
X134200000Y-102350000D01*
X134200000Y-102350000D02*
X141650000Y-102350000D01*
D16*
X138300000Y-94400000D02*
X138300000Y-88205000D01*
X138300000Y-94400000D02*
X135750000Y-94400000D01*
D15*
X141650000Y-102350000D02*
X142400000Y-101600000D01*
D16*
X138300000Y-88205000D02*
X138195000Y-88100000D01*
X135750000Y-94400000D02*
X134200000Y-95950000D01*
D15*
X134200000Y-99050000D02*
X134200000Y-95950000D01*
X134200000Y-102350000D02*
X134200000Y-99050000D01*
%TO.N,Net-(BT1-Pad2)*%
X133108228Y-96300000D02*
X136950000Y-92458228D01*
X131300000Y-96300000D02*
X133108228Y-96300000D01*
X136950000Y-92458228D02*
X136950000Y-88550000D01*
X147128939Y-87500000D02*
X148878939Y-89250000D01*
X136950000Y-88550000D02*
X138000000Y-87500000D01*
X148878939Y-89250000D02*
X150124500Y-89250000D01*
X138000000Y-87500000D02*
X147128939Y-87500000D01*
%TO.N,6D_PWR*%
X148600000Y-99600000D02*
X149650000Y-98550000D01*
X138550000Y-101750000D02*
X140100000Y-101750000D01*
X141500000Y-100350000D02*
X141500000Y-98850000D01*
X150424500Y-98550000D02*
X150800000Y-98174500D01*
X142427195Y-97922805D02*
X143022805Y-97922805D01*
X140100000Y-101750000D02*
X141500000Y-100350000D01*
X149650000Y-98550000D02*
X150424500Y-98550000D01*
X136684166Y-101756944D02*
X138543056Y-101756944D01*
X144700000Y-99600000D02*
X148600000Y-99600000D01*
X138543056Y-101756944D02*
X138550000Y-101750000D01*
X141500000Y-98850000D02*
X142427195Y-97922805D01*
X143022805Y-97922805D02*
X144700000Y-99600000D01*
%TO.N,6D_INT1*%
X144547157Y-99023571D02*
X143146871Y-97623285D01*
X142303130Y-97623285D02*
X141200480Y-98725934D01*
X136650000Y-100450000D02*
X135450000Y-100450000D01*
X143146871Y-97623285D02*
X142303130Y-97623285D01*
X137650480Y-101450480D02*
X136650000Y-100450000D01*
X147426429Y-99023571D02*
X144547157Y-99023571D01*
X139975934Y-101450480D02*
X137650480Y-101450480D01*
X148250000Y-98200000D02*
X147426429Y-99023571D01*
X141200480Y-100225934D02*
X139975934Y-101450480D01*
X141200480Y-98725934D02*
X141200480Y-100225934D01*
%TO.N,6D_INT2*%
X140150000Y-94750000D02*
X147350000Y-94750000D01*
X135400000Y-99500000D02*
X140150000Y-94750000D01*
X135350000Y-99500000D02*
X135400000Y-99500000D01*
X147350000Y-94750000D02*
X147750000Y-94350000D01*
%TO.N,SPICS0*%
X147500000Y-109100000D02*
X149200000Y-110800000D01*
X147500000Y-103200000D02*
X147500000Y-104400000D01*
X147500000Y-106150000D02*
X147500000Y-109100000D01*
X142702684Y-98402684D02*
X147500000Y-103200000D01*
X142702684Y-98397316D02*
X142702684Y-98402684D01*
%TO.N,VUSB*%
X155600000Y-93600000D02*
X155900000Y-93300000D01*
X155600000Y-96800000D02*
X155600000Y-93600000D01*
%TO.N,SPIWP*%
X142200000Y-98900000D02*
X147000000Y-103700000D01*
X147000000Y-103700000D02*
X147025500Y-103700000D01*
%TO.N,~CE*%
X144128939Y-90050000D02*
X151350000Y-90050000D01*
X151350000Y-90050000D02*
X151350000Y-89978939D01*
X135450000Y-101200000D02*
X134875489Y-100625489D01*
X136350000Y-101200000D02*
X135450000Y-101200000D01*
X151350000Y-89978939D02*
X156278939Y-85050000D01*
X134875489Y-99303450D02*
X144128939Y-90050000D01*
X156278939Y-85050000D02*
X157000000Y-85050000D01*
X134875489Y-100625489D02*
X134875489Y-99303450D01*
%TO.N,U0RXD*%
X155650000Y-100450000D02*
X155650000Y-103300000D01*
X146224500Y-97700000D02*
X152900000Y-97700000D01*
X152900000Y-97700000D02*
X155650000Y-100450000D01*
X144000000Y-95475500D02*
X146224500Y-97700000D01*
X155650000Y-103300000D02*
X155700000Y-103350000D01*
%TO.N,U0TXD*%
X153024065Y-97400480D02*
X156124500Y-100500915D01*
X146348566Y-97400480D02*
X153024065Y-97400480D01*
X144722497Y-95774411D02*
X146348566Y-97400480D01*
X144722497Y-95475500D02*
X144722497Y-95774411D01*
X156124500Y-100500915D02*
X156124500Y-102842824D01*
%TO.N,RTS*%
X140369028Y-105641753D02*
X152141753Y-105641753D01*
X140369028Y-105641753D02*
X140294609Y-105716172D01*
X152141753Y-105641753D02*
X152300000Y-105800000D01*
%TO.N,DTR*%
X155300000Y-105100000D02*
X140500000Y-105100000D01*
D17*
%TO.N,Net-(BT1-Pad1)*%
X157200000Y-91000000D02*
X162400000Y-96200000D01*
X153700000Y-91000000D02*
X153200000Y-90500000D01*
D15*
X162400000Y-101100000D02*
X162400000Y-96300000D01*
X160800000Y-102700000D02*
X162400000Y-101100000D01*
X156400000Y-87300000D02*
X153200000Y-90500000D01*
X156400000Y-85600000D02*
X156400000Y-87300000D01*
D17*
X153700000Y-91000000D02*
X157200000Y-91000000D01*
D15*
X160800000Y-105000000D02*
X160800000Y-102700000D01*
X160200000Y-105600000D02*
X160800000Y-105000000D01*
%TD*%
%TA.AperFunction,Conductor*%
%TO.N,GND*%
G36*
X164987676Y-75252609D02*
G01*
X164988418Y-75252620D01*
X164997793Y-75255275D01*
X165007239Y-75252887D01*
X165016980Y-75253026D01*
X165016971Y-75253692D01*
X165025663Y-75253099D01*
X165156185Y-75267713D01*
X165170248Y-75270692D01*
X165248100Y-75295293D01*
X165315265Y-75316517D01*
X165328479Y-75322156D01*
X165461898Y-75395155D01*
X165473779Y-75403247D01*
X165590567Y-75500665D01*
X165600659Y-75510902D01*
X165696411Y-75629066D01*
X165704332Y-75641059D01*
X165742511Y-75713256D01*
X165775424Y-75775495D01*
X165780879Y-75788795D01*
X165824007Y-75932345D01*
X165824640Y-75934453D01*
X165827419Y-75948557D01*
X165840176Y-76079266D01*
X165839460Y-76087951D01*
X165840125Y-76087951D01*
X165840125Y-76097695D01*
X165837603Y-76107106D01*
X165840125Y-76116518D01*
X165840372Y-76117440D01*
X165842894Y-76136593D01*
X165842894Y-116770513D01*
X165840372Y-116789666D01*
X165837603Y-116800000D01*
X165840125Y-116809412D01*
X165840125Y-116819153D01*
X165839440Y-116819153D01*
X165840152Y-116827837D01*
X165827275Y-116958573D01*
X165824445Y-116972800D01*
X165780306Y-117118306D01*
X165774754Y-117131708D01*
X165703077Y-117265806D01*
X165695018Y-117277868D01*
X165598558Y-117395406D01*
X165588300Y-117405664D01*
X165470762Y-117502124D01*
X165458700Y-117510183D01*
X165324602Y-117581860D01*
X165311200Y-117587412D01*
X165165694Y-117631551D01*
X165151467Y-117634381D01*
X165020731Y-117647258D01*
X165012047Y-117646546D01*
X165012047Y-117647231D01*
X165002306Y-117647231D01*
X164992894Y-117644709D01*
X164983482Y-117647231D01*
X164982560Y-117647478D01*
X164963407Y-117650000D01*
X130022381Y-117650000D01*
X130003228Y-117647478D01*
X130002306Y-117647231D01*
X129992894Y-117644709D01*
X129983482Y-117647231D01*
X129973741Y-117647231D01*
X129973741Y-117646546D01*
X129965057Y-117647258D01*
X129834321Y-117634381D01*
X129820094Y-117631551D01*
X129674588Y-117587412D01*
X129661186Y-117581860D01*
X129527088Y-117510183D01*
X129515026Y-117502124D01*
X129397488Y-117405664D01*
X129387230Y-117395406D01*
X129290770Y-117277868D01*
X129282711Y-117265806D01*
X129211034Y-117131708D01*
X129205482Y-117118306D01*
X129161343Y-116972800D01*
X129158513Y-116958573D01*
X129145636Y-116827837D01*
X129146348Y-116819151D01*
X129145663Y-116819151D01*
X129145663Y-116809411D01*
X129148185Y-116800000D01*
X129145426Y-116789702D01*
X129142904Y-116770523D01*
X129143888Y-113955291D01*
X129144124Y-113278828D01*
X134150000Y-113278828D01*
X134182779Y-113433039D01*
X134184353Y-113436574D01*
X134245325Y-113573523D01*
X134245328Y-113573527D01*
X134246903Y-113577066D01*
X134339571Y-113704612D01*
X134456733Y-113810105D01*
X134593267Y-113888933D01*
X134743207Y-113937651D01*
X134747056Y-113938056D01*
X134747058Y-113938056D01*
X134887045Y-113952769D01*
X134892877Y-113953382D01*
X134900000Y-113955291D01*
X134909412Y-113952769D01*
X134910334Y-113952522D01*
X134929487Y-113950000D01*
X159870513Y-113950000D01*
X159889666Y-113952522D01*
X159900000Y-113955291D01*
X159907123Y-113953382D01*
X159912955Y-113952769D01*
X160052942Y-113938056D01*
X160052944Y-113938056D01*
X160056793Y-113937651D01*
X160206733Y-113888933D01*
X160343267Y-113810105D01*
X160460429Y-113704612D01*
X160553097Y-113577066D01*
X160554672Y-113573527D01*
X160554675Y-113573523D01*
X160615647Y-113436574D01*
X160617221Y-113433039D01*
X160650000Y-113278828D01*
X160650000Y-113121172D01*
X160617221Y-112966961D01*
X160553097Y-112822935D01*
X160503951Y-112755291D01*
X160462709Y-112698525D01*
X160462705Y-112698520D01*
X160460429Y-112695388D01*
X160343267Y-112589895D01*
X160206733Y-112511067D01*
X160056793Y-112462349D01*
X160052944Y-112461944D01*
X160052942Y-112461944D01*
X159912955Y-112447231D01*
X159907123Y-112446618D01*
X159900000Y-112444709D01*
X159890588Y-112447231D01*
X159889666Y-112447478D01*
X159870513Y-112450000D01*
X134929487Y-112450000D01*
X134910334Y-112447478D01*
X134909412Y-112447231D01*
X134900000Y-112444709D01*
X134892877Y-112446618D01*
X134887045Y-112447231D01*
X134747058Y-112461944D01*
X134747056Y-112461944D01*
X134743207Y-112462349D01*
X134593267Y-112511067D01*
X134456733Y-112589895D01*
X134339571Y-112695388D01*
X134337295Y-112698520D01*
X134337291Y-112698525D01*
X134296049Y-112755291D01*
X134246903Y-112822935D01*
X134182779Y-112966961D01*
X134150000Y-113121172D01*
X134150000Y-113278828D01*
X129144124Y-113278828D01*
X129147190Y-104500000D01*
X129644341Y-104500000D01*
X129664937Y-104735408D01*
X129665770Y-104738518D01*
X129665771Y-104738522D01*
X129707416Y-104893945D01*
X129726097Y-104963663D01*
X129727459Y-104966583D01*
X129727459Y-104966584D01*
X129824599Y-105174901D01*
X129824600Y-105174902D01*
X129825965Y-105177829D01*
X129827818Y-105180476D01*
X129827819Y-105180477D01*
X129941488Y-105342813D01*
X129961505Y-105371401D01*
X130128599Y-105538495D01*
X130131247Y-105540349D01*
X130131248Y-105540350D01*
X130224652Y-105605752D01*
X130322171Y-105674035D01*
X130325093Y-105675398D01*
X130325099Y-105675401D01*
X130443255Y-105730498D01*
X130536337Y-105773903D01*
X130539451Y-105774737D01*
X130539450Y-105774737D01*
X130761478Y-105834229D01*
X130761482Y-105834230D01*
X130764592Y-105835063D01*
X130941034Y-105850500D01*
X131058966Y-105850500D01*
X131235408Y-105835063D01*
X131238518Y-105834230D01*
X131238522Y-105834229D01*
X131460550Y-105774737D01*
X131460549Y-105774737D01*
X131463663Y-105773903D01*
X131556745Y-105730498D01*
X131674901Y-105675401D01*
X131674907Y-105675398D01*
X131677829Y-105674035D01*
X131775348Y-105605752D01*
X131868752Y-105540350D01*
X131868753Y-105540349D01*
X131871401Y-105538495D01*
X132038495Y-105371401D01*
X132174035Y-105177830D01*
X132175398Y-105174908D01*
X132175401Y-105174902D01*
X132272541Y-104966584D01*
X132272541Y-104966583D01*
X132273903Y-104963663D01*
X132292584Y-104893945D01*
X132334229Y-104738522D01*
X132334230Y-104738518D01*
X132335063Y-104735408D01*
X132355659Y-104500000D01*
X132335063Y-104264592D01*
X132308874Y-104166850D01*
X132274737Y-104039450D01*
X132273903Y-104036337D01*
X132225786Y-103933150D01*
X132175401Y-103825099D01*
X132175398Y-103825093D01*
X132174035Y-103822171D01*
X132126708Y-103754581D01*
X132040350Y-103631248D01*
X132040349Y-103631247D01*
X132038495Y-103628599D01*
X131871401Y-103461505D01*
X131720370Y-103355752D01*
X131680477Y-103327819D01*
X131680476Y-103327818D01*
X131677829Y-103325965D01*
X131674907Y-103324602D01*
X131674901Y-103324599D01*
X131466584Y-103227459D01*
X131466583Y-103227459D01*
X131463663Y-103226097D01*
X131381109Y-103203977D01*
X131238522Y-103165771D01*
X131238518Y-103165770D01*
X131235408Y-103164937D01*
X131058966Y-103149500D01*
X130941034Y-103149500D01*
X130764592Y-103164937D01*
X130761482Y-103165770D01*
X130761478Y-103165771D01*
X130618891Y-103203977D01*
X130536337Y-103226097D01*
X130533417Y-103227459D01*
X130533416Y-103227459D01*
X130325099Y-103324599D01*
X130325093Y-103324602D01*
X130322171Y-103325965D01*
X130319524Y-103327818D01*
X130319523Y-103327819D01*
X130279631Y-103355752D01*
X130128599Y-103461505D01*
X129961505Y-103628599D01*
X129825965Y-103822170D01*
X129824602Y-103825092D01*
X129824599Y-103825098D01*
X129774214Y-103933150D01*
X129726097Y-104036337D01*
X129725263Y-104039450D01*
X129691127Y-104166850D01*
X129664937Y-104264592D01*
X129644341Y-104500000D01*
X129147190Y-104500000D01*
X129150691Y-94473974D01*
X129168020Y-94426414D01*
X129211866Y-94401120D01*
X129224691Y-94400000D01*
X129376601Y-94400000D01*
X129424167Y-94417313D01*
X129449477Y-94461150D01*
X129450245Y-94481252D01*
X129450210Y-94481610D01*
X129449500Y-94485180D01*
X129449500Y-98114820D01*
X129458233Y-98158722D01*
X129491496Y-98208504D01*
X129541278Y-98241767D01*
X129548424Y-98243188D01*
X129548425Y-98243189D01*
X129581610Y-98249790D01*
X129581611Y-98249790D01*
X129585180Y-98250500D01*
X133014820Y-98250500D01*
X133018389Y-98249790D01*
X133018390Y-98249790D01*
X133051575Y-98243189D01*
X133051576Y-98243188D01*
X133058722Y-98241767D01*
X133108504Y-98208504D01*
X133141767Y-98158722D01*
X133150500Y-98114820D01*
X133150500Y-96579821D01*
X133167813Y-96532255D01*
X133194397Y-96512222D01*
X133201996Y-96510607D01*
X133208872Y-96505611D01*
X133225849Y-96496394D01*
X133233788Y-96493346D01*
X133251018Y-96476116D01*
X133259848Y-96468575D01*
X133264208Y-96465407D01*
X133279551Y-96454260D01*
X133283438Y-96447527D01*
X133283441Y-96447524D01*
X133283802Y-96446898D01*
X133295561Y-96431573D01*
X133652479Y-96074655D01*
X133698355Y-96053263D01*
X133747250Y-96066364D01*
X133772538Y-96097178D01*
X133813605Y-96190510D01*
X133896639Y-96289291D01*
X133941504Y-96319155D01*
X133971507Y-96359924D01*
X133974500Y-96380756D01*
X133974500Y-98618752D01*
X133957187Y-98666318D01*
X133939987Y-98681336D01*
X133905019Y-98703399D01*
X133901532Y-98707347D01*
X133901531Y-98707348D01*
X133888591Y-98722000D01*
X133819596Y-98800122D01*
X133817357Y-98804891D01*
X133817355Y-98804894D01*
X133784344Y-98875206D01*
X133764754Y-98916932D01*
X133744901Y-99044440D01*
X133745584Y-99049663D01*
X133745584Y-99049666D01*
X133757719Y-99142461D01*
X133761633Y-99172394D01*
X133763756Y-99177219D01*
X133810301Y-99283000D01*
X133813605Y-99290510D01*
X133896639Y-99389291D01*
X133941504Y-99419155D01*
X133971507Y-99459924D01*
X133974500Y-99480756D01*
X133974500Y-101918752D01*
X133957187Y-101966318D01*
X133939987Y-101981336D01*
X133905019Y-102003399D01*
X133901532Y-102007347D01*
X133901531Y-102007348D01*
X133876611Y-102035565D01*
X133819596Y-102100122D01*
X133817357Y-102104891D01*
X133817355Y-102104894D01*
X133773892Y-102197469D01*
X133764754Y-102216932D01*
X133744901Y-102344440D01*
X133761633Y-102472394D01*
X133763756Y-102477219D01*
X133780281Y-102514774D01*
X133813605Y-102590510D01*
X133896639Y-102689291D01*
X133941504Y-102719155D01*
X133971507Y-102759924D01*
X133974500Y-102780756D01*
X133974500Y-105268752D01*
X133957187Y-105316318D01*
X133939987Y-105331336D01*
X133905019Y-105353399D01*
X133901532Y-105357347D01*
X133901531Y-105357348D01*
X133889120Y-105371401D01*
X133819596Y-105450122D01*
X133817357Y-105454891D01*
X133817355Y-105454894D01*
X133793600Y-105505492D01*
X133764754Y-105566932D01*
X133744901Y-105694440D01*
X133745584Y-105699663D01*
X133745584Y-105699666D01*
X133759457Y-105805752D01*
X133761633Y-105822394D01*
X133763756Y-105827219D01*
X133806608Y-105924607D01*
X133813605Y-105940510D01*
X133896639Y-106039291D01*
X134004060Y-106110796D01*
X134009092Y-106112368D01*
X134009094Y-106112369D01*
X134035930Y-106120753D01*
X134127233Y-106149278D01*
X134132501Y-106149375D01*
X134132504Y-106149375D01*
X134186552Y-106150365D01*
X134256255Y-106151643D01*
X134261338Y-106150257D01*
X134261340Y-106150257D01*
X134375671Y-106119086D01*
X134380755Y-106117700D01*
X134490724Y-106050179D01*
X134577322Y-105954507D01*
X134633588Y-105838375D01*
X134654997Y-105711120D01*
X134655133Y-105700000D01*
X134640812Y-105600000D01*
X134637586Y-105577472D01*
X134637585Y-105577469D01*
X134636839Y-105572259D01*
X134629820Y-105556821D01*
X134585610Y-105459586D01*
X134585608Y-105459583D01*
X134583428Y-105454788D01*
X134576003Y-105446170D01*
X134502633Y-105361020D01*
X134502632Y-105361019D01*
X134499193Y-105357028D01*
X134494774Y-105354164D01*
X134494772Y-105354162D01*
X134459251Y-105331139D01*
X134428752Y-105290739D01*
X134425500Y-105269042D01*
X134425500Y-102781626D01*
X134442813Y-102734060D01*
X134460780Y-102718565D01*
X134471366Y-102712065D01*
X134490724Y-102700179D01*
X134565668Y-102617382D01*
X134573784Y-102608416D01*
X134573785Y-102608415D01*
X134577322Y-102604507D01*
X134578050Y-102605166D01*
X134614932Y-102578367D01*
X134635332Y-102575500D01*
X141642139Y-102575500D01*
X141646012Y-102575601D01*
X141678297Y-102577293D01*
X141686064Y-102577700D01*
X141693324Y-102574913D01*
X141693325Y-102574913D01*
X141708809Y-102568969D01*
X141719943Y-102565671D01*
X141743768Y-102560607D01*
X141750644Y-102555611D01*
X141767621Y-102546394D01*
X141775560Y-102543346D01*
X141792790Y-102526116D01*
X141801620Y-102518575D01*
X141821323Y-102504260D01*
X141825210Y-102497527D01*
X141825213Y-102497524D01*
X141825574Y-102496898D01*
X141837333Y-102481573D01*
X142251682Y-102067223D01*
X142297558Y-102045831D01*
X142316828Y-102047917D01*
X142316999Y-102046863D01*
X142322200Y-102047706D01*
X142327233Y-102049278D01*
X142332501Y-102049375D01*
X142332504Y-102049375D01*
X142386552Y-102050365D01*
X142456255Y-102051643D01*
X142461338Y-102050257D01*
X142461340Y-102050257D01*
X142575671Y-102019086D01*
X142580755Y-102017700D01*
X142690724Y-101950179D01*
X142777322Y-101854507D01*
X142833588Y-101738375D01*
X142854997Y-101611120D01*
X142855133Y-101600000D01*
X142836839Y-101472259D01*
X142832247Y-101462159D01*
X142785610Y-101359586D01*
X142785608Y-101359583D01*
X142783428Y-101354788D01*
X142776003Y-101346170D01*
X142702633Y-101261020D01*
X142702632Y-101261019D01*
X142699193Y-101257028D01*
X142694774Y-101254164D01*
X142694772Y-101254162D01*
X142595329Y-101189708D01*
X142595330Y-101189708D01*
X142590906Y-101186841D01*
X142585857Y-101185331D01*
X142585855Y-101185330D01*
X142472326Y-101151377D01*
X142472325Y-101151377D01*
X142467273Y-101149866D01*
X142401771Y-101149466D01*
X142343501Y-101149110D01*
X142343500Y-101149110D01*
X142338231Y-101149078D01*
X142214155Y-101184539D01*
X142105019Y-101253399D01*
X142101531Y-101257348D01*
X142101529Y-101257350D01*
X142094775Y-101264998D01*
X142019596Y-101350122D01*
X142017357Y-101354891D01*
X142017355Y-101354894D01*
X141983022Y-101428022D01*
X141964754Y-101466932D01*
X141944901Y-101594440D01*
X141945584Y-101599663D01*
X141945584Y-101599666D01*
X141956567Y-101683656D01*
X141945568Y-101733066D01*
X141935518Y-101745577D01*
X141578269Y-102102826D01*
X141532393Y-102124218D01*
X141525943Y-102124500D01*
X140139129Y-102124500D01*
X140131006Y-102121544D01*
X140111221Y-102124500D01*
X138614051Y-102124500D01*
X138566485Y-102107187D01*
X138541175Y-102063350D01*
X138549965Y-102013500D01*
X138587530Y-101981416D01*
X138590138Y-101980415D01*
X138616656Y-101975500D01*
X140092139Y-101975500D01*
X140096012Y-101975601D01*
X140115094Y-101976601D01*
X140120997Y-101979107D01*
X140127552Y-101977411D01*
X140128297Y-101977293D01*
X140136064Y-101977700D01*
X140143323Y-101974913D01*
X140143326Y-101974913D01*
X140158809Y-101968969D01*
X140169943Y-101965671D01*
X140193768Y-101960607D01*
X140200644Y-101955611D01*
X140217621Y-101946394D01*
X140225560Y-101943346D01*
X140242790Y-101926116D01*
X140251620Y-101918575D01*
X140271323Y-101904260D01*
X140275210Y-101897527D01*
X140275213Y-101897524D01*
X140275574Y-101896898D01*
X140287333Y-101881573D01*
X141653898Y-100515007D01*
X141656708Y-100512340D01*
X141680728Y-100490712D01*
X141686509Y-100485507D01*
X141689672Y-100478403D01*
X141689674Y-100478400D01*
X141696417Y-100463253D01*
X141701960Y-100453045D01*
X141710989Y-100439142D01*
X141715226Y-100432618D01*
X141716556Y-100424220D01*
X141722042Y-100405699D01*
X141725500Y-100397932D01*
X141725500Y-100373573D01*
X141726411Y-100361997D01*
X141727489Y-100355189D01*
X141730222Y-100337935D01*
X141728209Y-100330423D01*
X141728209Y-100330419D01*
X141728022Y-100329722D01*
X141725500Y-100310569D01*
X141725500Y-99159149D01*
X141742813Y-99111583D01*
X141786650Y-99086273D01*
X141836500Y-99095063D01*
X141865433Y-99125552D01*
X141871950Y-99138342D01*
X141961658Y-99228050D01*
X141966848Y-99230694D01*
X141966850Y-99230696D01*
X142069502Y-99283000D01*
X142069505Y-99283001D01*
X142074696Y-99285646D01*
X142080448Y-99286557D01*
X142080451Y-99286558D01*
X142194248Y-99304581D01*
X142200000Y-99305492D01*
X142237507Y-99299551D01*
X142287194Y-99309209D01*
X142301408Y-99320314D01*
X146601699Y-103620604D01*
X146623091Y-103666480D01*
X146622462Y-103684505D01*
X146620008Y-103700000D01*
X146620919Y-103705752D01*
X146638942Y-103819549D01*
X146638943Y-103819552D01*
X146639854Y-103825304D01*
X146642499Y-103830495D01*
X146642500Y-103830498D01*
X146694804Y-103933150D01*
X146694806Y-103933152D01*
X146697450Y-103938342D01*
X146787158Y-104028050D01*
X146792348Y-104030694D01*
X146792350Y-104030696D01*
X146895002Y-104083000D01*
X146895005Y-104083001D01*
X146900196Y-104085646D01*
X146905948Y-104086557D01*
X146905951Y-104086558D01*
X147019748Y-104104581D01*
X147025500Y-104105492D01*
X147072493Y-104098049D01*
X147122181Y-104107707D01*
X147154036Y-104147046D01*
X147153153Y-104197657D01*
X147150002Y-104204733D01*
X147121089Y-104261478D01*
X147114354Y-104274696D01*
X147113443Y-104280448D01*
X147113442Y-104280451D01*
X147095419Y-104394248D01*
X147094508Y-104400000D01*
X147095419Y-104405752D01*
X147113442Y-104519549D01*
X147113443Y-104519552D01*
X147114354Y-104525304D01*
X147116999Y-104530495D01*
X147117000Y-104530498D01*
X147169304Y-104633150D01*
X147169306Y-104633152D01*
X147171950Y-104638342D01*
X147261658Y-104728050D01*
X147274448Y-104734567D01*
X147308969Y-104771587D01*
X147311617Y-104822136D01*
X147281154Y-104862562D01*
X147240851Y-104874500D01*
X140871544Y-104874500D01*
X140823978Y-104857187D01*
X140819218Y-104852826D01*
X140738342Y-104771950D01*
X140733152Y-104769306D01*
X140733150Y-104769304D01*
X140630498Y-104717000D01*
X140630495Y-104716999D01*
X140625304Y-104714354D01*
X140619552Y-104713443D01*
X140619549Y-104713442D01*
X140505752Y-104695419D01*
X140500000Y-104694508D01*
X140494248Y-104695419D01*
X140380451Y-104713442D01*
X140380448Y-104713443D01*
X140374696Y-104714354D01*
X140369505Y-104716999D01*
X140369502Y-104717000D01*
X140266850Y-104769304D01*
X140266848Y-104769306D01*
X140261658Y-104771950D01*
X140171950Y-104861658D01*
X140169306Y-104866848D01*
X140169304Y-104866850D01*
X140118487Y-104966584D01*
X140114354Y-104974696D01*
X140113443Y-104980448D01*
X140113442Y-104980451D01*
X140101525Y-105055695D01*
X140094508Y-105100000D01*
X140095419Y-105105752D01*
X140113442Y-105219549D01*
X140113443Y-105219552D01*
X140114354Y-105225304D01*
X140117001Y-105230498D01*
X140134648Y-105265133D01*
X140140817Y-105315374D01*
X140113248Y-105357827D01*
X140102312Y-105364661D01*
X140056267Y-105388122D01*
X139966559Y-105477830D01*
X139963915Y-105483020D01*
X139963913Y-105483022D01*
X139911609Y-105585674D01*
X139908963Y-105590868D01*
X139908052Y-105596620D01*
X139908051Y-105596623D01*
X139892839Y-105692669D01*
X139889117Y-105716172D01*
X139890028Y-105721924D01*
X139908051Y-105835721D01*
X139908052Y-105835724D01*
X139908963Y-105841476D01*
X139911608Y-105846667D01*
X139911609Y-105846670D01*
X139963913Y-105949322D01*
X139963915Y-105949324D01*
X139966559Y-105954514D01*
X140056267Y-106044222D01*
X140061457Y-106046866D01*
X140061459Y-106046868D01*
X140164111Y-106099172D01*
X140164114Y-106099173D01*
X140169305Y-106101818D01*
X140175057Y-106102729D01*
X140175060Y-106102730D01*
X140288857Y-106120753D01*
X140294609Y-106121664D01*
X140300361Y-106120753D01*
X140414158Y-106102730D01*
X140414161Y-106102729D01*
X140419913Y-106101818D01*
X140425104Y-106099173D01*
X140425107Y-106099172D01*
X140527759Y-106046868D01*
X140527761Y-106046866D01*
X140532951Y-106044222D01*
X140622659Y-105954514D01*
X140646535Y-105907655D01*
X140683553Y-105873136D01*
X140712467Y-105867253D01*
X147073819Y-105867253D01*
X147121385Y-105884566D01*
X147146695Y-105928403D01*
X147139753Y-105974848D01*
X147114354Y-106024696D01*
X147113443Y-106030448D01*
X147113442Y-106030451D01*
X147097565Y-106130696D01*
X147094508Y-106150000D01*
X147095419Y-106155752D01*
X147113442Y-106269549D01*
X147113443Y-106269552D01*
X147114354Y-106275304D01*
X147116999Y-106280495D01*
X147117000Y-106280498D01*
X147169304Y-106383150D01*
X147169306Y-106383152D01*
X147171950Y-106388342D01*
X147252826Y-106469218D01*
X147274218Y-106515094D01*
X147274500Y-106521544D01*
X147274500Y-109092139D01*
X147274399Y-109096012D01*
X147273166Y-109119549D01*
X147272300Y-109136064D01*
X147275087Y-109143324D01*
X147275087Y-109143325D01*
X147281031Y-109158809D01*
X147284329Y-109169942D01*
X147289393Y-109193768D01*
X147294389Y-109200644D01*
X147303606Y-109217621D01*
X147306654Y-109225560D01*
X147323884Y-109242790D01*
X147331424Y-109251619D01*
X147345740Y-109271323D01*
X147352473Y-109275210D01*
X147352476Y-109275213D01*
X147353102Y-109275574D01*
X147368427Y-109287333D01*
X148779686Y-110698591D01*
X148801078Y-110744467D01*
X148800449Y-110762489D01*
X148794508Y-110800000D01*
X148795419Y-110805752D01*
X148813442Y-110919549D01*
X148813443Y-110919552D01*
X148814354Y-110925304D01*
X148816999Y-110930495D01*
X148817000Y-110930498D01*
X148869304Y-111033150D01*
X148869306Y-111033152D01*
X148871950Y-111038342D01*
X148961658Y-111128050D01*
X148966848Y-111130694D01*
X148966850Y-111130696D01*
X149069502Y-111183000D01*
X149069505Y-111183001D01*
X149074696Y-111185646D01*
X149080448Y-111186557D01*
X149080451Y-111186558D01*
X149194248Y-111204581D01*
X149200000Y-111205492D01*
X149205752Y-111204581D01*
X149319549Y-111186558D01*
X149319552Y-111186557D01*
X149325304Y-111185646D01*
X149330495Y-111183001D01*
X149330498Y-111183000D01*
X149433150Y-111130696D01*
X149433152Y-111130694D01*
X149438342Y-111128050D01*
X149528050Y-111038342D01*
X149530694Y-111033152D01*
X149530696Y-111033150D01*
X149583000Y-110930498D01*
X149583001Y-110930495D01*
X149585646Y-110925304D01*
X149586557Y-110919552D01*
X149586558Y-110919549D01*
X149604581Y-110805752D01*
X149605492Y-110800000D01*
X149596697Y-110744467D01*
X149586558Y-110680451D01*
X149586557Y-110680448D01*
X149585646Y-110674696D01*
X149583000Y-110669502D01*
X149530696Y-110566850D01*
X149530694Y-110566848D01*
X149528050Y-110561658D01*
X149438342Y-110471950D01*
X149433152Y-110469306D01*
X149433150Y-110469304D01*
X149330498Y-110417000D01*
X149330495Y-110416999D01*
X149325304Y-110414354D01*
X149319552Y-110413443D01*
X149319549Y-110413442D01*
X149205752Y-110395419D01*
X149200000Y-110394508D01*
X149162493Y-110400449D01*
X149112806Y-110390791D01*
X149098592Y-110379686D01*
X147747174Y-109028269D01*
X147725782Y-108982393D01*
X147725500Y-108975943D01*
X147725500Y-108381105D01*
X162999031Y-108381105D01*
X163038612Y-108545968D01*
X163116375Y-108696631D01*
X163119304Y-108699989D01*
X163119305Y-108699990D01*
X163177631Y-108766850D01*
X163227831Y-108824396D01*
X163231485Y-108826964D01*
X163231486Y-108826965D01*
X163238427Y-108831843D01*
X163366547Y-108921887D01*
X163524513Y-108983476D01*
X163653826Y-109000500D01*
X163742516Y-109000500D01*
X163744729Y-109000232D01*
X163744732Y-109000232D01*
X163863891Y-108985812D01*
X163868320Y-108985276D01*
X163969865Y-108946905D01*
X164022753Y-108926921D01*
X164022755Y-108926920D01*
X164026923Y-108925345D01*
X164108175Y-108869502D01*
X164162969Y-108831843D01*
X164162971Y-108831841D01*
X164166651Y-108829312D01*
X164279440Y-108702721D01*
X164358776Y-108552881D01*
X164359863Y-108548554D01*
X164398994Y-108392769D01*
X164398994Y-108392768D01*
X164400081Y-108388441D01*
X164400969Y-108218895D01*
X164361388Y-108054032D01*
X164283625Y-107903369D01*
X164280695Y-107900010D01*
X164175104Y-107778968D01*
X164175102Y-107778966D01*
X164172169Y-107775604D01*
X164165175Y-107770688D01*
X164037105Y-107680680D01*
X164033453Y-107678113D01*
X163875487Y-107616524D01*
X163746174Y-107599500D01*
X163657484Y-107599500D01*
X163655271Y-107599768D01*
X163655268Y-107599768D01*
X163536109Y-107614188D01*
X163531680Y-107614724D01*
X163430135Y-107653095D01*
X163377247Y-107673079D01*
X163377245Y-107673080D01*
X163373077Y-107674655D01*
X163369402Y-107677181D01*
X163237031Y-107768157D01*
X163237029Y-107768159D01*
X163233349Y-107770688D01*
X163120560Y-107897279D01*
X163041224Y-108047119D01*
X163040137Y-108051445D01*
X163040137Y-108051446D01*
X163039488Y-108054032D01*
X162999919Y-108211559D01*
X162999031Y-108381105D01*
X147725500Y-108381105D01*
X147725500Y-106521544D01*
X147742813Y-106473978D01*
X147747174Y-106469218D01*
X147828050Y-106388342D01*
X147830694Y-106383152D01*
X147830696Y-106383150D01*
X147883000Y-106280498D01*
X147883001Y-106280495D01*
X147885646Y-106275304D01*
X147886557Y-106269552D01*
X147886558Y-106269549D01*
X147904581Y-106155752D01*
X147905492Y-106150000D01*
X147902435Y-106130696D01*
X147886558Y-106030451D01*
X147886557Y-106030448D01*
X147885646Y-106024696D01*
X147860247Y-105974848D01*
X147854078Y-105924607D01*
X147881647Y-105882154D01*
X147926181Y-105867253D01*
X151842686Y-105867253D01*
X151890252Y-105884566D01*
X151913064Y-105918384D01*
X151913443Y-105919549D01*
X151914354Y-105925304D01*
X151916999Y-105930495D01*
X151917000Y-105930498D01*
X151969304Y-106033150D01*
X151969306Y-106033152D01*
X151971950Y-106038342D01*
X152061658Y-106128050D01*
X152066848Y-106130694D01*
X152066850Y-106130696D01*
X152169502Y-106183000D01*
X152169505Y-106183001D01*
X152174696Y-106185646D01*
X152180448Y-106186557D01*
X152180451Y-106186558D01*
X152294248Y-106204581D01*
X152300000Y-106205492D01*
X152305752Y-106204581D01*
X152419549Y-106186558D01*
X152419552Y-106186557D01*
X152425304Y-106185646D01*
X152430495Y-106183001D01*
X152430498Y-106183000D01*
X152533150Y-106130696D01*
X152533152Y-106130694D01*
X152538342Y-106128050D01*
X152628050Y-106038342D01*
X152630694Y-106033152D01*
X152630696Y-106033150D01*
X152683000Y-105930498D01*
X152683001Y-105930495D01*
X152685646Y-105925304D01*
X152686557Y-105919552D01*
X152686558Y-105919549D01*
X152704581Y-105805752D01*
X152705492Y-105800000D01*
X152694484Y-105730498D01*
X152686558Y-105680451D01*
X152686557Y-105680448D01*
X152685646Y-105674696D01*
X152683000Y-105669502D01*
X152630696Y-105566850D01*
X152630694Y-105566848D01*
X152628050Y-105561658D01*
X152538342Y-105471950D01*
X152525552Y-105465433D01*
X152491031Y-105428413D01*
X152488383Y-105377864D01*
X152518846Y-105337438D01*
X152559149Y-105325500D01*
X154928456Y-105325500D01*
X154976022Y-105342813D01*
X154980782Y-105347174D01*
X155061658Y-105428050D01*
X155066848Y-105430694D01*
X155066850Y-105430696D01*
X155169502Y-105483000D01*
X155169505Y-105483001D01*
X155174696Y-105485646D01*
X155180448Y-105486557D01*
X155180451Y-105486558D01*
X155294248Y-105504581D01*
X155300000Y-105505492D01*
X155305752Y-105504581D01*
X155419549Y-105486558D01*
X155419552Y-105486557D01*
X155425304Y-105485646D01*
X155430495Y-105483001D01*
X155430498Y-105483000D01*
X155533150Y-105430696D01*
X155533152Y-105430694D01*
X155538342Y-105428050D01*
X155628050Y-105338342D01*
X155630694Y-105333152D01*
X155630696Y-105333150D01*
X155683000Y-105230498D01*
X155683001Y-105230495D01*
X155685646Y-105225304D01*
X155686557Y-105219552D01*
X155686558Y-105219549D01*
X155704581Y-105105752D01*
X155705492Y-105100000D01*
X155698475Y-105055695D01*
X155686558Y-104980451D01*
X155686557Y-104980448D01*
X155685646Y-104974696D01*
X155681513Y-104966584D01*
X155630696Y-104866850D01*
X155630694Y-104866848D01*
X155628050Y-104861658D01*
X155538342Y-104771950D01*
X155533152Y-104769306D01*
X155533150Y-104769304D01*
X155430498Y-104717000D01*
X155430495Y-104716999D01*
X155425304Y-104714354D01*
X155419552Y-104713443D01*
X155419549Y-104713442D01*
X155305752Y-104695419D01*
X155300000Y-104694508D01*
X155294248Y-104695419D01*
X155180451Y-104713442D01*
X155180448Y-104713443D01*
X155174696Y-104714354D01*
X155169505Y-104716999D01*
X155169502Y-104717000D01*
X155066850Y-104769304D01*
X155066848Y-104769306D01*
X155061658Y-104771950D01*
X154980782Y-104852826D01*
X154934906Y-104874218D01*
X154928456Y-104874500D01*
X147759149Y-104874500D01*
X147711583Y-104857187D01*
X147686273Y-104813350D01*
X147695063Y-104763500D01*
X147725552Y-104734567D01*
X147738342Y-104728050D01*
X147828050Y-104638342D01*
X147830694Y-104633152D01*
X147830696Y-104633150D01*
X147883000Y-104530498D01*
X147883001Y-104530495D01*
X147885646Y-104525304D01*
X147886557Y-104519552D01*
X147886558Y-104519549D01*
X147904581Y-104405752D01*
X147905492Y-104400000D01*
X147904581Y-104394248D01*
X147886558Y-104280451D01*
X147886557Y-104280448D01*
X147885646Y-104274696D01*
X147880498Y-104264592D01*
X147830696Y-104166850D01*
X147830694Y-104166848D01*
X147828050Y-104161658D01*
X147747174Y-104080782D01*
X147725782Y-104034906D01*
X147725500Y-104028456D01*
X147725500Y-103207849D01*
X147725601Y-103203977D01*
X147727292Y-103171702D01*
X147727699Y-103163936D01*
X147724913Y-103156678D01*
X147724912Y-103156673D01*
X147718970Y-103141195D01*
X147715672Y-103130061D01*
X147714343Y-103123811D01*
X147710607Y-103106232D01*
X147705607Y-103099349D01*
X147696392Y-103082377D01*
X147696133Y-103081702D01*
X147696133Y-103081701D01*
X147693345Y-103074440D01*
X147676119Y-103057214D01*
X147668578Y-103048384D01*
X147658831Y-103034969D01*
X147654260Y-103028677D01*
X147646897Y-103024426D01*
X147631571Y-103012666D01*
X144560687Y-99941782D01*
X144539295Y-99895906D01*
X144552396Y-99847011D01*
X144593860Y-99817977D01*
X144624600Y-99816369D01*
X144625793Y-99816558D01*
X144644301Y-99822042D01*
X144652068Y-99825500D01*
X144676427Y-99825500D01*
X144688003Y-99826411D01*
X144712065Y-99830222D01*
X144719577Y-99828209D01*
X144719581Y-99828209D01*
X144720278Y-99828022D01*
X144739431Y-99825500D01*
X148592139Y-99825500D01*
X148596012Y-99825601D01*
X148628297Y-99827293D01*
X148636064Y-99827700D01*
X148643324Y-99824913D01*
X148643325Y-99824913D01*
X148658809Y-99818969D01*
X148669943Y-99815671D01*
X148693768Y-99810607D01*
X148700644Y-99805611D01*
X148717621Y-99796394D01*
X148725560Y-99793346D01*
X148742790Y-99776116D01*
X148751620Y-99768575D01*
X148771323Y-99754260D01*
X148775210Y-99747527D01*
X148775213Y-99747524D01*
X148775574Y-99746898D01*
X148787333Y-99731573D01*
X149235906Y-99283000D01*
X149721731Y-98797174D01*
X149767607Y-98775782D01*
X149774057Y-98775500D01*
X150416639Y-98775500D01*
X150420512Y-98775601D01*
X150452797Y-98777293D01*
X150460564Y-98777700D01*
X150467824Y-98774913D01*
X150467825Y-98774913D01*
X150483309Y-98768969D01*
X150494443Y-98765671D01*
X150495883Y-98765365D01*
X150518268Y-98760607D01*
X150525144Y-98755611D01*
X150542121Y-98746394D01*
X150550060Y-98743346D01*
X150567290Y-98726116D01*
X150576120Y-98718575D01*
X150579287Y-98716274D01*
X150595823Y-98704260D01*
X150599710Y-98697527D01*
X150599713Y-98697524D01*
X150600074Y-98696898D01*
X150611833Y-98681573D01*
X150652667Y-98640739D01*
X150698591Y-98594814D01*
X150744467Y-98573422D01*
X150762489Y-98574051D01*
X150800000Y-98579992D01*
X150805752Y-98579081D01*
X150919549Y-98561058D01*
X150919552Y-98561057D01*
X150925304Y-98560146D01*
X150930495Y-98557501D01*
X150930498Y-98557500D01*
X151033150Y-98505196D01*
X151033152Y-98505194D01*
X151038342Y-98502550D01*
X151128050Y-98412842D01*
X151130694Y-98407652D01*
X151130696Y-98407650D01*
X151183000Y-98304998D01*
X151183001Y-98304995D01*
X151185646Y-98299804D01*
X151186557Y-98294052D01*
X151186558Y-98294049D01*
X151204581Y-98180252D01*
X151204581Y-98180250D01*
X151205492Y-98174500D01*
X151195463Y-98111180D01*
X151186558Y-98054951D01*
X151186557Y-98054948D01*
X151185646Y-98049196D01*
X151177442Y-98033094D01*
X151171273Y-97982854D01*
X151198841Y-97940401D01*
X151243376Y-97925500D01*
X152775942Y-97925500D01*
X152823508Y-97942813D01*
X152828268Y-97947174D01*
X155402826Y-100521731D01*
X155424218Y-100567607D01*
X155424500Y-100574057D01*
X155424500Y-103028456D01*
X155407187Y-103076022D01*
X155402826Y-103080782D01*
X155371950Y-103111658D01*
X155369306Y-103116848D01*
X155369304Y-103116850D01*
X155322938Y-103207849D01*
X155314354Y-103224696D01*
X155313443Y-103230448D01*
X155313442Y-103230451D01*
X155298021Y-103327819D01*
X155294508Y-103350000D01*
X155295419Y-103355752D01*
X155313442Y-103469549D01*
X155313443Y-103469552D01*
X155314354Y-103475304D01*
X155316999Y-103480495D01*
X155317000Y-103480498D01*
X155369304Y-103583150D01*
X155369306Y-103583152D01*
X155371950Y-103588342D01*
X155461658Y-103678050D01*
X155466848Y-103680694D01*
X155466850Y-103680696D01*
X155569502Y-103733000D01*
X155569505Y-103733001D01*
X155574696Y-103735646D01*
X155580448Y-103736557D01*
X155580451Y-103736558D01*
X155694248Y-103754581D01*
X155700000Y-103755492D01*
X155705752Y-103754581D01*
X155819549Y-103736558D01*
X155819552Y-103736557D01*
X155825304Y-103735646D01*
X155830495Y-103733001D01*
X155830498Y-103733000D01*
X155933150Y-103680696D01*
X155933152Y-103680694D01*
X155938342Y-103678050D01*
X156028050Y-103588342D01*
X156030694Y-103583152D01*
X156030696Y-103583150D01*
X156083000Y-103480498D01*
X156083001Y-103480495D01*
X156085646Y-103475304D01*
X156086557Y-103469552D01*
X156086558Y-103469549D01*
X156104581Y-103355752D01*
X156105492Y-103350000D01*
X156101822Y-103326830D01*
X156111480Y-103277142D01*
X156150818Y-103245286D01*
X156163333Y-103242166D01*
X156186452Y-103238504D01*
X156244049Y-103229382D01*
X156244052Y-103229381D01*
X156249804Y-103228470D01*
X156254995Y-103225825D01*
X156254998Y-103225824D01*
X156357650Y-103173520D01*
X156357652Y-103173518D01*
X156362842Y-103170874D01*
X156452550Y-103081166D01*
X156455194Y-103075976D01*
X156455196Y-103075974D01*
X156507500Y-102973322D01*
X156507501Y-102973319D01*
X156510146Y-102968128D01*
X156511057Y-102962376D01*
X156511058Y-102962373D01*
X156529081Y-102848576D01*
X156529992Y-102842824D01*
X156522165Y-102793406D01*
X156511058Y-102723275D01*
X156511057Y-102723272D01*
X156510146Y-102717520D01*
X156503452Y-102704382D01*
X156455196Y-102609674D01*
X156455194Y-102609672D01*
X156452550Y-102604482D01*
X156371674Y-102523606D01*
X156350282Y-102477730D01*
X156350000Y-102471280D01*
X156350000Y-100508776D01*
X156350101Y-100504903D01*
X156351793Y-100472618D01*
X156352200Y-100464851D01*
X156349412Y-100457587D01*
X156343471Y-100442109D01*
X156340173Y-100430978D01*
X156336724Y-100414754D01*
X156335107Y-100407147D01*
X156330537Y-100400857D01*
X156330536Y-100400855D01*
X156330109Y-100400268D01*
X156320891Y-100383291D01*
X156320632Y-100382616D01*
X156317845Y-100375355D01*
X156300619Y-100358129D01*
X156293078Y-100349299D01*
X156278760Y-100329592D01*
X156271397Y-100325341D01*
X156256071Y-100313581D01*
X155794758Y-99852268D01*
X158550654Y-99852268D01*
X158559811Y-99921823D01*
X158562300Y-99931112D01*
X158619044Y-100068104D01*
X158623856Y-100076439D01*
X158714120Y-100194074D01*
X158720926Y-100200880D01*
X158838561Y-100291144D01*
X158846896Y-100295956D01*
X158983888Y-100352700D01*
X158993177Y-100355189D01*
X159103270Y-100369683D01*
X159108105Y-100370000D01*
X159606952Y-100370000D01*
X159616948Y-100366362D01*
X159620000Y-100361075D01*
X159620000Y-100356952D01*
X159770000Y-100356952D01*
X159773638Y-100366948D01*
X159778925Y-100370000D01*
X160281895Y-100370000D01*
X160286730Y-100369683D01*
X160396823Y-100355189D01*
X160406112Y-100352700D01*
X160543104Y-100295956D01*
X160551439Y-100291144D01*
X160669074Y-100200880D01*
X160675880Y-100194074D01*
X160766144Y-100076439D01*
X160770956Y-100068105D01*
X160827700Y-99931112D01*
X160830189Y-99921823D01*
X160838600Y-99857937D01*
X160836297Y-99847551D01*
X160832972Y-99845000D01*
X159783048Y-99845000D01*
X159773052Y-99848638D01*
X159770000Y-99853925D01*
X159770000Y-100356952D01*
X159620000Y-100356952D01*
X159620000Y-99858048D01*
X159616362Y-99848052D01*
X159611075Y-99845000D01*
X158562745Y-99845000D01*
X158552749Y-99848638D01*
X158550654Y-99852268D01*
X155794758Y-99852268D01*
X155624553Y-99682063D01*
X158551400Y-99682063D01*
X158553703Y-99692449D01*
X158557028Y-99695000D01*
X159606952Y-99695000D01*
X159616948Y-99691362D01*
X159620000Y-99686075D01*
X159620000Y-99681952D01*
X159770000Y-99681952D01*
X159773638Y-99691948D01*
X159778925Y-99695000D01*
X160827255Y-99695000D01*
X160837251Y-99691362D01*
X160839346Y-99687732D01*
X160830189Y-99618177D01*
X160827700Y-99608888D01*
X160770956Y-99471896D01*
X160766144Y-99463561D01*
X160675880Y-99345926D01*
X160669074Y-99339120D01*
X160551439Y-99248856D01*
X160543104Y-99244044D01*
X160406112Y-99187300D01*
X160396823Y-99184811D01*
X160286730Y-99170317D01*
X160281895Y-99170000D01*
X159783048Y-99170000D01*
X159773052Y-99173638D01*
X159770000Y-99178925D01*
X159770000Y-99681952D01*
X159620000Y-99681952D01*
X159620000Y-99183048D01*
X159616362Y-99173052D01*
X159611075Y-99170000D01*
X159108105Y-99170000D01*
X159103270Y-99170317D01*
X158993177Y-99184811D01*
X158983888Y-99187300D01*
X158846896Y-99244044D01*
X158838561Y-99248856D01*
X158720926Y-99339120D01*
X158714120Y-99345926D01*
X158623856Y-99463561D01*
X158619044Y-99471895D01*
X158562300Y-99608888D01*
X158559811Y-99618177D01*
X158551400Y-99682063D01*
X155624553Y-99682063D01*
X153189072Y-97246582D01*
X153186405Y-97243772D01*
X153164777Y-97219752D01*
X153159572Y-97213971D01*
X153152468Y-97210808D01*
X153152465Y-97210806D01*
X153137318Y-97204063D01*
X153127110Y-97198520D01*
X153113207Y-97189491D01*
X153106683Y-97185254D01*
X153099001Y-97184037D01*
X153099000Y-97184037D01*
X153098285Y-97183924D01*
X153079764Y-97178438D01*
X153071997Y-97174980D01*
X153047638Y-97174980D01*
X153036062Y-97174069D01*
X153025890Y-97172458D01*
X153012000Y-97170258D01*
X153004488Y-97172271D01*
X153004484Y-97172271D01*
X153003787Y-97172458D01*
X152984634Y-97174980D01*
X146472623Y-97174980D01*
X146425057Y-97157667D01*
X146420297Y-97153306D01*
X146328760Y-97061769D01*
X153877572Y-97061769D01*
X153878255Y-97066992D01*
X153878255Y-97066995D01*
X153893546Y-97183924D01*
X153894304Y-97189723D01*
X153946276Y-97307839D01*
X154029310Y-97406620D01*
X154136731Y-97478125D01*
X154141763Y-97479697D01*
X154141765Y-97479698D01*
X154172289Y-97489234D01*
X154259904Y-97516607D01*
X154265172Y-97516704D01*
X154265175Y-97516704D01*
X154319223Y-97517694D01*
X154388926Y-97518972D01*
X154394009Y-97517586D01*
X154394011Y-97517586D01*
X154508342Y-97486415D01*
X154513426Y-97485029D01*
X154623395Y-97417508D01*
X154709993Y-97321836D01*
X154766259Y-97205704D01*
X154786510Y-97085330D01*
X154787193Y-97081273D01*
X154787193Y-97081272D01*
X154787668Y-97078449D01*
X154787804Y-97067329D01*
X154786262Y-97056563D01*
X154770257Y-96944801D01*
X154770256Y-96944798D01*
X154769510Y-96939588D01*
X154764918Y-96929488D01*
X154718281Y-96826915D01*
X154718279Y-96826912D01*
X154716099Y-96822117D01*
X154708674Y-96813499D01*
X154697043Y-96800000D01*
X155194508Y-96800000D01*
X155195419Y-96805752D01*
X155213442Y-96919549D01*
X155213443Y-96919552D01*
X155214354Y-96925304D01*
X155216999Y-96930495D01*
X155217000Y-96930498D01*
X155269304Y-97033150D01*
X155269306Y-97033152D01*
X155271950Y-97038342D01*
X155361658Y-97128050D01*
X155366848Y-97130694D01*
X155366850Y-97130696D01*
X155469502Y-97183000D01*
X155469505Y-97183001D01*
X155474696Y-97185646D01*
X155480448Y-97186557D01*
X155480451Y-97186558D01*
X155594248Y-97204581D01*
X155600000Y-97205492D01*
X155605752Y-97204581D01*
X155719549Y-97186558D01*
X155719552Y-97186557D01*
X155725304Y-97185646D01*
X155730495Y-97183001D01*
X155730498Y-97183000D01*
X155833150Y-97130696D01*
X155833152Y-97130694D01*
X155838342Y-97128050D01*
X155928050Y-97038342D01*
X155930694Y-97033152D01*
X155930696Y-97033150D01*
X155983000Y-96930498D01*
X155983001Y-96930495D01*
X155985646Y-96925304D01*
X155986557Y-96919552D01*
X155986558Y-96919549D01*
X156004581Y-96805752D01*
X156005492Y-96800000D01*
X155994144Y-96728349D01*
X155986558Y-96680451D01*
X155986557Y-96680448D01*
X155985646Y-96674696D01*
X155983000Y-96669502D01*
X155930696Y-96566850D01*
X155930694Y-96566848D01*
X155928050Y-96561658D01*
X155847174Y-96480782D01*
X155825782Y-96434906D01*
X155825500Y-96428456D01*
X155825500Y-93778581D01*
X155842813Y-93731015D01*
X155886650Y-93705705D01*
X155896117Y-93704877D01*
X155900000Y-93705492D01*
X155905752Y-93704581D01*
X156019549Y-93686558D01*
X156019552Y-93686557D01*
X156025304Y-93685646D01*
X156030495Y-93683001D01*
X156030498Y-93683000D01*
X156133150Y-93630696D01*
X156133152Y-93630694D01*
X156138342Y-93628050D01*
X156228050Y-93538342D01*
X156230694Y-93533152D01*
X156230696Y-93533150D01*
X156283000Y-93430498D01*
X156283001Y-93430495D01*
X156285646Y-93425304D01*
X156286557Y-93419552D01*
X156286558Y-93419549D01*
X156304581Y-93305752D01*
X156304581Y-93305750D01*
X156305492Y-93300000D01*
X156304581Y-93294248D01*
X156286558Y-93180451D01*
X156286557Y-93180448D01*
X156285646Y-93174696D01*
X156283000Y-93169502D01*
X156230696Y-93066850D01*
X156230694Y-93066848D01*
X156228050Y-93061658D01*
X156138342Y-92971950D01*
X156133152Y-92969306D01*
X156133150Y-92969304D01*
X156030498Y-92917000D01*
X156030495Y-92916999D01*
X156025304Y-92914354D01*
X156019552Y-92913443D01*
X156019549Y-92913442D01*
X155905752Y-92895419D01*
X155900000Y-92894508D01*
X155894248Y-92895419D01*
X155780451Y-92913442D01*
X155780448Y-92913443D01*
X155774696Y-92914354D01*
X155769505Y-92916999D01*
X155769502Y-92917000D01*
X155666850Y-92969304D01*
X155666848Y-92969306D01*
X155661658Y-92971950D01*
X155571950Y-93061658D01*
X155569306Y-93066848D01*
X155569304Y-93066850D01*
X155517000Y-93169502D01*
X155514354Y-93174696D01*
X155513443Y-93180448D01*
X155513442Y-93180451D01*
X155495419Y-93294248D01*
X155494508Y-93300000D01*
X155500449Y-93337508D01*
X155490791Y-93387195D01*
X155479686Y-93401409D01*
X155446102Y-93434993D01*
X155443292Y-93437660D01*
X155413491Y-93464493D01*
X155410328Y-93471597D01*
X155410326Y-93471600D01*
X155403583Y-93486747D01*
X155398040Y-93496954D01*
X155384774Y-93517382D01*
X155383557Y-93525064D01*
X155383557Y-93525065D01*
X155383444Y-93525780D01*
X155377958Y-93544301D01*
X155374500Y-93552068D01*
X155374500Y-93576427D01*
X155373589Y-93588003D01*
X155369778Y-93612065D01*
X155371791Y-93619577D01*
X155371791Y-93619581D01*
X155371978Y-93620278D01*
X155374500Y-93639431D01*
X155374500Y-96428456D01*
X155357187Y-96476022D01*
X155352826Y-96480782D01*
X155271950Y-96561658D01*
X155269306Y-96566848D01*
X155269304Y-96566850D01*
X155217000Y-96669502D01*
X155214354Y-96674696D01*
X155213443Y-96680448D01*
X155213442Y-96680451D01*
X155205856Y-96728349D01*
X155194508Y-96800000D01*
X154697043Y-96800000D01*
X154635304Y-96728349D01*
X154635303Y-96728348D01*
X154631864Y-96724357D01*
X154627445Y-96721493D01*
X154627443Y-96721491D01*
X154528000Y-96657037D01*
X154528001Y-96657037D01*
X154523577Y-96654170D01*
X154518528Y-96652660D01*
X154518526Y-96652659D01*
X154404997Y-96618706D01*
X154404996Y-96618706D01*
X154399944Y-96617195D01*
X154334442Y-96616795D01*
X154276172Y-96616439D01*
X154276171Y-96616439D01*
X154270902Y-96616407D01*
X154146826Y-96651868D01*
X154037690Y-96720728D01*
X154034202Y-96724677D01*
X154034200Y-96724679D01*
X154030959Y-96728349D01*
X153952267Y-96817451D01*
X153950028Y-96822220D01*
X153950026Y-96822223D01*
X153906563Y-96914798D01*
X153897425Y-96934261D01*
X153877572Y-97061769D01*
X146328760Y-97061769D01*
X145065032Y-95798041D01*
X145043640Y-95752165D01*
X145051423Y-95712122D01*
X145108143Y-95600804D01*
X145109054Y-95595052D01*
X145109055Y-95595049D01*
X145127078Y-95481252D01*
X145127989Y-95475500D01*
X145127078Y-95469748D01*
X145109055Y-95355951D01*
X145109054Y-95355948D01*
X145108143Y-95350196D01*
X145105497Y-95345002D01*
X145053193Y-95242350D01*
X145053191Y-95242348D01*
X145050547Y-95237158D01*
X144960839Y-95147450D01*
X144955649Y-95144806D01*
X144955647Y-95144804D01*
X144898004Y-95115434D01*
X144863482Y-95078414D01*
X144860832Y-95027865D01*
X144891296Y-94987438D01*
X144931599Y-94975500D01*
X147342139Y-94975500D01*
X147346012Y-94975601D01*
X147378297Y-94977293D01*
X147386064Y-94977700D01*
X147393324Y-94974913D01*
X147393325Y-94974913D01*
X147408809Y-94968969D01*
X147419943Y-94965671D01*
X147443768Y-94960607D01*
X147450644Y-94955611D01*
X147467621Y-94946394D01*
X147475560Y-94943346D01*
X147492790Y-94926116D01*
X147501620Y-94918575D01*
X147521323Y-94904260D01*
X147525210Y-94897527D01*
X147525213Y-94897524D01*
X147525574Y-94896898D01*
X147537333Y-94881573D01*
X147571201Y-94847705D01*
X147648591Y-94770314D01*
X147694467Y-94748922D01*
X147712489Y-94749551D01*
X147750000Y-94755492D01*
X147755752Y-94754581D01*
X147869549Y-94736558D01*
X147869552Y-94736557D01*
X147875304Y-94735646D01*
X147880495Y-94733001D01*
X147880498Y-94733000D01*
X147983150Y-94680696D01*
X147983152Y-94680694D01*
X147988342Y-94678050D01*
X148078050Y-94588342D01*
X148080694Y-94583152D01*
X148080696Y-94583150D01*
X148133000Y-94480498D01*
X148133001Y-94480495D01*
X148135646Y-94475304D01*
X148136557Y-94469552D01*
X148136558Y-94469549D01*
X148154581Y-94355752D01*
X148154581Y-94355750D01*
X148155492Y-94350000D01*
X148144005Y-94277472D01*
X148136558Y-94230451D01*
X148136557Y-94230448D01*
X148135646Y-94224696D01*
X148133000Y-94219502D01*
X148080696Y-94116850D01*
X148080694Y-94116848D01*
X148078050Y-94111658D01*
X147988342Y-94021950D01*
X147983152Y-94019306D01*
X147983150Y-94019304D01*
X147880498Y-93967000D01*
X147880495Y-93966999D01*
X147875304Y-93964354D01*
X147869552Y-93963443D01*
X147869549Y-93963442D01*
X147755752Y-93945419D01*
X147750000Y-93944508D01*
X147744248Y-93945419D01*
X147630451Y-93963442D01*
X147630448Y-93963443D01*
X147624696Y-93964354D01*
X147619505Y-93966999D01*
X147619502Y-93967000D01*
X147516850Y-94019304D01*
X147516848Y-94019306D01*
X147511658Y-94021950D01*
X147421950Y-94111658D01*
X147419306Y-94116848D01*
X147419304Y-94116850D01*
X147367000Y-94219502D01*
X147364354Y-94224696D01*
X147363443Y-94230448D01*
X147363442Y-94230451D01*
X147355995Y-94277472D01*
X147344508Y-94350000D01*
X147350449Y-94387508D01*
X147340791Y-94437195D01*
X147329686Y-94451409D01*
X147278269Y-94502826D01*
X147232393Y-94524218D01*
X147225943Y-94524500D01*
X145790246Y-94524500D01*
X145742680Y-94507187D01*
X145717370Y-94463350D01*
X145726160Y-94413500D01*
X145735383Y-94400841D01*
X145770285Y-94362281D01*
X145777322Y-94354507D01*
X145833588Y-94238375D01*
X145854997Y-94111120D01*
X145855133Y-94100000D01*
X145848979Y-94057028D01*
X145837586Y-93977472D01*
X145837585Y-93977469D01*
X145836839Y-93972259D01*
X145824636Y-93945419D01*
X145785610Y-93859586D01*
X145785608Y-93859583D01*
X145783428Y-93854788D01*
X145776003Y-93846170D01*
X145702633Y-93761020D01*
X145702632Y-93761019D01*
X145699193Y-93757028D01*
X145694774Y-93754164D01*
X145694772Y-93754162D01*
X145595329Y-93689708D01*
X145595330Y-93689708D01*
X145590906Y-93686841D01*
X145585857Y-93685331D01*
X145585855Y-93685330D01*
X145472326Y-93651377D01*
X145472325Y-93651377D01*
X145467273Y-93649866D01*
X145401771Y-93649466D01*
X145343501Y-93649110D01*
X145343500Y-93649110D01*
X145338231Y-93649078D01*
X145214155Y-93684539D01*
X145105019Y-93753399D01*
X145101531Y-93757348D01*
X145101529Y-93757350D01*
X145098288Y-93761020D01*
X145019596Y-93850122D01*
X145017357Y-93854891D01*
X145017355Y-93854894D01*
X144975282Y-93944508D01*
X144964754Y-93966932D01*
X144944901Y-94094440D01*
X144945584Y-94099663D01*
X144945584Y-94099666D01*
X144954002Y-94164034D01*
X144961633Y-94222394D01*
X145013605Y-94340510D01*
X145066018Y-94402862D01*
X145066036Y-94402884D01*
X145083390Y-94450435D01*
X145066119Y-94498017D01*
X145022304Y-94523365D01*
X145009390Y-94524500D01*
X140157842Y-94524500D01*
X140153970Y-94524399D01*
X140148416Y-94524108D01*
X140101821Y-94504330D01*
X140078840Y-94459228D01*
X140090226Y-94409907D01*
X140099962Y-94397883D01*
X144200670Y-90297174D01*
X144246546Y-90275782D01*
X144252996Y-90275500D01*
X151334298Y-90275500D01*
X151342034Y-90275905D01*
X151374098Y-90279275D01*
X151404767Y-90269310D01*
X151412237Y-90267309D01*
X151420850Y-90265478D01*
X151436157Y-90262225D01*
X151436158Y-90262224D01*
X151443768Y-90260607D01*
X151450064Y-90256032D01*
X151454085Y-90254242D01*
X151457873Y-90252055D01*
X151465269Y-90249652D01*
X151471049Y-90244448D01*
X151489231Y-90228077D01*
X151495243Y-90223208D01*
X151521323Y-90204260D01*
X151525212Y-90197525D01*
X151528147Y-90194265D01*
X151530728Y-90190712D01*
X151536509Y-90185507D01*
X151549620Y-90156060D01*
X151553133Y-90149164D01*
X151565366Y-90127975D01*
X151569255Y-90121240D01*
X151570068Y-90113505D01*
X151571421Y-90109341D01*
X151572335Y-90105040D01*
X151575500Y-90097932D01*
X151575500Y-90090153D01*
X151575750Y-90088977D01*
X151595807Y-90052038D01*
X155911343Y-85736502D01*
X155957219Y-85715110D01*
X156006114Y-85728211D01*
X156029603Y-85755232D01*
X156071950Y-85838342D01*
X156152826Y-85919218D01*
X156174218Y-85965094D01*
X156174500Y-85971544D01*
X156174500Y-87175943D01*
X156157187Y-87223509D01*
X156152826Y-87228269D01*
X153301409Y-90079686D01*
X153255533Y-90101078D01*
X153237511Y-90100449D01*
X153200000Y-90094508D01*
X153194248Y-90095419D01*
X153080451Y-90113442D01*
X153080448Y-90113443D01*
X153074696Y-90114354D01*
X153069505Y-90116999D01*
X153069502Y-90117000D01*
X152966850Y-90169304D01*
X152966848Y-90169306D01*
X152961658Y-90171950D01*
X152871950Y-90261658D01*
X152869306Y-90266848D01*
X152869304Y-90266850D01*
X152817000Y-90369502D01*
X152814354Y-90374696D01*
X152813443Y-90380448D01*
X152813442Y-90380451D01*
X152800448Y-90462495D01*
X152794508Y-90500000D01*
X152795419Y-90505752D01*
X152813442Y-90619549D01*
X152813443Y-90619552D01*
X152814354Y-90625304D01*
X152816999Y-90630495D01*
X152817000Y-90630498D01*
X152869304Y-90733150D01*
X152869306Y-90733152D01*
X152871950Y-90738342D01*
X152961658Y-90828050D01*
X152966848Y-90830694D01*
X152966850Y-90830696D01*
X153069502Y-90883000D01*
X153069505Y-90883001D01*
X153074696Y-90885646D01*
X153080448Y-90886557D01*
X153080451Y-90886558D01*
X153152488Y-90897967D01*
X153195116Y-90904718D01*
X153235865Y-90925481D01*
X153480854Y-91170470D01*
X153490056Y-91181683D01*
X153501376Y-91198624D01*
X153524377Y-91213993D01*
X153524378Y-91213994D01*
X153550535Y-91231471D01*
X153592505Y-91259515D01*
X153637371Y-91268439D01*
X153672865Y-91275500D01*
X153672868Y-91275500D01*
X153700000Y-91280897D01*
X153719984Y-91276922D01*
X153734420Y-91275500D01*
X157055232Y-91275500D01*
X157102798Y-91292813D01*
X157107558Y-91297174D01*
X160527826Y-94717442D01*
X160549218Y-94763318D01*
X160549500Y-94769768D01*
X160549500Y-97791478D01*
X160532187Y-97839044D01*
X160488350Y-97864354D01*
X160436506Y-97854370D01*
X160405306Y-97835025D01*
X160405299Y-97835022D01*
X160401014Y-97832365D01*
X160306115Y-97804794D01*
X160259897Y-97791366D01*
X160259894Y-97791365D01*
X160256175Y-97790285D01*
X160251303Y-97789927D01*
X160246840Y-97789599D01*
X160246826Y-97789599D01*
X160245485Y-97789500D01*
X160137215Y-97789500D01*
X160025568Y-97804794D01*
X159887145Y-97864695D01*
X159841127Y-97901960D01*
X159773849Y-97956440D01*
X159773847Y-97956442D01*
X159769930Y-97959614D01*
X159741015Y-98000301D01*
X159685479Y-98078447D01*
X159685477Y-98078450D01*
X159682558Y-98082558D01*
X159680850Y-98087302D01*
X159649457Y-98174500D01*
X159631467Y-98224468D01*
X159631098Y-98229497D01*
X159631097Y-98229500D01*
X159628733Y-98261695D01*
X159620420Y-98374891D01*
X159621417Y-98379835D01*
X159621417Y-98379837D01*
X159649236Y-98517800D01*
X159650233Y-98522743D01*
X159718707Y-98657132D01*
X159758666Y-98700587D01*
X159817382Y-98764441D01*
X159817386Y-98764444D01*
X159820799Y-98768156D01*
X159825085Y-98770813D01*
X159825088Y-98770816D01*
X159906428Y-98821248D01*
X159948986Y-98847635D01*
X160019352Y-98868079D01*
X160090103Y-98888634D01*
X160090106Y-98888635D01*
X160093825Y-98889715D01*
X160098697Y-98890073D01*
X160103160Y-98890401D01*
X160103174Y-98890401D01*
X160104515Y-98890500D01*
X160212785Y-98890500D01*
X160324432Y-98875206D01*
X160462855Y-98815305D01*
X160525667Y-98764441D01*
X160576151Y-98723560D01*
X160576153Y-98723558D01*
X160580070Y-98720386D01*
X160622034Y-98661337D01*
X160664521Y-98601553D01*
X160664523Y-98601550D01*
X160667442Y-98597442D01*
X160671842Y-98585222D01*
X160716824Y-98460279D01*
X160718533Y-98455532D01*
X160719796Y-98438342D01*
X160728554Y-98319080D01*
X160749304Y-98272910D01*
X160794877Y-98250879D01*
X160802355Y-98250500D01*
X162100500Y-98250500D01*
X162148066Y-98267813D01*
X162173376Y-98311650D01*
X162174500Y-98324500D01*
X162174500Y-100975943D01*
X162157187Y-101023509D01*
X162152826Y-101028269D01*
X160646102Y-102534993D01*
X160643292Y-102537660D01*
X160613491Y-102564493D01*
X160610328Y-102571597D01*
X160610326Y-102571600D01*
X160603583Y-102586747D01*
X160598040Y-102596954D01*
X160584774Y-102617382D01*
X160583557Y-102625064D01*
X160583557Y-102625065D01*
X160583444Y-102625780D01*
X160577958Y-102644301D01*
X160574500Y-102652068D01*
X160574500Y-102676427D01*
X160573589Y-102688003D01*
X160569778Y-102712065D01*
X160571791Y-102719577D01*
X160571791Y-102719581D01*
X160571978Y-102720278D01*
X160574500Y-102739431D01*
X160574500Y-104875942D01*
X160557187Y-104923508D01*
X160552826Y-104928268D01*
X160425400Y-105055695D01*
X160301409Y-105179686D01*
X160255533Y-105201078D01*
X160237511Y-105200449D01*
X160200000Y-105194508D01*
X160194248Y-105195419D01*
X160080451Y-105213442D01*
X160080448Y-105213443D01*
X160074696Y-105214354D01*
X160069505Y-105216999D01*
X160069502Y-105217000D01*
X159966850Y-105269304D01*
X159966848Y-105269306D01*
X159961658Y-105271950D01*
X159871950Y-105361658D01*
X159869306Y-105366848D01*
X159869304Y-105366850D01*
X159819073Y-105465434D01*
X159814354Y-105474696D01*
X159813443Y-105480448D01*
X159813442Y-105480451D01*
X159803753Y-105541626D01*
X159794508Y-105600000D01*
X159795419Y-105605752D01*
X159813442Y-105719549D01*
X159813443Y-105719552D01*
X159814354Y-105725304D01*
X159816999Y-105730495D01*
X159817000Y-105730498D01*
X159869304Y-105833150D01*
X159869306Y-105833152D01*
X159871950Y-105838342D01*
X159961658Y-105928050D01*
X159966848Y-105930694D01*
X159966850Y-105930696D01*
X160069502Y-105983000D01*
X160069505Y-105983001D01*
X160074696Y-105985646D01*
X160080448Y-105986557D01*
X160080451Y-105986558D01*
X160194248Y-106004581D01*
X160200000Y-106005492D01*
X160205752Y-106004581D01*
X160319549Y-105986558D01*
X160319552Y-105986557D01*
X160325304Y-105985646D01*
X160330495Y-105983001D01*
X160330498Y-105983000D01*
X160433150Y-105930696D01*
X160433152Y-105930694D01*
X160438342Y-105928050D01*
X160528050Y-105838342D01*
X160530694Y-105833152D01*
X160530696Y-105833150D01*
X160583000Y-105730498D01*
X160583001Y-105730495D01*
X160585646Y-105725304D01*
X160586557Y-105719552D01*
X160586558Y-105719549D01*
X160604581Y-105605752D01*
X160605492Y-105600000D01*
X160599551Y-105562492D01*
X160609209Y-105512805D01*
X160620314Y-105498591D01*
X160737800Y-105381105D01*
X162999031Y-105381105D01*
X163000072Y-105385440D01*
X163000072Y-105385442D01*
X163007469Y-105416253D01*
X163038612Y-105545968D01*
X163116375Y-105696631D01*
X163119304Y-105699989D01*
X163119305Y-105699990D01*
X163221525Y-105817167D01*
X163227831Y-105824396D01*
X163231485Y-105826964D01*
X163231486Y-105826965D01*
X163243408Y-105835344D01*
X163366547Y-105921887D01*
X163524513Y-105983476D01*
X163653826Y-106000500D01*
X163742516Y-106000500D01*
X163744729Y-106000232D01*
X163744732Y-106000232D01*
X163863891Y-105985812D01*
X163868320Y-105985276D01*
X163986790Y-105940510D01*
X164022753Y-105926921D01*
X164022755Y-105926920D01*
X164026923Y-105925345D01*
X164077301Y-105890721D01*
X164162969Y-105831843D01*
X164162971Y-105831841D01*
X164166651Y-105829312D01*
X164217232Y-105772541D01*
X164276470Y-105706055D01*
X164276472Y-105706052D01*
X164279440Y-105702721D01*
X164358776Y-105552881D01*
X164359863Y-105548554D01*
X164398994Y-105392769D01*
X164398994Y-105392768D01*
X164400081Y-105388441D01*
X164400705Y-105269304D01*
X164400946Y-105223354D01*
X164400946Y-105223351D01*
X164400969Y-105218895D01*
X164397957Y-105206347D01*
X164380949Y-105135507D01*
X164361388Y-105054032D01*
X164283625Y-104903369D01*
X164280695Y-104900010D01*
X164175104Y-104778968D01*
X164175102Y-104778966D01*
X164172169Y-104775604D01*
X164166454Y-104771587D01*
X164104506Y-104728050D01*
X164033453Y-104678113D01*
X163875487Y-104616524D01*
X163746174Y-104599500D01*
X163657484Y-104599500D01*
X163655271Y-104599768D01*
X163655268Y-104599768D01*
X163536109Y-104614188D01*
X163531680Y-104614724D01*
X163469177Y-104638342D01*
X163377247Y-104673079D01*
X163377245Y-104673080D01*
X163373077Y-104674655D01*
X163322699Y-104709279D01*
X163237031Y-104768157D01*
X163237029Y-104768159D01*
X163233349Y-104770688D01*
X163230377Y-104774024D01*
X163139571Y-104875942D01*
X163120560Y-104897279D01*
X163041224Y-105047119D01*
X163040137Y-105051445D01*
X163040137Y-105051446D01*
X163034417Y-105074220D01*
X162999919Y-105211559D01*
X162999618Y-105269042D01*
X162999082Y-105371401D01*
X162999031Y-105381105D01*
X160737800Y-105381105D01*
X160953898Y-105165007D01*
X160956708Y-105162340D01*
X160980728Y-105140712D01*
X160986509Y-105135507D01*
X160989672Y-105128403D01*
X160989674Y-105128400D01*
X160996417Y-105113253D01*
X161001960Y-105103045D01*
X161010989Y-105089142D01*
X161015226Y-105082618D01*
X161016556Y-105074220D01*
X161022042Y-105055699D01*
X161025500Y-105047932D01*
X161025500Y-105023573D01*
X161026411Y-105011997D01*
X161029005Y-104995618D01*
X161030222Y-104987935D01*
X161028209Y-104980423D01*
X161028209Y-104980419D01*
X161028022Y-104979722D01*
X161025500Y-104960569D01*
X161025500Y-102824058D01*
X161042813Y-102776492D01*
X161047174Y-102771732D01*
X162553908Y-101264998D01*
X162556718Y-101262331D01*
X162562250Y-101257350D01*
X162586509Y-101235507D01*
X162589673Y-101228401D01*
X162589675Y-101228398D01*
X162596418Y-101213253D01*
X162601957Y-101203050D01*
X162610991Y-101189139D01*
X162610992Y-101189137D01*
X162615226Y-101182617D01*
X162616443Y-101174935D01*
X162616444Y-101174932D01*
X162616557Y-101174219D01*
X162622041Y-101155703D01*
X162622337Y-101155038D01*
X162622338Y-101155035D01*
X162625500Y-101147932D01*
X162625500Y-101123572D01*
X162626411Y-101111996D01*
X162629005Y-101095617D01*
X162630222Y-101087934D01*
X162628209Y-101080422D01*
X162628209Y-101080418D01*
X162628022Y-101079721D01*
X162625500Y-101060568D01*
X162625500Y-99852268D01*
X162870654Y-99852268D01*
X162879811Y-99921823D01*
X162882300Y-99931112D01*
X162939044Y-100068104D01*
X162943856Y-100076439D01*
X163034120Y-100194074D01*
X163040926Y-100200880D01*
X163158561Y-100291144D01*
X163166896Y-100295956D01*
X163303888Y-100352700D01*
X163313177Y-100355189D01*
X163423270Y-100369683D01*
X163428105Y-100370000D01*
X163776952Y-100370000D01*
X163786948Y-100366362D01*
X163790000Y-100361075D01*
X163790000Y-99858048D01*
X163786362Y-99848052D01*
X163781075Y-99845000D01*
X162882745Y-99845000D01*
X162872749Y-99848638D01*
X162870654Y-99852268D01*
X162625500Y-99852268D01*
X162625500Y-99682063D01*
X162871400Y-99682063D01*
X162873703Y-99692449D01*
X162877028Y-99695000D01*
X163776952Y-99695000D01*
X163786948Y-99691362D01*
X163790000Y-99686075D01*
X163790000Y-99183048D01*
X163786362Y-99173052D01*
X163781075Y-99170000D01*
X163428105Y-99170000D01*
X163423270Y-99170317D01*
X163313177Y-99184811D01*
X163303888Y-99187300D01*
X163166896Y-99244044D01*
X163158561Y-99248856D01*
X163040926Y-99339120D01*
X163034120Y-99345926D01*
X162943856Y-99463561D01*
X162939044Y-99471895D01*
X162882300Y-99608888D01*
X162879811Y-99618177D01*
X162871400Y-99682063D01*
X162625500Y-99682063D01*
X162625500Y-98324500D01*
X162642813Y-98276934D01*
X162686650Y-98251624D01*
X162699500Y-98250500D01*
X164114820Y-98250500D01*
X164118389Y-98249790D01*
X164118390Y-98249790D01*
X164151575Y-98243189D01*
X164151576Y-98243188D01*
X164158722Y-98241767D01*
X164208504Y-98208504D01*
X164241767Y-98158722D01*
X164250500Y-98114820D01*
X164250500Y-94485180D01*
X164249569Y-94480498D01*
X164243189Y-94448425D01*
X164243188Y-94448424D01*
X164241767Y-94441278D01*
X164208504Y-94391496D01*
X164158722Y-94358233D01*
X164151576Y-94356812D01*
X164151575Y-94356811D01*
X164118390Y-94350210D01*
X164118389Y-94350210D01*
X164114820Y-94349500D01*
X160969768Y-94349500D01*
X160922202Y-94332187D01*
X160917442Y-94327826D01*
X159184507Y-92594891D01*
X159620420Y-92594891D01*
X159621417Y-92599835D01*
X159621417Y-92599837D01*
X159649236Y-92737800D01*
X159650233Y-92742743D01*
X159718707Y-92877132D01*
X159755368Y-92917000D01*
X159817382Y-92984441D01*
X159817386Y-92984444D01*
X159820799Y-92988156D01*
X159825085Y-92990813D01*
X159825088Y-92990816D01*
X159896843Y-93035305D01*
X159948986Y-93067635D01*
X160019352Y-93088079D01*
X160090103Y-93108634D01*
X160090106Y-93108635D01*
X160093825Y-93109715D01*
X160098697Y-93110073D01*
X160103160Y-93110401D01*
X160103174Y-93110401D01*
X160104515Y-93110500D01*
X160212785Y-93110500D01*
X160324432Y-93095206D01*
X160462855Y-93035305D01*
X160541092Y-92971950D01*
X160576151Y-92943560D01*
X160576153Y-92943558D01*
X160580070Y-92940386D01*
X160608985Y-92899699D01*
X160664521Y-92821553D01*
X160664523Y-92821550D01*
X160667442Y-92817442D01*
X160718533Y-92675532D01*
X160729580Y-92525109D01*
X160727325Y-92513923D01*
X160700764Y-92382200D01*
X160700763Y-92382198D01*
X160699767Y-92377257D01*
X160631293Y-92242868D01*
X160570209Y-92176440D01*
X160532618Y-92135559D01*
X160532614Y-92135556D01*
X160529201Y-92131844D01*
X160524915Y-92129187D01*
X160524912Y-92129184D01*
X160443572Y-92078752D01*
X160401014Y-92052365D01*
X160306115Y-92024794D01*
X160259897Y-92011366D01*
X160259894Y-92011365D01*
X160256175Y-92010285D01*
X160251303Y-92009927D01*
X160246840Y-92009599D01*
X160246826Y-92009599D01*
X160245485Y-92009500D01*
X160137215Y-92009500D01*
X160025568Y-92024794D01*
X159887145Y-92084695D01*
X159832206Y-92129184D01*
X159773849Y-92176440D01*
X159773847Y-92176442D01*
X159769930Y-92179614D01*
X159767008Y-92183726D01*
X159685479Y-92298447D01*
X159685477Y-92298450D01*
X159682558Y-92302558D01*
X159631467Y-92444468D01*
X159631098Y-92449497D01*
X159631097Y-92449500D01*
X159626936Y-92506160D01*
X159620420Y-92594891D01*
X159184507Y-92594891D01*
X157801884Y-91212268D01*
X158550654Y-91212268D01*
X158559811Y-91281823D01*
X158562300Y-91291112D01*
X158619044Y-91428104D01*
X158623856Y-91436439D01*
X158714120Y-91554074D01*
X158720926Y-91560880D01*
X158838561Y-91651144D01*
X158846896Y-91655956D01*
X158983888Y-91712700D01*
X158993177Y-91715189D01*
X159103270Y-91729683D01*
X159108105Y-91730000D01*
X159606952Y-91730000D01*
X159616948Y-91726362D01*
X159620000Y-91721075D01*
X159620000Y-91716952D01*
X159770000Y-91716952D01*
X159773638Y-91726948D01*
X159778925Y-91730000D01*
X160281895Y-91730000D01*
X160286730Y-91729683D01*
X160396823Y-91715189D01*
X160406112Y-91712700D01*
X160543104Y-91655956D01*
X160551439Y-91651144D01*
X160669074Y-91560880D01*
X160675880Y-91554074D01*
X160766144Y-91436439D01*
X160770956Y-91428105D01*
X160827700Y-91291112D01*
X160830189Y-91281823D01*
X160838600Y-91217937D01*
X160837343Y-91212268D01*
X162870654Y-91212268D01*
X162879811Y-91281823D01*
X162882300Y-91291112D01*
X162939044Y-91428104D01*
X162943856Y-91436439D01*
X163034120Y-91554074D01*
X163040926Y-91560880D01*
X163158561Y-91651144D01*
X163166896Y-91655956D01*
X163303888Y-91712700D01*
X163313177Y-91715189D01*
X163423270Y-91729683D01*
X163428105Y-91730000D01*
X163776952Y-91730000D01*
X163786948Y-91726362D01*
X163790000Y-91721075D01*
X163790000Y-91218048D01*
X163786362Y-91208052D01*
X163781075Y-91205000D01*
X162882745Y-91205000D01*
X162872749Y-91208638D01*
X162870654Y-91212268D01*
X160837343Y-91212268D01*
X160836297Y-91207551D01*
X160832972Y-91205000D01*
X159783048Y-91205000D01*
X159773052Y-91208638D01*
X159770000Y-91213925D01*
X159770000Y-91716952D01*
X159620000Y-91716952D01*
X159620000Y-91218048D01*
X159616362Y-91208052D01*
X159611075Y-91205000D01*
X158562745Y-91205000D01*
X158552749Y-91208638D01*
X158550654Y-91212268D01*
X157801884Y-91212268D01*
X157631679Y-91042063D01*
X158551400Y-91042063D01*
X158553703Y-91052449D01*
X158557028Y-91055000D01*
X159606952Y-91055000D01*
X159616948Y-91051362D01*
X159620000Y-91046075D01*
X159620000Y-91041952D01*
X159770000Y-91041952D01*
X159773638Y-91051948D01*
X159778925Y-91055000D01*
X160827255Y-91055000D01*
X160837251Y-91051362D01*
X160839346Y-91047732D01*
X160838600Y-91042063D01*
X162871400Y-91042063D01*
X162873703Y-91052449D01*
X162877028Y-91055000D01*
X163776952Y-91055000D01*
X163786948Y-91051362D01*
X163790000Y-91046075D01*
X163790000Y-90543048D01*
X163786362Y-90533052D01*
X163781075Y-90530000D01*
X163428105Y-90530000D01*
X163423270Y-90530317D01*
X163313177Y-90544811D01*
X163303888Y-90547300D01*
X163166896Y-90604044D01*
X163158561Y-90608856D01*
X163040926Y-90699120D01*
X163034120Y-90705926D01*
X162943856Y-90823561D01*
X162939044Y-90831895D01*
X162882300Y-90968888D01*
X162879811Y-90978177D01*
X162871400Y-91042063D01*
X160838600Y-91042063D01*
X160830189Y-90978177D01*
X160827700Y-90968888D01*
X160770956Y-90831896D01*
X160766144Y-90823561D01*
X160675880Y-90705926D01*
X160669074Y-90699120D01*
X160551439Y-90608856D01*
X160543104Y-90604044D01*
X160406112Y-90547300D01*
X160396823Y-90544811D01*
X160286730Y-90530317D01*
X160281895Y-90530000D01*
X159783048Y-90530000D01*
X159773052Y-90533638D01*
X159770000Y-90538925D01*
X159770000Y-91041952D01*
X159620000Y-91041952D01*
X159620000Y-90543048D01*
X159616362Y-90533052D01*
X159611075Y-90530000D01*
X159108105Y-90530000D01*
X159103270Y-90530317D01*
X158993177Y-90544811D01*
X158983888Y-90547300D01*
X158846896Y-90604044D01*
X158838561Y-90608856D01*
X158720926Y-90699120D01*
X158714120Y-90705926D01*
X158623856Y-90823561D01*
X158619044Y-90831895D01*
X158562300Y-90968888D01*
X158559811Y-90978177D01*
X158551400Y-91042063D01*
X157631679Y-91042063D01*
X157419145Y-90829529D01*
X157409942Y-90818315D01*
X157402673Y-90807436D01*
X157398624Y-90801376D01*
X157375623Y-90786007D01*
X157375622Y-90786006D01*
X157349465Y-90768529D01*
X157307495Y-90740485D01*
X157262629Y-90731561D01*
X157227135Y-90724500D01*
X157227132Y-90724500D01*
X157200000Y-90719103D01*
X157192851Y-90720525D01*
X157180017Y-90723078D01*
X157165580Y-90724500D01*
X153844768Y-90724500D01*
X153797202Y-90707187D01*
X153792442Y-90702826D01*
X153625481Y-90535865D01*
X153604718Y-90495116D01*
X153604581Y-90494248D01*
X153599551Y-90462493D01*
X153609209Y-90412806D01*
X153620314Y-90398592D01*
X156553898Y-87465007D01*
X156556708Y-87462340D01*
X156580730Y-87440710D01*
X156586509Y-87435507D01*
X156589673Y-87428401D01*
X156596419Y-87413251D01*
X156601957Y-87403051D01*
X156610989Y-87389142D01*
X156610990Y-87389140D01*
X156615225Y-87382618D01*
X156616555Y-87374222D01*
X156622042Y-87355700D01*
X156625500Y-87347932D01*
X156625500Y-87323572D01*
X156626411Y-87311995D01*
X156628119Y-87301215D01*
X156630222Y-87287935D01*
X156628209Y-87280423D01*
X156628209Y-87280419D01*
X156628022Y-87279722D01*
X156625500Y-87260569D01*
X156625500Y-85971544D01*
X156642813Y-85923978D01*
X156647174Y-85919218D01*
X156728050Y-85838342D01*
X156730694Y-85833152D01*
X156730696Y-85833150D01*
X156783000Y-85730498D01*
X156783001Y-85730495D01*
X156785646Y-85725304D01*
X156786557Y-85719552D01*
X156786558Y-85719549D01*
X156804581Y-85605752D01*
X156805492Y-85600000D01*
X156792944Y-85520772D01*
X156802603Y-85471083D01*
X156841941Y-85439227D01*
X156877607Y-85436107D01*
X157000000Y-85455492D01*
X157005752Y-85454581D01*
X157119549Y-85436558D01*
X157119552Y-85436557D01*
X157125304Y-85435646D01*
X157130495Y-85433001D01*
X157130498Y-85433000D01*
X157233150Y-85380696D01*
X157233152Y-85380694D01*
X157238342Y-85378050D01*
X157328050Y-85288342D01*
X157330694Y-85283152D01*
X157330696Y-85283150D01*
X157383000Y-85180498D01*
X157383001Y-85180495D01*
X157385646Y-85175304D01*
X157386557Y-85169552D01*
X157386558Y-85169549D01*
X157404581Y-85055752D01*
X157405492Y-85050000D01*
X157404581Y-85044248D01*
X157386558Y-84930451D01*
X157386557Y-84930448D01*
X157385646Y-84924696D01*
X157374644Y-84903103D01*
X157330696Y-84816850D01*
X157330694Y-84816848D01*
X157328050Y-84811658D01*
X157238342Y-84721950D01*
X157233152Y-84719306D01*
X157233150Y-84719304D01*
X157130498Y-84667000D01*
X157130495Y-84666999D01*
X157125304Y-84664354D01*
X157119552Y-84663443D01*
X157119549Y-84663442D01*
X157005752Y-84645419D01*
X157000000Y-84644508D01*
X156994248Y-84645419D01*
X156880451Y-84663442D01*
X156880448Y-84663443D01*
X156874696Y-84664354D01*
X156869505Y-84666999D01*
X156869502Y-84667000D01*
X156766850Y-84719304D01*
X156766848Y-84719306D01*
X156761658Y-84721950D01*
X156680782Y-84802826D01*
X156634906Y-84824218D01*
X156628456Y-84824500D01*
X156286788Y-84824500D01*
X156282916Y-84824399D01*
X156242875Y-84822301D01*
X156235617Y-84825087D01*
X156235612Y-84825088D01*
X156220134Y-84831030D01*
X156209000Y-84834328D01*
X156202750Y-84835657D01*
X156185171Y-84839393D01*
X156178878Y-84843965D01*
X156178289Y-84844393D01*
X156161316Y-84853608D01*
X156160641Y-84853867D01*
X156160640Y-84853867D01*
X156153379Y-84856655D01*
X156136153Y-84873881D01*
X156127323Y-84881422D01*
X156107616Y-84895740D01*
X156103729Y-84902473D01*
X156103728Y-84902474D01*
X156103365Y-84903103D01*
X156091605Y-84918429D01*
X151207208Y-89802826D01*
X151161332Y-89824218D01*
X151154882Y-89824500D01*
X144136781Y-89824500D01*
X144132908Y-89824399D01*
X144100641Y-89822708D01*
X144092875Y-89822301D01*
X144085612Y-89825089D01*
X144070134Y-89831030D01*
X144059000Y-89834328D01*
X144052750Y-89835657D01*
X144035171Y-89839393D01*
X144028878Y-89843965D01*
X144028289Y-89844393D01*
X144011316Y-89853608D01*
X144010641Y-89853867D01*
X144010640Y-89853867D01*
X144003379Y-89856655D01*
X143986153Y-89873881D01*
X143977323Y-89881422D01*
X143957616Y-89895740D01*
X143953729Y-89902473D01*
X143953728Y-89902474D01*
X143953365Y-89903103D01*
X143941605Y-89918429D01*
X134779144Y-99080890D01*
X134733268Y-99102282D01*
X134684373Y-99089181D01*
X134655339Y-99047717D01*
X134653565Y-99039054D01*
X134637586Y-98927473D01*
X134637585Y-98927471D01*
X134636839Y-98922259D01*
X134629333Y-98905750D01*
X134585610Y-98809586D01*
X134585608Y-98809583D01*
X134583428Y-98804788D01*
X134577641Y-98798071D01*
X134502633Y-98711020D01*
X134502632Y-98711019D01*
X134499193Y-98707028D01*
X134494774Y-98704164D01*
X134494772Y-98704162D01*
X134459251Y-98681139D01*
X134428752Y-98640739D01*
X134425500Y-98619042D01*
X134425500Y-96381626D01*
X134442813Y-96334060D01*
X134460780Y-96318565D01*
X134469165Y-96313416D01*
X134490724Y-96300179D01*
X134577322Y-96204507D01*
X134633588Y-96088375D01*
X134654997Y-95961120D01*
X134655133Y-95950000D01*
X134647744Y-95898405D01*
X134658139Y-95848865D01*
X134668671Y-95835589D01*
X135832086Y-94672174D01*
X135877962Y-94650782D01*
X135884412Y-94650500D01*
X137887534Y-94650500D01*
X137935100Y-94667813D01*
X137944180Y-94676884D01*
X137947385Y-94680696D01*
X137996639Y-94739291D01*
X138104060Y-94810796D01*
X138109092Y-94812368D01*
X138109094Y-94812369D01*
X138144714Y-94823497D01*
X138227233Y-94849278D01*
X138232501Y-94849375D01*
X138232504Y-94849375D01*
X138286552Y-94850365D01*
X138356255Y-94851643D01*
X138361338Y-94850257D01*
X138361340Y-94850257D01*
X138475671Y-94819086D01*
X138480755Y-94817700D01*
X138590724Y-94750179D01*
X138677322Y-94654507D01*
X138733588Y-94538375D01*
X138750610Y-94437195D01*
X138754522Y-94413944D01*
X138754522Y-94413943D01*
X138754997Y-94411120D01*
X138755133Y-94400000D01*
X138749731Y-94362281D01*
X138737586Y-94277472D01*
X138737585Y-94277469D01*
X138736839Y-94272259D01*
X138717830Y-94230451D01*
X138685610Y-94159586D01*
X138685608Y-94159583D01*
X138683428Y-94154788D01*
X138678164Y-94148678D01*
X138602633Y-94061020D01*
X138602632Y-94061019D01*
X138599193Y-94057028D01*
X138594774Y-94054164D01*
X138594772Y-94054162D01*
X138584251Y-94047343D01*
X138553752Y-94006943D01*
X138550500Y-93985246D01*
X138550500Y-88407132D01*
X138567228Y-88363726D01*
X138565836Y-88362787D01*
X138568785Y-88358415D01*
X138572322Y-88354507D01*
X138628588Y-88238375D01*
X138649997Y-88111120D01*
X138650133Y-88100000D01*
X138639436Y-88025304D01*
X138632586Y-87977472D01*
X138632585Y-87977469D01*
X138631839Y-87972259D01*
X138598985Y-87900000D01*
X138580610Y-87859586D01*
X138580608Y-87859583D01*
X138578428Y-87854788D01*
X138572411Y-87847805D01*
X138554476Y-87800470D01*
X138571164Y-87752681D01*
X138614666Y-87726799D01*
X138628470Y-87725500D01*
X147004881Y-87725500D01*
X147052447Y-87742813D01*
X147057207Y-87747174D01*
X148713941Y-89403908D01*
X148716608Y-89406718D01*
X148743432Y-89436509D01*
X148750538Y-89439673D01*
X148750541Y-89439675D01*
X148765686Y-89446418D01*
X148775889Y-89451957D01*
X148789800Y-89460991D01*
X148789802Y-89460992D01*
X148796322Y-89465226D01*
X148804004Y-89466443D01*
X148804007Y-89466444D01*
X148804720Y-89466557D01*
X148823236Y-89472041D01*
X148823901Y-89472337D01*
X148823904Y-89472338D01*
X148831007Y-89475500D01*
X148855367Y-89475500D01*
X148866943Y-89476411D01*
X148891005Y-89480222D01*
X148898517Y-89478209D01*
X148898521Y-89478209D01*
X148899218Y-89478022D01*
X148918371Y-89475500D01*
X149752956Y-89475500D01*
X149800522Y-89492813D01*
X149805282Y-89497174D01*
X149886158Y-89578050D01*
X149891348Y-89580694D01*
X149891350Y-89580696D01*
X149994002Y-89633000D01*
X149994005Y-89633001D01*
X149999196Y-89635646D01*
X150004948Y-89636557D01*
X150004951Y-89636558D01*
X150118748Y-89654581D01*
X150124500Y-89655492D01*
X150130252Y-89654581D01*
X150244049Y-89636558D01*
X150244052Y-89636557D01*
X150249804Y-89635646D01*
X150254995Y-89633001D01*
X150254998Y-89633000D01*
X150357650Y-89580696D01*
X150357652Y-89580694D01*
X150362842Y-89578050D01*
X150452550Y-89488342D01*
X150455194Y-89483152D01*
X150455196Y-89483150D01*
X150507500Y-89380498D01*
X150507501Y-89380495D01*
X150510146Y-89375304D01*
X150511057Y-89369552D01*
X150511058Y-89369549D01*
X150529081Y-89255752D01*
X150529992Y-89250000D01*
X150529081Y-89244248D01*
X150511058Y-89130451D01*
X150511057Y-89130448D01*
X150510146Y-89124696D01*
X150507500Y-89119502D01*
X150455196Y-89016850D01*
X150455194Y-89016848D01*
X150452550Y-89011658D01*
X150362842Y-88921950D01*
X150357652Y-88919306D01*
X150357650Y-88919304D01*
X150254998Y-88867000D01*
X150254995Y-88866999D01*
X150249804Y-88864354D01*
X150244052Y-88863443D01*
X150244049Y-88863442D01*
X150130252Y-88845419D01*
X150124500Y-88844508D01*
X150118748Y-88845419D01*
X150004951Y-88863442D01*
X150004948Y-88863443D01*
X149999196Y-88864354D01*
X149994005Y-88866999D01*
X149994002Y-88867000D01*
X149891350Y-88919304D01*
X149891348Y-88919306D01*
X149886158Y-88921950D01*
X149805282Y-89002826D01*
X149759406Y-89024218D01*
X149752956Y-89024500D01*
X149002996Y-89024500D01*
X148955430Y-89007187D01*
X148950670Y-89002826D01*
X148336501Y-88388657D01*
X148315109Y-88342781D01*
X148328210Y-88293886D01*
X148355230Y-88270398D01*
X148438342Y-88228050D01*
X148528050Y-88138342D01*
X148530694Y-88133152D01*
X148530696Y-88133150D01*
X148583000Y-88030498D01*
X148583001Y-88030495D01*
X148585646Y-88025304D01*
X148586557Y-88019552D01*
X148586558Y-88019549D01*
X148604581Y-87905752D01*
X148605492Y-87900000D01*
X148598331Y-87854788D01*
X148586558Y-87780451D01*
X148586557Y-87780448D01*
X148585646Y-87774696D01*
X148571623Y-87747174D01*
X148530696Y-87666850D01*
X148530694Y-87666848D01*
X148528050Y-87661658D01*
X148447174Y-87580782D01*
X148425782Y-87534906D01*
X148425500Y-87528456D01*
X148425500Y-85975036D01*
X148442813Y-85927470D01*
X148447174Y-85922710D01*
X150597220Y-83772663D01*
X150643096Y-83751271D01*
X150649546Y-83750989D01*
X158501431Y-83750989D01*
X158548997Y-83768302D01*
X158553757Y-83772663D01*
X164752826Y-89971731D01*
X164774218Y-90017607D01*
X164774500Y-90024057D01*
X164774500Y-90614613D01*
X164757187Y-90662179D01*
X164713350Y-90687489D01*
X164663500Y-90678699D01*
X164655452Y-90673321D01*
X164571439Y-90608856D01*
X164563104Y-90604044D01*
X164426112Y-90547300D01*
X164416823Y-90544811D01*
X164306730Y-90530317D01*
X164301895Y-90530000D01*
X163953048Y-90530000D01*
X163943052Y-90533638D01*
X163940000Y-90538925D01*
X163940000Y-91716952D01*
X163943638Y-91726948D01*
X163948925Y-91730000D01*
X164301895Y-91730000D01*
X164306730Y-91729683D01*
X164416823Y-91715189D01*
X164426112Y-91712700D01*
X164563104Y-91655956D01*
X164571439Y-91651144D01*
X164655452Y-91586679D01*
X164703728Y-91571457D01*
X164750494Y-91590829D01*
X164773867Y-91635728D01*
X164774500Y-91645387D01*
X164774500Y-99254613D01*
X164757187Y-99302179D01*
X164713350Y-99327489D01*
X164663500Y-99318699D01*
X164655452Y-99313321D01*
X164571439Y-99248856D01*
X164563104Y-99244044D01*
X164426112Y-99187300D01*
X164416823Y-99184811D01*
X164306730Y-99170317D01*
X164301895Y-99170000D01*
X163953048Y-99170000D01*
X163943052Y-99173638D01*
X163940000Y-99178925D01*
X163940000Y-100356952D01*
X163943638Y-100366948D01*
X163948925Y-100370000D01*
X164301895Y-100370000D01*
X164306730Y-100369683D01*
X164416823Y-100355189D01*
X164426112Y-100352700D01*
X164563104Y-100295956D01*
X164571439Y-100291144D01*
X164655452Y-100226679D01*
X164703728Y-100211457D01*
X164750494Y-100230829D01*
X164773867Y-100275728D01*
X164774500Y-100285387D01*
X164774500Y-108628456D01*
X164757187Y-108676022D01*
X164752826Y-108680782D01*
X164671950Y-108761658D01*
X164669306Y-108766848D01*
X164669304Y-108766850D01*
X164617000Y-108869502D01*
X164614354Y-108874696D01*
X164613443Y-108880448D01*
X164613442Y-108880451D01*
X164606732Y-108922819D01*
X164594508Y-109000000D01*
X164595419Y-109005752D01*
X164613442Y-109119549D01*
X164613443Y-109119552D01*
X164614354Y-109125304D01*
X164616999Y-109130495D01*
X164617000Y-109130498D01*
X164669304Y-109233150D01*
X164669306Y-109233152D01*
X164671950Y-109238342D01*
X164761658Y-109328050D01*
X164766848Y-109330694D01*
X164766850Y-109330696D01*
X164869502Y-109383000D01*
X164869505Y-109383001D01*
X164874696Y-109385646D01*
X164880448Y-109386557D01*
X164880451Y-109386558D01*
X164994248Y-109404581D01*
X165000000Y-109405492D01*
X165005752Y-109404581D01*
X165119549Y-109386558D01*
X165119552Y-109386557D01*
X165125304Y-109385646D01*
X165130495Y-109383001D01*
X165130498Y-109383000D01*
X165233150Y-109330696D01*
X165233152Y-109330694D01*
X165238342Y-109328050D01*
X165328050Y-109238342D01*
X165330694Y-109233152D01*
X165330696Y-109233150D01*
X165383000Y-109130498D01*
X165383001Y-109130495D01*
X165385646Y-109125304D01*
X165386557Y-109119552D01*
X165386558Y-109119549D01*
X165404581Y-109005752D01*
X165405492Y-109000000D01*
X165393268Y-108922819D01*
X165386558Y-108880451D01*
X165386557Y-108880448D01*
X165385646Y-108874696D01*
X165383000Y-108869502D01*
X165330696Y-108766850D01*
X165330694Y-108766848D01*
X165328050Y-108761658D01*
X165247174Y-108680782D01*
X165225782Y-108634906D01*
X165225500Y-108628456D01*
X165225500Y-89907861D01*
X165225601Y-89903988D01*
X165227293Y-89871702D01*
X165227700Y-89863936D01*
X165223835Y-89853867D01*
X165218969Y-89841190D01*
X165215671Y-89830057D01*
X165212224Y-89813839D01*
X165212224Y-89813838D01*
X165210607Y-89806232D01*
X165205609Y-89799352D01*
X165196394Y-89782380D01*
X165196135Y-89781705D01*
X165196134Y-89781703D01*
X165193346Y-89774441D01*
X165176119Y-89757214D01*
X165168578Y-89748384D01*
X165158831Y-89734969D01*
X165154260Y-89728677D01*
X165146897Y-89724426D01*
X165131571Y-89712666D01*
X160418905Y-85000000D01*
X162544341Y-85000000D01*
X162564937Y-85235408D01*
X162626097Y-85463663D01*
X162627459Y-85466583D01*
X162627459Y-85466584D01*
X162724599Y-85674901D01*
X162724600Y-85674902D01*
X162725965Y-85677829D01*
X162727818Y-85680476D01*
X162727819Y-85680477D01*
X162813643Y-85803046D01*
X162861505Y-85871401D01*
X163028599Y-86038495D01*
X163222171Y-86174035D01*
X163225093Y-86175398D01*
X163225099Y-86175401D01*
X163433416Y-86272541D01*
X163436337Y-86273903D01*
X163439451Y-86274737D01*
X163439450Y-86274737D01*
X163661478Y-86334229D01*
X163661482Y-86334230D01*
X163664592Y-86335063D01*
X163841034Y-86350500D01*
X163958966Y-86350500D01*
X164135408Y-86335063D01*
X164138518Y-86334230D01*
X164138522Y-86334229D01*
X164360550Y-86274737D01*
X164360549Y-86274737D01*
X164363663Y-86273903D01*
X164366584Y-86272541D01*
X164574901Y-86175401D01*
X164574907Y-86175398D01*
X164577829Y-86174035D01*
X164771401Y-86038495D01*
X164938495Y-85871401D01*
X165074035Y-85677830D01*
X165075398Y-85674908D01*
X165075401Y-85674902D01*
X165172541Y-85466584D01*
X165172541Y-85466583D01*
X165173903Y-85463663D01*
X165235063Y-85235408D01*
X165255659Y-85000000D01*
X165235063Y-84764592D01*
X165231250Y-84750359D01*
X165174737Y-84539450D01*
X165173903Y-84536337D01*
X165172541Y-84533416D01*
X165075401Y-84325099D01*
X165075398Y-84325093D01*
X165074035Y-84322171D01*
X164938495Y-84128599D01*
X164771401Y-83961505D01*
X164577829Y-83825965D01*
X164574907Y-83824602D01*
X164574901Y-83824599D01*
X164366584Y-83727459D01*
X164366583Y-83727459D01*
X164363663Y-83726097D01*
X164309104Y-83711478D01*
X164138522Y-83665771D01*
X164138518Y-83665770D01*
X164135408Y-83664937D01*
X163958966Y-83649500D01*
X163841034Y-83649500D01*
X163664592Y-83664937D01*
X163661482Y-83665770D01*
X163661478Y-83665771D01*
X163490896Y-83711478D01*
X163436337Y-83726097D01*
X163433417Y-83727459D01*
X163433416Y-83727459D01*
X163225099Y-83824599D01*
X163225093Y-83824602D01*
X163222171Y-83825965D01*
X163028599Y-83961505D01*
X162861505Y-84128599D01*
X162725965Y-84322170D01*
X162724602Y-84325092D01*
X162724599Y-84325098D01*
X162627459Y-84533416D01*
X162626097Y-84536337D01*
X162625263Y-84539450D01*
X162568751Y-84750359D01*
X162564937Y-84764592D01*
X162544341Y-85000000D01*
X160418905Y-85000000D01*
X158790496Y-83371591D01*
X158787829Y-83368781D01*
X158766201Y-83344761D01*
X158760996Y-83338980D01*
X158753892Y-83335817D01*
X158753889Y-83335815D01*
X158738742Y-83329072D01*
X158728534Y-83323529D01*
X158714631Y-83314500D01*
X158708107Y-83310263D01*
X158700425Y-83309046D01*
X158700424Y-83309046D01*
X158699709Y-83308933D01*
X158681188Y-83303447D01*
X158673421Y-83299989D01*
X158649062Y-83299989D01*
X158637486Y-83299078D01*
X158631917Y-83298196D01*
X158613424Y-83295267D01*
X158605912Y-83297280D01*
X158605908Y-83297280D01*
X158605211Y-83297467D01*
X158586058Y-83299989D01*
X150533350Y-83299989D01*
X150529477Y-83299888D01*
X150497192Y-83298196D01*
X150489425Y-83297789D01*
X150482165Y-83300576D01*
X150482164Y-83300576D01*
X150466680Y-83306520D01*
X150455547Y-83309818D01*
X150431721Y-83314882D01*
X150424845Y-83319878D01*
X150407868Y-83329095D01*
X150399929Y-83332143D01*
X150382699Y-83349373D01*
X150373870Y-83356913D01*
X150354166Y-83371229D01*
X150350279Y-83377962D01*
X150350276Y-83377965D01*
X150349915Y-83378591D01*
X150338156Y-83393916D01*
X148046102Y-85685971D01*
X148043292Y-85688638D01*
X148013491Y-85715471D01*
X148010328Y-85722575D01*
X148010326Y-85722578D01*
X148003583Y-85737725D01*
X147998040Y-85747932D01*
X147984774Y-85768360D01*
X147983557Y-85776042D01*
X147983557Y-85776043D01*
X147983444Y-85776758D01*
X147977958Y-85795279D01*
X147974500Y-85803046D01*
X147974500Y-85827405D01*
X147973589Y-85838981D01*
X147969778Y-85863043D01*
X147971791Y-85870555D01*
X147971791Y-85870559D01*
X147971978Y-85871256D01*
X147974500Y-85890409D01*
X147974500Y-87528456D01*
X147957187Y-87576022D01*
X147952826Y-87580782D01*
X147871950Y-87661658D01*
X147829603Y-87744769D01*
X147792583Y-87779290D01*
X147742033Y-87781939D01*
X147711343Y-87763499D01*
X147293946Y-87346102D01*
X147291279Y-87343292D01*
X147269651Y-87319272D01*
X147264446Y-87313491D01*
X147257342Y-87310328D01*
X147257339Y-87310326D01*
X147242192Y-87303583D01*
X147231984Y-87298040D01*
X147218081Y-87289011D01*
X147211557Y-87284774D01*
X147203875Y-87283557D01*
X147203874Y-87283557D01*
X147203159Y-87283444D01*
X147184638Y-87277958D01*
X147176871Y-87274500D01*
X147152512Y-87274500D01*
X147140936Y-87273589D01*
X147135367Y-87272707D01*
X147116874Y-87269778D01*
X147109362Y-87271791D01*
X147109358Y-87271791D01*
X147108661Y-87271978D01*
X147089508Y-87274500D01*
X138007861Y-87274500D01*
X138003988Y-87274399D01*
X137971703Y-87272707D01*
X137963936Y-87272300D01*
X137956673Y-87275088D01*
X137956672Y-87275088D01*
X137941194Y-87281029D01*
X137930063Y-87284327D01*
X137916917Y-87287122D01*
X137906232Y-87289393D01*
X137899942Y-87293963D01*
X137899940Y-87293964D01*
X137899353Y-87294391D01*
X137882378Y-87303608D01*
X137874440Y-87306655D01*
X137857214Y-87323881D01*
X137848384Y-87331422D01*
X137828677Y-87345740D01*
X137824790Y-87352473D01*
X137824789Y-87352474D01*
X137824426Y-87353103D01*
X137812666Y-87368429D01*
X136796102Y-88384993D01*
X136793292Y-88387660D01*
X136763491Y-88414493D01*
X136760328Y-88421597D01*
X136760326Y-88421600D01*
X136753583Y-88436747D01*
X136748040Y-88446954D01*
X136734774Y-88467382D01*
X136733557Y-88475064D01*
X136733557Y-88475065D01*
X136733444Y-88475780D01*
X136727958Y-88494301D01*
X136724500Y-88502068D01*
X136724500Y-88526427D01*
X136723589Y-88538003D01*
X136719778Y-88562065D01*
X136721791Y-88569577D01*
X136721791Y-88569581D01*
X136721978Y-88570278D01*
X136724500Y-88589431D01*
X136724500Y-92334170D01*
X136707187Y-92381736D01*
X136702826Y-92386496D01*
X134938529Y-94150794D01*
X133276826Y-95812497D01*
X133230950Y-95833889D01*
X133182055Y-95820788D01*
X133153021Y-95779324D01*
X133150500Y-95760171D01*
X133150500Y-94485180D01*
X133149569Y-94480498D01*
X133143189Y-94448425D01*
X133143188Y-94448424D01*
X133141767Y-94441278D01*
X133108504Y-94391496D01*
X133058722Y-94358233D01*
X133051576Y-94356812D01*
X133051575Y-94356811D01*
X133018390Y-94350210D01*
X133018389Y-94350210D01*
X133014820Y-94349500D01*
X132574000Y-94349500D01*
X132526434Y-94332187D01*
X132501124Y-94288350D01*
X132500000Y-94275500D01*
X132500000Y-85500000D01*
X129227852Y-85500000D01*
X129180286Y-85482687D01*
X129154976Y-85438850D01*
X129153852Y-85425974D01*
X129154559Y-83400000D01*
X130444341Y-83400000D01*
X130464937Y-83635408D01*
X130465770Y-83638518D01*
X130465771Y-83638522D01*
X130489013Y-83725263D01*
X130526097Y-83863663D01*
X130527459Y-83866583D01*
X130527459Y-83866584D01*
X130624599Y-84074901D01*
X130624600Y-84074902D01*
X130625965Y-84077829D01*
X130761505Y-84271401D01*
X130928599Y-84438495D01*
X131122171Y-84574035D01*
X131125093Y-84575398D01*
X131125099Y-84575401D01*
X131333416Y-84672541D01*
X131336337Y-84673903D01*
X131339451Y-84674737D01*
X131339450Y-84674737D01*
X131561478Y-84734229D01*
X131561482Y-84734230D01*
X131564592Y-84735063D01*
X131741034Y-84750500D01*
X131858966Y-84750500D01*
X132035408Y-84735063D01*
X132038518Y-84734230D01*
X132038522Y-84734229D01*
X132260550Y-84674737D01*
X132260549Y-84674737D01*
X132263663Y-84673903D01*
X132266584Y-84672541D01*
X132474901Y-84575401D01*
X132474907Y-84575398D01*
X132477829Y-84574035D01*
X132671401Y-84438495D01*
X132838495Y-84271401D01*
X132974035Y-84077830D01*
X132975398Y-84074908D01*
X132975401Y-84074902D01*
X133072541Y-83866584D01*
X133072541Y-83866583D01*
X133073903Y-83863663D01*
X133110987Y-83725263D01*
X133134229Y-83638522D01*
X133134230Y-83638518D01*
X133135063Y-83635408D01*
X133155659Y-83400000D01*
X133135063Y-83164592D01*
X133073903Y-82936337D01*
X133072541Y-82933416D01*
X132975401Y-82725099D01*
X132975398Y-82725093D01*
X132974035Y-82722171D01*
X132838495Y-82528599D01*
X132671401Y-82361505D01*
X132477829Y-82225965D01*
X132474907Y-82224602D01*
X132474901Y-82224599D01*
X132266584Y-82127459D01*
X132266583Y-82127459D01*
X132263663Y-82126097D01*
X132209104Y-82111478D01*
X132038522Y-82065771D01*
X132038518Y-82065770D01*
X132035408Y-82064937D01*
X131858966Y-82049500D01*
X131741034Y-82049500D01*
X131564592Y-82064937D01*
X131561482Y-82065770D01*
X131561478Y-82065771D01*
X131390896Y-82111478D01*
X131336337Y-82126097D01*
X131333417Y-82127459D01*
X131333416Y-82127459D01*
X131125099Y-82224599D01*
X131125093Y-82224602D01*
X131122171Y-82225965D01*
X130928599Y-82361505D01*
X130761505Y-82528599D01*
X130625965Y-82722170D01*
X130624602Y-82725092D01*
X130624599Y-82725098D01*
X130624599Y-82725099D01*
X130526097Y-82936337D01*
X130464937Y-83164592D01*
X130444341Y-83400000D01*
X129154559Y-83400000D01*
X129155225Y-81494440D01*
X139939901Y-81494440D01*
X139940584Y-81499663D01*
X139940584Y-81499666D01*
X139941708Y-81508257D01*
X139956633Y-81622394D01*
X140008605Y-81740510D01*
X140091639Y-81839291D01*
X140199060Y-81910796D01*
X140204092Y-81912368D01*
X140204094Y-81912369D01*
X140239714Y-81923497D01*
X140322233Y-81949278D01*
X140327501Y-81949375D01*
X140327504Y-81949375D01*
X140381552Y-81950365D01*
X140451255Y-81951643D01*
X140456338Y-81950257D01*
X140456340Y-81950257D01*
X140570671Y-81919086D01*
X140575755Y-81917700D01*
X140685724Y-81850179D01*
X140772322Y-81754507D01*
X140828588Y-81638375D01*
X140849997Y-81511120D01*
X140850133Y-81500000D01*
X140831839Y-81372259D01*
X140778428Y-81254788D01*
X140771003Y-81246170D01*
X140697633Y-81161020D01*
X140697632Y-81161019D01*
X140694193Y-81157028D01*
X140689774Y-81154164D01*
X140689772Y-81154162D01*
X140590329Y-81089708D01*
X140590330Y-81089708D01*
X140585906Y-81086841D01*
X140580857Y-81085331D01*
X140580855Y-81085330D01*
X140467326Y-81051377D01*
X140467325Y-81051377D01*
X140462273Y-81049866D01*
X140396771Y-81049466D01*
X140338501Y-81049110D01*
X140338500Y-81049110D01*
X140333231Y-81049078D01*
X140209155Y-81084539D01*
X140100019Y-81153399D01*
X140096531Y-81157348D01*
X140096529Y-81157350D01*
X140093288Y-81161020D01*
X140014596Y-81250122D01*
X140012357Y-81254891D01*
X140012355Y-81254894D01*
X139968892Y-81347469D01*
X139959754Y-81366932D01*
X139939901Y-81494440D01*
X129155225Y-81494440D01*
X129155824Y-79778828D01*
X134450000Y-79778828D01*
X134482779Y-79933039D01*
X134484353Y-79936574D01*
X134545325Y-80073523D01*
X134545328Y-80073527D01*
X134546903Y-80077066D01*
X134639571Y-80204612D01*
X134756733Y-80310105D01*
X134893267Y-80388933D01*
X135043207Y-80437651D01*
X135047056Y-80438056D01*
X135047058Y-80438056D01*
X135187045Y-80452769D01*
X135192877Y-80453382D01*
X135200000Y-80455291D01*
X135209412Y-80452769D01*
X135210334Y-80452522D01*
X135229487Y-80450000D01*
X160170513Y-80450000D01*
X160189666Y-80452522D01*
X160200000Y-80455291D01*
X160207123Y-80453382D01*
X160212955Y-80452769D01*
X160352942Y-80438056D01*
X160352944Y-80438056D01*
X160356793Y-80437651D01*
X160506733Y-80388933D01*
X160643267Y-80310105D01*
X160760429Y-80204612D01*
X160853097Y-80077066D01*
X160854672Y-80073527D01*
X160854675Y-80073523D01*
X160915647Y-79936574D01*
X160917221Y-79933039D01*
X160950000Y-79778828D01*
X160950000Y-79621172D01*
X160917221Y-79466961D01*
X160853097Y-79322935D01*
X160803951Y-79255291D01*
X160762709Y-79198525D01*
X160762705Y-79198520D01*
X160760429Y-79195388D01*
X160643267Y-79089895D01*
X160506733Y-79011067D01*
X160356793Y-78962349D01*
X160352944Y-78961944D01*
X160352942Y-78961944D01*
X160212955Y-78947231D01*
X160207123Y-78946618D01*
X160200000Y-78944709D01*
X160190588Y-78947231D01*
X160189666Y-78947478D01*
X160170513Y-78950000D01*
X135229487Y-78950000D01*
X135210334Y-78947478D01*
X135209412Y-78947231D01*
X135200000Y-78944709D01*
X135192877Y-78946618D01*
X135187045Y-78947231D01*
X135047058Y-78961944D01*
X135047056Y-78961944D01*
X135043207Y-78962349D01*
X134893267Y-79011067D01*
X134756733Y-79089895D01*
X134639571Y-79195388D01*
X134637295Y-79198520D01*
X134637291Y-79198525D01*
X134596049Y-79255291D01*
X134546903Y-79322935D01*
X134482779Y-79466961D01*
X134450000Y-79621172D01*
X134450000Y-79778828D01*
X129155824Y-79778828D01*
X129157096Y-76135801D01*
X129159484Y-76117180D01*
X129159938Y-76115436D01*
X129159938Y-76115435D01*
X129162393Y-76106007D01*
X129159805Y-76096614D01*
X129159736Y-76086874D01*
X129160432Y-76086869D01*
X129159659Y-76078189D01*
X129171734Y-75946653D01*
X129174488Y-75932345D01*
X129217984Y-75785930D01*
X129223489Y-75772438D01*
X129294835Y-75637382D01*
X129302877Y-75625230D01*
X129399302Y-75506777D01*
X129409569Y-75496437D01*
X129522406Y-75403247D01*
X129527341Y-75399172D01*
X129539431Y-75391047D01*
X129673979Y-75318747D01*
X129687431Y-75313147D01*
X129833536Y-75268614D01*
X129847825Y-75265759D01*
X129979267Y-75252755D01*
X129987952Y-75253464D01*
X129987952Y-75252770D01*
X129997696Y-75252770D01*
X130007106Y-75255291D01*
X130017440Y-75252522D01*
X130036593Y-75250000D01*
X164968892Y-75250000D01*
X164987676Y-75252609D01*
G37*
%TD.AperFunction*%
%TA.AperFunction,Conductor*%
G36*
X143838464Y-94992813D02*
G01*
X143863774Y-95036650D01*
X143854984Y-95086500D01*
X143824493Y-95115434D01*
X143766850Y-95144804D01*
X143766848Y-95144806D01*
X143761658Y-95147450D01*
X143671950Y-95237158D01*
X143669306Y-95242348D01*
X143669304Y-95242350D01*
X143617000Y-95345002D01*
X143614354Y-95350196D01*
X143613443Y-95355948D01*
X143613442Y-95355951D01*
X143595419Y-95469748D01*
X143594508Y-95475500D01*
X143595419Y-95481252D01*
X143613442Y-95595049D01*
X143613443Y-95595052D01*
X143614354Y-95600804D01*
X143616999Y-95605995D01*
X143617000Y-95605998D01*
X143669304Y-95708650D01*
X143669306Y-95708652D01*
X143671950Y-95713842D01*
X143761658Y-95803550D01*
X143766848Y-95806194D01*
X143766850Y-95806196D01*
X143869502Y-95858500D01*
X143869505Y-95858501D01*
X143874696Y-95861146D01*
X143880448Y-95862057D01*
X143880451Y-95862058D01*
X143994248Y-95880081D01*
X144000000Y-95880992D01*
X144037507Y-95875051D01*
X144087194Y-95884709D01*
X144101408Y-95895814D01*
X146059493Y-97853898D01*
X146062160Y-97856708D01*
X146088993Y-97886509D01*
X146096097Y-97889672D01*
X146096100Y-97889674D01*
X146111247Y-97896417D01*
X146121454Y-97901960D01*
X146141882Y-97915226D01*
X146149564Y-97916443D01*
X146149565Y-97916443D01*
X146150280Y-97916556D01*
X146168801Y-97922042D01*
X146176568Y-97925500D01*
X146200927Y-97925500D01*
X146212503Y-97926411D01*
X146236565Y-97930222D01*
X146244077Y-97928209D01*
X146244081Y-97928209D01*
X146244778Y-97928022D01*
X146263931Y-97925500D01*
X147819617Y-97925500D01*
X147867183Y-97942813D01*
X147892493Y-97986650D01*
X147885551Y-98033094D01*
X147864354Y-98074696D01*
X147863443Y-98080448D01*
X147863442Y-98080451D01*
X147851046Y-98158722D01*
X147844508Y-98200000D01*
X147850449Y-98237508D01*
X147840791Y-98287195D01*
X147829686Y-98301409D01*
X147354698Y-98776397D01*
X147308822Y-98797789D01*
X147302372Y-98798071D01*
X144671214Y-98798071D01*
X144623648Y-98780758D01*
X144618888Y-98776397D01*
X143336931Y-97494440D01*
X144044901Y-97494440D01*
X144045584Y-97499663D01*
X144045584Y-97499666D01*
X144047928Y-97517586D01*
X144061633Y-97622394D01*
X144113605Y-97740510D01*
X144196639Y-97839291D01*
X144304060Y-97910796D01*
X144309092Y-97912368D01*
X144309094Y-97912369D01*
X144340059Y-97922043D01*
X144427233Y-97949278D01*
X144432501Y-97949375D01*
X144432504Y-97949375D01*
X144486552Y-97950365D01*
X144556255Y-97951643D01*
X144561338Y-97950257D01*
X144561340Y-97950257D01*
X144655559Y-97924569D01*
X144680755Y-97917700D01*
X144790724Y-97850179D01*
X144877322Y-97754507D01*
X144933588Y-97638375D01*
X144954997Y-97511120D01*
X144955133Y-97500000D01*
X144953591Y-97489234D01*
X144937586Y-97377472D01*
X144937585Y-97377469D01*
X144936839Y-97372259D01*
X144932247Y-97362159D01*
X144885610Y-97259586D01*
X144885608Y-97259583D01*
X144883428Y-97254788D01*
X144876358Y-97246582D01*
X144802633Y-97161020D01*
X144802632Y-97161019D01*
X144799193Y-97157028D01*
X144794774Y-97154164D01*
X144794772Y-97154162D01*
X144695329Y-97089708D01*
X144695330Y-97089708D01*
X144690906Y-97086841D01*
X144685857Y-97085331D01*
X144685855Y-97085330D01*
X144572326Y-97051377D01*
X144572325Y-97051377D01*
X144567273Y-97049866D01*
X144501771Y-97049466D01*
X144443501Y-97049110D01*
X144443500Y-97049110D01*
X144438231Y-97049078D01*
X144314155Y-97084539D01*
X144205019Y-97153399D01*
X144201531Y-97157348D01*
X144201529Y-97157350D01*
X144172939Y-97189723D01*
X144119596Y-97250122D01*
X144117357Y-97254891D01*
X144117355Y-97254894D01*
X144088154Y-97317092D01*
X144064754Y-97366932D01*
X144044901Y-97494440D01*
X143336931Y-97494440D01*
X143311878Y-97469387D01*
X143309211Y-97466577D01*
X143287583Y-97442557D01*
X143282378Y-97436776D01*
X143275274Y-97433613D01*
X143275271Y-97433611D01*
X143260124Y-97426868D01*
X143249916Y-97421325D01*
X143236013Y-97412296D01*
X143229489Y-97408059D01*
X143221807Y-97406842D01*
X143221806Y-97406842D01*
X143221091Y-97406729D01*
X143202570Y-97401243D01*
X143194803Y-97397785D01*
X143170444Y-97397785D01*
X143158868Y-97396874D01*
X143153299Y-97395992D01*
X143134806Y-97393063D01*
X143127294Y-97395076D01*
X143127290Y-97395076D01*
X143126593Y-97395263D01*
X143107440Y-97397785D01*
X142310991Y-97397785D01*
X142307118Y-97397684D01*
X142274832Y-97395992D01*
X142267066Y-97395585D01*
X142259803Y-97398373D01*
X142244320Y-97404316D01*
X142233187Y-97407614D01*
X142216969Y-97411061D01*
X142216968Y-97411061D01*
X142209362Y-97412678D01*
X142202714Y-97417508D01*
X142202483Y-97417676D01*
X142185510Y-97426891D01*
X142184835Y-97427150D01*
X142184833Y-97427151D01*
X142177571Y-97429939D01*
X142160344Y-97447166D01*
X142151514Y-97454707D01*
X142131807Y-97469025D01*
X142127920Y-97475758D01*
X142127919Y-97475759D01*
X142127556Y-97476388D01*
X142115796Y-97491714D01*
X141046582Y-98560927D01*
X141043772Y-98563594D01*
X141013971Y-98590427D01*
X141010808Y-98597531D01*
X141010806Y-98597534D01*
X141004063Y-98612681D01*
X140998520Y-98622888D01*
X140985254Y-98643316D01*
X140984037Y-98650998D01*
X140984037Y-98650999D01*
X140983924Y-98651714D01*
X140978438Y-98670235D01*
X140974980Y-98678002D01*
X140974980Y-98702361D01*
X140974069Y-98713937D01*
X140970258Y-98737999D01*
X140972271Y-98745511D01*
X140972271Y-98745515D01*
X140972458Y-98746212D01*
X140974980Y-98765365D01*
X140974980Y-100101877D01*
X140957667Y-100149443D01*
X140953306Y-100154203D01*
X139904203Y-101203306D01*
X139858327Y-101224698D01*
X139851877Y-101224980D01*
X137774537Y-101224980D01*
X137726971Y-101207667D01*
X137722211Y-101203306D01*
X136815007Y-100296102D01*
X136812340Y-100293292D01*
X136790712Y-100269272D01*
X136785507Y-100263491D01*
X136778403Y-100260328D01*
X136778400Y-100260326D01*
X136763253Y-100253583D01*
X136753045Y-100248040D01*
X136739142Y-100239011D01*
X136732618Y-100234774D01*
X136724936Y-100233557D01*
X136724935Y-100233557D01*
X136724220Y-100233444D01*
X136705699Y-100227958D01*
X136697932Y-100224500D01*
X136673573Y-100224500D01*
X136661997Y-100223589D01*
X136651825Y-100221978D01*
X136637935Y-100219778D01*
X136630423Y-100221791D01*
X136630419Y-100221791D01*
X136629722Y-100221978D01*
X136610569Y-100224500D01*
X135821544Y-100224500D01*
X135773978Y-100207187D01*
X135769218Y-100202826D01*
X135688342Y-100121950D01*
X135683152Y-100119306D01*
X135683150Y-100119304D01*
X135580498Y-100067000D01*
X135580495Y-100066999D01*
X135575304Y-100064354D01*
X135569552Y-100063443D01*
X135569549Y-100063442D01*
X135455752Y-100045419D01*
X135450000Y-100044508D01*
X135444248Y-100045419D01*
X135330451Y-100063442D01*
X135330448Y-100063443D01*
X135324696Y-100064354D01*
X135319505Y-100066999D01*
X135319502Y-100067000D01*
X135211658Y-100121950D01*
X135210825Y-100120314D01*
X135169821Y-100132068D01*
X135123580Y-100111476D01*
X135101394Y-100065978D01*
X135100989Y-100058249D01*
X135100989Y-99943370D01*
X135118302Y-99895804D01*
X135162139Y-99870494D01*
X135208582Y-99877435D01*
X135224696Y-99885646D01*
X135230448Y-99886557D01*
X135230451Y-99886558D01*
X135344248Y-99904581D01*
X135350000Y-99905492D01*
X135355752Y-99904581D01*
X135469549Y-99886558D01*
X135469552Y-99886557D01*
X135475304Y-99885646D01*
X135480495Y-99883001D01*
X135480498Y-99883000D01*
X135583150Y-99830696D01*
X135583152Y-99830694D01*
X135588342Y-99828050D01*
X135678050Y-99738342D01*
X135680694Y-99733152D01*
X135680696Y-99733150D01*
X135733000Y-99630498D01*
X135733001Y-99630495D01*
X135735646Y-99625304D01*
X135736557Y-99619552D01*
X135736558Y-99619549D01*
X135754581Y-99505752D01*
X135755492Y-99500000D01*
X135754661Y-99494756D01*
X135771894Y-99447411D01*
X135776255Y-99442651D01*
X140221731Y-94997174D01*
X140267607Y-94975782D01*
X140274057Y-94975500D01*
X143790898Y-94975500D01*
X143838464Y-94992813D01*
G37*
%TD.AperFunction*%
%TD*%
M02*
