%TF.GenerationSoftware,KiCad,Pcbnew,(6.0.0)*%
%TF.CreationDate,2022-11-27T20:06:59+00:00*%
%TF.ProjectId,Tracer,54726163-6572-42e6-9b69-6361645f7063,F*%
%TF.SameCoordinates,Original*%
%TF.FileFunction,Paste,Top*%
%TF.FilePolarity,Positive*%
%FSLAX46Y46*%
G04 Gerber Fmt 4.6, Leading zero omitted, Abs format (unit mm)*
G04 Created by KiCad (PCBNEW (6.0.0)) date 2022-11-27 20:06:59*
%MOMM*%
%LPD*%
G01*
G04 APERTURE LIST*
G04 Aperture macros list*
%AMRoundRect*
0 Rectangle with rounded corners*
0 $1 Rounding radius*
0 $2 $3 $4 $5 $6 $7 $8 $9 X,Y pos of 4 corners*
0 Add a 4 corners polygon primitive as box body*
4,1,4,$2,$3,$4,$5,$6,$7,$8,$9,$2,$3,0*
0 Add four circle primitives for the rounded corners*
1,1,$1+$1,$2,$3*
1,1,$1+$1,$4,$5*
1,1,$1+$1,$6,$7*
1,1,$1+$1,$8,$9*
0 Add four rect primitives between the rounded corners*
20,1,$1+$1,$2,$3,$4,$5,0*
20,1,$1+$1,$4,$5,$6,$7,0*
20,1,$1+$1,$6,$7,$8,$9,0*
20,1,$1+$1,$8,$9,$2,$3,0*%
G04 Aperture macros list end*
%ADD10RoundRect,0.140000X0.170000X-0.140000X0.170000X0.140000X-0.170000X0.140000X-0.170000X-0.140000X0*%
%ADD11RoundRect,0.250000X0.475000X-0.250000X0.475000X0.250000X-0.475000X0.250000X-0.475000X-0.250000X0*%
%ADD12RoundRect,0.140000X0.140000X0.170000X-0.140000X0.170000X-0.140000X-0.170000X0.140000X-0.170000X0*%
%ADD13RoundRect,0.250000X0.250000X0.475000X-0.250000X0.475000X-0.250000X-0.475000X0.250000X-0.475000X0*%
%ADD14R,0.600000X0.450000*%
%ADD15RoundRect,0.135000X-0.135000X-0.185000X0.135000X-0.185000X0.135000X0.185000X-0.135000X0.185000X0*%
%ADD16R,0.400000X0.450000*%
%ADD17R,0.500000X0.450000*%
%ADD18RoundRect,0.135000X0.135000X0.185000X-0.135000X0.185000X-0.135000X-0.185000X0.135000X-0.185000X0*%
%ADD19RoundRect,0.250000X-0.250000X-0.475000X0.250000X-0.475000X0.250000X0.475000X-0.250000X0.475000X0*%
%ADD20R,0.800000X0.300000*%
%ADD21R,0.300000X0.800000*%
%ADD22R,3.750000X3.750000*%
%ADD23RoundRect,0.135000X-0.185000X0.135000X-0.185000X-0.135000X0.185000X-0.135000X0.185000X0.135000X0*%
%ADD24R,0.350000X0.575000*%
%ADD25R,0.575000X0.350000*%
%ADD26RoundRect,0.147500X-0.172500X0.147500X-0.172500X-0.147500X0.172500X-0.147500X0.172500X0.147500X0*%
%ADD27RoundRect,0.140000X-0.170000X0.140000X-0.170000X-0.140000X0.170000X-0.140000X0.170000X0.140000X0*%
%ADD28R,1.250000X0.900000*%
%ADD29R,0.900000X0.800000*%
%ADD30R,1.200000X1.000000*%
%ADD31RoundRect,0.135000X0.185000X-0.135000X0.185000X0.135000X-0.185000X0.135000X-0.185000X-0.135000X0*%
%ADD32RoundRect,0.140000X-0.140000X-0.170000X0.140000X-0.170000X0.140000X0.170000X-0.140000X0.170000X0*%
%ADD33R,1.000000X0.300000*%
%ADD34R,0.300000X1.000000*%
%ADD35R,3.350000X3.350000*%
%ADD36RoundRect,0.250000X-0.625000X0.400000X-0.625000X-0.400000X0.625000X-0.400000X0.625000X0.400000X0*%
%ADD37R,0.650000X0.400000*%
%ADD38C,0.226000*%
%ADD39R,1.160000X0.600000*%
%ADD40R,1.160000X0.300000*%
%ADD41RoundRect,0.218750X-0.256250X0.218750X-0.256250X-0.218750X0.256250X-0.218750X0.256250X0.218750X0*%
%ADD42R,1.400000X1.200000*%
%ADD43RoundRect,0.200000X0.200000X0.275000X-0.200000X0.275000X-0.200000X-0.275000X0.200000X-0.275000X0*%
%ADD44R,0.900000X0.600000*%
%ADD45R,1.650000X0.650000*%
G04 APERTURE END LIST*
D10*
%TO.C,C1*%
X149600000Y-97900000D03*
X149600000Y-96940000D03*
%TD*%
D11*
%TO.C,C16*%
X138195000Y-86850000D03*
X138195000Y-84950000D03*
%TD*%
D12*
%TO.C,C10*%
X135280000Y-96850000D03*
X134320000Y-96850000D03*
%TD*%
D13*
%TO.C,C5*%
X153155000Y-89200000D03*
X151255000Y-89200000D03*
%TD*%
D14*
%TO.C,D1*%
X154900000Y-93300000D03*
X157000000Y-93300000D03*
%TD*%
D15*
%TO.C,R6*%
X157430000Y-84400000D03*
X158450000Y-84400000D03*
%TD*%
D16*
%TO.C,Q2*%
X148600000Y-86125000D03*
X147800000Y-86125000D03*
D17*
X148200000Y-87275000D03*
%TD*%
D11*
%TO.C,C3*%
X152650000Y-94350000D03*
X152650000Y-92450000D03*
%TD*%
D18*
%TO.C,R10*%
X135210000Y-104650000D03*
X134190000Y-104650000D03*
%TD*%
D19*
%TO.C,C6*%
X140345000Y-82900000D03*
X142245000Y-82900000D03*
%TD*%
D20*
%TO.C,IC4*%
X136400000Y-96825000D03*
X136400000Y-97325000D03*
X136400000Y-97825000D03*
X136400000Y-98325000D03*
X136400000Y-98825000D03*
X136400000Y-99325000D03*
X136400000Y-99825000D03*
X136400000Y-100325000D03*
D21*
X137150000Y-101075000D03*
X137650000Y-101075000D03*
X138150000Y-101075000D03*
X138650000Y-101075000D03*
X139150000Y-101075000D03*
X139650000Y-101075000D03*
X140150000Y-101075000D03*
X140650000Y-101075000D03*
D20*
X141400000Y-100325000D03*
X141400000Y-99825000D03*
X141400000Y-99325000D03*
X141400000Y-98825000D03*
X141400000Y-98325000D03*
X141400000Y-97825000D03*
X141400000Y-97325000D03*
X141400000Y-96825000D03*
D21*
X140650000Y-96075000D03*
X140150000Y-96075000D03*
X139650000Y-96075000D03*
X139150000Y-96075000D03*
X138650000Y-96075000D03*
X138150000Y-96075000D03*
X137650000Y-96075000D03*
X137150000Y-96075000D03*
D22*
X138900000Y-98575000D03*
%TD*%
D10*
%TO.C,C12*%
X136300000Y-94880000D03*
X136300000Y-93920000D03*
%TD*%
D23*
%TO.C,R12*%
X153350000Y-97090000D03*
X153350000Y-98110000D03*
%TD*%
D24*
%TO.C,IC1*%
X146750000Y-97463000D03*
X147250000Y-97463000D03*
X147750000Y-97463000D03*
X148250000Y-97463000D03*
D25*
X148412000Y-96800000D03*
X148412000Y-96300000D03*
X148412000Y-95800000D03*
D24*
X148250000Y-95137000D03*
X147750000Y-95137000D03*
X147250000Y-95137000D03*
X146750000Y-95137000D03*
D25*
X146588000Y-95800000D03*
X146588000Y-96300000D03*
X146588000Y-96800000D03*
%TD*%
D12*
%TO.C,C11*%
X142010000Y-110850000D03*
X141050000Y-110850000D03*
%TD*%
D11*
%TO.C,C18*%
X155600000Y-97750000D03*
X155600000Y-95850000D03*
%TD*%
D10*
%TO.C,C20*%
X143650000Y-93160000D03*
X143650000Y-92200000D03*
%TD*%
D26*
%TO.C,L1*%
X134825000Y-92965000D03*
X134825000Y-93935000D03*
%TD*%
D18*
%TO.C,R11*%
X145110000Y-84300000D03*
X144090000Y-84300000D03*
%TD*%
D12*
%TO.C,C21*%
X134855000Y-94925000D03*
X133895000Y-94925000D03*
%TD*%
D18*
%TO.C,R3*%
X154460000Y-84800000D03*
X153440000Y-84800000D03*
%TD*%
D23*
%TO.C,R4*%
X145400000Y-94890000D03*
X145400000Y-95910000D03*
%TD*%
D10*
%TO.C,C9*%
X137350000Y-94880000D03*
X137350000Y-93920000D03*
%TD*%
D27*
%TO.C,C2*%
X149600000Y-95020000D03*
X149600000Y-95980000D03*
%TD*%
D28*
%TO.C,S2*%
X161625000Y-104550000D03*
X161625000Y-106050000D03*
X161625000Y-109050000D03*
D29*
X164800000Y-103000000D03*
X162600000Y-103000000D03*
X162600000Y-110600000D03*
X164800000Y-110600000D03*
%TD*%
D30*
%TO.C,S1*%
X138150000Y-109400000D03*
X130750000Y-109400000D03*
%TD*%
D14*
%TO.C,D3*%
X147850000Y-84700000D03*
X149950000Y-84700000D03*
%TD*%
D31*
%TO.C,R1*%
X149700000Y-87210000D03*
X149700000Y-86190000D03*
%TD*%
D32*
%TO.C,C19*%
X134820000Y-91985000D03*
X135780000Y-91985000D03*
%TD*%
D33*
%TO.C,IC8*%
X154700000Y-103200000D03*
X154700000Y-102700000D03*
X154700000Y-102200000D03*
X154700000Y-101700000D03*
X154700000Y-101200000D03*
X154700000Y-100700000D03*
X154700000Y-100200000D03*
D34*
X153850000Y-99350000D03*
X153350000Y-99350000D03*
X152850000Y-99350000D03*
X152350000Y-99350000D03*
X151850000Y-99350000D03*
X151350000Y-99350000D03*
X150850000Y-99350000D03*
D33*
X150000000Y-100200000D03*
X150000000Y-100700000D03*
X150000000Y-101200000D03*
X150000000Y-101700000D03*
X150000000Y-102200000D03*
X150000000Y-102700000D03*
X150000000Y-103200000D03*
D34*
X150850000Y-104050000D03*
X151350000Y-104050000D03*
X151850000Y-104050000D03*
X152350000Y-104050000D03*
X152850000Y-104050000D03*
X153350000Y-104050000D03*
X153850000Y-104050000D03*
D35*
X152350000Y-101700000D03*
%TD*%
D36*
%TO.C,AE1*%
X130475000Y-87425000D03*
X130475000Y-90525000D03*
%TD*%
D32*
%TO.C,C13*%
X142520000Y-100800000D03*
X143480000Y-100800000D03*
%TD*%
%TO.C,C14*%
X137820000Y-102250000D03*
X138780000Y-102250000D03*
%TD*%
D27*
%TO.C,C22*%
X138350000Y-92170000D03*
X138350000Y-93130000D03*
%TD*%
D37*
%TO.C,Q1*%
X139350000Y-105700000D03*
X139350000Y-105050000D03*
X139350000Y-104400000D03*
X137450000Y-104400000D03*
X137450000Y-105050000D03*
X137450000Y-105700000D03*
%TD*%
D38*
%TO.C,IC3*%
X156140000Y-85200000D03*
X155740000Y-85200000D03*
X156140000Y-84800000D03*
X155740000Y-84800000D03*
X156140000Y-84400000D03*
X155740000Y-84400000D03*
%TD*%
D32*
%TO.C,C17*%
X156070000Y-99550000D03*
X157030000Y-99550000D03*
%TD*%
D39*
%TO.C,J1*%
X159125000Y-98650000D03*
X159115000Y-97850000D03*
D40*
X159115000Y-96700000D03*
X159115000Y-95700000D03*
X159115000Y-95200000D03*
X159115000Y-94200000D03*
D39*
X159115000Y-93050000D03*
X159115000Y-92250000D03*
X159115000Y-93050000D03*
D40*
X159115000Y-93700000D03*
X159115000Y-94700000D03*
X159115000Y-96200000D03*
X159115000Y-97200000D03*
D39*
X159115000Y-97850000D03*
%TD*%
D15*
%TO.C,R7*%
X135190000Y-105700000D03*
X136210000Y-105700000D03*
%TD*%
D41*
%TO.C,D2*%
X157800000Y-85962500D03*
X157800000Y-87537500D03*
%TD*%
D31*
%TO.C,R5*%
X145400000Y-97920000D03*
X145400000Y-96900000D03*
%TD*%
D10*
%TO.C,C8*%
X157100000Y-98060000D03*
X157100000Y-97100000D03*
%TD*%
D18*
%TO.C,R2*%
X156460000Y-86650000D03*
X155440000Y-86650000D03*
%TD*%
D13*
%TO.C,C4*%
X146245000Y-85900000D03*
X144345000Y-85900000D03*
%TD*%
D42*
%TO.C,Y1*%
X139900000Y-93650000D03*
X142100000Y-93650000D03*
X142100000Y-91950000D03*
X139900000Y-91950000D03*
%TD*%
D43*
%TO.C,R8*%
X159175000Y-111250000D03*
X157525000Y-111250000D03*
%TD*%
D44*
%TO.C,IC6*%
X142795000Y-86750000D03*
X142795000Y-85800000D03*
X142795000Y-84850000D03*
X139995000Y-84850000D03*
X139995000Y-86750000D03*
%TD*%
D12*
%TO.C,C15*%
X135280000Y-97850000D03*
X134320000Y-97850000D03*
%TD*%
D18*
%TO.C,R9*%
X140710000Y-102250000D03*
X139690000Y-102250000D03*
%TD*%
D31*
%TO.C,R13*%
X152350000Y-98120000D03*
X152350000Y-97100000D03*
%TD*%
D45*
%TO.C,IC2*%
X150800000Y-110855000D03*
X150800000Y-109585000D03*
X150800000Y-108315000D03*
X150800000Y-107045000D03*
X143600000Y-107045000D03*
X143600000Y-108315000D03*
X143600000Y-109585000D03*
X143600000Y-110855000D03*
%TD*%
D10*
%TO.C,C7*%
X136200000Y-104680000D03*
X136200000Y-103720000D03*
%TD*%
M02*
