%TF.GenerationSoftware,KiCad,Pcbnew,(6.0.0)*%
%TF.CreationDate,2022-05-30T17:20:12+01:00*%
%TF.ProjectId,Tracer,54726163-6572-42e6-9b69-6361645f7063,E*%
%TF.SameCoordinates,Original*%
%TF.FileFunction,Legend,Top*%
%TF.FilePolarity,Positive*%
%FSLAX46Y46*%
G04 Gerber Fmt 4.6, Leading zero omitted, Abs format (unit mm)*
G04 Created by KiCad (PCBNEW (6.0.0)) date 2022-05-30 17:20:12*
%MOMM*%
%LPD*%
G01*
G04 APERTURE LIST*
%ADD10C,0.035000*%
%ADD11C,0.120000*%
%ADD12C,0.200000*%
%ADD13C,0.027000*%
%ADD14C,0.100000*%
%ADD15C,0.250000*%
G04 APERTURE END LIST*
D10*
%TO.C,C15*%
X142478571Y-94118571D02*
X142454761Y-94142380D01*
X142383333Y-94166190D01*
X142335714Y-94166190D01*
X142264285Y-94142380D01*
X142216666Y-94094761D01*
X142192857Y-94047142D01*
X142169047Y-93951904D01*
X142169047Y-93880476D01*
X142192857Y-93785238D01*
X142216666Y-93737619D01*
X142264285Y-93690000D01*
X142335714Y-93666190D01*
X142383333Y-93666190D01*
X142454761Y-93690000D01*
X142478571Y-93713809D01*
X142954761Y-94166190D02*
X142669047Y-94166190D01*
X142811904Y-94166190D02*
X142811904Y-93666190D01*
X142764285Y-93737619D01*
X142716666Y-93785238D01*
X142669047Y-93809047D01*
X143407142Y-93666190D02*
X143169047Y-93666190D01*
X143145238Y-93904285D01*
X143169047Y-93880476D01*
X143216666Y-93856666D01*
X143335714Y-93856666D01*
X143383333Y-93880476D01*
X143407142Y-93904285D01*
X143430952Y-93951904D01*
X143430952Y-94070952D01*
X143407142Y-94118571D01*
X143383333Y-94142380D01*
X143335714Y-94166190D01*
X143216666Y-94166190D01*
X143169047Y-94142380D01*
X143145238Y-94118571D01*
%TO.C,R10*%
X132278571Y-99976190D02*
X132111904Y-99738095D01*
X131992857Y-99976190D02*
X131992857Y-99476190D01*
X132183333Y-99476190D01*
X132230952Y-99500000D01*
X132254761Y-99523809D01*
X132278571Y-99571428D01*
X132278571Y-99642857D01*
X132254761Y-99690476D01*
X132230952Y-99714285D01*
X132183333Y-99738095D01*
X131992857Y-99738095D01*
X132754761Y-99976190D02*
X132469047Y-99976190D01*
X132611904Y-99976190D02*
X132611904Y-99476190D01*
X132564285Y-99547619D01*
X132516666Y-99595238D01*
X132469047Y-99619047D01*
X133064285Y-99476190D02*
X133111904Y-99476190D01*
X133159523Y-99500000D01*
X133183333Y-99523809D01*
X133207142Y-99571428D01*
X133230952Y-99666666D01*
X133230952Y-99785714D01*
X133207142Y-99880952D01*
X133183333Y-99928571D01*
X133159523Y-99952380D01*
X133111904Y-99976190D01*
X133064285Y-99976190D01*
X133016666Y-99952380D01*
X132992857Y-99928571D01*
X132969047Y-99880952D01*
X132945238Y-99785714D01*
X132945238Y-99666666D01*
X132969047Y-99571428D01*
X132992857Y-99523809D01*
X133016666Y-99500000D01*
X133064285Y-99476190D01*
%TO.C,C1*%
X150716666Y-97398571D02*
X150692857Y-97422380D01*
X150621428Y-97446190D01*
X150573809Y-97446190D01*
X150502380Y-97422380D01*
X150454761Y-97374761D01*
X150430952Y-97327142D01*
X150407142Y-97231904D01*
X150407142Y-97160476D01*
X150430952Y-97065238D01*
X150454761Y-97017619D01*
X150502380Y-96970000D01*
X150573809Y-96946190D01*
X150621428Y-96946190D01*
X150692857Y-96970000D01*
X150716666Y-96993809D01*
X151192857Y-97446190D02*
X150907142Y-97446190D01*
X151050000Y-97446190D02*
X151050000Y-96946190D01*
X151002380Y-97017619D01*
X150954761Y-97065238D01*
X150907142Y-97089047D01*
%TO.C,C16*%
X137873571Y-84078571D02*
X137849761Y-84102380D01*
X137778333Y-84126190D01*
X137730714Y-84126190D01*
X137659285Y-84102380D01*
X137611666Y-84054761D01*
X137587857Y-84007142D01*
X137564047Y-83911904D01*
X137564047Y-83840476D01*
X137587857Y-83745238D01*
X137611666Y-83697619D01*
X137659285Y-83650000D01*
X137730714Y-83626190D01*
X137778333Y-83626190D01*
X137849761Y-83650000D01*
X137873571Y-83673809D01*
X138349761Y-84126190D02*
X138064047Y-84126190D01*
X138206904Y-84126190D02*
X138206904Y-83626190D01*
X138159285Y-83697619D01*
X138111666Y-83745238D01*
X138064047Y-83769047D01*
X138778333Y-83626190D02*
X138683095Y-83626190D01*
X138635476Y-83650000D01*
X138611666Y-83673809D01*
X138564047Y-83745238D01*
X138540238Y-83840476D01*
X138540238Y-84030952D01*
X138564047Y-84078571D01*
X138587857Y-84102380D01*
X138635476Y-84126190D01*
X138730714Y-84126190D01*
X138778333Y-84102380D01*
X138802142Y-84078571D01*
X138825952Y-84030952D01*
X138825952Y-83911904D01*
X138802142Y-83864285D01*
X138778333Y-83840476D01*
X138730714Y-83816666D01*
X138635476Y-83816666D01*
X138587857Y-83840476D01*
X138564047Y-83864285D01*
X138540238Y-83911904D01*
%TO.C,C5*%
X151816666Y-87878571D02*
X151792857Y-87902380D01*
X151721428Y-87926190D01*
X151673809Y-87926190D01*
X151602380Y-87902380D01*
X151554761Y-87854761D01*
X151530952Y-87807142D01*
X151507142Y-87711904D01*
X151507142Y-87640476D01*
X151530952Y-87545238D01*
X151554761Y-87497619D01*
X151602380Y-87450000D01*
X151673809Y-87426190D01*
X151721428Y-87426190D01*
X151792857Y-87450000D01*
X151816666Y-87473809D01*
X152269047Y-87426190D02*
X152030952Y-87426190D01*
X152007142Y-87664285D01*
X152030952Y-87640476D01*
X152078571Y-87616666D01*
X152197619Y-87616666D01*
X152245238Y-87640476D01*
X152269047Y-87664285D01*
X152292857Y-87711904D01*
X152292857Y-87830952D01*
X152269047Y-87878571D01*
X152245238Y-87902380D01*
X152197619Y-87926190D01*
X152078571Y-87926190D01*
X152030952Y-87902380D01*
X152007142Y-87878571D01*
%TO.C,D1*%
X154480952Y-92226190D02*
X154480952Y-91726190D01*
X154600000Y-91726190D01*
X154671428Y-91750000D01*
X154719047Y-91797619D01*
X154742857Y-91845238D01*
X154766666Y-91940476D01*
X154766666Y-92011904D01*
X154742857Y-92107142D01*
X154719047Y-92154761D01*
X154671428Y-92202380D01*
X154600000Y-92226190D01*
X154480952Y-92226190D01*
X155242857Y-92226190D02*
X154957142Y-92226190D01*
X155100000Y-92226190D02*
X155100000Y-91726190D01*
X155052380Y-91797619D01*
X155004761Y-91845238D01*
X154957142Y-91869047D01*
%TO.C,Q2*%
X148052380Y-88673809D02*
X148004761Y-88650000D01*
X147957142Y-88602380D01*
X147885714Y-88530952D01*
X147838095Y-88507142D01*
X147790476Y-88507142D01*
X147814285Y-88626190D02*
X147766666Y-88602380D01*
X147719047Y-88554761D01*
X147695238Y-88459523D01*
X147695238Y-88292857D01*
X147719047Y-88197619D01*
X147766666Y-88150000D01*
X147814285Y-88126190D01*
X147909523Y-88126190D01*
X147957142Y-88150000D01*
X148004761Y-88197619D01*
X148028571Y-88292857D01*
X148028571Y-88459523D01*
X148004761Y-88554761D01*
X147957142Y-88602380D01*
X147909523Y-88626190D01*
X147814285Y-88626190D01*
X148219047Y-88173809D02*
X148242857Y-88150000D01*
X148290476Y-88126190D01*
X148409523Y-88126190D01*
X148457142Y-88150000D01*
X148480952Y-88173809D01*
X148504761Y-88221428D01*
X148504761Y-88269047D01*
X148480952Y-88340476D01*
X148195238Y-88626190D01*
X148504761Y-88626190D01*
%TO.C,R7*%
X132816666Y-100976190D02*
X132650000Y-100738095D01*
X132530952Y-100976190D02*
X132530952Y-100476190D01*
X132721428Y-100476190D01*
X132769047Y-100500000D01*
X132792857Y-100523809D01*
X132816666Y-100571428D01*
X132816666Y-100642857D01*
X132792857Y-100690476D01*
X132769047Y-100714285D01*
X132721428Y-100738095D01*
X132530952Y-100738095D01*
X132983333Y-100476190D02*
X133316666Y-100476190D01*
X133102380Y-100976190D01*
%TO.C,C3*%
X150866666Y-92428571D02*
X150842857Y-92452380D01*
X150771428Y-92476190D01*
X150723809Y-92476190D01*
X150652380Y-92452380D01*
X150604761Y-92404761D01*
X150580952Y-92357142D01*
X150557142Y-92261904D01*
X150557142Y-92190476D01*
X150580952Y-92095238D01*
X150604761Y-92047619D01*
X150652380Y-92000000D01*
X150723809Y-91976190D01*
X150771428Y-91976190D01*
X150842857Y-92000000D01*
X150866666Y-92023809D01*
X151033333Y-91976190D02*
X151342857Y-91976190D01*
X151176190Y-92166666D01*
X151247619Y-92166666D01*
X151295238Y-92190476D01*
X151319047Y-92214285D01*
X151342857Y-92261904D01*
X151342857Y-92380952D01*
X151319047Y-92428571D01*
X151295238Y-92452380D01*
X151247619Y-92476190D01*
X151104761Y-92476190D01*
X151057142Y-92452380D01*
X151033333Y-92428571D01*
%TO.C,H3*%
X130619047Y-103326190D02*
X130619047Y-102826190D01*
X130619047Y-103064285D02*
X130904761Y-103064285D01*
X130904761Y-103326190D02*
X130904761Y-102826190D01*
X131095238Y-102826190D02*
X131404761Y-102826190D01*
X131238095Y-103016666D01*
X131309523Y-103016666D01*
X131357142Y-103040476D01*
X131380952Y-103064285D01*
X131404761Y-103111904D01*
X131404761Y-103230952D01*
X131380952Y-103278571D01*
X131357142Y-103302380D01*
X131309523Y-103326190D01*
X131166666Y-103326190D01*
X131119047Y-103302380D01*
X131095238Y-103278571D01*
%TO.C,C6*%
X141211666Y-81678571D02*
X141187857Y-81702380D01*
X141116428Y-81726190D01*
X141068809Y-81726190D01*
X140997380Y-81702380D01*
X140949761Y-81654761D01*
X140925952Y-81607142D01*
X140902142Y-81511904D01*
X140902142Y-81440476D01*
X140925952Y-81345238D01*
X140949761Y-81297619D01*
X140997380Y-81250000D01*
X141068809Y-81226190D01*
X141116428Y-81226190D01*
X141187857Y-81250000D01*
X141211666Y-81273809D01*
X141640238Y-81226190D02*
X141545000Y-81226190D01*
X141497380Y-81250000D01*
X141473571Y-81273809D01*
X141425952Y-81345238D01*
X141402142Y-81440476D01*
X141402142Y-81630952D01*
X141425952Y-81678571D01*
X141449761Y-81702380D01*
X141497380Y-81726190D01*
X141592619Y-81726190D01*
X141640238Y-81702380D01*
X141664047Y-81678571D01*
X141687857Y-81630952D01*
X141687857Y-81511904D01*
X141664047Y-81464285D01*
X141640238Y-81440476D01*
X141592619Y-81416666D01*
X141497380Y-81416666D01*
X141449761Y-81440476D01*
X141425952Y-81464285D01*
X141402142Y-81511904D01*
%TO.C,IC4*%
X140406904Y-89476190D02*
X140406904Y-88976190D01*
X140930714Y-89428571D02*
X140906904Y-89452380D01*
X140835476Y-89476190D01*
X140787857Y-89476190D01*
X140716428Y-89452380D01*
X140668809Y-89404761D01*
X140645000Y-89357142D01*
X140621190Y-89261904D01*
X140621190Y-89190476D01*
X140645000Y-89095238D01*
X140668809Y-89047619D01*
X140716428Y-89000000D01*
X140787857Y-88976190D01*
X140835476Y-88976190D01*
X140906904Y-89000000D01*
X140930714Y-89023809D01*
X141359285Y-89142857D02*
X141359285Y-89476190D01*
X141240238Y-88952380D02*
X141121190Y-89309523D01*
X141430714Y-89309523D01*
%TO.C,R12*%
X153576190Y-96171428D02*
X153338095Y-96338095D01*
X153576190Y-96457142D02*
X153076190Y-96457142D01*
X153076190Y-96266666D01*
X153100000Y-96219047D01*
X153123809Y-96195238D01*
X153171428Y-96171428D01*
X153242857Y-96171428D01*
X153290476Y-96195238D01*
X153314285Y-96219047D01*
X153338095Y-96266666D01*
X153338095Y-96457142D01*
X153576190Y-95695238D02*
X153576190Y-95980952D01*
X153576190Y-95838095D02*
X153076190Y-95838095D01*
X153147619Y-95885714D01*
X153195238Y-95933333D01*
X153219047Y-95980952D01*
X153123809Y-95504761D02*
X153100000Y-95480952D01*
X153076190Y-95433333D01*
X153076190Y-95314285D01*
X153100000Y-95266666D01*
X153123809Y-95242857D01*
X153171428Y-95219047D01*
X153219047Y-95219047D01*
X153290476Y-95242857D01*
X153576190Y-95528571D01*
X153576190Y-95219047D01*
%TO.C,IC1*%
X146911904Y-99326190D02*
X146911904Y-98826190D01*
X147435714Y-99278571D02*
X147411904Y-99302380D01*
X147340476Y-99326190D01*
X147292857Y-99326190D01*
X147221428Y-99302380D01*
X147173809Y-99254761D01*
X147150000Y-99207142D01*
X147126190Y-99111904D01*
X147126190Y-99040476D01*
X147150000Y-98945238D01*
X147173809Y-98897619D01*
X147221428Y-98850000D01*
X147292857Y-98826190D01*
X147340476Y-98826190D01*
X147411904Y-98850000D01*
X147435714Y-98873809D01*
X147911904Y-99326190D02*
X147626190Y-99326190D01*
X147769047Y-99326190D02*
X147769047Y-98826190D01*
X147721428Y-98897619D01*
X147673809Y-98945238D01*
X147626190Y-98969047D01*
%TO.C,J1*%
X162333333Y-90026190D02*
X162333333Y-90383333D01*
X162309523Y-90454761D01*
X162261904Y-90502380D01*
X162190476Y-90526190D01*
X162142857Y-90526190D01*
X162833333Y-90526190D02*
X162547619Y-90526190D01*
X162690476Y-90526190D02*
X162690476Y-90026190D01*
X162642857Y-90097619D01*
X162595238Y-90145238D01*
X162547619Y-90169047D01*
%TO.C,IC5*%
X153211904Y-84226190D02*
X153211904Y-83726190D01*
X153735714Y-84178571D02*
X153711904Y-84202380D01*
X153640476Y-84226190D01*
X153592857Y-84226190D01*
X153521428Y-84202380D01*
X153473809Y-84154761D01*
X153450000Y-84107142D01*
X153426190Y-84011904D01*
X153426190Y-83940476D01*
X153450000Y-83845238D01*
X153473809Y-83797619D01*
X153521428Y-83750000D01*
X153592857Y-83726190D01*
X153640476Y-83726190D01*
X153711904Y-83750000D01*
X153735714Y-83773809D01*
X154188095Y-83726190D02*
X153950000Y-83726190D01*
X153926190Y-83964285D01*
X153950000Y-83940476D01*
X153997619Y-83916666D01*
X154116666Y-83916666D01*
X154164285Y-83940476D01*
X154188095Y-83964285D01*
X154211904Y-84011904D01*
X154211904Y-84130952D01*
X154188095Y-84178571D01*
X154164285Y-84202380D01*
X154116666Y-84226190D01*
X153997619Y-84226190D01*
X153950000Y-84202380D01*
X153926190Y-84178571D01*
%TO.C,R16*%
X144028571Y-89576190D02*
X143861904Y-89338095D01*
X143742857Y-89576190D02*
X143742857Y-89076190D01*
X143933333Y-89076190D01*
X143980952Y-89100000D01*
X144004761Y-89123809D01*
X144028571Y-89171428D01*
X144028571Y-89242857D01*
X144004761Y-89290476D01*
X143980952Y-89314285D01*
X143933333Y-89338095D01*
X143742857Y-89338095D01*
X144504761Y-89576190D02*
X144219047Y-89576190D01*
X144361904Y-89576190D02*
X144361904Y-89076190D01*
X144314285Y-89147619D01*
X144266666Y-89195238D01*
X144219047Y-89219047D01*
X144933333Y-89076190D02*
X144838095Y-89076190D01*
X144790476Y-89100000D01*
X144766666Y-89123809D01*
X144719047Y-89195238D01*
X144695238Y-89290476D01*
X144695238Y-89480952D01*
X144719047Y-89528571D01*
X144742857Y-89552380D01*
X144790476Y-89576190D01*
X144885714Y-89576190D01*
X144933333Y-89552380D01*
X144957142Y-89528571D01*
X144980952Y-89480952D01*
X144980952Y-89361904D01*
X144957142Y-89314285D01*
X144933333Y-89290476D01*
X144885714Y-89266666D01*
X144790476Y-89266666D01*
X144742857Y-89290476D01*
X144719047Y-89314285D01*
X144695238Y-89361904D01*
%TO.C,R2*%
X161016666Y-86226190D02*
X160850000Y-85988095D01*
X160730952Y-86226190D02*
X160730952Y-85726190D01*
X160921428Y-85726190D01*
X160969047Y-85750000D01*
X160992857Y-85773809D01*
X161016666Y-85821428D01*
X161016666Y-85892857D01*
X160992857Y-85940476D01*
X160969047Y-85964285D01*
X160921428Y-85988095D01*
X160730952Y-85988095D01*
X161207142Y-85773809D02*
X161230952Y-85750000D01*
X161278571Y-85726190D01*
X161397619Y-85726190D01*
X161445238Y-85750000D01*
X161469047Y-85773809D01*
X161492857Y-85821428D01*
X161492857Y-85869047D01*
X161469047Y-85940476D01*
X161183333Y-86226190D01*
X161492857Y-86226190D01*
%TO.C,C7*%
X134016666Y-105378571D02*
X133992857Y-105402380D01*
X133921428Y-105426190D01*
X133873809Y-105426190D01*
X133802380Y-105402380D01*
X133754761Y-105354761D01*
X133730952Y-105307142D01*
X133707142Y-105211904D01*
X133707142Y-105140476D01*
X133730952Y-105045238D01*
X133754761Y-104997619D01*
X133802380Y-104950000D01*
X133873809Y-104926190D01*
X133921428Y-104926190D01*
X133992857Y-104950000D01*
X134016666Y-104973809D01*
X134183333Y-104926190D02*
X134516666Y-104926190D01*
X134302380Y-105426190D01*
%TO.C,C10*%
X137178571Y-93028571D02*
X137154761Y-93052380D01*
X137083333Y-93076190D01*
X137035714Y-93076190D01*
X136964285Y-93052380D01*
X136916666Y-93004761D01*
X136892857Y-92957142D01*
X136869047Y-92861904D01*
X136869047Y-92790476D01*
X136892857Y-92695238D01*
X136916666Y-92647619D01*
X136964285Y-92600000D01*
X137035714Y-92576190D01*
X137083333Y-92576190D01*
X137154761Y-92600000D01*
X137178571Y-92623809D01*
X137654761Y-93076190D02*
X137369047Y-93076190D01*
X137511904Y-93076190D02*
X137511904Y-92576190D01*
X137464285Y-92647619D01*
X137416666Y-92695238D01*
X137369047Y-92719047D01*
X137964285Y-92576190D02*
X138011904Y-92576190D01*
X138059523Y-92600000D01*
X138083333Y-92623809D01*
X138107142Y-92671428D01*
X138130952Y-92766666D01*
X138130952Y-92885714D01*
X138107142Y-92980952D01*
X138083333Y-93028571D01*
X138059523Y-93052380D01*
X138011904Y-93076190D01*
X137964285Y-93076190D01*
X137916666Y-93052380D01*
X137892857Y-93028571D01*
X137869047Y-92980952D01*
X137845238Y-92885714D01*
X137845238Y-92766666D01*
X137869047Y-92671428D01*
X137892857Y-92623809D01*
X137916666Y-92600000D01*
X137964285Y-92576190D01*
%TO.C,C14*%
X138578571Y-93678571D02*
X138554761Y-93702380D01*
X138483333Y-93726190D01*
X138435714Y-93726190D01*
X138364285Y-93702380D01*
X138316666Y-93654761D01*
X138292857Y-93607142D01*
X138269047Y-93511904D01*
X138269047Y-93440476D01*
X138292857Y-93345238D01*
X138316666Y-93297619D01*
X138364285Y-93250000D01*
X138435714Y-93226190D01*
X138483333Y-93226190D01*
X138554761Y-93250000D01*
X138578571Y-93273809D01*
X139054761Y-93726190D02*
X138769047Y-93726190D01*
X138911904Y-93726190D02*
X138911904Y-93226190D01*
X138864285Y-93297619D01*
X138816666Y-93345238D01*
X138769047Y-93369047D01*
X139483333Y-93392857D02*
X139483333Y-93726190D01*
X139364285Y-93202380D02*
X139245238Y-93559523D01*
X139554761Y-93559523D01*
%TO.C,TP3*%
X145869047Y-90926190D02*
X146154761Y-90926190D01*
X146011904Y-91426190D02*
X146011904Y-90926190D01*
X146321428Y-91426190D02*
X146321428Y-90926190D01*
X146511904Y-90926190D01*
X146559523Y-90950000D01*
X146583333Y-90973809D01*
X146607142Y-91021428D01*
X146607142Y-91092857D01*
X146583333Y-91140476D01*
X146559523Y-91164285D01*
X146511904Y-91188095D01*
X146321428Y-91188095D01*
X146773809Y-90926190D02*
X147083333Y-90926190D01*
X146916666Y-91116666D01*
X146988095Y-91116666D01*
X147035714Y-91140476D01*
X147059523Y-91164285D01*
X147083333Y-91211904D01*
X147083333Y-91330952D01*
X147059523Y-91378571D01*
X147035714Y-91402380D01*
X146988095Y-91426190D01*
X146845238Y-91426190D01*
X146797619Y-91402380D01*
X146773809Y-91378571D01*
%TO.C,C18*%
X155278571Y-94928571D02*
X155254761Y-94952380D01*
X155183333Y-94976190D01*
X155135714Y-94976190D01*
X155064285Y-94952380D01*
X155016666Y-94904761D01*
X154992857Y-94857142D01*
X154969047Y-94761904D01*
X154969047Y-94690476D01*
X154992857Y-94595238D01*
X155016666Y-94547619D01*
X155064285Y-94500000D01*
X155135714Y-94476190D01*
X155183333Y-94476190D01*
X155254761Y-94500000D01*
X155278571Y-94523809D01*
X155754761Y-94976190D02*
X155469047Y-94976190D01*
X155611904Y-94976190D02*
X155611904Y-94476190D01*
X155564285Y-94547619D01*
X155516666Y-94595238D01*
X155469047Y-94619047D01*
X156040476Y-94690476D02*
X155992857Y-94666666D01*
X155969047Y-94642857D01*
X155945238Y-94595238D01*
X155945238Y-94571428D01*
X155969047Y-94523809D01*
X155992857Y-94500000D01*
X156040476Y-94476190D01*
X156135714Y-94476190D01*
X156183333Y-94500000D01*
X156207142Y-94523809D01*
X156230952Y-94571428D01*
X156230952Y-94595238D01*
X156207142Y-94642857D01*
X156183333Y-94666666D01*
X156135714Y-94690476D01*
X156040476Y-94690476D01*
X155992857Y-94714285D01*
X155969047Y-94738095D01*
X155945238Y-94785714D01*
X155945238Y-94880952D01*
X155969047Y-94928571D01*
X155992857Y-94952380D01*
X156040476Y-94976190D01*
X156135714Y-94976190D01*
X156183333Y-94952380D01*
X156207142Y-94928571D01*
X156230952Y-94880952D01*
X156230952Y-94785714D01*
X156207142Y-94738095D01*
X156183333Y-94714285D01*
X156135714Y-94690476D01*
%TO.C,C13*%
X135578571Y-93578571D02*
X135554761Y-93602380D01*
X135483333Y-93626190D01*
X135435714Y-93626190D01*
X135364285Y-93602380D01*
X135316666Y-93554761D01*
X135292857Y-93507142D01*
X135269047Y-93411904D01*
X135269047Y-93340476D01*
X135292857Y-93245238D01*
X135316666Y-93197619D01*
X135364285Y-93150000D01*
X135435714Y-93126190D01*
X135483333Y-93126190D01*
X135554761Y-93150000D01*
X135578571Y-93173809D01*
X136054761Y-93626190D02*
X135769047Y-93626190D01*
X135911904Y-93626190D02*
X135911904Y-93126190D01*
X135864285Y-93197619D01*
X135816666Y-93245238D01*
X135769047Y-93269047D01*
X136221428Y-93126190D02*
X136530952Y-93126190D01*
X136364285Y-93316666D01*
X136435714Y-93316666D01*
X136483333Y-93340476D01*
X136507142Y-93364285D01*
X136530952Y-93411904D01*
X136530952Y-93530952D01*
X136507142Y-93578571D01*
X136483333Y-93602380D01*
X136435714Y-93626190D01*
X136292857Y-93626190D01*
X136245238Y-93602380D01*
X136221428Y-93578571D01*
%TO.C,C20*%
X135378571Y-91978571D02*
X135354761Y-92002380D01*
X135283333Y-92026190D01*
X135235714Y-92026190D01*
X135164285Y-92002380D01*
X135116666Y-91954761D01*
X135092857Y-91907142D01*
X135069047Y-91811904D01*
X135069047Y-91740476D01*
X135092857Y-91645238D01*
X135116666Y-91597619D01*
X135164285Y-91550000D01*
X135235714Y-91526190D01*
X135283333Y-91526190D01*
X135354761Y-91550000D01*
X135378571Y-91573809D01*
X135569047Y-91573809D02*
X135592857Y-91550000D01*
X135640476Y-91526190D01*
X135759523Y-91526190D01*
X135807142Y-91550000D01*
X135830952Y-91573809D01*
X135854761Y-91621428D01*
X135854761Y-91669047D01*
X135830952Y-91740476D01*
X135545238Y-92026190D01*
X135854761Y-92026190D01*
X136164285Y-91526190D02*
X136211904Y-91526190D01*
X136259523Y-91550000D01*
X136283333Y-91573809D01*
X136307142Y-91621428D01*
X136330952Y-91716666D01*
X136330952Y-91835714D01*
X136307142Y-91930952D01*
X136283333Y-91978571D01*
X136259523Y-92002380D01*
X136211904Y-92026190D01*
X136164285Y-92026190D01*
X136116666Y-92002380D01*
X136092857Y-91978571D01*
X136069047Y-91930952D01*
X136045238Y-91835714D01*
X136045238Y-91716666D01*
X136069047Y-91621428D01*
X136092857Y-91573809D01*
X136116666Y-91550000D01*
X136164285Y-91526190D01*
%TO.C,D2*%
X159430952Y-83496190D02*
X159430952Y-82996190D01*
X159550000Y-82996190D01*
X159621428Y-83020000D01*
X159669047Y-83067619D01*
X159692857Y-83115238D01*
X159716666Y-83210476D01*
X159716666Y-83281904D01*
X159692857Y-83377142D01*
X159669047Y-83424761D01*
X159621428Y-83472380D01*
X159550000Y-83496190D01*
X159430952Y-83496190D01*
X159907142Y-83043809D02*
X159930952Y-83020000D01*
X159978571Y-82996190D01*
X160097619Y-82996190D01*
X160145238Y-83020000D01*
X160169047Y-83043809D01*
X160192857Y-83091428D01*
X160192857Y-83139047D01*
X160169047Y-83210476D01*
X159883333Y-83496190D01*
X160192857Y-83496190D01*
%TO.C,J2*%
X158928333Y-110626190D02*
X158928333Y-110983333D01*
X158904523Y-111054761D01*
X158856904Y-111102380D01*
X158785476Y-111126190D01*
X158737857Y-111126190D01*
X159142619Y-110673809D02*
X159166428Y-110650000D01*
X159214047Y-110626190D01*
X159333095Y-110626190D01*
X159380714Y-110650000D01*
X159404523Y-110673809D01*
X159428333Y-110721428D01*
X159428333Y-110769047D01*
X159404523Y-110840476D01*
X159118809Y-111126190D01*
X159428333Y-111126190D01*
%TO.C,R4*%
X144116666Y-96226190D02*
X143950000Y-95988095D01*
X143830952Y-96226190D02*
X143830952Y-95726190D01*
X144021428Y-95726190D01*
X144069047Y-95750000D01*
X144092857Y-95773809D01*
X144116666Y-95821428D01*
X144116666Y-95892857D01*
X144092857Y-95940476D01*
X144069047Y-95964285D01*
X144021428Y-95988095D01*
X143830952Y-95988095D01*
X144545238Y-95892857D02*
X144545238Y-96226190D01*
X144426190Y-95702380D02*
X144307142Y-96059523D01*
X144616666Y-96059523D01*
%TO.C,R6*%
X157516666Y-84206190D02*
X157350000Y-83968095D01*
X157230952Y-84206190D02*
X157230952Y-83706190D01*
X157421428Y-83706190D01*
X157469047Y-83730000D01*
X157492857Y-83753809D01*
X157516666Y-83801428D01*
X157516666Y-83872857D01*
X157492857Y-83920476D01*
X157469047Y-83944285D01*
X157421428Y-83968095D01*
X157230952Y-83968095D01*
X157945238Y-83706190D02*
X157850000Y-83706190D01*
X157802380Y-83730000D01*
X157778571Y-83753809D01*
X157730952Y-83825238D01*
X157707142Y-83920476D01*
X157707142Y-84110952D01*
X157730952Y-84158571D01*
X157754761Y-84182380D01*
X157802380Y-84206190D01*
X157897619Y-84206190D01*
X157945238Y-84182380D01*
X157969047Y-84158571D01*
X157992857Y-84110952D01*
X157992857Y-83991904D01*
X157969047Y-83944285D01*
X157945238Y-83920476D01*
X157897619Y-83896666D01*
X157802380Y-83896666D01*
X157754761Y-83920476D01*
X157730952Y-83944285D01*
X157707142Y-83991904D01*
%TO.C,TP11*%
X129230952Y-97326190D02*
X129516666Y-97326190D01*
X129373809Y-97826190D02*
X129373809Y-97326190D01*
X129683333Y-97826190D02*
X129683333Y-97326190D01*
X129873809Y-97326190D01*
X129921428Y-97350000D01*
X129945238Y-97373809D01*
X129969047Y-97421428D01*
X129969047Y-97492857D01*
X129945238Y-97540476D01*
X129921428Y-97564285D01*
X129873809Y-97588095D01*
X129683333Y-97588095D01*
X130445238Y-97826190D02*
X130159523Y-97826190D01*
X130302380Y-97826190D02*
X130302380Y-97326190D01*
X130254761Y-97397619D01*
X130207142Y-97445238D01*
X130159523Y-97469047D01*
X130921428Y-97826190D02*
X130635714Y-97826190D01*
X130778571Y-97826190D02*
X130778571Y-97326190D01*
X130730952Y-97397619D01*
X130683333Y-97445238D01*
X130635714Y-97469047D01*
%TO.C,TP6*%
X129469047Y-98826190D02*
X129754761Y-98826190D01*
X129611904Y-99326190D02*
X129611904Y-98826190D01*
X129921428Y-99326190D02*
X129921428Y-98826190D01*
X130111904Y-98826190D01*
X130159523Y-98850000D01*
X130183333Y-98873809D01*
X130207142Y-98921428D01*
X130207142Y-98992857D01*
X130183333Y-99040476D01*
X130159523Y-99064285D01*
X130111904Y-99088095D01*
X129921428Y-99088095D01*
X130635714Y-98826190D02*
X130540476Y-98826190D01*
X130492857Y-98850000D01*
X130469047Y-98873809D01*
X130421428Y-98945238D01*
X130397619Y-99040476D01*
X130397619Y-99230952D01*
X130421428Y-99278571D01*
X130445238Y-99302380D01*
X130492857Y-99326190D01*
X130588095Y-99326190D01*
X130635714Y-99302380D01*
X130659523Y-99278571D01*
X130683333Y-99230952D01*
X130683333Y-99111904D01*
X130659523Y-99064285D01*
X130635714Y-99040476D01*
X130588095Y-99016666D01*
X130492857Y-99016666D01*
X130445238Y-99040476D01*
X130421428Y-99064285D01*
X130397619Y-99111904D01*
%TO.C,H2*%
X163519047Y-83826190D02*
X163519047Y-83326190D01*
X163519047Y-83564285D02*
X163804761Y-83564285D01*
X163804761Y-83826190D02*
X163804761Y-83326190D01*
X164019047Y-83373809D02*
X164042857Y-83350000D01*
X164090476Y-83326190D01*
X164209523Y-83326190D01*
X164257142Y-83350000D01*
X164280952Y-83373809D01*
X164304761Y-83421428D01*
X164304761Y-83469047D01*
X164280952Y-83540476D01*
X163995238Y-83826190D01*
X164304761Y-83826190D01*
%TO.C,R3*%
X153916666Y-90926190D02*
X153750000Y-90688095D01*
X153630952Y-90926190D02*
X153630952Y-90426190D01*
X153821428Y-90426190D01*
X153869047Y-90450000D01*
X153892857Y-90473809D01*
X153916666Y-90521428D01*
X153916666Y-90592857D01*
X153892857Y-90640476D01*
X153869047Y-90664285D01*
X153821428Y-90688095D01*
X153630952Y-90688095D01*
X154083333Y-90426190D02*
X154392857Y-90426190D01*
X154226190Y-90616666D01*
X154297619Y-90616666D01*
X154345238Y-90640476D01*
X154369047Y-90664285D01*
X154392857Y-90711904D01*
X154392857Y-90830952D01*
X154369047Y-90878571D01*
X154345238Y-90902380D01*
X154297619Y-90926190D01*
X154154761Y-90926190D01*
X154107142Y-90902380D01*
X154083333Y-90878571D01*
%TO.C,C2*%
X150716666Y-95678571D02*
X150692857Y-95702380D01*
X150621428Y-95726190D01*
X150573809Y-95726190D01*
X150502380Y-95702380D01*
X150454761Y-95654761D01*
X150430952Y-95607142D01*
X150407142Y-95511904D01*
X150407142Y-95440476D01*
X150430952Y-95345238D01*
X150454761Y-95297619D01*
X150502380Y-95250000D01*
X150573809Y-95226190D01*
X150621428Y-95226190D01*
X150692857Y-95250000D01*
X150716666Y-95273809D01*
X150907142Y-95273809D02*
X150930952Y-95250000D01*
X150978571Y-95226190D01*
X151097619Y-95226190D01*
X151145238Y-95250000D01*
X151169047Y-95273809D01*
X151192857Y-95321428D01*
X151192857Y-95369047D01*
X151169047Y-95440476D01*
X150883333Y-95726190D01*
X151192857Y-95726190D01*
%TO.C,S2*%
X163419047Y-112602380D02*
X163490476Y-112626190D01*
X163609523Y-112626190D01*
X163657142Y-112602380D01*
X163680952Y-112578571D01*
X163704761Y-112530952D01*
X163704761Y-112483333D01*
X163680952Y-112435714D01*
X163657142Y-112411904D01*
X163609523Y-112388095D01*
X163514285Y-112364285D01*
X163466666Y-112340476D01*
X163442857Y-112316666D01*
X163419047Y-112269047D01*
X163419047Y-112221428D01*
X163442857Y-112173809D01*
X163466666Y-112150000D01*
X163514285Y-112126190D01*
X163633333Y-112126190D01*
X163704761Y-112150000D01*
X163895238Y-112173809D02*
X163919047Y-112150000D01*
X163966666Y-112126190D01*
X164085714Y-112126190D01*
X164133333Y-112150000D01*
X164157142Y-112173809D01*
X164180952Y-112221428D01*
X164180952Y-112269047D01*
X164157142Y-112340476D01*
X163871428Y-112626190D01*
X164180952Y-112626190D01*
%TO.C,S1*%
X129819047Y-113102380D02*
X129890476Y-113126190D01*
X130009523Y-113126190D01*
X130057142Y-113102380D01*
X130080952Y-113078571D01*
X130104761Y-113030952D01*
X130104761Y-112983333D01*
X130080952Y-112935714D01*
X130057142Y-112911904D01*
X130009523Y-112888095D01*
X129914285Y-112864285D01*
X129866666Y-112840476D01*
X129842857Y-112816666D01*
X129819047Y-112769047D01*
X129819047Y-112721428D01*
X129842857Y-112673809D01*
X129866666Y-112650000D01*
X129914285Y-112626190D01*
X130033333Y-112626190D01*
X130104761Y-112650000D01*
X130580952Y-113126190D02*
X130295238Y-113126190D01*
X130438095Y-113126190D02*
X130438095Y-112626190D01*
X130390476Y-112697619D01*
X130342857Y-112745238D01*
X130295238Y-112769047D01*
%TO.C,D4*%
X157130952Y-89126190D02*
X157130952Y-88626190D01*
X157250000Y-88626190D01*
X157321428Y-88650000D01*
X157369047Y-88697619D01*
X157392857Y-88745238D01*
X157416666Y-88840476D01*
X157416666Y-88911904D01*
X157392857Y-89007142D01*
X157369047Y-89054761D01*
X157321428Y-89102380D01*
X157250000Y-89126190D01*
X157130952Y-89126190D01*
X157845238Y-88792857D02*
X157845238Y-89126190D01*
X157726190Y-88602380D02*
X157607142Y-88959523D01*
X157916666Y-88959523D01*
%TO.C,D3*%
X148530952Y-83426190D02*
X148530952Y-82926190D01*
X148650000Y-82926190D01*
X148721428Y-82950000D01*
X148769047Y-82997619D01*
X148792857Y-83045238D01*
X148816666Y-83140476D01*
X148816666Y-83211904D01*
X148792857Y-83307142D01*
X148769047Y-83354761D01*
X148721428Y-83402380D01*
X148650000Y-83426190D01*
X148530952Y-83426190D01*
X148983333Y-82926190D02*
X149292857Y-82926190D01*
X149126190Y-83116666D01*
X149197619Y-83116666D01*
X149245238Y-83140476D01*
X149269047Y-83164285D01*
X149292857Y-83211904D01*
X149292857Y-83330952D01*
X149269047Y-83378571D01*
X149245238Y-83402380D01*
X149197619Y-83426190D01*
X149054761Y-83426190D01*
X149007142Y-83402380D01*
X148983333Y-83378571D01*
%TO.C,R1*%
X150916666Y-86626190D02*
X150750000Y-86388095D01*
X150630952Y-86626190D02*
X150630952Y-86126190D01*
X150821428Y-86126190D01*
X150869047Y-86150000D01*
X150892857Y-86173809D01*
X150916666Y-86221428D01*
X150916666Y-86292857D01*
X150892857Y-86340476D01*
X150869047Y-86364285D01*
X150821428Y-86388095D01*
X150630952Y-86388095D01*
X151392857Y-86626190D02*
X151107142Y-86626190D01*
X151250000Y-86626190D02*
X151250000Y-86126190D01*
X151202380Y-86197619D01*
X151154761Y-86245238D01*
X151107142Y-86269047D01*
%TO.C,C19*%
X135378571Y-90178571D02*
X135354761Y-90202380D01*
X135283333Y-90226190D01*
X135235714Y-90226190D01*
X135164285Y-90202380D01*
X135116666Y-90154761D01*
X135092857Y-90107142D01*
X135069047Y-90011904D01*
X135069047Y-89940476D01*
X135092857Y-89845238D01*
X135116666Y-89797619D01*
X135164285Y-89750000D01*
X135235714Y-89726190D01*
X135283333Y-89726190D01*
X135354761Y-89750000D01*
X135378571Y-89773809D01*
X135854761Y-90226190D02*
X135569047Y-90226190D01*
X135711904Y-90226190D02*
X135711904Y-89726190D01*
X135664285Y-89797619D01*
X135616666Y-89845238D01*
X135569047Y-89869047D01*
X136092857Y-90226190D02*
X136188095Y-90226190D01*
X136235714Y-90202380D01*
X136259523Y-90178571D01*
X136307142Y-90107142D01*
X136330952Y-90011904D01*
X136330952Y-89821428D01*
X136307142Y-89773809D01*
X136283333Y-89750000D01*
X136235714Y-89726190D01*
X136140476Y-89726190D01*
X136092857Y-89750000D01*
X136069047Y-89773809D01*
X136045238Y-89821428D01*
X136045238Y-89940476D01*
X136069047Y-89988095D01*
X136092857Y-90011904D01*
X136140476Y-90035714D01*
X136235714Y-90035714D01*
X136283333Y-90011904D01*
X136307142Y-89988095D01*
X136330952Y-89940476D01*
%TO.C,IC8*%
X148061904Y-101926190D02*
X148061904Y-101426190D01*
X148585714Y-101878571D02*
X148561904Y-101902380D01*
X148490476Y-101926190D01*
X148442857Y-101926190D01*
X148371428Y-101902380D01*
X148323809Y-101854761D01*
X148300000Y-101807142D01*
X148276190Y-101711904D01*
X148276190Y-101640476D01*
X148300000Y-101545238D01*
X148323809Y-101497619D01*
X148371428Y-101450000D01*
X148442857Y-101426190D01*
X148490476Y-101426190D01*
X148561904Y-101450000D01*
X148585714Y-101473809D01*
X148871428Y-101640476D02*
X148823809Y-101616666D01*
X148800000Y-101592857D01*
X148776190Y-101545238D01*
X148776190Y-101521428D01*
X148800000Y-101473809D01*
X148823809Y-101450000D01*
X148871428Y-101426190D01*
X148966666Y-101426190D01*
X149014285Y-101450000D01*
X149038095Y-101473809D01*
X149061904Y-101521428D01*
X149061904Y-101545238D01*
X149038095Y-101592857D01*
X149014285Y-101616666D01*
X148966666Y-101640476D01*
X148871428Y-101640476D01*
X148823809Y-101664285D01*
X148800000Y-101688095D01*
X148776190Y-101735714D01*
X148776190Y-101830952D01*
X148800000Y-101878571D01*
X148823809Y-101902380D01*
X148871428Y-101926190D01*
X148966666Y-101926190D01*
X149014285Y-101902380D01*
X149038095Y-101878571D01*
X149061904Y-101830952D01*
X149061904Y-101735714D01*
X149038095Y-101688095D01*
X149014285Y-101664285D01*
X148966666Y-101640476D01*
%TO.C,C12*%
X132878571Y-98678571D02*
X132854761Y-98702380D01*
X132783333Y-98726190D01*
X132735714Y-98726190D01*
X132664285Y-98702380D01*
X132616666Y-98654761D01*
X132592857Y-98607142D01*
X132569047Y-98511904D01*
X132569047Y-98440476D01*
X132592857Y-98345238D01*
X132616666Y-98297619D01*
X132664285Y-98250000D01*
X132735714Y-98226190D01*
X132783333Y-98226190D01*
X132854761Y-98250000D01*
X132878571Y-98273809D01*
X133354761Y-98726190D02*
X133069047Y-98726190D01*
X133211904Y-98726190D02*
X133211904Y-98226190D01*
X133164285Y-98297619D01*
X133116666Y-98345238D01*
X133069047Y-98369047D01*
X133545238Y-98273809D02*
X133569047Y-98250000D01*
X133616666Y-98226190D01*
X133735714Y-98226190D01*
X133783333Y-98250000D01*
X133807142Y-98273809D01*
X133830952Y-98321428D01*
X133830952Y-98369047D01*
X133807142Y-98440476D01*
X133521428Y-98726190D01*
X133830952Y-98726190D01*
%TO.C,H1*%
X131419047Y-82226190D02*
X131419047Y-81726190D01*
X131419047Y-81964285D02*
X131704761Y-81964285D01*
X131704761Y-82226190D02*
X131704761Y-81726190D01*
X132204761Y-82226190D02*
X131919047Y-82226190D01*
X132061904Y-82226190D02*
X132061904Y-81726190D01*
X132014285Y-81797619D01*
X131966666Y-81845238D01*
X131919047Y-81869047D01*
%TO.C,AE1*%
X129866666Y-87683333D02*
X130104761Y-87683333D01*
X129819047Y-87826190D02*
X129985714Y-87326190D01*
X130152380Y-87826190D01*
X130319047Y-87564285D02*
X130485714Y-87564285D01*
X130557142Y-87826190D02*
X130319047Y-87826190D01*
X130319047Y-87326190D01*
X130557142Y-87326190D01*
X131033333Y-87826190D02*
X130747619Y-87826190D01*
X130890476Y-87826190D02*
X130890476Y-87326190D01*
X130842857Y-87397619D01*
X130795238Y-87445238D01*
X130747619Y-87469047D01*
%TO.C,R9*%
X132816666Y-102026190D02*
X132650000Y-101788095D01*
X132530952Y-102026190D02*
X132530952Y-101526190D01*
X132721428Y-101526190D01*
X132769047Y-101550000D01*
X132792857Y-101573809D01*
X132816666Y-101621428D01*
X132816666Y-101692857D01*
X132792857Y-101740476D01*
X132769047Y-101764285D01*
X132721428Y-101788095D01*
X132530952Y-101788095D01*
X133054761Y-102026190D02*
X133150000Y-102026190D01*
X133197619Y-102002380D01*
X133221428Y-101978571D01*
X133269047Y-101907142D01*
X133292857Y-101811904D01*
X133292857Y-101621428D01*
X133269047Y-101573809D01*
X133245238Y-101550000D01*
X133197619Y-101526190D01*
X133102380Y-101526190D01*
X133054761Y-101550000D01*
X133030952Y-101573809D01*
X133007142Y-101621428D01*
X133007142Y-101740476D01*
X133030952Y-101788095D01*
X133054761Y-101811904D01*
X133102380Y-101835714D01*
X133197619Y-101835714D01*
X133245238Y-101811904D01*
X133269047Y-101788095D01*
X133292857Y-101740476D01*
%TO.C,Q1*%
X138352380Y-107323809D02*
X138304761Y-107300000D01*
X138257142Y-107252380D01*
X138185714Y-107180952D01*
X138138095Y-107157142D01*
X138090476Y-107157142D01*
X138114285Y-107276190D02*
X138066666Y-107252380D01*
X138019047Y-107204761D01*
X137995238Y-107109523D01*
X137995238Y-106942857D01*
X138019047Y-106847619D01*
X138066666Y-106800000D01*
X138114285Y-106776190D01*
X138209523Y-106776190D01*
X138257142Y-106800000D01*
X138304761Y-106847619D01*
X138328571Y-106942857D01*
X138328571Y-107109523D01*
X138304761Y-107204761D01*
X138257142Y-107252380D01*
X138209523Y-107276190D01*
X138114285Y-107276190D01*
X138804761Y-107276190D02*
X138519047Y-107276190D01*
X138661904Y-107276190D02*
X138661904Y-106776190D01*
X138614285Y-106847619D01*
X138566666Y-106895238D01*
X138519047Y-106919047D01*
%TO.C,IC3*%
X143811904Y-99926190D02*
X143811904Y-99426190D01*
X144335714Y-99878571D02*
X144311904Y-99902380D01*
X144240476Y-99926190D01*
X144192857Y-99926190D01*
X144121428Y-99902380D01*
X144073809Y-99854761D01*
X144050000Y-99807142D01*
X144026190Y-99711904D01*
X144026190Y-99640476D01*
X144050000Y-99545238D01*
X144073809Y-99497619D01*
X144121428Y-99450000D01*
X144192857Y-99426190D01*
X144240476Y-99426190D01*
X144311904Y-99450000D01*
X144335714Y-99473809D01*
X144502380Y-99426190D02*
X144811904Y-99426190D01*
X144645238Y-99616666D01*
X144716666Y-99616666D01*
X144764285Y-99640476D01*
X144788095Y-99664285D01*
X144811904Y-99711904D01*
X144811904Y-99830952D01*
X144788095Y-99878571D01*
X144764285Y-99902380D01*
X144716666Y-99926190D01*
X144573809Y-99926190D01*
X144526190Y-99902380D01*
X144502380Y-99878571D01*
%TO.C,C17*%
X156228571Y-98978571D02*
X156204761Y-99002380D01*
X156133333Y-99026190D01*
X156085714Y-99026190D01*
X156014285Y-99002380D01*
X155966666Y-98954761D01*
X155942857Y-98907142D01*
X155919047Y-98811904D01*
X155919047Y-98740476D01*
X155942857Y-98645238D01*
X155966666Y-98597619D01*
X156014285Y-98550000D01*
X156085714Y-98526190D01*
X156133333Y-98526190D01*
X156204761Y-98550000D01*
X156228571Y-98573809D01*
X156704761Y-99026190D02*
X156419047Y-99026190D01*
X156561904Y-99026190D02*
X156561904Y-98526190D01*
X156514285Y-98597619D01*
X156466666Y-98645238D01*
X156419047Y-98669047D01*
X156871428Y-98526190D02*
X157204761Y-98526190D01*
X156990476Y-99026190D01*
%TO.C,R5*%
X144116666Y-97126190D02*
X143950000Y-96888095D01*
X143830952Y-97126190D02*
X143830952Y-96626190D01*
X144021428Y-96626190D01*
X144069047Y-96650000D01*
X144092857Y-96673809D01*
X144116666Y-96721428D01*
X144116666Y-96792857D01*
X144092857Y-96840476D01*
X144069047Y-96864285D01*
X144021428Y-96888095D01*
X143830952Y-96888095D01*
X144569047Y-96626190D02*
X144330952Y-96626190D01*
X144307142Y-96864285D01*
X144330952Y-96840476D01*
X144378571Y-96816666D01*
X144497619Y-96816666D01*
X144545238Y-96840476D01*
X144569047Y-96864285D01*
X144592857Y-96911904D01*
X144592857Y-97030952D01*
X144569047Y-97078571D01*
X144545238Y-97102380D01*
X144497619Y-97126190D01*
X144378571Y-97126190D01*
X144330952Y-97102380D01*
X144307142Y-97078571D01*
%TO.C,C8*%
X157016666Y-96528571D02*
X156992857Y-96552380D01*
X156921428Y-96576190D01*
X156873809Y-96576190D01*
X156802380Y-96552380D01*
X156754761Y-96504761D01*
X156730952Y-96457142D01*
X156707142Y-96361904D01*
X156707142Y-96290476D01*
X156730952Y-96195238D01*
X156754761Y-96147619D01*
X156802380Y-96100000D01*
X156873809Y-96076190D01*
X156921428Y-96076190D01*
X156992857Y-96100000D01*
X157016666Y-96123809D01*
X157302380Y-96290476D02*
X157254761Y-96266666D01*
X157230952Y-96242857D01*
X157207142Y-96195238D01*
X157207142Y-96171428D01*
X157230952Y-96123809D01*
X157254761Y-96100000D01*
X157302380Y-96076190D01*
X157397619Y-96076190D01*
X157445238Y-96100000D01*
X157469047Y-96123809D01*
X157492857Y-96171428D01*
X157492857Y-96195238D01*
X157469047Y-96242857D01*
X157445238Y-96266666D01*
X157397619Y-96290476D01*
X157302380Y-96290476D01*
X157254761Y-96314285D01*
X157230952Y-96338095D01*
X157207142Y-96385714D01*
X157207142Y-96480952D01*
X157230952Y-96528571D01*
X157254761Y-96552380D01*
X157302380Y-96576190D01*
X157397619Y-96576190D01*
X157445238Y-96552380D01*
X157469047Y-96528571D01*
X157492857Y-96480952D01*
X157492857Y-96385714D01*
X157469047Y-96338095D01*
X157445238Y-96314285D01*
X157397619Y-96290476D01*
%TO.C,TP4*%
X147969047Y-90926190D02*
X148254761Y-90926190D01*
X148111904Y-91426190D02*
X148111904Y-90926190D01*
X148421428Y-91426190D02*
X148421428Y-90926190D01*
X148611904Y-90926190D01*
X148659523Y-90950000D01*
X148683333Y-90973809D01*
X148707142Y-91021428D01*
X148707142Y-91092857D01*
X148683333Y-91140476D01*
X148659523Y-91164285D01*
X148611904Y-91188095D01*
X148421428Y-91188095D01*
X149135714Y-91092857D02*
X149135714Y-91426190D01*
X149016666Y-90902380D02*
X148897619Y-91259523D01*
X149207142Y-91259523D01*
%TO.C,C4*%
X145211666Y-87478571D02*
X145187857Y-87502380D01*
X145116428Y-87526190D01*
X145068809Y-87526190D01*
X144997380Y-87502380D01*
X144949761Y-87454761D01*
X144925952Y-87407142D01*
X144902142Y-87311904D01*
X144902142Y-87240476D01*
X144925952Y-87145238D01*
X144949761Y-87097619D01*
X144997380Y-87050000D01*
X145068809Y-87026190D01*
X145116428Y-87026190D01*
X145187857Y-87050000D01*
X145211666Y-87073809D01*
X145640238Y-87192857D02*
X145640238Y-87526190D01*
X145521190Y-87002380D02*
X145402142Y-87359523D01*
X145711666Y-87359523D01*
%TO.C,R8*%
X159016666Y-109676190D02*
X158850000Y-109438095D01*
X158730952Y-109676190D02*
X158730952Y-109176190D01*
X158921428Y-109176190D01*
X158969047Y-109200000D01*
X158992857Y-109223809D01*
X159016666Y-109271428D01*
X159016666Y-109342857D01*
X158992857Y-109390476D01*
X158969047Y-109414285D01*
X158921428Y-109438095D01*
X158730952Y-109438095D01*
X159302380Y-109390476D02*
X159254761Y-109366666D01*
X159230952Y-109342857D01*
X159207142Y-109295238D01*
X159207142Y-109271428D01*
X159230952Y-109223809D01*
X159254761Y-109200000D01*
X159302380Y-109176190D01*
X159397619Y-109176190D01*
X159445238Y-109200000D01*
X159469047Y-109223809D01*
X159492857Y-109271428D01*
X159492857Y-109295238D01*
X159469047Y-109342857D01*
X159445238Y-109366666D01*
X159397619Y-109390476D01*
X159302380Y-109390476D01*
X159254761Y-109414285D01*
X159230952Y-109438095D01*
X159207142Y-109485714D01*
X159207142Y-109580952D01*
X159230952Y-109628571D01*
X159254761Y-109652380D01*
X159302380Y-109676190D01*
X159397619Y-109676190D01*
X159445238Y-109652380D01*
X159469047Y-109628571D01*
X159492857Y-109580952D01*
X159492857Y-109485714D01*
X159469047Y-109438095D01*
X159445238Y-109414285D01*
X159397619Y-109390476D01*
%TO.C,IC6*%
X143706904Y-84426190D02*
X143706904Y-83926190D01*
X144230714Y-84378571D02*
X144206904Y-84402380D01*
X144135476Y-84426190D01*
X144087857Y-84426190D01*
X144016428Y-84402380D01*
X143968809Y-84354761D01*
X143945000Y-84307142D01*
X143921190Y-84211904D01*
X143921190Y-84140476D01*
X143945000Y-84045238D01*
X143968809Y-83997619D01*
X144016428Y-83950000D01*
X144087857Y-83926190D01*
X144135476Y-83926190D01*
X144206904Y-83950000D01*
X144230714Y-83973809D01*
X144659285Y-83926190D02*
X144564047Y-83926190D01*
X144516428Y-83950000D01*
X144492619Y-83973809D01*
X144445000Y-84045238D01*
X144421190Y-84140476D01*
X144421190Y-84330952D01*
X144445000Y-84378571D01*
X144468809Y-84402380D01*
X144516428Y-84426190D01*
X144611666Y-84426190D01*
X144659285Y-84402380D01*
X144683095Y-84378571D01*
X144706904Y-84330952D01*
X144706904Y-84211904D01*
X144683095Y-84164285D01*
X144659285Y-84140476D01*
X144611666Y-84116666D01*
X144516428Y-84116666D01*
X144468809Y-84140476D01*
X144445000Y-84164285D01*
X144421190Y-84211904D01*
%TO.C,R13*%
X152576190Y-96221428D02*
X152338095Y-96388095D01*
X152576190Y-96507142D02*
X152076190Y-96507142D01*
X152076190Y-96316666D01*
X152100000Y-96269047D01*
X152123809Y-96245238D01*
X152171428Y-96221428D01*
X152242857Y-96221428D01*
X152290476Y-96245238D01*
X152314285Y-96269047D01*
X152338095Y-96316666D01*
X152338095Y-96507142D01*
X152576190Y-95745238D02*
X152576190Y-96030952D01*
X152576190Y-95888095D02*
X152076190Y-95888095D01*
X152147619Y-95935714D01*
X152195238Y-95983333D01*
X152219047Y-96030952D01*
X152076190Y-95578571D02*
X152076190Y-95269047D01*
X152266666Y-95435714D01*
X152266666Y-95364285D01*
X152290476Y-95316666D01*
X152314285Y-95292857D01*
X152361904Y-95269047D01*
X152480952Y-95269047D01*
X152528571Y-95292857D01*
X152552380Y-95316666D01*
X152576190Y-95364285D01*
X152576190Y-95507142D01*
X152552380Y-95554761D01*
X152528571Y-95578571D01*
%TO.C,IC2*%
X145311904Y-105426190D02*
X145311904Y-104926190D01*
X145835714Y-105378571D02*
X145811904Y-105402380D01*
X145740476Y-105426190D01*
X145692857Y-105426190D01*
X145621428Y-105402380D01*
X145573809Y-105354761D01*
X145550000Y-105307142D01*
X145526190Y-105211904D01*
X145526190Y-105140476D01*
X145550000Y-105045238D01*
X145573809Y-104997619D01*
X145621428Y-104950000D01*
X145692857Y-104926190D01*
X145740476Y-104926190D01*
X145811904Y-104950000D01*
X145835714Y-104973809D01*
X146026190Y-104973809D02*
X146050000Y-104950000D01*
X146097619Y-104926190D01*
X146216666Y-104926190D01*
X146264285Y-104950000D01*
X146288095Y-104973809D01*
X146311904Y-105021428D01*
X146311904Y-105069047D01*
X146288095Y-105140476D01*
X146002380Y-105426190D01*
X146311904Y-105426190D01*
%TO.C,TP2*%
X157669047Y-90226190D02*
X157954761Y-90226190D01*
X157811904Y-90726190D02*
X157811904Y-90226190D01*
X158121428Y-90726190D02*
X158121428Y-90226190D01*
X158311904Y-90226190D01*
X158359523Y-90250000D01*
X158383333Y-90273809D01*
X158407142Y-90321428D01*
X158407142Y-90392857D01*
X158383333Y-90440476D01*
X158359523Y-90464285D01*
X158311904Y-90488095D01*
X158121428Y-90488095D01*
X158597619Y-90273809D02*
X158621428Y-90250000D01*
X158669047Y-90226190D01*
X158788095Y-90226190D01*
X158835714Y-90250000D01*
X158859523Y-90273809D01*
X158883333Y-90321428D01*
X158883333Y-90369047D01*
X158859523Y-90440476D01*
X158573809Y-90726190D01*
X158883333Y-90726190D01*
%TO.C,C11*%
X145078571Y-103278571D02*
X145054761Y-103302380D01*
X144983333Y-103326190D01*
X144935714Y-103326190D01*
X144864285Y-103302380D01*
X144816666Y-103254761D01*
X144792857Y-103207142D01*
X144769047Y-103111904D01*
X144769047Y-103040476D01*
X144792857Y-102945238D01*
X144816666Y-102897619D01*
X144864285Y-102850000D01*
X144935714Y-102826190D01*
X144983333Y-102826190D01*
X145054761Y-102850000D01*
X145078571Y-102873809D01*
X145554761Y-103326190D02*
X145269047Y-103326190D01*
X145411904Y-103326190D02*
X145411904Y-102826190D01*
X145364285Y-102897619D01*
X145316666Y-102945238D01*
X145269047Y-102969047D01*
X146030952Y-103326190D02*
X145745238Y-103326190D01*
X145888095Y-103326190D02*
X145888095Y-102826190D01*
X145840476Y-102897619D01*
X145792857Y-102945238D01*
X145745238Y-102969047D01*
%TO.C,C9*%
X133116666Y-95678571D02*
X133092857Y-95702380D01*
X133021428Y-95726190D01*
X132973809Y-95726190D01*
X132902380Y-95702380D01*
X132854761Y-95654761D01*
X132830952Y-95607142D01*
X132807142Y-95511904D01*
X132807142Y-95440476D01*
X132830952Y-95345238D01*
X132854761Y-95297619D01*
X132902380Y-95250000D01*
X132973809Y-95226190D01*
X133021428Y-95226190D01*
X133092857Y-95250000D01*
X133116666Y-95273809D01*
X133354761Y-95726190D02*
X133450000Y-95726190D01*
X133497619Y-95702380D01*
X133521428Y-95678571D01*
X133569047Y-95607142D01*
X133592857Y-95511904D01*
X133592857Y-95321428D01*
X133569047Y-95273809D01*
X133545238Y-95250000D01*
X133497619Y-95226190D01*
X133402380Y-95226190D01*
X133354761Y-95250000D01*
X133330952Y-95273809D01*
X133307142Y-95321428D01*
X133307142Y-95440476D01*
X133330952Y-95488095D01*
X133354761Y-95511904D01*
X133402380Y-95535714D01*
X133497619Y-95535714D01*
X133545238Y-95511904D01*
X133569047Y-95488095D01*
X133592857Y-95440476D01*
D11*
%TO.C,C15*%
X142692164Y-95460000D02*
X142907836Y-95460000D01*
X142692164Y-94740000D02*
X142907836Y-94740000D01*
%TO.C,R10*%
X134753641Y-100130000D02*
X134446359Y-100130000D01*
X134753641Y-99370000D02*
X134446359Y-99370000D01*
%TO.C,C1*%
X149960000Y-97527836D02*
X149960000Y-97312164D01*
X149240000Y-97527836D02*
X149240000Y-97312164D01*
%TO.C,C16*%
X138930000Y-86161252D02*
X138930000Y-85638748D01*
X137460000Y-86161252D02*
X137460000Y-85638748D01*
%TO.C,C5*%
X152466252Y-88465000D02*
X151943748Y-88465000D01*
X152466252Y-89935000D02*
X151943748Y-89935000D01*
%TO.C,D1*%
X154450000Y-94150000D02*
X157000000Y-94150000D01*
X154450000Y-92450000D02*
X157000000Y-92450000D01*
X154450000Y-92450000D02*
X154450000Y-94150000D01*
%TO.C,Q2*%
X147500000Y-87000000D02*
X147500000Y-86400000D01*
X148900000Y-87200000D02*
X148900000Y-86000000D01*
X148900000Y-86000000D02*
X148900000Y-86000000D01*
%TO.C,R7*%
X134446359Y-100370000D02*
X134753641Y-100370000D01*
X134446359Y-101130000D02*
X134753641Y-101130000D01*
%TO.C,C3*%
X151915000Y-93661252D02*
X151915000Y-93138748D01*
X153385000Y-93661252D02*
X153385000Y-93138748D01*
%TO.C,C6*%
X141033748Y-83635000D02*
X141556252Y-83635000D01*
X141033748Y-82165000D02*
X141556252Y-82165000D01*
%TO.C,IC4*%
X139050000Y-92331885D02*
X138450000Y-92331885D01*
X138450000Y-92331885D02*
X139050000Y-92331885D01*
X143250000Y-92331885D02*
X143250000Y-91731885D01*
X142650000Y-89531885D02*
X143250000Y-89531885D01*
X138450000Y-89531885D02*
X138450000Y-90131885D01*
X143250000Y-92331885D02*
X142650000Y-92331885D01*
X138450000Y-89531885D02*
X139050000Y-89531885D01*
X138450000Y-92331885D02*
X138450000Y-91731885D01*
X143250000Y-91731885D02*
X143250000Y-92331885D01*
X143250000Y-89531885D02*
X143250000Y-90131885D01*
X138450000Y-90131885D02*
X138450000Y-89531885D01*
X143250000Y-89531885D02*
X142650000Y-89531885D01*
D12*
X139274770Y-89231885D02*
G75*
G03*
X139274770Y-89231885I-23770J0D01*
G01*
D11*
%TO.C,R12*%
X152970000Y-97446359D02*
X152970000Y-97753641D01*
X153730000Y-97446359D02*
X153730000Y-97753641D01*
D13*
%TO.C,IC1*%
X146520000Y-98191000D02*
X146520000Y-98191000D01*
X146520000Y-98218000D02*
X146520000Y-98218000D01*
X146520000Y-98218000D02*
G75*
G03*
X146520000Y-98191000I0J13500D01*
G01*
X146520000Y-98191000D02*
G75*
G03*
X146520000Y-98218000I0J-13500D01*
G01*
D14*
%TO.C,J1*%
X165900000Y-92270000D02*
X165400000Y-92270000D01*
D12*
X158700000Y-97500000D02*
X158700000Y-97500000D01*
X158700000Y-97600000D02*
X158700000Y-97600000D01*
D14*
X165900000Y-100130000D02*
X165900000Y-92270000D01*
D12*
X158700000Y-97600000D02*
X158700000Y-97600000D01*
D14*
X165400000Y-92270000D02*
X165400000Y-92270000D01*
X165900000Y-100130000D02*
X165400000Y-100130000D01*
X165400000Y-100130000D02*
X165400000Y-100130000D01*
D12*
X158700000Y-97500000D02*
G75*
G03*
X158700000Y-97600000I0J-50000D01*
G01*
X158700000Y-97600000D02*
G75*
G03*
X158700000Y-97500000I0J50000D01*
G01*
X158700000Y-97600000D02*
G75*
G03*
X158700000Y-97500000I0J50000D01*
G01*
%TO.C,IC5*%
X155255000Y-84840000D02*
X155255000Y-87760000D01*
X154655000Y-87760000D02*
X154655000Y-84840000D01*
X155255000Y-87760000D02*
X154655000Y-87760000D01*
X154655000Y-84840000D02*
X155255000Y-84840000D01*
X153105000Y-84800000D02*
X154305000Y-84800000D01*
D11*
%TO.C,R16*%
X144196359Y-90530000D02*
X144503641Y-90530000D01*
X144196359Y-89770000D02*
X144503641Y-89770000D01*
%TO.C,R2*%
X159653641Y-85620000D02*
X159346359Y-85620000D01*
X159653641Y-86380000D02*
X159346359Y-86380000D01*
%TO.C,C7*%
X133740000Y-103987836D02*
X133740000Y-103772164D01*
X134460000Y-103987836D02*
X134460000Y-103772164D01*
%TO.C,C10*%
X138060000Y-94807836D02*
X138060000Y-94592164D01*
X137340000Y-94807836D02*
X137340000Y-94592164D01*
%TO.C,C14*%
X139060000Y-94807836D02*
X139060000Y-94592164D01*
X138340000Y-94807836D02*
X138340000Y-94592164D01*
%TO.C,TP3*%
X145800000Y-93200000D02*
X145800000Y-91800000D01*
X145800000Y-91800000D02*
X147200000Y-91800000D01*
X147200000Y-91800000D02*
X147200000Y-93200000D01*
X147200000Y-93200000D02*
X145800000Y-93200000D01*
%TO.C,C18*%
X154865000Y-97061252D02*
X154865000Y-96538748D01*
X156335000Y-97061252D02*
X156335000Y-96538748D01*
%TO.C,C13*%
X136560000Y-94807836D02*
X136560000Y-94592164D01*
X135840000Y-94807836D02*
X135840000Y-94592164D01*
%TO.C,C20*%
X137457836Y-92110000D02*
X137242164Y-92110000D01*
X137457836Y-91390000D02*
X137242164Y-91390000D01*
%TO.C,D2*%
X158315000Y-85435000D02*
X160600000Y-85435000D01*
X160600000Y-83965000D02*
X158315000Y-83965000D01*
X158315000Y-83965000D02*
X158315000Y-85435000D01*
%TO.C,J2*%
X157400000Y-109790000D02*
X158160000Y-109790000D01*
X156640000Y-112010000D02*
X152895000Y-112010000D01*
X156640000Y-109790000D02*
X152895000Y-109790000D01*
X156640000Y-111463471D02*
X156640000Y-112010000D01*
X156640000Y-109790000D02*
X156640000Y-110336529D01*
X152895000Y-109790000D02*
X152895000Y-110592470D01*
X158160000Y-109790000D02*
X158160000Y-110900000D01*
X152895000Y-111207530D02*
X152895000Y-112010000D01*
%TO.C,R4*%
X145020000Y-95246359D02*
X145020000Y-95553641D01*
X145780000Y-95246359D02*
X145780000Y-95553641D01*
%TO.C,R6*%
X158080000Y-85643641D02*
X158080000Y-85336359D01*
X157320000Y-85643641D02*
X157320000Y-85336359D01*
%TO.C,TP11*%
X129400000Y-95500000D02*
X130800000Y-95500000D01*
X130800000Y-95500000D02*
X130800000Y-96900000D01*
X130800000Y-96900000D02*
X129400000Y-96900000D01*
X129400000Y-96900000D02*
X129400000Y-95500000D01*
%TO.C,TP6*%
X129400000Y-101100000D02*
X129400000Y-99700000D01*
X129400000Y-99700000D02*
X130800000Y-99700000D01*
X130800000Y-99700000D02*
X130800000Y-101100000D01*
X130800000Y-101100000D02*
X129400000Y-101100000D01*
%TO.C,R3*%
X154620000Y-90853641D02*
X154620000Y-90546359D01*
X155380000Y-90853641D02*
X155380000Y-90546359D01*
%TO.C,C2*%
X149960000Y-95392164D02*
X149960000Y-95607836D01*
X149240000Y-95392164D02*
X149240000Y-95607836D01*
D14*
%TO.C,S2*%
X165050000Y-109550000D02*
X165050000Y-104050000D01*
X165050000Y-104050000D02*
X165050000Y-109550000D01*
X165050000Y-109550000D02*
X165050000Y-109550000D01*
X165050000Y-104050000D02*
X165050000Y-104050000D01*
%TO.C,S1*%
X137450000Y-107600000D02*
X131450000Y-107600000D01*
X137450000Y-111200000D02*
X131450000Y-111200000D01*
X139150000Y-109200000D02*
X139150000Y-109200000D01*
X131450000Y-107600000D02*
X131450000Y-108500000D01*
X131450000Y-111200000D02*
X131450000Y-110300000D01*
X137450000Y-110300000D02*
X137450000Y-111200000D01*
X137450000Y-108500000D02*
X137450000Y-107600000D01*
X139250000Y-109200000D02*
X139250000Y-109200000D01*
X139250000Y-109200000D02*
G75*
G03*
X139150000Y-109200000I-50000J0D01*
G01*
X139150000Y-109200000D02*
G75*
G03*
X139250000Y-109200000I50000J0D01*
G01*
D11*
%TO.C,D4*%
X154115000Y-89635000D02*
X156400000Y-89635000D01*
X156400000Y-88165000D02*
X154115000Y-88165000D01*
X154115000Y-88165000D02*
X154115000Y-89635000D01*
%TO.C,D3*%
X147400000Y-83850000D02*
X147400000Y-85550000D01*
X147400000Y-83850000D02*
X149950000Y-83850000D01*
X147400000Y-85550000D02*
X149950000Y-85550000D01*
%TO.C,R1*%
X150080000Y-86853641D02*
X150080000Y-86546359D01*
X149320000Y-86853641D02*
X149320000Y-86546359D01*
%TO.C,C19*%
X137457836Y-89690000D02*
X137242164Y-89690000D01*
X137457836Y-90410000D02*
X137242164Y-90410000D01*
D15*
%TO.C,IC8*%
X155325000Y-103950000D02*
G75*
G03*
X155325000Y-103950000I-125000J0D01*
G01*
D11*
%TO.C,C12*%
X133307836Y-96140000D02*
X133092164Y-96140000D01*
X133307836Y-96860000D02*
X133092164Y-96860000D01*
%TO.C,AE1*%
X131410000Y-89672936D02*
X131410000Y-91127064D01*
X129590000Y-89672936D02*
X129590000Y-91127064D01*
%TO.C,R9*%
X134753641Y-101420000D02*
X134446359Y-101420000D01*
X134753641Y-102180000D02*
X134446359Y-102180000D01*
%TO.C,Q1*%
X137700000Y-106210000D02*
X139600000Y-106210000D01*
X139100000Y-103890000D02*
X137700000Y-103890000D01*
D12*
%TO.C,IC3*%
X136187120Y-96250000D02*
G75*
G03*
X136187120Y-96250000I-37120J0D01*
G01*
D11*
%TO.C,C17*%
X156442164Y-99910000D02*
X156657836Y-99910000D01*
X156442164Y-99190000D02*
X156657836Y-99190000D01*
%TO.C,R5*%
X145780000Y-97563641D02*
X145780000Y-97256359D01*
X145020000Y-97563641D02*
X145020000Y-97256359D01*
%TO.C,C8*%
X156740000Y-97687836D02*
X156740000Y-97472164D01*
X157460000Y-97687836D02*
X157460000Y-97472164D01*
%TO.C,TP4*%
X147900000Y-91800000D02*
X149300000Y-91800000D01*
X149300000Y-93200000D02*
X147900000Y-93200000D01*
X149300000Y-91800000D02*
X149300000Y-93200000D01*
X147900000Y-93200000D02*
X147900000Y-91800000D01*
%TO.C,C4*%
X145556252Y-85165000D02*
X145033748Y-85165000D01*
X145556252Y-86635000D02*
X145033748Y-86635000D01*
%TO.C,R8*%
X159622500Y-107362742D02*
X159622500Y-107837258D01*
X158577500Y-107362742D02*
X158577500Y-107837258D01*
D12*
%TO.C,IC6*%
X140795000Y-84350000D02*
X141995000Y-84350000D01*
X143245000Y-87300000D02*
X142345000Y-87300000D01*
X141995000Y-87250000D02*
X140795000Y-87250000D01*
X140795000Y-87250000D02*
X140795000Y-84350000D01*
X141995000Y-84350000D02*
X141995000Y-87250000D01*
D11*
%TO.C,R13*%
X151970000Y-97763641D02*
X151970000Y-97456359D01*
X152730000Y-97763641D02*
X152730000Y-97456359D01*
D12*
%TO.C,IC2*%
X148225000Y-111040000D02*
X143375000Y-111040000D01*
X141375000Y-105820000D02*
X143025000Y-105820000D01*
X148225000Y-105760000D02*
X148225000Y-111040000D01*
X143375000Y-105760000D02*
X148225000Y-105760000D01*
X143375000Y-111040000D02*
X143375000Y-105760000D01*
D11*
%TO.C,TP2*%
X157250000Y-90500000D02*
X157250000Y-91900000D01*
X155850000Y-90500000D02*
X157250000Y-90500000D01*
X157250000Y-91900000D02*
X155850000Y-91900000D01*
X155850000Y-91900000D02*
X155850000Y-90500000D01*
%TO.C,C11*%
X143540000Y-102242164D02*
X143540000Y-102457836D01*
X144260000Y-102242164D02*
X144260000Y-102457836D01*
%TO.C,C9*%
X133307836Y-97140000D02*
X133092164Y-97140000D01*
X133307836Y-97860000D02*
X133092164Y-97860000D01*
%TD*%
M02*
