M48
; DRILL file {KiCad (6.0.0)} date Thu Mar 24 17:20:42 2022
; FORMAT={-:-/ absolute / metric / decimal}
; #@! TF.CreationDate,2022-03-24T17:20:42+00:00
; #@! TF.GenerationSoftware,Kicad,Pcbnew,(6.0.0)
; #@! TF.FileFunction,Plated,1,4,PTH
FMAT,2
METRIC
; #@! TA.AperFunction,Plated,PTH,ViaDrill
T1C0.250
; #@! TA.AperFunction,Plated,PTH,ViaDrill
T2C0.300
; #@! TA.AperFunction,Plated,PTH,ComponentDrill
T3C0.650
; #@! TA.AperFunction,Plated,PTH,ComponentDrill
T4C1.300
%
G90
G05
T1
X129.5Y-109.4
X132.1Y-98.5
X134.1Y-102.6
X134.8Y-98.25
X134.8Y-98.9
X135.1Y-102.9
X135.95Y-90.95
X136.135Y-83.08
X136.135Y-88.16
X136.9Y-93.5
X138.0Y-97.6
X138.0Y-99.55
X138.0Y-101.1
X139.5Y-97.6
X139.5Y-99.55
X139.5Y-101.1
X140.295Y-105.716
X140.5Y-105.1
X140.85Y-90.95
X140.9Y-95.5
X141.0Y-97.6
X141.0Y-99.55
X141.0Y-101.1
X141.215Y-85.62
X141.215Y-88.16
X141.6Y-94.9
X141.6Y-95.55
X142.2Y-111.2
X143.4Y-93.9
X143.755Y-83.08
X143.755Y-88.16
X143.9Y-103.6
X144.025Y-91.6
X144.025Y-92.25
X144.1Y-95.1
X144.3Y-98.8
X144.6Y-101.37
X144.7Y-102.37
X144.8Y-100.3
X145.2Y-91.55
X145.2Y-92.2
X145.4Y-102.4
X146.05Y-102.4
X146.2Y-94.5
X146.295Y-83.08
X146.295Y-88.16
X146.5Y-93.8
X147.3Y-96.1
X147.634Y-96.657
X148.2Y-88.4
X148.2Y-98.3
X148.6Y-93.8
X149.679Y-87.879
X150.4Y-96.4
X151.06Y-100.41
X151.06Y-101.68
X151.06Y-102.95
X151.2Y-90.6
X151.9Y-109.8
X152.3Y-85.4
X152.3Y-105.8
X152.33Y-100.41
X152.33Y-101.68
X152.33Y-102.95
X152.5Y-87.5
X153.6Y-100.41
X153.6Y-101.68
X153.6Y-102.95
X154.0Y-94.4
X154.3Y-89.6
X154.3Y-107.4
X155.3Y-105.1
X155.6Y-96.8
X155.7Y-107.4
X155.9Y-93.3
X156.6Y-102.25
X157.1Y-95.85
X157.5Y-109.1
X157.6Y-84.0
X157.95Y-99.6
X158.184Y-101.7
X158.925Y-101.65
X159.352Y-96.15
X159.352Y-96.9
X159.4Y-102.2
X159.6Y-94.9
X160.8Y-101.6
X164.6Y-89.8
T2
X130.1Y-101.8
X134.1Y-98.9
X135.3Y-95.1
X138.195Y-88.1
X140.2Y-94.2
X140.3Y-103.7
X140.395Y-81.5
X142.7Y-94.2
X144.5Y-97.5
X145.4Y-94.1
X145.75Y-90.15
X147.8Y-81.8
X147.8Y-83.5
X149.6Y-94.3
X150.5Y-97.9
X154.333Y-97.067
X158.0Y-100.55
T3
X153.59Y-110.9
X154.86Y-110.9
X156.13Y-110.9
X157.4Y-110.9
T4
X163.475Y-92.9
X163.475Y-99.5
T0
M30
