%TF.GenerationSoftware,KiCad,Pcbnew,(6.0.0)*%
%TF.CreationDate,2022-03-24T17:20:39+00:00*%
%TF.ProjectId,Tracer,54726163-6572-42e6-9b69-6361645f7063,B*%
%TF.SameCoordinates,Original*%
%TF.FileFunction,Copper,L4,Bot*%
%TF.FilePolarity,Positive*%
%FSLAX46Y46*%
G04 Gerber Fmt 4.6, Leading zero omitted, Abs format (unit mm)*
G04 Created by KiCad (PCBNEW (6.0.0)) date 2022-03-24 17:20:39*
%MOMM*%
%LPD*%
G01*
G04 APERTURE LIST*
%TA.AperFunction,ComponentPad*%
%ADD10C,1.950000*%
%TD*%
%TA.AperFunction,ComponentPad*%
%ADD11R,1.000000X1.000000*%
%TD*%
%TA.AperFunction,ComponentPad*%
%ADD12O,1.000000X1.000000*%
%TD*%
%TA.AperFunction,SMDPad,CuDef*%
%ADD13R,1.500000X2.000000*%
%TD*%
%TA.AperFunction,SMDPad,CuDef*%
%ADD14R,3.800000X2.000000*%
%TD*%
%TA.AperFunction,SMDPad,CuDef*%
%ADD15R,2.540000X1.524000*%
%TD*%
%TA.AperFunction,SMDPad,CuDef*%
%ADD16R,3.400000X3.600000*%
%TD*%
%TA.AperFunction,ViaPad*%
%ADD17C,0.500000*%
%TD*%
%TA.AperFunction,ViaPad*%
%ADD18C,0.600000*%
%TD*%
%TA.AperFunction,Conductor*%
%ADD19C,0.250000*%
%TD*%
%TA.AperFunction,Conductor*%
%ADD20C,0.150000*%
%TD*%
%TA.AperFunction,Conductor*%
%ADD21C,0.200000*%
%TD*%
G04 APERTURE END LIST*
D10*
%TO.P,J1,MH1,MH1*%
%TO.N,unconnected-(J1-PadMH1)*%
X163475000Y-99500000D03*
%TO.P,J1,MH2,MH2*%
%TO.N,unconnected-(J1-PadMH2)*%
X163475000Y-92900000D03*
%TD*%
D11*
%TO.P,J2,1,Pin_1*%
%TO.N,DTR*%
X157400000Y-110900000D03*
D12*
%TO.P,J2,2,Pin_2*%
%TO.N,U0RXD*%
X156130000Y-110900000D03*
%TO.P,J2,3,Pin_3*%
%TO.N,U0TXD*%
X154860000Y-110900000D03*
%TO.P,J2,4,Pin_4*%
%TO.N,RTS*%
X153590000Y-110900000D03*
%TD*%
D13*
%TO.P,IC7,1,GND*%
%TO.N,GND*%
X164600000Y-88150000D03*
D14*
%TO.P,IC7,2,VO*%
%TO.N,+3V3*%
X162300000Y-81850000D03*
D13*
X162300000Y-88150000D03*
%TO.P,IC7,3,VI*%
%TO.N,VBUS*%
X160000000Y-88150000D03*
%TD*%
D15*
%TO.P,TP1,1,VBUS*%
%TO.N,Net-(D1-Pad2)*%
X164000000Y-102000000D03*
%TO.P,TP1,2,D-*%
%TO.N,D-*%
X164000000Y-105000000D03*
%TO.P,TP1,3,D+*%
%TO.N,D+*%
X164000000Y-108000000D03*
%TO.P,TP1,4,GND*%
%TO.N,GND*%
X164000000Y-111000000D03*
%TD*%
D16*
%TO.P,BT1,1,+*%
%TO.N,+BATT*%
X162400000Y-96300000D03*
%TO.P,BT1,2,-*%
%TO.N,GND*%
X131300000Y-96300000D03*
%TD*%
D17*
%TO.N,+BATT*%
X148200000Y-88400000D03*
X160800000Y-101600000D03*
X152500000Y-87500000D03*
%TO.N,GND*%
X138000000Y-101100000D03*
X139500000Y-97600000D03*
X138000000Y-99550000D03*
X136135000Y-83080000D03*
X151200000Y-90600000D03*
X146295000Y-88160000D03*
X143755000Y-83080000D03*
X157950000Y-99600000D03*
X136900000Y-93500000D03*
X151060000Y-102950000D03*
X151060000Y-101680000D03*
X164600000Y-89800000D03*
X141000000Y-101100000D03*
X149679122Y-87879122D03*
X146295000Y-83080000D03*
X153600000Y-102950000D03*
X152330000Y-100410000D03*
X143900000Y-103600000D03*
X139500000Y-101100000D03*
X140850000Y-90950000D03*
X143755000Y-88160000D03*
X154000000Y-94400000D03*
X135950000Y-90950000D03*
X141000000Y-99550000D03*
X150400000Y-96400000D03*
X134100000Y-102600000D03*
X151060000Y-100410000D03*
X141000000Y-97600000D03*
X157600000Y-84000000D03*
X159600000Y-94900000D03*
X152330000Y-102950000D03*
X156600000Y-102250000D03*
X141215000Y-85620000D03*
X142200000Y-111200000D03*
X141215000Y-88160000D03*
X129500000Y-109400000D03*
X157100000Y-95850000D03*
X144100000Y-95100000D03*
X132100000Y-98500000D03*
X152330000Y-101680000D03*
X139500000Y-99550000D03*
X138000000Y-97600000D03*
X153600000Y-101680000D03*
X153600000Y-100410000D03*
X136135000Y-88160000D03*
D18*
%TO.N,+3V3*%
X140200000Y-94200000D03*
X140300000Y-103700000D03*
X142700000Y-94200000D03*
X140395000Y-81500000D03*
X135300000Y-95100000D03*
X154332671Y-97067329D03*
X158000000Y-100550000D03*
X138195000Y-88100000D03*
X145400000Y-94100000D03*
X134100000Y-98900000D03*
X150500000Y-97900000D03*
X144500000Y-97500000D03*
X147800000Y-81800000D03*
X130100000Y-101800000D03*
X145750000Y-90150000D03*
X149600000Y-94300000D03*
%TO.N,VBUS*%
X147800000Y-83500000D03*
D17*
%TO.N,GPIO10*%
X145400000Y-102400000D03*
X144800000Y-100300000D03*
%TO.N,GPIO17*%
X144600000Y-101370500D03*
X144700000Y-102369500D03*
%TO.N,GPIO7*%
X144300000Y-98800000D03*
X146049503Y-102400000D03*
%TO.N,GPIO36*%
X146200000Y-94500000D03*
X134800000Y-98250497D03*
%TO.N,GPIO37*%
X134800000Y-98900000D03*
X148200000Y-98300000D03*
%TO.N,VUSB*%
X155600000Y-96800000D03*
X155900000Y-93300000D03*
%TO.N,GPIO18*%
X144025500Y-91600000D03*
X145200000Y-91550497D03*
X148600000Y-93800000D03*
X147634166Y-96656944D03*
%TO.N,GPIO23*%
X147300000Y-96100000D03*
X145200000Y-92200000D03*
X144025500Y-92249503D03*
X146500000Y-93800000D03*
%TO.N,GPIO19*%
X141600000Y-95549503D03*
X143400000Y-93900000D03*
%TO.N,U0RXD*%
X155700000Y-107400000D03*
X140900000Y-95500000D03*
%TO.N,Net-(D4-Pad1)*%
X154300000Y-89600000D03*
X152300000Y-85400000D03*
%TO.N,D+*%
X159352334Y-96150000D03*
X158183962Y-101699500D03*
%TO.N,D-*%
X158925500Y-101650000D03*
X159352334Y-96900000D03*
%TO.N,U0TXD*%
X141600000Y-94900000D03*
X154300000Y-107400000D03*
%TO.N,RTS*%
X152300000Y-105800000D03*
X140294609Y-105716172D03*
%TO.N,DTR*%
X157500000Y-109100000D03*
X140500000Y-105100000D03*
X155300000Y-105100000D03*
%TO.N,GPIO35*%
X135100000Y-102900000D03*
X151900000Y-109800000D03*
%TO.N,Net-(D1-Pad2)*%
X159400000Y-102200000D03*
%TD*%
D19*
%TO.N,+BATT*%
X151703633Y-88403633D02*
X154300000Y-91000000D01*
X148203633Y-88403633D02*
X151703633Y-88403633D01*
D20*
X160800000Y-97845000D02*
X162345000Y-96300000D01*
D19*
X149245389Y-87354611D02*
X148200000Y-88400000D01*
X154300000Y-91000000D02*
X157900000Y-91000000D01*
X152354611Y-87354611D02*
X149245389Y-87354611D01*
X157900000Y-91000000D02*
X163150000Y-96250000D01*
D20*
X160800000Y-101600000D02*
X160800000Y-97845000D01*
D19*
X148200000Y-88400000D02*
X148203633Y-88403633D01*
X152500000Y-87500000D02*
X152354611Y-87354611D01*
D20*
%TO.N,GND*%
X132100000Y-98500000D02*
X131245000Y-97645000D01*
D19*
X164600000Y-88150000D02*
X164600000Y-89800000D01*
D20*
X156600000Y-103600000D02*
X156600000Y-102250000D01*
X131245000Y-97645000D02*
X131245000Y-96300000D01*
X164000000Y-111000000D02*
X156600000Y-103600000D01*
D19*
%TO.N,+3V3*%
X147850000Y-81850000D02*
X147800000Y-81800000D01*
X162300000Y-81850000D02*
X147850000Y-81850000D01*
%TO.N,VBUS*%
X160000000Y-88150000D02*
X157050000Y-88150000D01*
X147800000Y-83500000D02*
X152400000Y-83500000D01*
X152400000Y-83500000D02*
X156300000Y-87400000D01*
X157050000Y-88150000D02*
X156300000Y-87400000D01*
D20*
%TO.N,GPIO10*%
X145400000Y-100900000D02*
X144800000Y-100300000D01*
X145400000Y-102400000D02*
X145400000Y-100900000D01*
%TO.N,GPIO17*%
X144700000Y-102369500D02*
X144700000Y-101470500D01*
X144700000Y-101470500D02*
X144600000Y-101370500D01*
%TO.N,GPIO7*%
X146049503Y-100549503D02*
X144300000Y-98800000D01*
X146049503Y-102400000D02*
X146049503Y-100549503D01*
%TO.N,GPIO36*%
X134800000Y-98250497D02*
X142449503Y-98250497D01*
X142449503Y-98250497D02*
X146200000Y-94500000D01*
%TO.N,GPIO37*%
X144128939Y-98300000D02*
X148200000Y-98300000D01*
X143528939Y-98900000D02*
X144128939Y-98300000D01*
X134800000Y-98900000D02*
X143528939Y-98900000D01*
%TO.N,VUSB*%
X155600000Y-93600000D02*
X155900000Y-93300000D01*
X155600000Y-96800000D02*
X155600000Y-93600000D01*
%TO.N,GPIO18*%
X147634166Y-96656944D02*
X148600000Y-95691110D01*
X144025500Y-91600000D02*
X145150497Y-91600000D01*
X145150497Y-91600000D02*
X145200000Y-91550497D01*
X148600000Y-95691110D02*
X148600000Y-93800000D01*
%TO.N,GPIO23*%
X147300000Y-96100000D02*
X147300000Y-94928939D01*
X144025500Y-92249503D02*
X145150497Y-92249503D01*
X145150497Y-92249503D02*
X145200000Y-92200000D01*
X146500000Y-94128939D02*
X146500000Y-93800000D01*
X147300000Y-94928939D02*
X146500000Y-94128939D01*
%TO.N,GPIO19*%
X142092269Y-95549503D02*
X143400000Y-94241772D01*
X141600000Y-95549503D02*
X142092269Y-95549503D01*
X143400000Y-94241772D02*
X143400000Y-93900000D01*
%TO.N,U0RXD*%
X155700000Y-107400000D02*
X156130000Y-107830000D01*
X156100000Y-99576414D02*
X156074031Y-99602383D01*
X156074031Y-107025969D02*
X155700000Y-107400000D01*
X140900000Y-94300000D02*
X142400000Y-92800000D01*
X156074031Y-105000000D02*
X156074031Y-107025969D01*
X156130000Y-107830000D02*
X156130000Y-110900000D01*
X156074031Y-99602383D02*
X156074031Y-105000000D01*
X142400000Y-92800000D02*
X149323586Y-92800000D01*
X149323586Y-92800000D02*
X156100000Y-99576414D01*
X140900000Y-95500000D02*
X140900000Y-94300000D01*
D19*
%TO.N,Net-(D4-Pad1)*%
X154300000Y-89600000D02*
X154300000Y-87400000D01*
X154300000Y-87400000D02*
X152300000Y-85400000D01*
D21*
%TO.N,D+*%
X158710006Y-101121794D02*
X157700000Y-102131800D01*
X162100000Y-108000000D02*
X157700000Y-103600000D01*
X159352334Y-96150000D02*
X158710006Y-96792328D01*
X158710006Y-96792328D02*
X158710006Y-101121794D01*
X157700000Y-102131800D02*
X157700000Y-103600000D01*
X164000000Y-108000000D02*
X162100000Y-108000000D01*
%TO.N,D-*%
X159238731Y-96900000D02*
X159352334Y-96900000D01*
X160300000Y-105000000D02*
X158674500Y-103374500D01*
X159160006Y-96978725D02*
X159238731Y-96900000D01*
X164000000Y-105000000D02*
X160300000Y-105000000D01*
X158674500Y-101793700D02*
X159160006Y-101308194D01*
X158674500Y-103374500D02*
X158674500Y-101793700D01*
X159160006Y-101308194D02*
X159160006Y-96978725D01*
D20*
%TO.N,U0TXD*%
X155774511Y-99674511D02*
X155774511Y-105925489D01*
X142298097Y-93325489D02*
X149425489Y-93325489D01*
X154860000Y-107960000D02*
X154300000Y-107400000D01*
X141600000Y-94900000D02*
X141600000Y-94023586D01*
X141600000Y-94023586D02*
X142298097Y-93325489D01*
X149425489Y-93325489D02*
X155774511Y-99674511D01*
X154860000Y-110900000D02*
X154860000Y-107960000D01*
X155774511Y-105925489D02*
X154300000Y-107400000D01*
%TO.N,RTS*%
X140369028Y-105641753D02*
X152141753Y-105641753D01*
X153590000Y-110900000D02*
X153590000Y-107090000D01*
X140369028Y-105641753D02*
X140294609Y-105716172D01*
X152141753Y-105641753D02*
X152300000Y-105800000D01*
X153590000Y-107090000D02*
X152300000Y-105800000D01*
%TO.N,DTR*%
X155300000Y-105100000D02*
X140500000Y-105100000D01*
X157500000Y-109100000D02*
X157400000Y-109200000D01*
X157400000Y-109200000D02*
X157400000Y-110900000D01*
%TO.N,GPIO35*%
X135100000Y-102900000D02*
X135100000Y-105000000D01*
X139900000Y-109800000D02*
X151900000Y-109800000D01*
X135100000Y-105000000D02*
X139900000Y-109800000D01*
%TO.N,Net-(D1-Pad2)*%
X159400000Y-102200000D02*
X163800000Y-102200000D01*
X163800000Y-102200000D02*
X164000000Y-102000000D01*
%TD*%
%TA.AperFunction,Conductor*%
%TO.N,GND*%
G36*
X140134747Y-81017313D02*
G01*
X140160057Y-81061150D01*
X140151267Y-81111000D01*
X140126669Y-81136584D01*
X140100019Y-81153399D01*
X140096531Y-81157348D01*
X140096529Y-81157350D01*
X140093288Y-81161020D01*
X140014596Y-81250122D01*
X140012357Y-81254891D01*
X140012355Y-81254894D01*
X139984156Y-81314957D01*
X139959754Y-81366932D01*
X139939901Y-81494440D01*
X139940584Y-81499663D01*
X139940584Y-81499666D01*
X139941708Y-81508257D01*
X139956633Y-81622394D01*
X140008605Y-81740510D01*
X140091639Y-81839291D01*
X140199060Y-81910796D01*
X140204092Y-81912368D01*
X140204094Y-81912369D01*
X140239281Y-81923362D01*
X140322233Y-81949278D01*
X140327501Y-81949375D01*
X140327504Y-81949375D01*
X140381552Y-81950365D01*
X140451255Y-81951643D01*
X140456338Y-81950257D01*
X140456340Y-81950257D01*
X140570671Y-81919086D01*
X140575755Y-81917700D01*
X140685724Y-81850179D01*
X140772322Y-81754507D01*
X140828588Y-81638375D01*
X140849997Y-81511120D01*
X140850133Y-81500000D01*
X140831839Y-81372259D01*
X140808378Y-81320659D01*
X140780610Y-81259586D01*
X140780608Y-81259583D01*
X140778428Y-81254788D01*
X140771003Y-81246170D01*
X140697633Y-81161020D01*
X140697632Y-81161019D01*
X140694193Y-81157028D01*
X140689774Y-81154164D01*
X140689772Y-81154162D01*
X140661900Y-81136097D01*
X140631401Y-81095698D01*
X140634006Y-81045146D01*
X140668496Y-81008095D01*
X140702149Y-81000000D01*
X145092364Y-81000000D01*
X145097642Y-81000189D01*
X145374347Y-81019979D01*
X145384797Y-81021481D01*
X145653297Y-81079890D01*
X145663427Y-81082865D01*
X145768878Y-81122196D01*
X145920876Y-81178888D01*
X145930471Y-81183270D01*
X146171638Y-81314957D01*
X146180511Y-81320659D01*
X146384426Y-81473309D01*
X146400485Y-81485330D01*
X146408464Y-81492244D01*
X146602756Y-81686536D01*
X146609670Y-81694515D01*
X146774341Y-81914489D01*
X146780043Y-81923362D01*
X146911728Y-82164525D01*
X146916114Y-82174129D01*
X147012135Y-82431573D01*
X147015110Y-82441703D01*
X147073519Y-82710203D01*
X147075021Y-82720654D01*
X147094811Y-82997357D01*
X147095000Y-83002636D01*
X147095000Y-87197364D01*
X147094811Y-87202643D01*
X147075021Y-87479346D01*
X147073519Y-87489797D01*
X147015110Y-87758297D01*
X147012135Y-87768427D01*
X146936154Y-87972142D01*
X146916114Y-88025871D01*
X146911730Y-88035471D01*
X146803777Y-88233173D01*
X146780046Y-88276633D01*
X146774341Y-88285511D01*
X146662243Y-88435256D01*
X146609670Y-88505485D01*
X146602756Y-88513464D01*
X146408464Y-88707756D01*
X146400485Y-88714670D01*
X146180511Y-88879341D01*
X146171638Y-88885043D01*
X145930471Y-89016730D01*
X145920876Y-89021112D01*
X145768878Y-89077804D01*
X145663427Y-89117135D01*
X145653297Y-89120110D01*
X145384797Y-89178519D01*
X145374347Y-89180021D01*
X145097643Y-89199811D01*
X145092364Y-89200000D01*
X137397636Y-89200000D01*
X137392357Y-89199811D01*
X137115653Y-89180021D01*
X137105203Y-89178519D01*
X136836703Y-89120110D01*
X136826573Y-89117135D01*
X136721122Y-89077804D01*
X136569124Y-89021112D01*
X136559529Y-89016730D01*
X136318362Y-88885043D01*
X136309489Y-88879341D01*
X136089515Y-88714670D01*
X136081536Y-88707756D01*
X135887244Y-88513464D01*
X135880330Y-88505485D01*
X135827757Y-88435256D01*
X135715659Y-88285511D01*
X135709954Y-88276633D01*
X135686224Y-88233173D01*
X135610470Y-88094440D01*
X137739901Y-88094440D01*
X137740584Y-88099663D01*
X137740584Y-88099666D01*
X137741708Y-88108257D01*
X137756633Y-88222394D01*
X137808605Y-88340510D01*
X137891639Y-88439291D01*
X137999060Y-88510796D01*
X138004092Y-88512368D01*
X138004094Y-88512369D01*
X138039714Y-88523497D01*
X138122233Y-88549278D01*
X138127501Y-88549375D01*
X138127504Y-88549375D01*
X138181552Y-88550365D01*
X138251255Y-88551643D01*
X138256338Y-88550257D01*
X138256340Y-88550257D01*
X138370671Y-88519086D01*
X138375755Y-88517700D01*
X138485724Y-88450179D01*
X138572322Y-88354507D01*
X138628588Y-88238375D01*
X138649997Y-88111120D01*
X138650133Y-88100000D01*
X138631839Y-87972259D01*
X138578428Y-87854788D01*
X138571003Y-87846170D01*
X138497633Y-87761020D01*
X138497632Y-87761019D01*
X138494193Y-87757028D01*
X138489774Y-87754164D01*
X138489772Y-87754162D01*
X138390329Y-87689708D01*
X138390330Y-87689708D01*
X138385906Y-87686841D01*
X138380857Y-87685331D01*
X138380855Y-87685330D01*
X138267326Y-87651377D01*
X138267325Y-87651377D01*
X138262273Y-87649866D01*
X138196771Y-87649466D01*
X138138501Y-87649110D01*
X138138500Y-87649110D01*
X138133231Y-87649078D01*
X138009155Y-87684539D01*
X137900019Y-87753399D01*
X137896531Y-87757348D01*
X137896529Y-87757350D01*
X137860845Y-87797755D01*
X137814596Y-87850122D01*
X137812357Y-87854891D01*
X137812355Y-87854894D01*
X137768892Y-87947469D01*
X137759754Y-87966932D01*
X137739901Y-88094440D01*
X135610470Y-88094440D01*
X135578270Y-88035471D01*
X135573886Y-88025871D01*
X135553847Y-87972142D01*
X135477865Y-87768427D01*
X135474890Y-87758297D01*
X135416481Y-87489797D01*
X135414979Y-87479346D01*
X135395189Y-87202643D01*
X135395000Y-87197364D01*
X135395000Y-83002636D01*
X135395189Y-82997357D01*
X135414979Y-82720654D01*
X135416481Y-82710203D01*
X135474890Y-82441703D01*
X135477865Y-82431573D01*
X135573886Y-82174129D01*
X135578272Y-82164525D01*
X135709957Y-81923362D01*
X135715659Y-81914489D01*
X135880330Y-81694515D01*
X135887244Y-81686536D01*
X136081536Y-81492244D01*
X136089515Y-81485330D01*
X136105574Y-81473309D01*
X136309489Y-81320659D01*
X136318362Y-81314957D01*
X136559529Y-81183270D01*
X136569124Y-81178888D01*
X136721122Y-81122196D01*
X136826573Y-81082865D01*
X136836703Y-81079890D01*
X137105203Y-81021481D01*
X137115653Y-81019979D01*
X137392358Y-81000189D01*
X137397636Y-81000000D01*
X140087181Y-81000000D01*
X140134747Y-81017313D01*
G37*
%TD.AperFunction*%
%TD*%
%TA.AperFunction,Conductor*%
%TO.N,+3V3*%
G36*
X163995536Y-80600189D02*
G01*
X164272241Y-80619979D01*
X164282691Y-80621481D01*
X164551191Y-80679890D01*
X164561321Y-80682865D01*
X164666772Y-80722196D01*
X164818770Y-80778888D01*
X164828365Y-80783270D01*
X165069532Y-80914957D01*
X165078405Y-80920659D01*
X165282320Y-81073309D01*
X165298379Y-81085330D01*
X165306358Y-81092244D01*
X165500650Y-81286536D01*
X165507564Y-81294515D01*
X165672235Y-81514489D01*
X165677940Y-81523367D01*
X165809622Y-81764525D01*
X165814008Y-81774129D01*
X165838228Y-81839066D01*
X165842894Y-81864926D01*
X165842894Y-88135074D01*
X165838228Y-88160934D01*
X165814008Y-88225871D01*
X165809622Y-88235475D01*
X165677940Y-88476633D01*
X165672235Y-88485511D01*
X165646240Y-88520236D01*
X165633740Y-88536934D01*
X165591374Y-88564637D01*
X165541113Y-88558627D01*
X165506474Y-88521716D01*
X165500500Y-88492587D01*
X165500500Y-87135180D01*
X165491767Y-87091278D01*
X165458504Y-87041496D01*
X165408722Y-87008233D01*
X165401576Y-87006812D01*
X165401575Y-87006811D01*
X165368390Y-87000210D01*
X165368389Y-87000210D01*
X165364820Y-86999500D01*
X163835180Y-86999500D01*
X163831611Y-87000210D01*
X163831610Y-87000210D01*
X163798425Y-87006811D01*
X163798424Y-87006812D01*
X163791278Y-87008233D01*
X163741496Y-87041496D01*
X163708233Y-87091278D01*
X163699500Y-87135180D01*
X163699500Y-89164820D01*
X163708233Y-89208722D01*
X163741496Y-89258504D01*
X163747556Y-89262553D01*
X163747558Y-89262555D01*
X163750427Y-89264472D01*
X163780358Y-89305294D01*
X163777047Y-89355804D01*
X163742043Y-89392369D01*
X163709314Y-89400000D01*
X160890686Y-89400000D01*
X160843120Y-89382687D01*
X160817810Y-89338850D01*
X160826600Y-89289000D01*
X160849573Y-89264472D01*
X160852442Y-89262555D01*
X160852444Y-89262553D01*
X160858504Y-89258504D01*
X160891767Y-89208722D01*
X160900500Y-89164820D01*
X160900500Y-87135180D01*
X160891767Y-87091278D01*
X160858504Y-87041496D01*
X160808722Y-87008233D01*
X160801576Y-87006812D01*
X160801575Y-87006811D01*
X160768390Y-87000210D01*
X160768389Y-87000210D01*
X160764820Y-86999500D01*
X159235180Y-86999500D01*
X159231611Y-87000210D01*
X159231610Y-87000210D01*
X159198425Y-87006811D01*
X159198424Y-87006812D01*
X159191278Y-87008233D01*
X159141496Y-87041496D01*
X159108233Y-87091278D01*
X159099500Y-87135180D01*
X159099500Y-87800500D01*
X159082187Y-87848066D01*
X159038350Y-87873376D01*
X159025500Y-87874500D01*
X158821294Y-87874500D01*
X158773728Y-87857187D01*
X158748985Y-87816230D01*
X158721481Y-87689797D01*
X158719979Y-87679346D01*
X158700189Y-87402643D01*
X158700000Y-87397364D01*
X158700000Y-85000000D01*
X162544341Y-85000000D01*
X162564937Y-85235408D01*
X162626097Y-85463663D01*
X162627459Y-85466583D01*
X162627459Y-85466584D01*
X162724599Y-85674901D01*
X162724600Y-85674902D01*
X162725965Y-85677829D01*
X162861505Y-85871401D01*
X163028599Y-86038495D01*
X163222171Y-86174035D01*
X163225093Y-86175398D01*
X163225099Y-86175401D01*
X163433416Y-86272541D01*
X163436337Y-86273903D01*
X163439451Y-86274737D01*
X163439450Y-86274737D01*
X163661478Y-86334229D01*
X163661482Y-86334230D01*
X163664592Y-86335063D01*
X163841034Y-86350500D01*
X163958966Y-86350500D01*
X164135408Y-86335063D01*
X164138518Y-86334230D01*
X164138522Y-86334229D01*
X164360550Y-86274737D01*
X164360549Y-86274737D01*
X164363663Y-86273903D01*
X164366584Y-86272541D01*
X164574901Y-86175401D01*
X164574907Y-86175398D01*
X164577829Y-86174035D01*
X164771401Y-86038495D01*
X164938495Y-85871401D01*
X165074035Y-85677830D01*
X165075398Y-85674908D01*
X165075401Y-85674902D01*
X165172541Y-85466584D01*
X165172541Y-85466583D01*
X165173903Y-85463663D01*
X165235063Y-85235408D01*
X165255659Y-85000000D01*
X165235063Y-84764592D01*
X165173903Y-84536337D01*
X165172541Y-84533416D01*
X165075401Y-84325099D01*
X165075398Y-84325093D01*
X165074035Y-84322171D01*
X164938495Y-84128599D01*
X164771401Y-83961505D01*
X164577829Y-83825965D01*
X164574907Y-83824602D01*
X164574901Y-83824599D01*
X164366584Y-83727459D01*
X164366583Y-83727459D01*
X164363663Y-83726097D01*
X164309104Y-83711478D01*
X164138522Y-83665771D01*
X164138518Y-83665770D01*
X164135408Y-83664937D01*
X163958966Y-83649500D01*
X163841034Y-83649500D01*
X163664592Y-83664937D01*
X163661482Y-83665770D01*
X163661478Y-83665771D01*
X163490896Y-83711478D01*
X163436337Y-83726097D01*
X163433417Y-83727459D01*
X163433416Y-83727459D01*
X163225099Y-83824599D01*
X163225093Y-83824602D01*
X163222171Y-83825965D01*
X163028599Y-83961505D01*
X162861505Y-84128599D01*
X162725965Y-84322170D01*
X162724602Y-84325092D01*
X162724599Y-84325098D01*
X162724599Y-84325099D01*
X162626097Y-84536337D01*
X162564937Y-84764592D01*
X162544341Y-85000000D01*
X158700000Y-85000000D01*
X158700000Y-82602636D01*
X158700189Y-82597357D01*
X158719979Y-82320654D01*
X158721481Y-82310203D01*
X158779890Y-82041703D01*
X158782865Y-82031573D01*
X158878886Y-81774129D01*
X158883272Y-81764525D01*
X159014954Y-81523367D01*
X159020659Y-81514489D01*
X159185330Y-81294515D01*
X159192244Y-81286536D01*
X159386536Y-81092244D01*
X159394515Y-81085330D01*
X159410574Y-81073309D01*
X159614489Y-80920659D01*
X159623362Y-80914957D01*
X159864529Y-80783270D01*
X159874124Y-80778888D01*
X160026122Y-80722196D01*
X160131573Y-80682865D01*
X160141703Y-80679890D01*
X160410203Y-80621481D01*
X160420653Y-80619979D01*
X160697358Y-80600189D01*
X160702636Y-80600000D01*
X163990258Y-80600000D01*
X163995536Y-80600189D01*
G37*
%TD.AperFunction*%
%TD*%
M02*
